<?xml version="1.0" encoding="utf-8" standalone="no"?>
<!DOCTYPE svg PUBLIC "-//W3C//DTD SVG 1.1//EN"
  "http://www.w3.org/Graphics/SVG/1.1/DTD/svg11.dtd">
<svg xmlns:xlink="http://www.w3.org/1999/xlink" width="576pt" height="288pt" viewBox="0 0 576 288" xmlns="http://www.w3.org/2000/svg" version="1.1">
 <metadata>
  <rdf:RDF xmlns:dc="http://purl.org/dc/elements/1.1/" xmlns:cc="http://creativecommons.org/ns#" xmlns:rdf="http://www.w3.org/1999/02/22-rdf-syntax-ns#">
   <cc:Work>
    <dc:type rdf:resource="http://purl.org/dc/dcmitype/StillImage"/>
    <dc:date>2023-06-15T10:45:46.178667</dc:date>
    <dc:format>image/svg+xml</dc:format>
    <dc:creator>
     <cc:Agent>
      <dc:title>Matplotlib v3.7.1, https://matplotlib.org/</dc:title>
     </cc:Agent>
    </dc:creator>
   </cc:Work>
  </rdf:RDF>
 </metadata>
 <defs>
  <style type="text/css">*{stroke-linejoin: round; stroke-linecap: butt}</style>
 </defs>
 <g id="figure_1">
  <g id="patch_1">
   <path d="M 0 288 
L 576 288 
L 576 0 
L 0 0 
z
" style="fill: #ffffff"/>
  </g>
  <g id="axes_1">
   <g id="patch_2">
    <path d="M 47.961178 254.64351 
L 572.99976 254.64351 
L 572.99976 3.00024 
L 47.961178 3.00024 
z
" style="fill: #ffffff"/>
   </g>
   <g id="matplotlib.axis_1">
    <g id="xtick_1">
     <g id="line2d_1">
      <defs>
       <path id="m2c75691757" d="M 0 0 
L 0 3.5 
" style="stroke: #000000; stroke-width: 0.8"/>
      </defs>
      <g>
       <use xlink:href="#m2c75691757" x="71.506587" y="254.64351" style="stroke: #000000; stroke-width: 0.8"/>
      </g>
     </g>
     <g id="text_1">
      <!-- 0 -->
      <g transform="translate(68.325337 269.241947) scale(0.1 -0.1)">
       <defs>
        <path id="DejaVuSans-30" d="M 2034 4250 
Q 1547 4250 1301 3770 
Q 1056 3291 1056 2328 
Q 1056 1369 1301 889 
Q 1547 409 2034 409 
Q 2525 409 2770 889 
Q 3016 1369 3016 2328 
Q 3016 3291 2770 3770 
Q 2525 4250 2034 4250 
z
M 2034 4750 
Q 2819 4750 3233 4129 
Q 3647 3509 3647 2328 
Q 3647 1150 3233 529 
Q 2819 -91 2034 -91 
Q 1250 -91 836 529 
Q 422 1150 422 2328 
Q 422 3509 836 4129 
Q 1250 4750 2034 4750 
z
" transform="scale(0.015625)"/>
       </defs>
       <use xlink:href="#DejaVuSans-30"/>
      </g>
     </g>
    </g>
    <g id="xtick_2">
     <g id="line2d_2">
      <g>
       <use xlink:href="#m2c75691757" x="178.166857" y="254.64351" style="stroke: #000000; stroke-width: 0.8"/>
      </g>
     </g>
     <g id="text_2">
      <!-- 2000 -->
      <g transform="translate(165.441857 269.241947) scale(0.1 -0.1)">
       <defs>
        <path id="DejaVuSans-32" d="M 1228 531 
L 3431 531 
L 3431 0 
L 469 0 
L 469 531 
Q 828 903 1448 1529 
Q 2069 2156 2228 2338 
Q 2531 2678 2651 2914 
Q 2772 3150 2772 3378 
Q 2772 3750 2511 3984 
Q 2250 4219 1831 4219 
Q 1534 4219 1204 4116 
Q 875 4013 500 3803 
L 500 4441 
Q 881 4594 1212 4672 
Q 1544 4750 1819 4750 
Q 2544 4750 2975 4387 
Q 3406 4025 3406 3419 
Q 3406 3131 3298 2873 
Q 3191 2616 2906 2266 
Q 2828 2175 2409 1742 
Q 1991 1309 1228 531 
z
" transform="scale(0.015625)"/>
       </defs>
       <use xlink:href="#DejaVuSans-32"/>
       <use xlink:href="#DejaVuSans-30" x="63.623047"/>
       <use xlink:href="#DejaVuSans-30" x="127.246094"/>
       <use xlink:href="#DejaVuSans-30" x="190.869141"/>
      </g>
     </g>
    </g>
    <g id="xtick_3">
     <g id="line2d_3">
      <g>
       <use xlink:href="#m2c75691757" x="284.827127" y="254.64351" style="stroke: #000000; stroke-width: 0.8"/>
      </g>
     </g>
     <g id="text_3">
      <!-- 4000 -->
      <g transform="translate(272.102127 269.241947) scale(0.1 -0.1)">
       <defs>
        <path id="DejaVuSans-34" d="M 2419 4116 
L 825 1625 
L 2419 1625 
L 2419 4116 
z
M 2253 4666 
L 3047 4666 
L 3047 1625 
L 3713 1625 
L 3713 1100 
L 3047 1100 
L 3047 0 
L 2419 0 
L 2419 1100 
L 313 1100 
L 313 1709 
L 2253 4666 
z
" transform="scale(0.015625)"/>
       </defs>
       <use xlink:href="#DejaVuSans-34"/>
       <use xlink:href="#DejaVuSans-30" x="63.623047"/>
       <use xlink:href="#DejaVuSans-30" x="127.246094"/>
       <use xlink:href="#DejaVuSans-30" x="190.869141"/>
      </g>
     </g>
    </g>
    <g id="xtick_4">
     <g id="line2d_4">
      <g>
       <use xlink:href="#m2c75691757" x="391.487397" y="254.64351" style="stroke: #000000; stroke-width: 0.8"/>
      </g>
     </g>
     <g id="text_4">
      <!-- 6000 -->
      <g transform="translate(378.762397 269.241947) scale(0.1 -0.1)">
       <defs>
        <path id="DejaVuSans-36" d="M 2113 2584 
Q 1688 2584 1439 2293 
Q 1191 2003 1191 1497 
Q 1191 994 1439 701 
Q 1688 409 2113 409 
Q 2538 409 2786 701 
Q 3034 994 3034 1497 
Q 3034 2003 2786 2293 
Q 2538 2584 2113 2584 
z
M 3366 4563 
L 3366 3988 
Q 3128 4100 2886 4159 
Q 2644 4219 2406 4219 
Q 1781 4219 1451 3797 
Q 1122 3375 1075 2522 
Q 1259 2794 1537 2939 
Q 1816 3084 2150 3084 
Q 2853 3084 3261 2657 
Q 3669 2231 3669 1497 
Q 3669 778 3244 343 
Q 2819 -91 2113 -91 
Q 1303 -91 875 529 
Q 447 1150 447 2328 
Q 447 3434 972 4092 
Q 1497 4750 2381 4750 
Q 2619 4750 2861 4703 
Q 3103 4656 3366 4563 
z
" transform="scale(0.015625)"/>
       </defs>
       <use xlink:href="#DejaVuSans-36"/>
       <use xlink:href="#DejaVuSans-30" x="63.623047"/>
       <use xlink:href="#DejaVuSans-30" x="127.246094"/>
       <use xlink:href="#DejaVuSans-30" x="190.869141"/>
      </g>
     </g>
    </g>
    <g id="xtick_5">
     <g id="line2d_5">
      <g>
       <use xlink:href="#m2c75691757" x="498.147668" y="254.64351" style="stroke: #000000; stroke-width: 0.8"/>
      </g>
     </g>
     <g id="text_5">
      <!-- 8000 -->
      <g transform="translate(485.422668 269.241947) scale(0.1 -0.1)">
       <defs>
        <path id="DejaVuSans-38" d="M 2034 2216 
Q 1584 2216 1326 1975 
Q 1069 1734 1069 1313 
Q 1069 891 1326 650 
Q 1584 409 2034 409 
Q 2484 409 2743 651 
Q 3003 894 3003 1313 
Q 3003 1734 2745 1975 
Q 2488 2216 2034 2216 
z
M 1403 2484 
Q 997 2584 770 2862 
Q 544 3141 544 3541 
Q 544 4100 942 4425 
Q 1341 4750 2034 4750 
Q 2731 4750 3128 4425 
Q 3525 4100 3525 3541 
Q 3525 3141 3298 2862 
Q 3072 2584 2669 2484 
Q 3125 2378 3379 2068 
Q 3634 1759 3634 1313 
Q 3634 634 3220 271 
Q 2806 -91 2034 -91 
Q 1263 -91 848 271 
Q 434 634 434 1313 
Q 434 1759 690 2068 
Q 947 2378 1403 2484 
z
M 1172 3481 
Q 1172 3119 1398 2916 
Q 1625 2713 2034 2713 
Q 2441 2713 2670 2916 
Q 2900 3119 2900 3481 
Q 2900 3844 2670 4047 
Q 2441 4250 2034 4250 
Q 1625 4250 1398 4047 
Q 1172 3844 1172 3481 
z
" transform="scale(0.015625)"/>
       </defs>
       <use xlink:href="#DejaVuSans-38"/>
       <use xlink:href="#DejaVuSans-30" x="63.623047"/>
       <use xlink:href="#DejaVuSans-30" x="127.246094"/>
       <use xlink:href="#DejaVuSans-30" x="190.869141"/>
      </g>
     </g>
    </g>
    <g id="text_6">
     <!-- time [s] -->
     <g transform="translate(291.089063 282.920073) scale(0.1 -0.1)">
      <defs>
       <path id="DejaVuSans-74" d="M 1172 4494 
L 1172 3500 
L 2356 3500 
L 2356 3053 
L 1172 3053 
L 1172 1153 
Q 1172 725 1289 603 
Q 1406 481 1766 481 
L 2356 481 
L 2356 0 
L 1766 0 
Q 1100 0 847 248 
Q 594 497 594 1153 
L 594 3053 
L 172 3053 
L 172 3500 
L 594 3500 
L 594 4494 
L 1172 4494 
z
" transform="scale(0.015625)"/>
       <path id="DejaVuSans-69" d="M 603 3500 
L 1178 3500 
L 1178 0 
L 603 0 
L 603 3500 
z
M 603 4863 
L 1178 4863 
L 1178 4134 
L 603 4134 
L 603 4863 
z
" transform="scale(0.015625)"/>
       <path id="DejaVuSans-6d" d="M 3328 2828 
Q 3544 3216 3844 3400 
Q 4144 3584 4550 3584 
Q 5097 3584 5394 3201 
Q 5691 2819 5691 2113 
L 5691 0 
L 5113 0 
L 5113 2094 
Q 5113 2597 4934 2840 
Q 4756 3084 4391 3084 
Q 3944 3084 3684 2787 
Q 3425 2491 3425 1978 
L 3425 0 
L 2847 0 
L 2847 2094 
Q 2847 2600 2669 2842 
Q 2491 3084 2119 3084 
Q 1678 3084 1418 2786 
Q 1159 2488 1159 1978 
L 1159 0 
L 581 0 
L 581 3500 
L 1159 3500 
L 1159 2956 
Q 1356 3278 1631 3431 
Q 1906 3584 2284 3584 
Q 2666 3584 2933 3390 
Q 3200 3197 3328 2828 
z
" transform="scale(0.015625)"/>
       <path id="DejaVuSans-65" d="M 3597 1894 
L 3597 1613 
L 953 1613 
Q 991 1019 1311 708 
Q 1631 397 2203 397 
Q 2534 397 2845 478 
Q 3156 559 3463 722 
L 3463 178 
Q 3153 47 2828 -22 
Q 2503 -91 2169 -91 
Q 1331 -91 842 396 
Q 353 884 353 1716 
Q 353 2575 817 3079 
Q 1281 3584 2069 3584 
Q 2775 3584 3186 3129 
Q 3597 2675 3597 1894 
z
M 3022 2063 
Q 3016 2534 2758 2815 
Q 2500 3097 2075 3097 
Q 1594 3097 1305 2825 
Q 1016 2553 972 2059 
L 3022 2063 
z
" transform="scale(0.015625)"/>
       <path id="DejaVuSans-20" transform="scale(0.015625)"/>
       <path id="DejaVuSans-5b" d="M 550 4863 
L 1875 4863 
L 1875 4416 
L 1125 4416 
L 1125 -397 
L 1875 -397 
L 1875 -844 
L 550 -844 
L 550 4863 
z
" transform="scale(0.015625)"/>
       <path id="DejaVuSans-73" d="M 2834 3397 
L 2834 2853 
Q 2591 2978 2328 3040 
Q 2066 3103 1784 3103 
Q 1356 3103 1142 2972 
Q 928 2841 928 2578 
Q 928 2378 1081 2264 
Q 1234 2150 1697 2047 
L 1894 2003 
Q 2506 1872 2764 1633 
Q 3022 1394 3022 966 
Q 3022 478 2636 193 
Q 2250 -91 1575 -91 
Q 1294 -91 989 -36 
Q 684 19 347 128 
L 347 722 
Q 666 556 975 473 
Q 1284 391 1588 391 
Q 1994 391 2212 530 
Q 2431 669 2431 922 
Q 2431 1156 2273 1281 
Q 2116 1406 1581 1522 
L 1381 1569 
Q 847 1681 609 1914 
Q 372 2147 372 2553 
Q 372 3047 722 3315 
Q 1072 3584 1716 3584 
Q 2034 3584 2315 3537 
Q 2597 3491 2834 3397 
z
" transform="scale(0.015625)"/>
       <path id="DejaVuSans-5d" d="M 1947 4863 
L 1947 -844 
L 622 -844 
L 622 -397 
L 1369 -397 
L 1369 4416 
L 622 4416 
L 622 4863 
L 1947 4863 
z
" transform="scale(0.015625)"/>
      </defs>
      <use xlink:href="#DejaVuSans-74"/>
      <use xlink:href="#DejaVuSans-69" x="39.208984"/>
      <use xlink:href="#DejaVuSans-6d" x="66.992188"/>
      <use xlink:href="#DejaVuSans-65" x="164.404297"/>
      <use xlink:href="#DejaVuSans-20" x="225.927734"/>
      <use xlink:href="#DejaVuSans-5b" x="257.714844"/>
      <use xlink:href="#DejaVuSans-73" x="296.728516"/>
      <use xlink:href="#DejaVuSans-5d" x="348.828125"/>
     </g>
    </g>
   </g>
   <g id="matplotlib.axis_2">
    <g id="ytick_1">
     <g id="line2d_6">
      <defs>
       <path id="me9727c1e45" d="M 0 0 
L -3.5 0 
" style="stroke: #000000; stroke-width: 0.8"/>
      </defs>
      <g>
       <use xlink:href="#me9727c1e45" x="47.961178" y="237.252761" style="stroke: #000000; stroke-width: 0.8"/>
      </g>
     </g>
     <g id="text_7">
      <!-- −0.4 -->
      <g transform="translate(16.678365 241.05198) scale(0.1 -0.1)">
       <defs>
        <path id="DejaVuSans-2212" d="M 678 2272 
L 4684 2272 
L 4684 1741 
L 678 1741 
L 678 2272 
z
" transform="scale(0.015625)"/>
        <path id="DejaVuSans-2e" d="M 684 794 
L 1344 794 
L 1344 0 
L 684 0 
L 684 794 
z
" transform="scale(0.015625)"/>
       </defs>
       <use xlink:href="#DejaVuSans-2212"/>
       <use xlink:href="#DejaVuSans-30" x="83.789062"/>
       <use xlink:href="#DejaVuSans-2e" x="147.412109"/>
       <use xlink:href="#DejaVuSans-34" x="179.199219"/>
      </g>
     </g>
    </g>
    <g id="ytick_2">
     <g id="line2d_7">
      <g>
       <use xlink:href="#me9727c1e45" x="47.961178" y="202.471951" style="stroke: #000000; stroke-width: 0.8"/>
      </g>
     </g>
     <g id="text_8">
      <!-- −0.3 -->
      <g transform="translate(16.678365 206.27117) scale(0.1 -0.1)">
       <defs>
        <path id="DejaVuSans-33" d="M 2597 2516 
Q 3050 2419 3304 2112 
Q 3559 1806 3559 1356 
Q 3559 666 3084 287 
Q 2609 -91 1734 -91 
Q 1441 -91 1130 -33 
Q 819 25 488 141 
L 488 750 
Q 750 597 1062 519 
Q 1375 441 1716 441 
Q 2309 441 2620 675 
Q 2931 909 2931 1356 
Q 2931 1769 2642 2001 
Q 2353 2234 1838 2234 
L 1294 2234 
L 1294 2753 
L 1863 2753 
Q 2328 2753 2575 2939 
Q 2822 3125 2822 3475 
Q 2822 3834 2567 4026 
Q 2313 4219 1838 4219 
Q 1578 4219 1281 4162 
Q 984 4106 628 3988 
L 628 4550 
Q 988 4650 1302 4700 
Q 1616 4750 1894 4750 
Q 2613 4750 3031 4423 
Q 3450 4097 3450 3541 
Q 3450 3153 3228 2886 
Q 3006 2619 2597 2516 
z
" transform="scale(0.015625)"/>
       </defs>
       <use xlink:href="#DejaVuSans-2212"/>
       <use xlink:href="#DejaVuSans-30" x="83.789062"/>
       <use xlink:href="#DejaVuSans-2e" x="147.412109"/>
       <use xlink:href="#DejaVuSans-33" x="179.199219"/>
      </g>
     </g>
    </g>
    <g id="ytick_3">
     <g id="line2d_8">
      <g>
       <use xlink:href="#me9727c1e45" x="47.961178" y="167.691141" style="stroke: #000000; stroke-width: 0.8"/>
      </g>
     </g>
     <g id="text_9">
      <!-- −0.2 -->
      <g transform="translate(16.678365 171.49036) scale(0.1 -0.1)">
       <use xlink:href="#DejaVuSans-2212"/>
       <use xlink:href="#DejaVuSans-30" x="83.789062"/>
       <use xlink:href="#DejaVuSans-2e" x="147.412109"/>
       <use xlink:href="#DejaVuSans-32" x="179.199219"/>
      </g>
     </g>
    </g>
    <g id="ytick_4">
     <g id="line2d_9">
      <g>
       <use xlink:href="#me9727c1e45" x="47.961178" y="132.910331" style="stroke: #000000; stroke-width: 0.8"/>
      </g>
     </g>
     <g id="text_10">
      <!-- −0.1 -->
      <g transform="translate(16.678365 136.70955) scale(0.1 -0.1)">
       <defs>
        <path id="DejaVuSans-31" d="M 794 531 
L 1825 531 
L 1825 4091 
L 703 3866 
L 703 4441 
L 1819 4666 
L 2450 4666 
L 2450 531 
L 3481 531 
L 3481 0 
L 794 0 
L 794 531 
z
" transform="scale(0.015625)"/>
       </defs>
       <use xlink:href="#DejaVuSans-2212"/>
       <use xlink:href="#DejaVuSans-30" x="83.789062"/>
       <use xlink:href="#DejaVuSans-2e" x="147.412109"/>
       <use xlink:href="#DejaVuSans-31" x="179.199219"/>
      </g>
     </g>
    </g>
    <g id="ytick_5">
     <g id="line2d_10">
      <g>
       <use xlink:href="#me9727c1e45" x="47.961178" y="98.129521" style="stroke: #000000; stroke-width: 0.8"/>
      </g>
     </g>
     <g id="text_11">
      <!-- 0.0 -->
      <g transform="translate(25.058053 101.928739) scale(0.1 -0.1)">
       <use xlink:href="#DejaVuSans-30"/>
       <use xlink:href="#DejaVuSans-2e" x="63.623047"/>
       <use xlink:href="#DejaVuSans-30" x="95.410156"/>
      </g>
     </g>
    </g>
    <g id="ytick_6">
     <g id="line2d_11">
      <g>
       <use xlink:href="#me9727c1e45" x="47.961178" y="63.348711" style="stroke: #000000; stroke-width: 0.8"/>
      </g>
     </g>
     <g id="text_12">
      <!-- 0.1 -->
      <g transform="translate(25.058053 67.147929) scale(0.1 -0.1)">
       <use xlink:href="#DejaVuSans-30"/>
       <use xlink:href="#DejaVuSans-2e" x="63.623047"/>
       <use xlink:href="#DejaVuSans-31" x="95.410156"/>
      </g>
     </g>
    </g>
    <g id="ytick_7">
     <g id="line2d_12">
      <g>
       <use xlink:href="#me9727c1e45" x="47.961178" y="28.567901" style="stroke: #000000; stroke-width: 0.8"/>
      </g>
     </g>
     <g id="text_13">
      <!-- 0.2 -->
      <g transform="translate(25.058053 32.367119) scale(0.1 -0.1)">
       <use xlink:href="#DejaVuSans-30"/>
       <use xlink:href="#DejaVuSans-2e" x="63.623047"/>
       <use xlink:href="#DejaVuSans-32" x="95.410156"/>
      </g>
     </g>
    </g>
    <g id="text_14">
     <!-- sentiment -->
     <g transform="translate(10.598678 154.096875) rotate(-90) scale(0.1 -0.1)">
      <defs>
       <path id="DejaVuSans-6e" d="M 3513 2113 
L 3513 0 
L 2938 0 
L 2938 2094 
Q 2938 2591 2744 2837 
Q 2550 3084 2163 3084 
Q 1697 3084 1428 2787 
Q 1159 2491 1159 1978 
L 1159 0 
L 581 0 
L 581 3500 
L 1159 3500 
L 1159 2956 
Q 1366 3272 1645 3428 
Q 1925 3584 2291 3584 
Q 2894 3584 3203 3211 
Q 3513 2838 3513 2113 
z
" transform="scale(0.015625)"/>
      </defs>
      <use xlink:href="#DejaVuSans-73"/>
      <use xlink:href="#DejaVuSans-65" x="52.099609"/>
      <use xlink:href="#DejaVuSans-6e" x="113.623047"/>
      <use xlink:href="#DejaVuSans-74" x="177.001953"/>
      <use xlink:href="#DejaVuSans-69" x="216.210938"/>
      <use xlink:href="#DejaVuSans-6d" x="243.994141"/>
      <use xlink:href="#DejaVuSans-65" x="341.40625"/>
      <use xlink:href="#DejaVuSans-6e" x="402.929688"/>
      <use xlink:href="#DejaVuSans-74" x="466.308594"/>
     </g>
    </g>
   </g>
   <g id="line2d_13">
    <path d="M 71.826568 165.48767 
L 72.874878 163.975335 
L 73.058387 163.180904 
L 73.315865 161.493728 
L 73.717281 159.9119 
L 73.837967 157.712408 
L 74.138162 156.68819 
L 74.308712 157.591883 
L 75.014163 158.532889 
L 75.234363 159.344519 
L 75.453923 160.686163 
L 76.024503 162.439125 
L 76.192972 162.108322 
L 77.721201 162.37719 
L 77.862419 161.84673 
L 78.082406 161.724527 
L 78.475769 161.261251 
L 78.62232 160.315583 
L 78.934355 161.413951 
L 79.098771 162.470257 
L 79.468243 162.216813 
L 79.68567 160.872515 
L 80.118444 159.326531 
L 80.61756 152.745622 
L 80.901437 147.349758 
L 81.066973 146.389083 
L 81.267015 146.247957 
L 81.418846 145.850639 
L 81.538465 145.203382 
L 81.945961 148.492742 
L 82.145949 148.351179 
L 82.703729 145.63754 
L 83.418619 152.946113 
L 83.799716 152.835395 
L 84.189986 154.054438 
L 84.799656 156.868992 
L 85.108598 153.386026 
L 85.868286 149.699775 
L 86.107365 147.69171 
L 86.364949 146.858371 
L 86.875532 140.730494 
L 87.23727 134.195339 
L 87.977172 131.323991 
L 88.233104 132.12908 
L 88.563217 135.416496 
L 88.712915 139.923134 
L 89.227817 144.542585 
L 89.543692 150.109041 
L 89.817329 150.700984 
L 90.62208 153.70514 
L 90.882491 156.320747 
L 91.369662 158.191582 
L 91.882592 157.577272 
L 92.210359 154.425911 
L 92.861733 155.998697 
L 93.321279 156.294027 
L 93.964547 151.081893 
L 94.510221 149.115505 
L 95.313906 147.171729 
L 95.796063 147.609052 
L 96.130977 147.568099 
L 96.24489 150.062379 
L 96.649879 152.683273 
L 96.849067 155.319041 
L 97.001218 155.043383 
L 97.280988 153.279953 
L 97.511161 152.839963 
L 97.889911 151.517426 
L 98.078807 148.733025 
L 98.413347 148.333557 
L 98.499795 148.459165 
L 98.707302 149.745069 
L 99.032989 150.150684 
L 99.24247 149.584359 
L 99.683617 149.065647 
L 100.018317 151.87065 
L 100.24401 151.036976 
L 100.382828 148.744333 
L 100.458024 150.821444 
L 100.904984 152.144113 
L 101.089719 153.423514 
L 101.485802 151.434865 
L 102.030196 155.182033 
L 102.287834 155.86127 
L 102.36159 154.398617 
L 102.591656 154.006785 
L 103.020644 154.670903 
L 103.118878 154.705806 
L 103.359557 154.551332 
L 103.603862 154.541398 
L 103.979146 155.852783 
L 104.434852 160.302717 
L 104.693823 161.133633 
L 105.211446 167.33362 
L 105.769332 174.04739 
L 106.263329 176.297425 
L 106.742607 182.67759 
L 107.211752 181.446543 
L 108.458984 165.622581 
L 108.668625 162.483663 
L 108.91933 160.539285 
L 109.110092 160.359064 
L 109.324905 159.790834 
L 109.526547 159.624617 
L 109.790584 160.2467 
L 109.959694 159.80596 
L 110.322606 156.880409 
L 110.490382 156.909594 
L 111.052589 163.579029 
L 111.290601 164.116362 
L 111.935629 166.801652 
L 112.357684 169.647927 
L 113.68955 172.324637 
L 113.843781 172.313173 
L 113.994012 171.50533 
L 116.452638 171.929815 
L 116.681104 171.545971 
L 117.205766 172.752129 
L 117.460951 173.082047 
L 117.585637 171.629642 
L 118.313273 169.425418 
L 118.557472 169.640935 
L 118.790791 169.672678 
L 118.91297 169.810318 
L 119.176581 169.744552 
L 119.461631 169.471169 
L 119.826622 169.878794 
L 120.356671 173.141596 
L 120.5293 173.24379 
L 120.780752 173.139767 
L 121.25347 174.966197 
L 122.122858 181.508804 
L 122.264769 181.231604 
L 122.747834 181.739609 
L 123.021097 181.28224 
L 123.946215 162.793966 
L 124.209933 162.746991 
L 125.011751 158.584999 
L 125.275309 158.16921 
L 125.456151 159.392354 
L 125.625581 161.433794 
L 125.832822 162.24594 
L 126.315193 168.643869 
L 127.107786 171.983825 
L 127.607809 172.705184 
L 128.009278 174.034441 
L 131.300761 174.314378 
L 132.741635 174.86369 
L 135.781026 173.578602 
L 136.177695 171.414506 
L 136.494476 167.201313 
L 138.080034 164.347262 
L 138.224132 163.079039 
L 138.552433 161.658094 
L 139.344012 161.356881 
L 139.804571 153.790145 
L 139.958055 149.453219 
L 140.664999 146.938536 
L 141.274989 147.281817 
L 141.581478 143.349542 
L 141.838049 143.356705 
L 145.32632 146.545554 
L 145.438153 145.692013 
L 145.722296 145.679097 
L 145.969535 144.765323 
L 146.181255 144.859177 
L 147.913951 147.392013 
L 148.228972 148.313022 
L 149.045297 148.836408 
L 149.276003 148.450948 
L 149.521962 147.186607 
L 149.714483 145.086063 
L 149.87762 144.989672 
L 150.461745 139.218506 
L 150.965662 133.73528 
L 151.135731 133.307123 
L 151.358598 134.024483 
L 151.543174 133.793773 
L 151.711164 133.927176 
L 151.976108 132.216249 
L 152.067569 129.921757 
L 152.445999 127.10068 
L 152.742248 127.420667 
L 152.941116 127.891391 
L 153.151131 128.900603 
L 153.398902 127.421621 
L 153.955402 122.459281 
L 154.33346 125.322677 
L 154.727836 123.996029 
L 155.008886 122.149973 
L 155.199221 123.97447 
L 155.337399 126.727218 
L 155.535628 126.979945 
L 155.986161 124.605902 
L 156.348112 123.441053 
L 156.558126 121.865461 
L 157.080388 125.307576 
L 157.416581 131.729546 
L 157.71635 132.309581 
L 158.000973 132.379861 
L 158.245758 132.059183 
L 158.519182 133.791459 
L 158.659867 133.811848 
L 159.295135 133.580262 
L 159.533894 132.434132 
L 160.05653 124.542359 
L 160.454533 122.647386 
L 160.742409 123.436539 
L 161.299282 119.011043 
L 161.819837 118.281801 
L 162.027878 118.325463 
L 162.289356 116.66479 
L 162.464545 116.868745 
L 162.537661 115.01594 
L 163.146371 112.903764 
L 163.356705 112.770613 
L 163.685539 111.963962 
L 163.902699 112.136639 
L 164.134899 111.234398 
L 164.202201 109.130396 
L 164.490237 106.357318 
L 164.973675 104.163066 
L 165.222247 104.490808 
L 165.432367 104.156449 
L 165.649794 102.876019 
L 166.359778 96.616611 
L 166.658534 100.167482 
L 166.973928 100.620335 
L 167.214021 100.459868 
L 167.644288 91.656641 
L 168.137058 86.880945 
L 168.681666 85.052228 
L 168.904746 85.0705 
L 169.119026 84.692115 
L 169.44498 83.279501 
L 169.650514 83.824023 
L 170.475052 75.624453 
L 170.848576 72.97739 
L 171.140718 72.877357 
L 171.829477 67.129443 
L 172.031865 66.33702 
L 172.249505 66.067221 
L 172.423095 66.172508 
L 172.543034 67.615699 
L 172.718224 68.097235 
L 172.932344 69.296963 
L 173.650168 78.595258 
L 173.812985 78.438269 
L 173.976602 77.831501 
L 174.06705 79.811697 
L 174.412735 80.619148 
L 174.616083 81.06934 
L 175.401583 77.641445 
L 175.5604 77.815743 
L 175.814731 77.863385 
L 176.135405 76.687284 
L 176.359445 76.443949 
L 176.759261 76.42433 
L 177.119346 72.266558 
L 177.883674 67.908302 
L 178.092835 64.411898 
L 178.364498 62.34696 
L 178.45468 63.97576 
L 178.688639 64.733145 
L 178.930491 64.465411 
L 179.141039 63.391512 
L 179.321774 61.600301 
L 179.760148 54.446532 
L 180.284117 53.873722 
L 180.713958 52.407497 
L 181.154305 49.641402 
L 181.22454 48.098717 
L 181.483511 46.627322 
L 181.856822 46.290221 
L 182.215681 41.37024 
L 182.592085 39.86495 
L 182.734316 38.428889 
L 182.989074 37.733758 
L 183.836917 40.456 
L 184.486158 40.126427 
L 184.84315 39.663213 
L 185.06975 39.861522 
L 185.421409 43.597098 
L 185.659848 44.511404 
L 185.886074 44.522529 
L 186.254852 46.315045 
L 186.445987 45.661703 
L 186.885801 45.079282 
L 187.371158 45.31416 
L 188.01704 44.390251 
L 188.72489 42.507711 
L 189.34704 35.459863 
L 189.965189 32.86873 
L 190.33754 31.533032 
L 190.96001 26.423736 
L 191.432355 24.702131 
L 191.660714 24.325299 
L 191.923205 24.205605 
L 192.150712 26.555508 
L 192.482798 32.699478 
L 192.800646 34.261029 
L 193.144199 33.905991 
L 193.415489 31.823002 
L 193.5622 28.650542 
L 193.74283 28.47964 
L 194.005161 29.008354 
L 194.245306 30.201969 
L 195.520643 35.311823 
L 195.843184 37.548385 
L 196.135219 40.522848 
L 196.389124 41.598096 
L 196.439415 43.700892 
L 196.668041 42.66082 
L 197.648195 28.902149 
L 197.872662 27.396175 
L 198.335247 27.350398 
L 198.595765 27.914033 
L 198.807752 30.909466 
L 199.201489 33.736804 
L 200.225641 37.321458 
L 200.378058 41.245069 
L 200.876908 44.290531 
L 201.146386 47.008722 
L 201.479486 45.906243 
L 201.744803 45.747707 
L 201.915833 47.507298 
L 202.731624 47.026863 
L 202.951717 47.198865 
L 203.180184 50.251933 
L 203.459474 52.276963 
L 203.708152 52.886086 
L 204.612471 54.523952 
L 204.898427 59.04067 
L 205.163478 60.896898 
L 206.152859 71.037057 
L 206.474386 74.815383 
L 206.759009 81.412747 
L 206.985449 81.375526 
L 207.143786 80.856793 
L 207.315242 80.8843 
L 207.951204 80.450333 
L 208.287131 79.797473 
L 209.109268 76.12927 
L 209.249473 77.328786 
L 209.493672 78.061053 
L 210.324129 75.040896 
L 210.540542 75.5617 
L 210.786501 75.629844 
L 211.049418 75.374068 
L 211.572374 74.188238 
L 212.096662 75.115495 
L 213.465433 74.87135 
L 215.339188 75.012716 
L 216.292571 81.616719 
L 216.593086 90.455143 
L 218.418363 93.468631 
L 219.809266 92.504191 
L 220.053892 92.142574 
L 221.428956 93.198206 
L 222.129767 92.176013 
L 222.331248 94.347633 
L 224.110662 98.289463 
L 224.500825 98.326995 
L 224.650789 100.213421 
L 224.999942 102.093529 
L 225.312296 104.165931 
L 225.493032 103.731574 
L 225.673821 103.656286 
L 226.205096 104.823311 
L 226.634937 110.872044 
L 227.063391 115.193282 
L 227.379959 115.473419 
L 227.727405 117.677319 
L 227.921846 114.854943 
L 228.774755 110.922291 
L 228.937839 109.426658 
L 229.148653 109.347082 
L 230.662962 109.33912 
L 230.904814 110.175101 
L 231.130987 110.360479 
L 231.343935 111.00143 
L 231.74919 106.996138 
L 231.974243 105.455148 
L 232.185537 106.13062 
L 232.596713 109.462181 
L 233.112575 111.827443 
L 233.934393 120.749858 
L 234.242427 125.636278 
L 234.479267 128.789173 
L 234.63755 129.283521 
L 234.877163 132.034105 
L 235.409984 126.279637 
L 235.957898 124.696948 
L 236.323103 129.134992 
L 236.492693 128.45381 
L 236.684574 123.824164 
L 237.468367 119.208515 
L 238.02748 115.290889 
L 238.575394 113.234179 
L 238.737091 111.69898 
L 238.934946 111.321918 
L 239.745191 110.579451 
L 239.822253 113.162007 
L 240.025974 116.03069 
L 240.397578 125.435903 
L 241.327656 141.283777 
L 241.792801 142.455599 
L 241.988523 142.041622 
L 242.391005 137.677318 
L 242.714186 136.462658 
L 242.825433 135.006163 
L 243.082644 135.087278 
L 243.777589 136.019271 
L 243.956245 138.2633 
L 246.286239 140.573677 
L 246.825353 136.570164 
L 247.019795 136.055718 
L 247.500246 132.353928 
L 248.577461 130.278235 
L 248.717826 128.295767 
L 248.975624 127.408832 
L 249.686995 119.934214 
L 250.211496 114.798497 
L 251.824466 113.574635 
L 252.227002 110.696436 
L 252.43051 111.074801 
L 252.899922 117.766834 
L 253.047913 117.608881 
L 253.606919 117.70511 
L 253.780189 118.280404 
L 254.071852 118.278224 
L 254.439136 118.141694 
L 254.835272 119.051934 
L 255.740498 126.498671 
L 255.829453 125.748062 
L 256.024535 126.617477 
L 256.221803 128.784883 
L 256.48152 129.827485 
L 256.943306 127.028142 
L 257.343975 121.723127 
L 258.117689 118.869676 
L 258.533824 118.539914 
L 258.779836 119.337523 
L 260.527731 117.34735 
L 260.755931 116.325837 
L 260.976771 117.014067 
L 262.785516 115.797311 
L 262.975851 113.284227 
L 264.293692 117.303887 
L 265.889596 116.926437 
L 266.068519 115.373717 
L 266.396499 121.729455 
L 267.585868 122.724068 
L 267.762711 121.064082 
L 268.079652 120.382888 
L 268.32225 121.04615 
L 268.530931 122.191064 
L 269.014795 131.25048 
L 269.410718 135.152222 
L 269.697795 140.002041 
L 269.846212 141.516774 
L 270.123902 142.24108 
L 270.461695 143.998898 
L 270.736986 144.712353 
L 271.17072 146.663439 
L 271.3842 149.182668 
L 271.566696 148.923843 
L 271.839746 148.090934 
L 271.979204 148.176971 
L 272.288732 147.117173 
L 272.597781 145.205482 
L 272.868058 145.146265 
L 273.112363 143.943074 
L 273.246915 142.196257 
L 273.584708 142.735073 
L 273.772057 141.728102 
L 273.915088 141.733319 
L 274.066119 141.068107 
L 274.256028 141.092598 
L 274.455803 141.657602 
L 274.781276 145.251973 
L 275.150214 147.506151 
L 275.528058 149.515688 
L 275.679836 149.026258 
L 275.927661 149.217505 
L 276.11197 150.320768 
L 276.592581 155.883433 
L 276.854165 158.399856 
L 277.002636 157.902346 
L 277.136175 156.03652 
L 277.254941 158.343421 
L 277.628519 157.58392 
L 277.763284 157.68727 
L 278.412205 157.214634 
L 279.38372 155.979739 
L 279.627652 156.063025 
L 279.863425 156.560956 
L 280.209591 157.618357 
L 280.425738 158.029156 
L 280.635112 159.375265 
L 281.366908 160.997886 
L 281.607534 161.139048 
L 281.998337 160.20613 
L 282.183286 160.211508 
L 283.11763 159.303769 
L 283.456009 152.709918 
L 283.636905 148.577783 
L 283.976778 146.295267 
L 284.407472 144.807646 
L 284.548264 143.033823 
L 284.703561 143.614168 
L 284.962959 143.799711 
L 285.132762 144.464974 
L 285.669797 140.954075 
L 285.94642 139.323018 
L 286.513106 139.81561 
L 287.340683 140.97017 
L 287.411026 144.137085 
L 287.724607 147.16108 
L 288.078612 153.1433 
L 289.544124 156.507948 
L 289.731633 158.047994 
L 290.376768 157.870233 
L 290.628219 156.39942 
L 290.824101 156.005065 
L 291.230743 157.756033 
L 292.404433 160.911375 
L 292.852406 160.477271 
L 293.598175 153.171838 
L 293.982045 151.314848 
L 294.673203 151.538656 
L 295.013823 146.780171 
L 295.247356 148.353828 
L 295.385161 151.801651 
L 295.775004 154.211369 
L 296.027842 157.196725 
L 296.242443 157.724757 
L 296.707961 153.303245 
L 296.862992 151.631696 
L 297.867145 146.892388 
L 298.17886 144.925316 
L 298.576916 144.811338 
L 298.970706 144.390735 
L 299.386307 137.837249 
L 301.358882 137.366467 
L 301.702275 138.941583 
L 303.432251 143.24042 
L 303.647065 141.474263 
L 303.843 141.140543 
L 303.975206 141.196479 
L 304.174127 141.410755 
L 304.326864 139.84207 
L 304.927842 137.302291 
L 305.706035 132.386321 
L 306.07476 129.658327 
L 306.326691 129.711959 
L 306.72976 127.300522 
L 307.104191 125.5112 
L 307.359589 124.70917 
L 307.589282 124.528686 
L 307.771031 124.850312 
L 308.003017 124.52085 
L 308.168821 127.119574 
L 308.558664 129.038297 
L 308.819075 128.75024 
L 309.06578 127.149648 
L 309.374028 123.835433 
L 309.578123 123.967992 
L 309.924929 124.382539 
L 310.245283 127.728618 
L 310.633526 132.784291 
L 310.826528 133.628248 
L 310.974252 133.771413 
L 312.485575 122.823786 
L 312.825288 118.143465 
L 313.133056 117.742613 
L 313.693716 118.772556 
L 314.020896 118.293572 
L 314.272881 118.992092 
L 314.45831 120.497583 
L 314.770558 120.308341 
L 315.032996 122.046557 
L 315.143122 121.901283 
L 315.489288 117.501689 
L 317.100872 116.081763 
L 317.371096 116.120617 
L 317.542179 114.945483 
L 318.007324 114.390488 
L 318.455084 114.092229 
L 318.826048 109.767073 
L 318.941241 105.904045 
L 319.604562 97.558133 
L 320.057014 91.025251 
L 320.315826 91.313171 
L 321.114018 96.575958 
L 321.397307 97.636579 
L 321.723901 99.828666 
L 322.337624 105.958495 
L 322.543639 105.5824 
L 322.784958 106.402351 
L 323.41548 102.026816 
L 323.507634 99.266117 
L 323.707036 98.746816 
L 323.96702 98.838884 
L 324.204872 100.908393 
L 324.486135 101.343589 
L 324.758173 103.086753 
L 325.137296 97.244497 
L 325.461757 91.358421 
L 326.022843 89.542872 
L 326.400581 87.158385 
L 326.610755 87.28737 
L 326.91351 86.232251 
L 327.403241 82.975263 
L 327.708236 81.284357 
L 328.009231 81.954709 
L 328.13573 84.066495 
L 328.524187 85.919261 
L 328.647859 88.013056 
L 329.217905 90.842539 
L 329.413893 92.046811 
L 330.210699 92.88292 
L 331.233678 80.05248 
L 331.534673 78.426911 
L 331.912997 79.484532 
L 332.227911 79.667799 
L 332.58421 79.101131 
L 332.768572 79.06747 
L 332.961254 79.605043 
L 333.285074 80.940318 
L 334.114358 82.504598 
L 334.295947 82.51895 
L 334.644086 84.643471 
L 335.112912 91.215747 
L 335.351617 91.22271 
L 335.373536 91.340115 
L 335.638107 91.621486 
L 335.707169 92.034129 
L 335.928329 92.337413 
L 336.315453 94.996426 
L 336.502322 98.812345 
L 336.9664 103.698186 
L 337.327072 105.247353 
L 337.513088 105.002072 
L 337.682517 108.267761 
L 337.904904 109.393813 
L 338.106439 111.892967 
L 338.729601 113.405986 
L 338.936736 114.813613 
L 339.138537 115.406098 
L 339.306367 115.502598 
L 339.452811 114.322033 
L 340.590343 96.400152 
L 340.734441 97.256007 
L 341.02973 100.849428 
L 342.072547 110.956817 
L 342.260803 111.317085 
L 342.556252 107.562679 
L 342.877353 101.547642 
L 343.258183 104.88192 
L 343.362017 104.113253 
L 343.792284 106.935082 
L 344.001818 106.923037 
L 344.382489 108.582328 
L 344.629301 108.678176 
L 345.388135 106.736154 
L 345.731048 107.154719 
L 346.129424 107.778888 
L 346.237631 111.332368 
L 346.934763 117.566754 
L 347.233731 118.570166 
L 347.491476 121.298899 
L 347.70037 121.29558 
L 348.080187 124.967574 
L 348.465604 132.540376 
L 349.023597 138.44688 
L 349.450025 143.710013 
L 349.993032 145.722142 
L 350.190034 145.63587 
L 350.558972 143.206694 
L 350.723602 145.652171 
L 351.621095 150.911192 
L 351.786045 154.74062 
L 352.782412 164.062745 
L 353.095886 169.280387 
L 353.827896 171.696495 
L 354.891725 172.569986 
L 355.383109 172.133139 
L 355.793965 174.878983 
L 356.061202 179.037206 
L 356.182155 183.483136 
L 356.793425 191.436927 
L 357.25761 194.837803 
L 357.719396 196.708287 
L 358.04359 201.89496 
L 359.128591 203.473418 
L 359.829723 206.68953 
L 360.050563 208.063298 
L 360.211353 204.623969 
L 360.615275 203.047921 
L 360.76732 202.628955 
L 360.932003 203.738606 
L 361.362377 205.282877 
L 361.913758 209.31791 
L 362.53772 220.871585 
L 362.835462 229.579342 
L 363.063022 233.877352 
L 363.681545 240.237042 
L 364.48299 243.20518 
L 365.110579 240.074042 
L 365.972661 237.341583 
L 366.254724 234.407166 
L 366.477111 234.001031 
L 367.15611 231.667061 
L 367.438173 230.4982 
L 367.989927 228.785137 
L 368.304468 226.541562 
L 368.93339 220.715982 
L 369.752114 217.835962 
L 370.354958 211.235174 
L 370.732695 208.906591 
L 371.089794 204.10668 
L 372.627888 202.811811 
L 380.420968 202.564821 
L 380.875394 204.511436 
L 381.295049 210.061663 
L 381.490237 209.276609 
L 382.085668 212.327224 
L 382.705951 210.615416 
L 383.328313 209.815751 
L 383.455026 207.553812 
L 384.003526 203.754605 
L 384.311934 203.483147 
L 384.407449 205.370095 
L 384.751908 207.108557 
L 384.988907 208.913144 
L 385.576179 207.909413 
L 385.961222 206.16544 
L 386.758668 208.325915 
L 386.934017 207.760107 
L 387.131232 207.990711 
L 387.384497 209.094422 
L 387.936357 204.533607 
L 388.221993 201.060168 
L 388.479364 200.086674 
L 388.640688 196.727548 
L 388.908672 193.543418 
L 389.059383 190.181679 
L 389.32806 186.86436 
L 389.54586 186.815277 
L 389.772407 187.527728 
L 389.954796 187.417472 
L 390.074789 186.982969 
L 390.960442 188.269806 
L 391.141018 188.062613 
L 391.568246 189.688686 
L 391.800979 189.48394 
L 392.06267 187.481044 
L 392.397369 183.518876 
L 392.585838 181.310958 
L 392.874301 179.771172 
L 393.107034 179.337097 
L 393.39539 179.344799 
L 393.78198 182.045954 
L 394.162277 182.664983 
L 394.591051 185.730528 
L 395.060996 187.621167 
L 395.232079 186.740602 
L 395.547581 186.403667 
L 395.758608 186.54202 
L 396.083388 188.227961 
L 396.292443 188.431465 
L 396.521016 189.128066 
L 396.871128 191.65105 
L 397.742276 198.384561 
L 397.894266 198.287391 
L 398.248325 199.267032 
L 398.710431 200.654944 
L 398.975642 200.055219 
L 399.182083 197.759495 
L 399.454226 195.500596 
L 399.517796 195.562812 
L 399.670267 196.277887 
L 399.821404 196.30398 
L 400.049711 192.651585 
L 400.710898 186.608122 
L 401.16447 185.500489 
L 401.408136 185.252644 
L 401.816805 185.290211 
L 402.056737 185.726098 
L 402.484125 190.789646 
L 402.72059 192.740193 
L 402.995614 197.591952 
L 403.239653 197.312165 
L 403.357886 193.266851 
L 403.553074 192.392239 
L 403.872521 187.080953 
L 404.003393 183.134789 
L 404.297722 179.28755 
L 405.119807 174.114004 
L 405.331207 173.826427 
L 405.570873 170.800505 
L 405.960183 164.105685 
L 406.2295 163.486436 
L 406.654701 159.789848 
L 407.114194 159.309502 
L 407.244692 160.978542 
L 407.751435 162.129965 
L 408.193382 164.116714 
L 408.600504 164.833129 
L 408.940271 161.765412 
L 409.693026 157.444878 
L 409.945544 158.105414 
L 410.152145 157.530659 
L 411.192242 144.650218 
L 411.355113 145.104956 
L 411.984355 150.969275 
L 412.56688 152.129 
L 412.984722 152.569542 
L 413.18167 152.31414 
L 413.408803 151.801007 
L 413.535568 151.081155 
L 413.798006 148.03064 
L 413.95933 148.260804 
L 414.117454 148.172379 
L 414.90466 159.06459 
L 415.691119 160.599136 
L 415.94977 159.263814 
L 416.327401 163.321918 
L 417.314649 173.198857 
L 417.610044 177.325678 
L 417.706198 180.971526 
L 417.940424 184.794373 
L 418.074496 189.475728 
L 418.40365 190.59495 
L 418.859943 188.727024 
L 419.584752 186.397804 
L 419.736263 185.078013 
L 421.485598 183.861013 
L 422.084656 183.217896 
L 422.353866 184.065432 
L 422.603131 186.030743 
L 422.757042 185.559529 
L 423.038679 185.440887 
L 423.400577 185.627488 
L 423.585472 185.04349 
L 424.332681 178.722452 
L 424.482059 175.917182 
L 424.990988 174.763496 
L 425.244946 173.046693 
L 425.701986 171.627127 
L 425.870775 172.31454 
L 426.192729 170.574786 
L 426.587052 169.443975 
L 426.822185 167.290219 
L 427.341941 165.441287 
L 427.911986 162.838471 
L 428.219328 158.233345 
L 428.637383 154.419053 
L 429.29745 153.541448 
L 429.371685 152.268787 
L 429.5689 151.334931 
L 429.866589 147.225481 
L 430.186357 141.060035 
L 431.064704 138.392559 
L 431.325435 138.228562 
L 431.557741 135.312605 
L 432.042085 132.222579 
L 432.487925 128.202497 
L 432.772122 127.932289 
L 433.454587 125.569026 
L 433.97253 121.026605 
L 434.184197 120.469318 
L 435.316822 109.093511 
L 435.778608 108.857724 
L 436.817906 104.918693 
L 437.000401 104.975297 
L 438.215742 107.405766 
L 438.497165 106.010563 
L 439.042092 105.845371 
L 439.602325 105.83866 
L 440.18245 113.949644 
L 440.655809 112.901921 
L 440.874036 111.84852 
L 441.062504 113.881233 
L 441.199669 117.622441 
L 441.461894 120.957889 
L 442.076364 123.203318 
L 442.339654 125.621055 
L 442.946285 128.438999 
L 443.346314 127.683077 
L 443.722665 127.666726 
L 445.203269 127.859214 
L 445.726545 126.263933 
L 445.927759 126.622699 
L 446.271099 127.801926 
L 447.022254 128.717131 
L 447.177444 129.958367 
L 447.471987 130.623944 
L 447.608085 130.332455 
L 447.992275 130.551506 
L 448.772549 132.223613 
L 449.039306 134.500984 
L 449.285958 139.181597 
L 449.744544 142.91773 
L 450.942392 142.702468 
L 451.411964 144.519918 
L 451.884522 143.858475 
L 452.856624 137.140776 
L 453.051172 133.054804 
L 453.671082 128.149426 
L 453.832245 126.465444 
L 454.013408 126.537372 
L 454.500792 125.738503 
L 454.801094 125.993721 
L 455.1463 129.889609 
L 455.570328 130.308131 
L 455.792554 130.096074 
L 457.392778 130.497318 
L 457.832485 128.602734 
L 458.127188 128.009778 
L 458.499859 126.677593 
L 458.870183 125.53705 
L 459.114488 125.960655 
L 459.875083 129.930994 
L 460.461181 125.512327 
L 460.680368 123.640813 
L 460.885529 124.060942 
L 461.294144 123.581157 
L 464.623011 122.93593 
L 464.770896 120.545506 
L 465.004962 120.504489 
L 465.353688 120.305394 
L 467.922814 117.835935 
L 469.320116 118.111343 
L 469.948292 122.632546 
L 470.185771 126.668735 
L 471.37722 129.103333 
L 472.010515 129.842167 
L 472.221649 130.374782 
L 473.832966 127.422459 
L 474.300618 125.420994 
L 474.542737 125.661995 
L 474.696541 124.850056 
L 474.778616 123.038731 
L 475.224776 121.464579 
L 475.493933 122.627356 
L 475.931933 128.085506 
L 476.297405 126.816192 
L 476.713273 126.493073 
L 477.202737 125.80687 
L 478.247688 126.965602 
L 478.771443 128.002224 
L 479.074305 130.177263 
L 479.247628 132.280221 
L 479.473001 133.535554 
L 480.172906 134.603158 
L 480.54227 133.857618 
L 480.759537 132.504368 
L 481.347555 132.114683 
L 481.705614 129.374419 
L 482.232409 129.002613 
L 482.420237 129.361405 
L 482.82576 133.442439 
L 485.620366 136.375635 
L 486.247475 138.401062 
L 486.818587 140.802029 
L 486.985244 143.428443 
L 487.333329 145.8124 
L 487.836979 147.829234 
L 488.231516 152.117413 
L 489.475068 159.731852 
L 489.697721 161.354619 
L 489.970558 160.772881 
L 492.779723 157.806133 
L 493.083225 154.100686 
L 493.807075 154.510166 
L 493.963545 156.660218 
L 494.578122 156.97593 
L 494.855812 156.591852 
L 495.230029 154.508556 
L 495.779703 155.497773 
L 496.10059 152.635472 
L 496.386653 147.68371 
L 496.818414 147.132655 
L 496.990404 148.680336 
L 497.499546 144.270217 
L 498.988097 129.944727 
L 499.477881 127.111941 
L 499.873644 128.275706 
L 500.21229 126.701127 
L 501.859925 125.36836 
L 501.962692 123.919066 
L 502.224703 122.826767 
L 502.364535 121.302253 
L 503.532625 119.988992 
L 503.693095 119.615383 
L 504.184212 120.079263 
L 504.355029 122.019752 
L 505.090131 121.537624 
L 505.305318 120.154732 
L 506.288033 120.870219 
L 506.463169 118.838563 
L 506.77755 118.076496 
L 507.236403 120.496661 
L 507.763144 122.591547 
L 508.089151 124.926896 
L 508.227276 124.232794 
L 508.429238 122.417919 
L 508.623253 122.631488 
L 508.860252 120.488374 
L 509.184819 111.955603 
L 510.014316 112.635383 
L 510.329284 112.305818 
L 510.511886 109.773993 
L 511.169393 107.974422 
L 512.052967 101.351425 
L 512.488888 98.764549 
L 512.56179 96.020769 
L 512.775004 94.3346 
L 514.052154 92.585721 
L 515.984731 88.705286 
L 522.865439 87.823758 
L 524.048674 86.199792 
L 524.464169 82.109113 
L 524.767671 74.119558 
L 527.984758 71.679297 
L 528.574803 62.349373 
L 529.296413 66.296907 
L 529.511227 66.345483 
L 529.687536 64.391569 
L 530.01509 56.020013 
L 530.535165 51.539247 
L 531.141796 50.213425 
L 532.091072 48.661008 
L 534.045888 46.161456 
L 534.319578 44.669205 
L 534.697529 43.759315 
L 535.095958 42.293489 
L 535.378501 39.539644 
L 535.812982 37.086921 
L 537.064587 34.764161 
L 537.750733 34.603796 
L 538.502421 33.659907 
L 538.710942 34.101286 
L 539.57953 27.210366 
L 539.744106 27.787436 
L 540.632 34.056123 
L 540.875079 34.178538 
L 540.986325 34.370288 
L 541.722868 33.202361 
L 541.900884 31.645009 
L 542.125404 31.311172 
L 542.733794 31.025547 
L 542.828028 30.517595 
L 543.2992 24.803809 
L 543.454071 21.186104 
L 544.327778 14.597312 
L 544.750739 15.185769 
L 545.290174 16.590497 
L 545.532133 14.853696 
L 546.920423 14.43857 
L 547.364663 15.135743 
L 547.489295 16.950833 
L 547.728588 18.28059 
L 548.180774 19.14742 
L 548.832735 17.738057 
L 549.13437 17.246729 
L 549.13437 17.246729 
" clip-path="url(#p829c75b73a)" style="fill: none; stroke: #0000ff; stroke-width: 1.5; stroke-linecap: square"/>
   </g>
   <g id="line2d_14">
    <path d="M 47.961178 98.129521 
L 572.99976 98.129521 
" clip-path="url(#p829c75b73a)" style="fill: none; stroke-dasharray: 5.55,2.4; stroke-dashoffset: 0; stroke: #000000; stroke-width: 1.5"/>
   </g>
   <g id="patch_3">
    <path d="M 47.961178 254.64351 
L 47.961178 3.00024 
" style="fill: none; stroke: #000000; stroke-width: 0.8; stroke-linejoin: miter; stroke-linecap: square"/>
   </g>
   <g id="patch_4">
    <path d="M 572.99976 254.64351 
L 572.99976 3.00024 
" style="fill: none; stroke: #000000; stroke-width: 0.8; stroke-linejoin: miter; stroke-linecap: square"/>
   </g>
   <g id="patch_5">
    <path d="M 47.961178 254.64351 
L 572.99976 254.64351 
" style="fill: none; stroke: #000000; stroke-width: 0.8; stroke-linejoin: miter; stroke-linecap: square"/>
   </g>
   <g id="patch_6">
    <path d="M 47.961178 3.00024 
L 572.99976 3.00024 
" style="fill: none; stroke: #000000; stroke-width: 0.8; stroke-linejoin: miter; stroke-linecap: square"/>
   </g>
   <g id="legend_1">
    <g id="patch_7">
     <path d="M 54.961178 25.678365 
L 112.289303 25.678365 
Q 114.289303 25.678365 114.289303 23.678365 
L 114.289303 10.00024 
Q 114.289303 8.00024 112.289303 8.00024 
L 54.961178 8.00024 
Q 52.961178 8.00024 52.961178 10.00024 
L 52.961178 23.678365 
Q 52.961178 25.678365 54.961178 25.678365 
z
" style="fill: #ffffff; opacity: 0.8; stroke: #cccccc; stroke-linejoin: miter"/>
    </g>
    <g id="line2d_15">
     <path d="M 56.961178 16.098678 
L 66.961178 16.098678 
L 76.961178 16.098678 
" style="fill: none; stroke: #0000ff; stroke-width: 1.5; stroke-linecap: square"/>
    </g>
    <g id="text_15">
     <!-- delta -->
     <g transform="translate(84.961178 19.598678) scale(0.1 -0.1)">
      <defs>
       <path id="DejaVuSans-64" d="M 2906 2969 
L 2906 4863 
L 3481 4863 
L 3481 0 
L 2906 0 
L 2906 525 
Q 2725 213 2448 61 
Q 2172 -91 1784 -91 
Q 1150 -91 751 415 
Q 353 922 353 1747 
Q 353 2572 751 3078 
Q 1150 3584 1784 3584 
Q 2172 3584 2448 3432 
Q 2725 3281 2906 2969 
z
M 947 1747 
Q 947 1113 1208 752 
Q 1469 391 1925 391 
Q 2381 391 2643 752 
Q 2906 1113 2906 1747 
Q 2906 2381 2643 2742 
Q 2381 3103 1925 3103 
Q 1469 3103 1208 2742 
Q 947 2381 947 1747 
z
" transform="scale(0.015625)"/>
       <path id="DejaVuSans-6c" d="M 603 4863 
L 1178 4863 
L 1178 0 
L 603 0 
L 603 4863 
z
" transform="scale(0.015625)"/>
       <path id="DejaVuSans-61" d="M 2194 1759 
Q 1497 1759 1228 1600 
Q 959 1441 959 1056 
Q 959 750 1161 570 
Q 1363 391 1709 391 
Q 2188 391 2477 730 
Q 2766 1069 2766 1631 
L 2766 1759 
L 2194 1759 
z
M 3341 1997 
L 3341 0 
L 2766 0 
L 2766 531 
Q 2569 213 2275 61 
Q 1981 -91 1556 -91 
Q 1019 -91 701 211 
Q 384 513 384 1019 
Q 384 1609 779 1909 
Q 1175 2209 1959 2209 
L 2766 2209 
L 2766 2266 
Q 2766 2663 2505 2880 
Q 2244 3097 1772 3097 
Q 1472 3097 1187 3025 
Q 903 2953 641 2809 
L 641 3341 
Q 956 3463 1253 3523 
Q 1550 3584 1831 3584 
Q 2591 3584 2966 3190 
Q 3341 2797 3341 1997 
z
" transform="scale(0.015625)"/>
      </defs>
      <use xlink:href="#DejaVuSans-64"/>
      <use xlink:href="#DejaVuSans-65" x="63.476562"/>
      <use xlink:href="#DejaVuSans-6c" x="125"/>
      <use xlink:href="#DejaVuSans-74" x="152.783203"/>
      <use xlink:href="#DejaVuSans-61" x="191.992188"/>
     </g>
    </g>
   </g>
  </g>
 </g>
 <defs>
  <clipPath id="p829c75b73a">
   <rect x="47.961178" y="3.00024" width="525.038582" height="251.64327"/>
  </clipPath>
 </defs>
</svg>
