<?xml version="1.0" encoding="utf-8" standalone="no"?>
<!DOCTYPE svg PUBLIC "-//W3C//DTD SVG 1.1//EN"
  "http://www.w3.org/Graphics/SVG/1.1/DTD/svg11.dtd">
<svg xmlns:xlink="http://www.w3.org/1999/xlink" width="576pt" height="288pt" viewBox="0 0 576 288" xmlns="http://www.w3.org/2000/svg" version="1.1">
 <metadata>
  <rdf:RDF xmlns:dc="http://purl.org/dc/elements/1.1/" xmlns:cc="http://creativecommons.org/ns#" xmlns:rdf="http://www.w3.org/1999/02/22-rdf-syntax-ns#">
   <cc:Work>
    <dc:type rdf:resource="http://purl.org/dc/dcmitype/StillImage"/>
    <dc:date>2023-06-15T10:33:14.215443</dc:date>
    <dc:format>image/svg+xml</dc:format>
    <dc:creator>
     <cc:Agent>
      <dc:title>Matplotlib v3.7.1, https://matplotlib.org/</dc:title>
     </cc:Agent>
    </dc:creator>
   </cc:Work>
  </rdf:RDF>
 </metadata>
 <defs>
  <style type="text/css">*{stroke-linejoin: round; stroke-linecap: butt}</style>
 </defs>
 <g id="figure_1">
  <g id="patch_1">
   <path d="M 0 288 
L 576 288 
L 576 0 
L 0 0 
z
" style="fill: #ffffff"/>
  </g>
  <g id="axes_1">
   <g id="patch_2">
    <path d="M 39.58149 254.64351 
L 572.99976 254.64351 
L 572.99976 3.00024 
L 39.58149 3.00024 
z
" style="fill: #ffffff"/>
   </g>
   <g id="matplotlib.axis_1">
    <g id="xtick_1">
     <g id="line2d_1">
      <defs>
       <path id="m6c599ab4e4" d="M 0 0 
L 0 3.5 
" style="stroke: #000000; stroke-width: 0.8"/>
      </defs>
      <g>
       <use xlink:href="#m6c599ab4e4" x="63.521232" y="254.64351" style="stroke: #000000; stroke-width: 0.8"/>
      </g>
     </g>
     <g id="text_1">
      <!-- 0 -->
      <g transform="translate(60.339982 269.241947) scale(0.1 -0.1)">
       <defs>
        <path id="DejaVuSans-30" d="M 2034 4250 
Q 1547 4250 1301 3770 
Q 1056 3291 1056 2328 
Q 1056 1369 1301 889 
Q 1547 409 2034 409 
Q 2525 409 2770 889 
Q 3016 1369 3016 2328 
Q 3016 3291 2770 3770 
Q 2525 4250 2034 4250 
z
M 2034 4750 
Q 2819 4750 3233 4129 
Q 3647 3509 3647 2328 
Q 3647 1150 3233 529 
Q 2819 -91 2034 -91 
Q 1250 -91 836 529 
Q 422 1150 422 2328 
Q 422 3509 836 4129 
Q 1250 4750 2034 4750 
z
" transform="scale(0.015625)"/>
       </defs>
       <use xlink:href="#DejaVuSans-30"/>
      </g>
     </g>
    </g>
    <g id="xtick_2">
     <g id="line2d_2">
      <g>
       <use xlink:href="#m6c599ab4e4" x="165.702128" y="254.64351" style="stroke: #000000; stroke-width: 0.8"/>
      </g>
     </g>
     <g id="text_2">
      <!-- 2000 -->
      <g transform="translate(152.977128 269.241947) scale(0.1 -0.1)">
       <defs>
        <path id="DejaVuSans-32" d="M 1228 531 
L 3431 531 
L 3431 0 
L 469 0 
L 469 531 
Q 828 903 1448 1529 
Q 2069 2156 2228 2338 
Q 2531 2678 2651 2914 
Q 2772 3150 2772 3378 
Q 2772 3750 2511 3984 
Q 2250 4219 1831 4219 
Q 1534 4219 1204 4116 
Q 875 4013 500 3803 
L 500 4441 
Q 881 4594 1212 4672 
Q 1544 4750 1819 4750 
Q 2544 4750 2975 4387 
Q 3406 4025 3406 3419 
Q 3406 3131 3298 2873 
Q 3191 2616 2906 2266 
Q 2828 2175 2409 1742 
Q 1991 1309 1228 531 
z
" transform="scale(0.015625)"/>
       </defs>
       <use xlink:href="#DejaVuSans-32"/>
       <use xlink:href="#DejaVuSans-30" x="63.623047"/>
       <use xlink:href="#DejaVuSans-30" x="127.246094"/>
       <use xlink:href="#DejaVuSans-30" x="190.869141"/>
      </g>
     </g>
    </g>
    <g id="xtick_3">
     <g id="line2d_3">
      <g>
       <use xlink:href="#m6c599ab4e4" x="267.883023" y="254.64351" style="stroke: #000000; stroke-width: 0.8"/>
      </g>
     </g>
     <g id="text_3">
      <!-- 4000 -->
      <g transform="translate(255.158023 269.241947) scale(0.1 -0.1)">
       <defs>
        <path id="DejaVuSans-34" d="M 2419 4116 
L 825 1625 
L 2419 1625 
L 2419 4116 
z
M 2253 4666 
L 3047 4666 
L 3047 1625 
L 3713 1625 
L 3713 1100 
L 3047 1100 
L 3047 0 
L 2419 0 
L 2419 1100 
L 313 1100 
L 313 1709 
L 2253 4666 
z
" transform="scale(0.015625)"/>
       </defs>
       <use xlink:href="#DejaVuSans-34"/>
       <use xlink:href="#DejaVuSans-30" x="63.623047"/>
       <use xlink:href="#DejaVuSans-30" x="127.246094"/>
       <use xlink:href="#DejaVuSans-30" x="190.869141"/>
      </g>
     </g>
    </g>
    <g id="xtick_4">
     <g id="line2d_4">
      <g>
       <use xlink:href="#m6c599ab4e4" x="370.063919" y="254.64351" style="stroke: #000000; stroke-width: 0.8"/>
      </g>
     </g>
     <g id="text_4">
      <!-- 6000 -->
      <g transform="translate(357.338919 269.241947) scale(0.1 -0.1)">
       <defs>
        <path id="DejaVuSans-36" d="M 2113 2584 
Q 1688 2584 1439 2293 
Q 1191 2003 1191 1497 
Q 1191 994 1439 701 
Q 1688 409 2113 409 
Q 2538 409 2786 701 
Q 3034 994 3034 1497 
Q 3034 2003 2786 2293 
Q 2538 2584 2113 2584 
z
M 3366 4563 
L 3366 3988 
Q 3128 4100 2886 4159 
Q 2644 4219 2406 4219 
Q 1781 4219 1451 3797 
Q 1122 3375 1075 2522 
Q 1259 2794 1537 2939 
Q 1816 3084 2150 3084 
Q 2853 3084 3261 2657 
Q 3669 2231 3669 1497 
Q 3669 778 3244 343 
Q 2819 -91 2113 -91 
Q 1303 -91 875 529 
Q 447 1150 447 2328 
Q 447 3434 972 4092 
Q 1497 4750 2381 4750 
Q 2619 4750 2861 4703 
Q 3103 4656 3366 4563 
z
" transform="scale(0.015625)"/>
       </defs>
       <use xlink:href="#DejaVuSans-36"/>
       <use xlink:href="#DejaVuSans-30" x="63.623047"/>
       <use xlink:href="#DejaVuSans-30" x="127.246094"/>
       <use xlink:href="#DejaVuSans-30" x="190.869141"/>
      </g>
     </g>
    </g>
    <g id="xtick_5">
     <g id="line2d_5">
      <g>
       <use xlink:href="#m6c599ab4e4" x="472.244814" y="254.64351" style="stroke: #000000; stroke-width: 0.8"/>
      </g>
     </g>
     <g id="text_5">
      <!-- 8000 -->
      <g transform="translate(459.519814 269.241947) scale(0.1 -0.1)">
       <defs>
        <path id="DejaVuSans-38" d="M 2034 2216 
Q 1584 2216 1326 1975 
Q 1069 1734 1069 1313 
Q 1069 891 1326 650 
Q 1584 409 2034 409 
Q 2484 409 2743 651 
Q 3003 894 3003 1313 
Q 3003 1734 2745 1975 
Q 2488 2216 2034 2216 
z
M 1403 2484 
Q 997 2584 770 2862 
Q 544 3141 544 3541 
Q 544 4100 942 4425 
Q 1341 4750 2034 4750 
Q 2731 4750 3128 4425 
Q 3525 4100 3525 3541 
Q 3525 3141 3298 2862 
Q 3072 2584 2669 2484 
Q 3125 2378 3379 2068 
Q 3634 1759 3634 1313 
Q 3634 634 3220 271 
Q 2806 -91 2034 -91 
Q 1263 -91 848 271 
Q 434 634 434 1313 
Q 434 1759 690 2068 
Q 947 2378 1403 2484 
z
M 1172 3481 
Q 1172 3119 1398 2916 
Q 1625 2713 2034 2713 
Q 2441 2713 2670 2916 
Q 2900 3119 2900 3481 
Q 2900 3844 2670 4047 
Q 2441 4250 2034 4250 
Q 1625 4250 1398 4047 
Q 1172 3844 1172 3481 
z
" transform="scale(0.015625)"/>
       </defs>
       <use xlink:href="#DejaVuSans-38"/>
       <use xlink:href="#DejaVuSans-30" x="63.623047"/>
       <use xlink:href="#DejaVuSans-30" x="127.246094"/>
       <use xlink:href="#DejaVuSans-30" x="190.869141"/>
      </g>
     </g>
    </g>
    <g id="text_6">
     <!-- time [s] -->
     <g transform="translate(286.899219 282.920073) scale(0.1 -0.1)">
      <defs>
       <path id="DejaVuSans-74" d="M 1172 4494 
L 1172 3500 
L 2356 3500 
L 2356 3053 
L 1172 3053 
L 1172 1153 
Q 1172 725 1289 603 
Q 1406 481 1766 481 
L 2356 481 
L 2356 0 
L 1766 0 
Q 1100 0 847 248 
Q 594 497 594 1153 
L 594 3053 
L 172 3053 
L 172 3500 
L 594 3500 
L 594 4494 
L 1172 4494 
z
" transform="scale(0.015625)"/>
       <path id="DejaVuSans-69" d="M 603 3500 
L 1178 3500 
L 1178 0 
L 603 0 
L 603 3500 
z
M 603 4863 
L 1178 4863 
L 1178 4134 
L 603 4134 
L 603 4863 
z
" transform="scale(0.015625)"/>
       <path id="DejaVuSans-6d" d="M 3328 2828 
Q 3544 3216 3844 3400 
Q 4144 3584 4550 3584 
Q 5097 3584 5394 3201 
Q 5691 2819 5691 2113 
L 5691 0 
L 5113 0 
L 5113 2094 
Q 5113 2597 4934 2840 
Q 4756 3084 4391 3084 
Q 3944 3084 3684 2787 
Q 3425 2491 3425 1978 
L 3425 0 
L 2847 0 
L 2847 2094 
Q 2847 2600 2669 2842 
Q 2491 3084 2119 3084 
Q 1678 3084 1418 2786 
Q 1159 2488 1159 1978 
L 1159 0 
L 581 0 
L 581 3500 
L 1159 3500 
L 1159 2956 
Q 1356 3278 1631 3431 
Q 1906 3584 2284 3584 
Q 2666 3584 2933 3390 
Q 3200 3197 3328 2828 
z
" transform="scale(0.015625)"/>
       <path id="DejaVuSans-65" d="M 3597 1894 
L 3597 1613 
L 953 1613 
Q 991 1019 1311 708 
Q 1631 397 2203 397 
Q 2534 397 2845 478 
Q 3156 559 3463 722 
L 3463 178 
Q 3153 47 2828 -22 
Q 2503 -91 2169 -91 
Q 1331 -91 842 396 
Q 353 884 353 1716 
Q 353 2575 817 3079 
Q 1281 3584 2069 3584 
Q 2775 3584 3186 3129 
Q 3597 2675 3597 1894 
z
M 3022 2063 
Q 3016 2534 2758 2815 
Q 2500 3097 2075 3097 
Q 1594 3097 1305 2825 
Q 1016 2553 972 2059 
L 3022 2063 
z
" transform="scale(0.015625)"/>
       <path id="DejaVuSans-20" transform="scale(0.015625)"/>
       <path id="DejaVuSans-5b" d="M 550 4863 
L 1875 4863 
L 1875 4416 
L 1125 4416 
L 1125 -397 
L 1875 -397 
L 1875 -844 
L 550 -844 
L 550 4863 
z
" transform="scale(0.015625)"/>
       <path id="DejaVuSans-73" d="M 2834 3397 
L 2834 2853 
Q 2591 2978 2328 3040 
Q 2066 3103 1784 3103 
Q 1356 3103 1142 2972 
Q 928 2841 928 2578 
Q 928 2378 1081 2264 
Q 1234 2150 1697 2047 
L 1894 2003 
Q 2506 1872 2764 1633 
Q 3022 1394 3022 966 
Q 3022 478 2636 193 
Q 2250 -91 1575 -91 
Q 1294 -91 989 -36 
Q 684 19 347 128 
L 347 722 
Q 666 556 975 473 
Q 1284 391 1588 391 
Q 1994 391 2212 530 
Q 2431 669 2431 922 
Q 2431 1156 2273 1281 
Q 2116 1406 1581 1522 
L 1381 1569 
Q 847 1681 609 1914 
Q 372 2147 372 2553 
Q 372 3047 722 3315 
Q 1072 3584 1716 3584 
Q 2034 3584 2315 3537 
Q 2597 3491 2834 3397 
z
" transform="scale(0.015625)"/>
       <path id="DejaVuSans-5d" d="M 1947 4863 
L 1947 -844 
L 622 -844 
L 622 -397 
L 1369 -397 
L 1369 4416 
L 622 4416 
L 622 4863 
L 1947 4863 
z
" transform="scale(0.015625)"/>
      </defs>
      <use xlink:href="#DejaVuSans-74"/>
      <use xlink:href="#DejaVuSans-69" x="39.208984"/>
      <use xlink:href="#DejaVuSans-6d" x="66.992188"/>
      <use xlink:href="#DejaVuSans-65" x="164.404297"/>
      <use xlink:href="#DejaVuSans-20" x="225.927734"/>
      <use xlink:href="#DejaVuSans-5b" x="257.714844"/>
      <use xlink:href="#DejaVuSans-73" x="296.728516"/>
      <use xlink:href="#DejaVuSans-5d" x="348.828125"/>
     </g>
    </g>
   </g>
   <g id="matplotlib.axis_2">
    <g id="ytick_1">
     <g id="line2d_6">
      <defs>
       <path id="m33b5ffc39c" d="M 0 0 
L -3.5 0 
" style="stroke: #000000; stroke-width: 0.8"/>
      </defs>
      <g>
       <use xlink:href="#m33b5ffc39c" x="39.58149" y="246.081342" style="stroke: #000000; stroke-width: 0.8"/>
      </g>
     </g>
     <g id="text_7">
      <!-- 0.0 -->
      <g transform="translate(16.678365 249.880561) scale(0.1 -0.1)">
       <defs>
        <path id="DejaVuSans-2e" d="M 684 794 
L 1344 794 
L 1344 0 
L 684 0 
L 684 794 
z
" transform="scale(0.015625)"/>
       </defs>
       <use xlink:href="#DejaVuSans-30"/>
       <use xlink:href="#DejaVuSans-2e" x="63.623047"/>
       <use xlink:href="#DejaVuSans-30" x="95.410156"/>
      </g>
     </g>
    </g>
    <g id="ytick_2">
     <g id="line2d_7">
      <g>
       <use xlink:href="#m33b5ffc39c" x="39.58149" y="200.811542" style="stroke: #000000; stroke-width: 0.8"/>
      </g>
     </g>
     <g id="text_8">
      <!-- 0.1 -->
      <g transform="translate(16.678365 204.610761) scale(0.1 -0.1)">
       <defs>
        <path id="DejaVuSans-31" d="M 794 531 
L 1825 531 
L 1825 4091 
L 703 3866 
L 703 4441 
L 1819 4666 
L 2450 4666 
L 2450 531 
L 3481 531 
L 3481 0 
L 794 0 
L 794 531 
z
" transform="scale(0.015625)"/>
       </defs>
       <use xlink:href="#DejaVuSans-30"/>
       <use xlink:href="#DejaVuSans-2e" x="63.623047"/>
       <use xlink:href="#DejaVuSans-31" x="95.410156"/>
      </g>
     </g>
    </g>
    <g id="ytick_3">
     <g id="line2d_8">
      <g>
       <use xlink:href="#m33b5ffc39c" x="39.58149" y="155.541743" style="stroke: #000000; stroke-width: 0.8"/>
      </g>
     </g>
     <g id="text_9">
      <!-- 0.2 -->
      <g transform="translate(16.678365 159.340962) scale(0.1 -0.1)">
       <use xlink:href="#DejaVuSans-30"/>
       <use xlink:href="#DejaVuSans-2e" x="63.623047"/>
       <use xlink:href="#DejaVuSans-32" x="95.410156"/>
      </g>
     </g>
    </g>
    <g id="ytick_4">
     <g id="line2d_9">
      <g>
       <use xlink:href="#m33b5ffc39c" x="39.58149" y="110.271943" style="stroke: #000000; stroke-width: 0.8"/>
      </g>
     </g>
     <g id="text_10">
      <!-- 0.3 -->
      <g transform="translate(16.678365 114.071162) scale(0.1 -0.1)">
       <defs>
        <path id="DejaVuSans-33" d="M 2597 2516 
Q 3050 2419 3304 2112 
Q 3559 1806 3559 1356 
Q 3559 666 3084 287 
Q 2609 -91 1734 -91 
Q 1441 -91 1130 -33 
Q 819 25 488 141 
L 488 750 
Q 750 597 1062 519 
Q 1375 441 1716 441 
Q 2309 441 2620 675 
Q 2931 909 2931 1356 
Q 2931 1769 2642 2001 
Q 2353 2234 1838 2234 
L 1294 2234 
L 1294 2753 
L 1863 2753 
Q 2328 2753 2575 2939 
Q 2822 3125 2822 3475 
Q 2822 3834 2567 4026 
Q 2313 4219 1838 4219 
Q 1578 4219 1281 4162 
Q 984 4106 628 3988 
L 628 4550 
Q 988 4650 1302 4700 
Q 1616 4750 1894 4750 
Q 2613 4750 3031 4423 
Q 3450 4097 3450 3541 
Q 3450 3153 3228 2886 
Q 3006 2619 2597 2516 
z
" transform="scale(0.015625)"/>
       </defs>
       <use xlink:href="#DejaVuSans-30"/>
       <use xlink:href="#DejaVuSans-2e" x="63.623047"/>
       <use xlink:href="#DejaVuSans-33" x="95.410156"/>
      </g>
     </g>
    </g>
    <g id="ytick_5">
     <g id="line2d_10">
      <g>
       <use xlink:href="#m33b5ffc39c" x="39.58149" y="65.002144" style="stroke: #000000; stroke-width: 0.8"/>
      </g>
     </g>
     <g id="text_11">
      <!-- 0.4 -->
      <g transform="translate(16.678365 68.801362) scale(0.1 -0.1)">
       <use xlink:href="#DejaVuSans-30"/>
       <use xlink:href="#DejaVuSans-2e" x="63.623047"/>
       <use xlink:href="#DejaVuSans-34" x="95.410156"/>
      </g>
     </g>
    </g>
    <g id="ytick_6">
     <g id="line2d_11">
      <g>
       <use xlink:href="#m33b5ffc39c" x="39.58149" y="19.732344" style="stroke: #000000; stroke-width: 0.8"/>
      </g>
     </g>
     <g id="text_12">
      <!-- 0.5 -->
      <g transform="translate(16.678365 23.531563) scale(0.1 -0.1)">
       <defs>
        <path id="DejaVuSans-35" d="M 691 4666 
L 3169 4666 
L 3169 4134 
L 1269 4134 
L 1269 2991 
Q 1406 3038 1543 3061 
Q 1681 3084 1819 3084 
Q 2600 3084 3056 2656 
Q 3513 2228 3513 1497 
Q 3513 744 3044 326 
Q 2575 -91 1722 -91 
Q 1428 -91 1123 -41 
Q 819 9 494 109 
L 494 744 
Q 775 591 1075 516 
Q 1375 441 1709 441 
Q 2250 441 2565 725 
Q 2881 1009 2881 1497 
Q 2881 1984 2565 2268 
Q 2250 2553 1709 2553 
Q 1456 2553 1204 2497 
Q 953 2441 691 2322 
L 691 4666 
z
" transform="scale(0.015625)"/>
       </defs>
       <use xlink:href="#DejaVuSans-30"/>
       <use xlink:href="#DejaVuSans-2e" x="63.623047"/>
       <use xlink:href="#DejaVuSans-35" x="95.410156"/>
      </g>
     </g>
    </g>
    <g id="text_13">
     <!-- sentiment -->
     <g transform="translate(10.598677 154.096875) rotate(-90) scale(0.1 -0.1)">
      <defs>
       <path id="DejaVuSans-6e" d="M 3513 2113 
L 3513 0 
L 2938 0 
L 2938 2094 
Q 2938 2591 2744 2837 
Q 2550 3084 2163 3084 
Q 1697 3084 1428 2787 
Q 1159 2491 1159 1978 
L 1159 0 
L 581 0 
L 581 3500 
L 1159 3500 
L 1159 2956 
Q 1366 3272 1645 3428 
Q 1925 3584 2291 3584 
Q 2894 3584 3203 3211 
Q 3513 2838 3513 2113 
z
" transform="scale(0.015625)"/>
      </defs>
      <use xlink:href="#DejaVuSans-73"/>
      <use xlink:href="#DejaVuSans-65" x="52.099609"/>
      <use xlink:href="#DejaVuSans-6e" x="113.623047"/>
      <use xlink:href="#DejaVuSans-74" x="177.001953"/>
      <use xlink:href="#DejaVuSans-69" x="216.210938"/>
      <use xlink:href="#DejaVuSans-6d" x="243.994141"/>
      <use xlink:href="#DejaVuSans-65" x="341.40625"/>
      <use xlink:href="#DejaVuSans-6e" x="402.929688"/>
      <use xlink:href="#DejaVuSans-74" x="466.308594"/>
     </g>
    </g>
   </g>
   <g id="line2d_12">
    <path d="M 63.827775 231.741698 
L 64.83206 231.610005 
L 65.007862 231.381531 
L 65.254527 231.338439 
L 65.754702 231.070829 
L 66.04229 229.453407 
L 66.205678 229.333598 
L 66.549823 229.388192 
L 67.575208 231.058019 
L 67.849411 229.952998 
L 68.010805 229.9758 
L 69.474853 229.811619 
L 69.820889 231.688701 
L 70.197732 232.30577 
L 70.338129 233.246514 
L 71.148525 233.776889 
L 71.356821 233.38328 
L 71.77142 232.008636 
L 71.980278 231.783454 
L 72.249575 231.665606 
L 72.364018 231.941903 
L 72.680115 232.117508 
L 72.871755 231.791021 
L 73.323088 228.923998 
L 73.522187 229.350964 
L 73.885032 230.664172 
L 74.04142 232.101409 
L 74.582519 232.028997 
L 74.932999 231.477422 
L 75.298091 231.735333 
L 75.513744 232.630968 
L 75.671971 232.153639 
L 76.256037 231.908531 
L 76.552004 232.22432 
L 77.125801 231.659663 
L 77.279788 231.709672 
L 77.755593 231.430474 
L 77.907638 231.102622 
L 78.094936 231.276116 
L 78.244733 232.119805 
L 78.478727 231.667027 
L 78.59128 230.884574 
L 79.148472 230.189301 
L 79.300108 228.319799 
L 79.545291 228.333378 
L 79.861541 230.15891 
L 80.004952 231.427483 
L 80.49823 231.76981 
L 80.800839 231.114864 
L 81.062984 230.136555 
L 81.833939 230.100462 
L 82.398233 229.072129 
L 82.550125 228.261521 
L 83.041513 228.038897 
L 83.355515 220.669526 
L 83.979534 216.392355 
L 84.641461 216.197126 
L 85.210813 215.450522 
L 85.55879 215.081766 
L 86.328723 215.155863 
L 87.220609 214.068412 
L 87.799413 211.368889 
L 87.945174 211.559481 
L 88.213195 211.165775 
L 88.433701 211.119282 
L 88.57936 210.30282 
L 88.796545 211.659161 
L 89.297998 210.914264 
L 89.380816 210.479004 
L 90.092301 204.039235 
L 90.704774 200.812438 
L 90.835565 200.685488 
L 91.05178 200.842892 
L 91.184768 201.18391 
L 91.256806 201.89878 
L 91.684995 202.379157 
L 92.241421 212.21109 
L 92.51685 212.412181 
L 92.762952 211.40387 
L 93.300832 212.066656 
L 93.805913 213.383974 
L 94.036484 213.09016 
L 94.270529 214.747512 
L 94.630053 215.757025 
L 95.314716 219.76659 
L 95.578087 220.142966 
L 95.8106 219.506168 
L 96.054148 219.559279 
L 96.564184 224.340409 
L 96.818308 224.568569 
L 97.045558 225.637753 
L 97.277457 225.645276 
L 97.481564 223.621651 
L 98.226871 222.176728 
L 98.642645 221.649091 
L 98.921752 221.921891 
L 99.122589 223.131797 
L 99.362765 223.502488 
L 99.545516 223.512885 
L 99.944481 222.099566 
L 100.359438 220.736414 
L 100.707108 221.212578 
L 100.867839 220.827342 
L 101.210196 220.879822 
L 102.001638 220.384105 
L 102.25239 220.715535 
L 102.417565 221.814986 
L 102.65672 222.188855 
L 103.932652 222.041199 
L 104.080406 222.453993 
L 104.224328 223.736284 
L 106.798571 226.113474 
L 107.045031 226.789057 
L 107.301199 229.252227 
L 107.665116 230.355008 
L 108.362194 230.644386 
L 108.936706 230.406736 
L 109.189246 230.514707 
L 109.462325 230.348809 
L 110.319776 230.574069 
L 110.853058 232.888037 
L 111.178913 232.756229 
L 111.814682 233.667446 
L 112.147741 233.898695 
L 112.358336 233.699489 
L 112.610518 233.855112 
L 112.872306 232.994447 
L 113.352352 233.313432 
L 113.758572 234.130089 
L 114.011214 234.355171 
L 114.516396 234.065414 
L 114.779359 234.334611 
L 115.031848 234.717998 
L 115.36741 236.479615 
L 115.565947 237.437514 
L 115.810517 236.802671 
L 116.028061 237.065394 
L 117.651 236.357592 
L 120.486366 235.978391 
L 120.804251 235.6606 
L 122.184613 235.450832 
L 125.09636 234.314973 
L 125.779848 231.196224 
L 127.298818 229.971998 
L 127.436864 228.806958 
L 127.751377 228.747987 
L 128.509712 228.840758 
L 128.765011 229.261337 
L 128.950929 229.227943 
L 129.097968 228.777686 
L 129.651788 227.820894 
L 129.775223 227.010493 
L 130.359595 226.360851 
L 130.653212 223.608467 
L 130.899008 222.291222 
L 134.240783 221.176424 
L 134.34792 221.281019 
L 134.62013 221.079707 
L 135.059814 217.980313 
L 136.48861 216.975816 
L 136.719743 217.643253 
L 137.021534 217.022182 
L 137.803576 217.281255 
L 138.024593 216.897132 
L 138.260222 215.781007 
L 138.917245 206.897601 
L 139.160538 207.116918 
L 139.446798 208.198022 
L 139.643292 208.072213 
L 139.806219 208.362377 
L 140.019726 209.30744 
L 140.19655 209.402996 
L 140.357485 208.596743 
L 140.611302 208.861277 
L 140.895825 207.877093 
L 141.06146 207.754528 
L 141.345268 208.074591 
L 141.535784 207.783151 
L 141.736978 208.336424 
L 141.974344 209.688576 
L 142.201595 210.299875 
L 142.507473 212.821864 
L 143.116778 212.415967 
L 143.516714 215.662465 
L 143.699056 215.847402 
L 143.831431 216.293149 
L 144.021334 216.23228 
L 144.236119 216.841997 
L 144.452946 218.540803 
L 145.000891 226.645869 
L 145.50122 227.413568 
L 145.648718 227.396204 
L 146.110474 225.53648 
L 146.383144 225.508854 
L 146.617649 224.91743 
L 146.879589 225.565582 
L 147.014366 224.595831 
L 147.622955 223.187072 
L 147.851687 221.986232 
L 147.987332 222.343286 
L 148.115008 221.183762 
L 148.733662 219.15342 
L 149.009448 219.100338 
L 149.176769 218.897549 
L 149.315173 218.197259 
L 149.542934 216.187293 
L 150.041628 215.969154 
L 150.240932 215.749372 
L 150.659261 214.359269 
L 150.729306 212.489152 
L 150.966825 211.995355 
L 151.072889 211.412558 
L 151.676574 210.311307 
L 152.59988 199.502449 
L 153.71074 195.222927 
L 153.864062 195.155057 
L 154.390907 198.494266 
L 154.564921 198.087636 
L 154.677116 199.745591 
L 154.979265 200.287421 
L 155.209274 201.196755 
L 155.512955 200.713701 
L 155.621472 200.891853 
L 155.884128 201.068293 
L 156.093547 200.439741 
L 156.615283 199.252918 
L 157.034276 196.288782 
L 157.346541 196.343828 
L 157.543443 197.049776 
L 157.633873 195.96143 
L 157.826024 194.994865 
L 157.993397 194.846583 
L 158.116422 192.140352 
L 158.333353 191.993948 
L 158.971063 195.175806 
L 159.190088 193.709422 
L 159.467407 194.795193 
L 160.033285 202.356379 
L 160.199584 203.16334 
L 160.314487 202.248663 
L 160.482319 202.301572 
L 160.687447 202.243877 
L 160.873774 201.435641 
L 161.029906 201.618488 
L 161.195184 202.055019 
L 161.375125 201.922377 
L 161.531104 202.0675 
L 161.774499 203.295395 
L 162.300475 205.13373 
L 162.927865 210.05125 
L 163.205133 212.456858 
L 163.448784 212.700595 
L 163.75599 216.013951 
L 163.970621 216.455803 
L 164.353647 219.28049 
L 164.698609 218.305837 
L 165.430838 219.354403 
L 165.631214 223.514601 
L 165.977863 224.717278 
L 166.433692 224.600699 
L 167.438283 230.710715 
L 167.949852 231.252953 
L 168.142259 231.503902 
L 168.564112 231.427929 
L 168.631399 230.958651 
L 169.237127 230.562031 
L 169.426111 231.093192 
L 169.580915 231.153635 
L 169.941511 231.638376 
L 170.077769 230.291399 
L 170.321828 230.414801 
L 171.134064 231.396553 
L 172.098039 231.504118 
L 172.315122 230.633318 
L 172.547226 230.781942 
L 172.652012 231.508187 
L 172.880438 230.636043 
L 173.097164 228.350745 
L 173.450454 226.609593 
L 173.633562 221.729895 
L 174.054905 221.592283 
L 174.519879 220.81654 
L 174.891562 219.529818 
L 175.138636 219.091025 
L 175.816759 218.762123 
L 176.22349 215.666286 
L 176.41278 213.48703 
L 176.720396 213.06817 
L 177.00497 213.245765 
L 177.361683 213.781699 
L 177.958011 214.08494 
L 178.629288 214.876852 
L 178.880756 214.950591 
L 179.265875 215.846091 
L 179.416848 215.47589 
L 179.721347 216.856833 
L 180.310368 217.344996 
L 180.450918 217.149385 
L 180.623962 216.599138 
L 180.875276 217.29196 
L 181.105336 217.260479 
L 181.830973 217.590257 
L 182.02992 219.280051 
L 182.137261 221.331504 
L 182.327113 221.778464 
L 182.459795 225.34514 
L 182.636108 224.569089 
L 182.753922 221.655098 
L 183.159121 222.643563 
L 183.207299 222.41344 
L 183.426324 222.517427 
L 183.821917 225.434081 
L 184.105776 226.385345 
L 184.365315 225.969674 
L 184.580355 224.499975 
L 185.27309 223.277075 
L 185.476175 220.985217 
L 185.853375 220.975585 
L 186.834516 220.779989 
L 186.980533 219.593076 
L 187.458433 218.862855 
L 187.716593 218.193445 
L 188.035704 218.400603 
L 188.289879 218.260067 
L 188.453726 217.940236 
L 189.446107 217.65153 
L 189.932539 218.48185 
L 190.170774 218.617191 
L 191.037114 218.536408 
L 191.564981 218.824144 
L 192.512811 222.299431 
L 193.093505 226.006658 
L 193.310435 226.465494 
L 193.462123 224.223946 
L 193.626378 224.204354 
L 194.235632 223.960613 
L 194.936286 225.363263 
L 195.713321 227.078444 
L 196.270564 228.978332 
L 196.508901 228.91215 
L 196.716226 228.550697 
L 196.951856 229.513989 
L 197.203732 229.503775 
L 197.704724 230.770569 
L 197.895854 230.945937 
L 198.206995 231.049949 
L 199.518282 231.337684 
L 200.328525 231.376965 
L 201.313345 231.211383 
L 201.703574 231.279576 
L 202.226689 231.180125 
L 202.514584 228.96646 
L 204.263205 228.91038 
L 205.595695 228.718705 
L 205.830047 229.836428 
L 207.147363 229.413766 
L 207.818743 229.497879 
L 208.011762 232.0063 
L 209.716446 231.831069 
L 210.23389 231.206719 
L 210.77688 229.026486 
L 211.040762 226.625964 
L 211.213958 226.717999 
L 211.722921 226.705521 
L 212.134711 227.252687 
L 212.393995 227.407386 
L 212.848444 227.153619 
L 213.674168 227.273897 
L 214.340898 227.071555 
L 214.542859 226.658096 
L 216.225267 224.575682 
L 216.441942 224.874692 
L 216.645946 224.447564 
L 217.249784 224.383195 
L 217.582945 224.714616 
L 217.846112 224.643368 
L 218.34031 224.825126 
L 218.807634 225.392755 
L 219.422712 229.577401 
L 219.649604 229.855129 
L 219.801241 229.837665 
L 219.902502 229.408257 
L 220.193156 229.875437 
L 220.541235 229.29012 
L 221.202601 226.187712 
L 221.416006 225.167228 
L 222.301812 225.96893 
L 222.719067 230.064796 
L 222.846436 228.419434 
L 223.310082 226.524126 
L 223.728615 226.195543 
L 223.91816 225.455024 
L 224.694377 225.089254 
L 224.768203 225.274245 
L 224.963369 224.210735 
L 225.114443 222.533225 
L 225.319367 222.36314 
L 225.762985 221.148849 
L 225.9089 220.898339 
L 226.210384 219.964628 
L 226.655995 219.873395 
L 226.843497 218.322108 
L 227.229077 205.963433 
L 227.891669 202.566182 
L 228.254104 202.627073 
L 228.557428 202.436474 
L 228.728581 203.161482 
L 230.960723 203.541394 
L 231.477196 201.363006 
L 231.663472 198.667879 
L 231.881271 197.433278 
L 232.123746 195.304321 
L 233.155722 195.123153 
L 233.290192 197.433602 
L 233.721191 200.237213 
L 233.965812 200.430018 
L 234.218659 200.0925 
L 234.538229 200.624061 
L 234.721133 200.50604 
L 236.266364 200.667634 
L 236.516094 201.49927 
L 236.651995 203.393347 
L 236.846956 202.514174 
L 237.030984 202.280211 
L 237.296654 202.958572 
L 237.43843 203.646289 
L 237.97396 205.233889 
L 238.139953 205.187617 
L 238.419366 206.748373 
L 238.771226 212.350142 
L 239.150726 219.719183 
L 239.592812 214.685233 
L 239.795283 213.907563 
L 240.103154 213.726853 
L 240.290043 213.473186 
L 240.727837 214.136747 
L 240.948344 216.630902 
L 241.170229 216.582843 
L 241.359877 217.045612 
L 241.554072 215.930756 
L 242.295292 215.457364 
L 242.693951 214.982686 
L 242.929631 213.66577 
L 244.604121 213.777852 
L 244.822737 212.370364 
L 245.034302 212.599831 
L 246.767086 212.109304 
L 246.949428 212.237482 
L 247.702705 212.407452 
L 247.896747 213.143164 
L 248.211924 213.117484 
L 249.740805 212.863496 
L 249.912214 211.539115 
L 250.22642 210.762034 
L 251.365839 210.267356 
L 251.535255 210.665689 
L 251.838886 210.761235 
L 252.071296 209.670574 
L 252.271213 211.409418 
L 252.426221 215.095582 
L 252.734757 215.866658 
L 253.114052 215.94853 
L 253.389072 215.135352 
L 253.531257 215.256836 
L 254.120892 217.908115 
L 254.38462 217.018588 
L 254.800139 216.794041 
L 255.004654 217.174196 
L 255.179486 216.602278 
L 255.30946 217.997994 
L 255.441069 217.783728 
L 255.57467 217.971107 
L 255.871199 217.106441 
L 256.66024 214.056355 
L 256.789141 211.220459 
L 257.112748 209.971858 
L 257.292229 208.780337 
L 257.429253 205.773882 
L 257.573942 206.048865 
L 257.755875 205.307383 
L 257.94726 205.694593 
L 258.031916 206.810754 
L 258.259065 207.365396 
L 258.481972 209.028067 
L 258.612508 208.377698 
L 258.786829 208.59374 
L 258.974484 208.032408 
L 259.119888 209.084609 
L 259.357305 209.925389 
L 259.533873 209.864218 
L 259.688115 209.432093 
L 259.88931 209.443267 
L 259.994301 210.003201 
L 260.244899 210.565024 
L 260.986732 214.517019 
L 261.115838 215.037383 
L 261.521139 215.037973 
L 261.737507 215.960585 
L 262.308493 216.327677 
L 262.668221 218.035353 
L 262.901909 219.740807 
L 263.12778 219.658391 
L 263.280336 223.121571 
L 263.459408 223.663245 
L 263.666478 222.517852 
L 263.867059 225.404442 
L 264.798642 225.748577 
L 265.012711 226.61912 
L 265.350214 225.348254 
L 266.245319 225.271918 
L 266.388985 226.220181 
L 266.569488 226.648671 
L 266.742787 227.986011 
L 267.068386 228.006962 
L 267.480993 228.261057 
L 268.175823 230.237547 
L 268.493094 230.380203 
L 268.690303 230.121052 
L 268.95531 230.231392 
L 269.498197 230.135467 
L 270.658818 230.372379 
L 270.802893 230.630496 
L 270.997957 230.653094 
L 272.581556 230.583808 
L 273.199597 230.87994 
L 273.440489 232.672937 
L 273.628144 232.843125 
L 273.809311 233.561446 
L 274.017709 235.980458 
L 274.674936 236.367141 
L 275.142107 235.503481 
L 275.31326 236.528049 
L 275.571267 236.51637 
L 276.10317 237.955251 
L 276.653465 237.053503 
L 277.315597 236.036138 
L 277.457578 235.585418 
L 277.641912 235.372413 
L 277.865637 234.923349 
L 277.997655 234.131723 
L 278.613346 233.266212 
L 278.818934 232.72766 
L 279.090224 232.641967 
L 279.264902 232.75931 
L 280.213498 231.339254 
L 281.055367 225.782022 
L 281.681582 223.911475 
L 281.830767 222.462929 
L 283.7205 221.544008 
L 284.049471 218.879969 
L 285.706795 216.210712 
L 286.226946 203.038642 
L 286.563837 201.79338 
L 286.916821 201.623359 
L 287.280738 200.794997 
L 287.475852 200.763533 
L 287.885087 201.197291 
L 288.038154 201.970713 
L 288.479677 202.111708 
L 289.022411 203.328086 
L 289.224525 203.475614 
L 289.689244 202.47184 
L 289.86336 202.689052 
L 290.244444 203.75965 
L 290.617915 204.177467 
L 291.28066 208.451303 
L 291.59456 209.668357 
L 291.926801 210.029959 
L 292.233701 214.491121 
L 292.60564 224.281825 
L 292.932057 227.440649 
L 293.358662 225.837324 
L 293.603743 225.679848 
L 294.119654 226.37811 
L 294.536961 226.964419 
L 294.705355 227.380126 
L 295.291005 227.674997 
L 295.850752 227.137537 
L 296.269796 226.883264 
L 296.820346 227.242494 
L 296.925848 227.171232 
L 297.257476 227.360612 
L 298.801378 227.321555 
L 299.224152 228.558814 
L 299.669763 228.821272 
L 300.098718 229.402975 
L 300.454103 230.648392 
L 300.564459 231.289699 
L 301.048387 232.733061 
L 301.348442 234.190297 
L 301.508712 235.412565 
L 301.633373 235.296703 
L 302.168801 236.710576 
L 302.392117 237.568725 
L 303.230256 237.402425 
L 303.40662 237.54189 
L 303.598056 237.307614 
L 303.818205 237.460052 
L 304.015567 237.120176 
L 304.246752 237.044484 
L 304.850794 237.490079 
L 305.130105 238.271273 
L 305.379171 238.429317 
L 305.607035 237.758015 
L 305.876486 237.603242 
L 306.347489 236.759208 
L 306.655053 233.654634 
L 306.811134 229.093272 
L 307.348657 225.151892 
L 307.710531 219.667916 
L 307.911878 218.963548 
L 308.201919 218.632335 
L 308.371079 217.941341 
L 308.963269 217.35209 
L 309.251623 216.342128 
L 309.37281 215.403533 
L 310.036832 214.474237 
L 310.291978 214.149131 
L 310.597294 213.098161 
L 311.360637 211.961455 
L 311.953592 211.957368 
L 312.991444 211.125381 
L 313.293133 211.2183 
L 313.634468 211.702272 
L 313.811088 211.648267 
L 313.995678 211.766116 
L 314.305899 211.676704 
L 315.100355 211.573819 
L 315.274318 212.744735 
L 315.607837 213.274978 
L 316.306652 225.281676 
L 317.209011 227.927013 
L 317.388032 229.630448 
L 317.643995 230.059454 
L 318.178146 229.161313 
L 318.35635 227.393419 
L 318.518664 226.938073 
L 318.731711 225.839588 
L 318.924782 225.449298 
L 319.521774 223.094385 
L 319.720209 222.673716 
L 319.913535 222.57436 
L 320.214611 222.688505 
L 320.420863 221.975325 
L 320.625736 221.836452 
L 320.880626 221.802658 
L 321.036248 221.932854 
L 321.304371 221.182026 
L 321.539438 218.36374 
L 321.725305 218.098478 
L 322.302627 219.275138 
L 322.904677 219.346706 
L 323.187718 219.289747 
L 323.495333 219.004654 
L 323.86017 219.23875 
L 323.959643 219.554676 
L 324.224036 216.07516 
L 324.371841 216.581601 
L 324.572575 215.764758 
L 324.791498 216.283461 
L 325.43442 221.411797 
L 325.900672 221.607226 
L 326.229183 221.525298 
L 326.407795 221.785152 
L 326.610829 221.354516 
L 327.015669 221.536723 
L 327.207463 222.423291 
L 327.382346 224.19493 
L 327.668759 225.598333 
L 327.915679 225.374665 
L 328.1158 225.476549 
L 328.298551 224.80606 
L 328.479666 222.191734 
L 328.646068 221.420337 
L 329.383456 220.807657 
L 329.548989 220.997988 
L 330.500907 219.991638 
L 330.707721 221.801685 
L 331.012066 225.497521 
L 331.477807 227.359671 
L 331.629801 226.957971 
L 331.871868 226.636314 
L 332.02989 225.998262 
L 332.259082 226.509419 
L 332.746996 226.044313 
L 332.984413 225.38649 
L 333.284723 226.374353 
L 333.624015 226.642651 
L 335.47589 226.509896 
L 335.869491 226.805078 
L 336.125505 227.755701 
L 336.241378 227.622597 
L 336.423465 227.93708 
L 336.652196 230.640478 
L 336.826977 231.337301 
L 337.271668 231.896296 
L 337.71406 231.864425 
L 337.85318 231.381494 
L 338.024639 231.801299 
L 339.064074 232.014297 
L 339.222404 232.297367 
L 339.502277 231.749841 
L 339.947326 231.883992 
L 340.101364 232.16635 
L 340.287895 232.275821 
L 340.791749 233.282796 
L 341.204049 233.440241 
L 341.375202 233.808964 
L 341.732273 234.288986 
L 342.10508 233.241332 
L 342.330031 233.432652 
L 342.833272 232.405715 
L 343.157441 230.206769 
L 343.425819 229.406555 
L 344.009425 228.778597 
L 344.193606 228.886383 
L 344.491464 229.242706 
L 344.794839 229.125037 
L 345.620716 227.438011 
L 346.10398 225.940981 
L 346.488027 225.59227 
L 346.754464 224.991436 
L 347.024681 224.659281 
L 347.553263 224.635462 
L 347.854595 224.837662 
L 348.079955 225.208826 
L 348.457104 224.975612 
L 349.241445 224.98871 
L 349.818971 221.245678 
L 350.522946 213.18742 
L 351.996446 212.810499 
L 359.462242 214.074407 
L 359.897584 213.526232 
L 360.486606 209.144663 
L 361.05703 209.009371 
L 361.415685 210.475008 
L 361.651263 210.682666 
L 362.36888 211.603228 
L 362.624383 211.779685 
L 362.894345 213.207713 
L 363.281304 213.270579 
L 363.838343 214.813142 
L 365.225756 215.908338 
L 365.701765 216.395825 
L 365.890698 215.671618 
L 366.133326 215.199061 
L 366.372685 215.391475 
L 366.66201 216.712892 
L 366.935651 221.075929 
L 367.182213 222.492357 
L 367.737873 221.776164 
L 367.995267 221.82266 
L 368.20392 222.929399 
L 368.420952 223.314375 
L 368.710635 221.826654 
L 369.559094 221.381808 
L 369.732086 220.62912 
L 370.141372 220.019698 
L 370.738619 217.419257 
L 370.935675 217.427629 
L 371.116229 218.017048 
L 371.392577 218.495901 
L 371.615536 217.151956 
L 371.891782 217.101163 
L 372.087152 216.557226 
L 372.626462 216.482202 
L 373.03723 216.068019 
L 373.651337 214.546872 
L 373.953588 212.068392 
L 374.155753 212.964103 
L 374.466894 213.011026 
L 374.667168 214.034663 
L 374.886142 213.460711 
L 375.221551 211.886817 
L 375.712121 209.270137 
L 375.937277 210.207494 
L 376.321221 213.32042 
L 376.54091 214.804319 
L 376.755235 214.776109 
L 376.983609 214.34678 
L 377.237682 214.742089 
L 377.757067 217.069063 
L 378.266643 215.533566 
L 378.660551 216.016644 
L 378.900063 215.601291 
L 379.334587 212.633186 
L 379.568019 212.199342 
L 379.716744 211.179807 
L 379.959525 211.508381 
L 380.189381 212.266553 
L 380.478809 214.594253 
L 381.622877 209.104534 
L 381.788819 209.111129 
L 382.054285 206.342351 
L 382.336253 204.831044 
L 382.899065 202.591953 
L 383.123812 200.967701 
L 383.326335 201.396901 
L 383.725913 201.057859 
L 383.928896 200.724711 
L 384.39106 197.92544 
L 384.594246 196.88518 
L 385.15946 196.384573 
L 385.644922 196.569283 
L 385.900936 197.048847 
L 386.068308 196.406505 
L 386.458333 197.959424 
L 386.61845 196.745203 
L 386.78383 196.994327 
L 387.157914 199.050042 
L 387.320586 199.262314 
L 387.504971 199.865026 
L 387.746885 200.063024 
L 388.115298 197.700347 
L 388.345358 197.764862 
L 388.647354 200.182977 
L 388.941226 205.150088 
L 389.097256 206.67301 
L 389.561055 208.882985 
L 389.700073 211.68466 
L 390.258133 215.666919 
L 390.658427 214.097401 
L 391.064698 217.176924 
L 391.437556 219.889192 
L 391.743588 220.103904 
L 391.955154 220.620534 
L 392.161304 220.183855 
L 392.325202 221.362988 
L 392.497734 220.694895 
L 393.053547 220.844407 
L 393.498954 220.662023 
L 393.735247 220.94526 
L 393.860725 223.172388 
L 394.117046 225.71455 
L 394.350734 226.817069 
L 394.466811 224.690264 
L 394.806512 224.744871 
L 395.089502 224.339161 
L 395.181618 223.10232 
L 395.406007 223.294393 
L 395.849779 223.213272 
L 396.286909 222.849928 
L 397.126427 223.077857 
L 398.802296 223.16881 
L 399.1937 224.101858 
L 399.376195 225.29914 
L 399.634099 223.921182 
L 400.290152 222.824571 
L 400.636851 222.450547 
L 400.813982 223.0792 
L 401.027642 222.940992 
L 401.52981 224.194952 
L 401.672915 224.883801 
L 402.403763 224.747786 
L 402.841609 225.019388 
L 403.311743 225.733875 
L 403.689506 226.009671 
L 403.914763 225.715671 
L 404.412691 225.50908 
L 404.958797 225.730961 
L 405.077735 228.231931 
L 405.653729 231.13331 
L 406.286075 231.110027 
L 406.357193 229.932119 
L 406.546126 229.237632 
L 406.941106 226.001171 
L 407.058512 225.827681 
L 407.137651 225.998818 
L 407.726622 226.392792 
L 407.979111 227.945468 
L 408.228892 227.934463 
L 408.451442 227.318727 
L 409.484389 228.48083 
L 409.614823 228.817164 
L 410.268627 228.568532 
L 410.513095 228.725191 
L 410.967595 229.436502 
L 411.22223 229.25645 
L 411.369677 229.408561 
L 411.785298 229.421257 
L 412.052654 229.25681 
L 412.495047 228.796801 
L 413.312494 228.716429 
L 413.665529 229.578532 
L 414.829829 229.729126 
L 415.099433 229.135366 
L 416.158181 229.363344 
L 416.307569 230.601807 
L 416.471212 231.003023 
L 416.713942 232.050631 
L 417.167421 233.394856 
L 417.376483 233.455189 
L 417.557037 233.374153 
L 417.688442 233.062735 
L 418.528317 232.742525 
L 418.780551 233.046555 
L 419.188508 233.776965 
L 419.51094 233.128674 
L 419.744934 232.872521 
L 420.10548 232.692012 
L 421.523904 232.609414 
L 422.025203 231.114834 
L 422.546888 226.847048 
L 423.266497 226.482431 
L 423.41517 225.927382 
L 423.697342 225.926534 
L 423.827725 224.688701 
L 424.195781 222.976449 
L 424.943285 222.483532 
L 425.435133 220.846575 
L 425.87446 220.882703 
L 427.022002 221.697864 
L 427.471854 221.636527 
L 427.924566 221.152137 
L 428.347135 221.188102 
L 428.855843 221.564407 
L 429.042221 222.053905 
L 429.473015 221.844502 
L 429.636096 221.903391 
L 429.790491 221.582312 
L 429.964046 221.903493 
L 430.718652 221.84865 
L 430.860172 221.340661 
L 431.123084 221.695087 
L 431.45558 221.302768 
L 431.668474 220.558894 
L 433.201494 220.14045 
L 433.622735 219.392876 
L 433.905061 220.956413 
L 434.389756 226.05757 
L 434.616853 225.843348 
L 434.850898 225.268501 
L 435.377794 224.875252 
L 435.895851 227.884645 
L 436.141034 227.660854 
L 436.351016 227.830277 
L 436.547561 228.338018 
L 436.939016 228.454535 
L 440.128082 228.359811 
L 440.269755 228.483039 
L 440.493991 228.982743 
L 440.828072 228.981797 
L 444.627924 227.980268 
L 445.229718 228.317729 
L 445.457224 228.581943 
L 446.598636 229.044407 
L 447.205335 228.735303 
L 447.407602 228.905639 
L 448.951249 228.994285 
L 449.399261 228.252797 
L 449.778556 226.302042 
L 449.857184 226.957085 
L 450.284607 228.203264 
L 450.542461 228.432027 
L 450.812984 227.781188 
L 450.962066 226.92696 
L 451.166019 227.11051 
L 451.312189 226.342326 
L 451.710593 226.637882 
L 452.179501 227.617659 
L 453.682326 223.332098 
L 453.972469 221.562534 
L 454.138513 219.28523 
L 454.354421 218.111447 
L 455.024932 216.613696 
L 455.586927 211.999624 
L 456.15025 210.953907 
L 456.493272 209.519222 
L 457.177884 210.272443 
L 457.566375 208.394553 
L 459.778592 205.346444 
L 460.84439 203.256816 
L 461.391517 202.028657 
L 461.551175 202.8063 
L 461.884642 203.221322 
L 462.36714 202.322737 
L 462.745107 200.995846 
L 463.310168 200.296028 
L 463.448316 196.873889 
L 463.936435 194.967727 
L 464.149737 193.441937 
L 464.411116 193.115429 
L 467.102305 191.141533 
L 467.258438 191.685369 
L 467.393061 191.53525 
L 468.086512 191.322059 
L 468.236411 194.413997 
L 468.825177 196.193871 
L 469.091205 198.333819 
L 469.976296 209.525662 
L 470.283707 211.369762 
L 470.557757 211.790239 
L 470.971385 212.033475 
L 471.294634 213.632975 
L 471.623912 217.737647 
L 471.83936 218.23909 
L 471.988391 219.306348 
L 472.216561 219.981143 
L 472.610775 222.807396 
L 473.049949 224.018618 
L 473.519163 229.786198 
L 473.898305 231.731649 
L 474.22273 231.325345 
L 475.801169 231.09031 
L 475.899621 230.363834 
L 476.150628 230.58107 
L 476.284587 230.451962 
L 477.557352 230.105567 
L 478.027844 229.710233 
L 478.191487 229.341132 
L 478.895718 228.870944 
L 479.101868 228.436319 
L 480.043311 228.531556 
L 480.211092 227.971315 
L 480.51227 226.499739 
L 481.901113 224.66979 
L 482.094593 224.702217 
L 482.28046 225.219855 
L 482.507506 225.166156 
L 482.818442 224.8765 
L 483.613103 224.909468 
L 483.914843 225.454566 
L 484.089777 226.026422 
L 484.719671 226.364496 
L 484.934915 226.841738 
L 485.184032 227.834769 
L 485.566138 228.378862 
L 486.053592 230.517422 
L 486.257851 227.880249 
L 486.737437 225.72503 
L 487.481365 224.672402 
L 489.332781 223.511546 
L 495.924522 223.000827 
L 496.5115 222.815573 
L 497.058065 222.421425 
L 497.623483 221.410406 
L 497.746867 220.484001 
L 500.828847 220.191316 
L 501.080672 219.859421 
L 502.085416 215.339305 
L 502.460114 209.293129 
L 502.773911 209.188052 
L 503.853299 207.801814 
L 504.762709 206.97401 
L 506.897626 204.660729 
L 507.259704 203.666236 
L 508.328311 203.034237 
L 509.527353 202.698959 
L 510.184683 201.792253 
L 510.904803 201.974262 
L 511.417138 208.101707 
L 511.638206 209.222644 
L 511.936677 208.847285 
L 512.094342 208.310995 
L 512.340189 209.166737 
L 512.65884 209.46367 
L 513.177817 211.395531 
L 513.284391 213.30568 
L 513.990002 219.194679 
L 514.160542 223.678713 
L 514.375632 225.767765 
L 514.706392 225.83634 
L 514.958472 225.596674 
L 515.048749 226.105044 
L 515.245652 225.177998 
L 515.500133 226.134379 
L 515.6485 228.369086 
L 516.020029 228.630636 
L 516.485515 229.437405 
L 516.890713 229.272847 
L 517.407493 228.747878 
L 517.63929 228.215803 
L 518.969277 227.905483 
L 519.743501 230.82971 
L 520.469088 231.310408 
L 520.801278 230.617465 
L 521.090246 229.718243 
L 521.306818 229.726231 
L 521.58899 230.617225 
L 521.927363 230.780101 
L 522.115426 230.673879 
L 522.744656 227.190801 
L 522.970425 227.055834 
L 523.215455 226.760592 
L 523.516889 226.724682 
L 524.061155 227.36546 
L 524.301025 229.034795 
L 525.250592 228.598422 
L 525.578235 228.317302 
L 525.900309 227.428608 
L 526.271992 228.177547 
L 527.528408 227.969433 
L 527.908061 226.832286 
L 529.984479 226.199865 
L 530.229714 225.546985 
L 530.796613 225.056536 
L 531.12957 225.908468 
L 531.46176 227.283643 
L 531.939813 227.592473 
L 532.112856 227.486056 
L 532.475139 226.544063 
L 533.11847 228.353846 
L 533.690938 229.097201 
L 536.964814 229.015245 
L 537.592511 230.146971 
L 538.076849 230.355306 
L 538.233952 230.581189 
L 538.316821 230.131747 
L 539.148573 229.304627 
L 539.533488 227.041586 
L 539.681497 227.638394 
L 539.962546 227.433221 
L 540.243237 227.036764 
L 540.507528 227.719137 
L 540.737333 228.267769 
L 540.990435 228.473271 
L 541.279709 229.212008 
L 541.465576 229.189984 
L 541.688075 229.295301 
L 542.112126 229.993679 
L 542.366658 230.10386 
L 542.749836 229.841897 
L 543.5095 229.206594 
L 543.99818 229.110023 
L 544.406444 228.90005 
L 544.661539 228.410898 
L 544.831721 228.456896 
L 545.151956 228.159066 
L 545.427385 226.730086 
L 545.928224 226.022527 
L 546.869055 229.709127 
L 547.200938 230.561083 
L 547.403819 231.578673 
L 547.790114 231.912255 
L 548.042194 232.42767 
L 548.371932 230.996396 
L 548.753475 230.244257 
L 548.753475 230.244257 
" clip-path="url(#pf1f1b943f0)" style="fill: none; stroke: #1f77b4; stroke-width: 1.5; stroke-linecap: square"/>
   </g>
   <g id="line2d_13">
    <path d="M 63.827775 147.689512 
L 64.83206 143.878507 
L 65.007862 147.208677 
L 65.639085 145.797042 
L 65.754702 146.995505 
L 66.04229 146.977176 
L 66.205678 154.936407 
L 66.549823 162.000187 
L 66.881502 165.788826 
L 67.092455 164.855038 
L 67.302794 165.368839 
L 67.575208 166.913027 
L 67.709065 170.745414 
L 67.849411 169.592586 
L 68.010805 169.551431 
L 69.474853 169.683019 
L 69.820889 171.890785 
L 70.197732 172.337355 
L 70.338129 172.068789 
L 70.637059 172.1853 
L 70.794571 173.196918 
L 71.148525 174.085331 
L 71.356821 175.018599 
L 71.77142 174.217359 
L 71.980278 174.865805 
L 72.249575 178.309297 
L 72.364018 173.588534 
L 72.680115 172.962643 
L 73.017209 179.982356 
L 73.323088 187.431765 
L 73.885032 189.909053 
L 74.04142 188.011151 
L 74.248132 188.310981 
L 74.362012 190.487099 
L 74.582519 192.454321 
L 74.932999 201.103747 
L 75.513744 205.325364 
L 75.671971 205.525667 
L 76.000023 201.360019 
L 76.256037 195.201635 
L 76.381362 195.266623 
L 76.552004 195.550325 
L 77.125801 195.978532 
L 77.279788 197.110395 
L 77.508826 197.123823 
L 77.755593 196.811915 
L 77.907638 196.877141 
L 78.478727 196.428591 
L 78.59128 196.823546 
L 79.148472 203.357524 
L 79.300108 208.862348 
L 79.545291 213.498017 
L 79.709087 213.644458 
L 80.004952 214.640879 
L 80.49823 214.796288 
L 80.800839 212.651429 
L 81.062984 211.839388 
L 81.833939 213.336001 
L 82.550125 209.537942 
L 83.041513 209.326434 
L 83.195397 209.488057 
L 83.355515 209.205629 
L 84.41978 206.2119 
L 85.036033 215.29745 
L 85.210813 215.052599 
L 85.55879 212.508822 
L 86.328723 208.518615 
L 86.790632 205.090644 
L 87.11148 201.27165 
L 87.220609 197.863724 
L 87.60859 196.109745 
L 88.213195 189.605325 
L 88.433701 189.601802 
L 88.57936 189.206506 
L 89.297998 177.570104 
L 89.380816 172.14585 
L 89.579609 172.187631 
L 89.891618 172.421074 
L 90.092301 173.654673 
L 90.514921 173.889822 
L 90.835565 174.328543 
L 91.05178 175.380308 
L 91.256806 178.215658 
L 91.684995 178.727283 
L 92.070217 178.450762 
L 92.51685 182.47806 
L 92.762952 182.716766 
L 93.00977 178.80304 
L 93.080428 173.021333 
L 93.300832 166.867123 
L 93.805913 163.178189 
L 94.036484 166.660049 
L 94.270529 167.089021 
L 94.520872 166.332919 
L 94.630053 166.681846 
L 94.758954 168.880956 
L 94.950543 168.709255 
L 95.066621 168.969713 
L 95.314716 171.136901 
L 95.8106 178.64665 
L 96.054148 183.712465 
L 97.481564 182.225182 
L 98.059908 179.748123 
L 98.226871 179.880708 
L 98.453202 179.775471 
L 98.721784 179.480969 
L 98.921752 179.719973 
L 99.122589 181.131735 
L 99.545516 192.141052 
L 99.944481 206.169791 
L 100.19743 209.945563 
L 100.359438 214.558124 
L 100.582499 213.489465 
L 100.867839 211.453286 
L 101.406434 195.989944 
L 101.634451 192.927546 
L 102.001638 192.723562 
L 102.417565 187.676929 
L 102.65672 181.655985 
L 103.932652 179.850123 
L 104.080406 178.663731 
L 104.224328 178.681973 
L 106.5797 179.216376 
L 106.798571 179.659404 
L 107.045031 180.86777 
L 107.301199 180.451488 
L 107.545667 180.756691 
L 107.665116 179.092057 
L 108.596137 175.040409 
L 108.819658 173.070808 
L 109.189246 163.741651 
L 109.462325 161.451153 
L 110.102693 161.525642 
L 110.319776 161.130436 
L 110.485156 152.713358 
L 110.853058 147.537622 
L 111.178913 148.353029 
L 111.456641 146.008827 
L 111.629173 148.749451 
L 112.358336 165.94299 
L 112.610518 163.797154 
L 112.715356 166.644189 
L 112.872306 167.115204 
L 113.190344 170.415945 
L 113.758572 146.983807 
L 114.011214 145.344495 
L 114.516396 140.596461 
L 114.658734 141.121503 
L 114.779359 143.026235 
L 115.031848 141.03199 
L 115.205096 138.547798 
L 115.565947 125.663218 
L 115.810517 129.185342 
L 116.028061 125.604031 
L 116.787367 124.743045 
L 117.266391 122.265233 
L 117.651 122.109054 
L 120.486366 126.305075 
L 120.804251 128.581041 
L 121.931357 131.855256 
L 122.184613 131.91916 
L 125.09636 136.370394 
L 125.47637 137.308934 
L 125.779848 140.608058 
L 127.298818 140.373354 
L 127.436864 142.181643 
L 128.765011 125.424539 
L 129.097968 118.67303 
L 129.651788 123.73993 
L 129.775223 130.856954 
L 130.359595 135.750426 
L 130.516392 134.943019 
L 130.653212 137.061111 
L 130.899008 138.794634 
L 134.240783 136.937288 
L 134.34792 127.119278 
L 134.62013 125.64586 
L 134.856985 129.227773 
L 135.059814 136.895373 
L 136.719743 150.791699 
L 137.021534 155.97888 
L 137.803576 156.474634 
L 138.024593 158.400085 
L 138.260222 159.217069 
L 138.444659 163.452981 
L 138.600944 163.845154 
L 138.724123 163.735304 
L 138.917245 163.381778 
L 139.160538 163.734188 
L 139.446798 163.357079 
L 139.643292 163.642157 
L 139.806219 161.75695 
L 140.19655 151.465187 
L 141.06146 186.311196 
L 141.736978 192.876473 
L 141.974344 195.00235 
L 142.201595 194.525098 
L 142.349348 194.639505 
L 142.507473 196.540285 
L 143.116778 212.912163 
L 143.247467 212.790652 
L 143.831431 205.939016 
L 144.021334 205.364773 
L 144.236119 203.176842 
L 144.452946 196.354552 
L 144.659147 195.717475 
L 144.799697 194.207818 
L 145.000891 193.756964 
L 145.50122 194.132587 
L 145.648718 194.004402 
L 145.823294 194.222045 
L 146.110474 194.163991 
L 146.383144 196.285007 
L 146.879589 207.756749 
L 147.014366 208.380873 
L 147.851687 208.451148 
L 147.987332 207.917296 
L 148.115008 208.0874 
L 148.352374 207.755066 
L 148.587185 208.08249 
L 148.733662 208.639306 
L 149.176769 209.651766 
L 149.315173 210.604503 
L 149.542934 210.773109 
L 150.041628 210.131181 
L 150.491429 203.488853 
L 150.966825 208.391717 
L 151.072889 210.70048 
L 151.312452 211.846166 
L 151.513953 214.666687 
L 151.676574 222.215174 
L 152.323941 226.41812 
L 152.59988 226.830745 
L 153.301148 227.344964 
L 153.71074 227.196204 
L 154.087328 227.093114 
L 154.390907 227.197433 
L 154.677116 227.89814 
L 154.979265 228.164185 
L 155.512955 228.104986 
L 155.621472 228.246627 
L 156.093547 228.45721 
L 156.615283 229.647022 
L 157.034276 236.77938 
L 157.346541 236.718751 
L 157.633873 237.228295 
L 157.826024 237.224545 
L 158.116422 236.709462 
L 158.333353 236.570395 
L 158.971063 236.538421 
L 159.190088 236.681441 
L 159.467407 236.601796 
L 160.033285 235.288785 
L 160.314487 234.753047 
L 160.687447 231.904409 
L 160.873774 231.25685 
L 161.195184 228.348216 
L 161.531104 227.117515 
L 161.687849 223.214889 
L 161.98632 209.02186 
L 162.300475 194.50979 
L 162.541417 193.809382 
L 162.63149 192.51751 
L 163.448784 189.550647 
L 163.75599 187.190626 
L 163.970621 187.132972 
L 164.353647 187.21714 
L 165.430838 185.455621 
L 166.201997 181.794977 
L 166.433692 180.917107 
L 167.073753 163.498887 
L 167.438283 151.557971 
L 168.142259 138.944648 
L 168.353824 138.35808 
L 168.564112 139.032993 
L 168.631399 146.197799 
L 168.879494 147.771909 
L 169.237127 153.572751 
L 169.426111 152.070665 
L 169.580915 152.718312 
L 169.941511 153.294677 
L 170.077769 152.437358 
L 170.321828 146.754323 
L 171.756039 130.605741 
L 172.098039 123.053742 
L 172.315122 122.901736 
L 172.652012 122.183262 
L 173.450454 124.630525 
L 173.633562 126.356201 
L 173.841756 125.801955 
L 174.054905 125.898721 
L 174.519879 126.83764 
L 175.138636 136.848323 
L 175.816759 138.047141 
L 176.042681 142.748662 
L 176.41278 154.382976 
L 176.720396 158.286855 
L 177.00497 158.626996 
L 177.361683 158.344425 
L 177.958011 165.169383 
L 178.410519 165.345298 
L 178.629288 171.174284 
L 179.098707 166.032029 
L 179.416848 155.377882 
L 179.721347 150.423729 
L 180.050471 150.946066 
L 180.310368 149.304831 
L 180.623962 159.646465 
L 181.105336 156.799968 
L 181.830973 153.153804 
L 182.327113 152.242671 
L 182.459795 150.368217 
L 182.636108 150.555145 
L 182.753922 151.136166 
L 182.915879 151.226656 
L 183.159121 151.081358 
L 183.207299 152.150176 
L 183.426324 152.571309 
L 183.562582 153.538756 
L 183.821917 152.425293 
L 184.105776 153.651607 
L 184.365315 156.282159 
L 184.580355 160.680366 
L 185.023513 162.449187 
L 185.27309 158.620252 
L 185.476175 160.715759 
L 185.853375 150.255887 
L 186.834516 143.153773 
L 186.980533 147.239343 
L 187.458433 150.737385 
L 188.453726 173.617097 
L 189.932539 194.393233 
L 190.170774 188.619132 
L 191.037114 188.725349 
L 191.564981 186.861029 
L 191.952655 186.52087 
L 192.303391 186.944525 
L 192.512811 187.449526 
L 192.820835 186.016632 
L 193.093505 185.964127 
L 193.310435 185.80068 
L 193.462123 186.589789 
L 193.626378 186.514078 
L 194.235632 188.04613 
L 194.936286 184.86338 
L 195.479378 183.37687 
L 195.713321 187.125068 
L 196.270564 185.587479 
L 196.716226 193.284566 
L 197.437215 177.166264 
L 197.518449 168.189 
L 197.704724 164.125768 
L 197.895854 163.049627 
L 200.328525 160.943782 
L 201.313345 168.142941 
L 201.703574 171.929114 
L 202.383077 173.100141 
L 202.514584 172.854651 
L 204.263205 172.310973 
L 205.595695 172.324828 
L 205.830047 174.060061 
L 206.670996 174.256143 
L 207.147363 174.01892 
L 207.818743 173.891083 
L 208.011762 173.324018 
L 209.716446 171.925663 
L 210.090224 171.303935 
L 210.23389 171.405878 
L 210.56838 172.193222 
L 210.77688 173.807316 
L 210.867616 175.399804 
L 211.040762 176.470364 
L 211.918138 188.967177 
L 212.134711 195.678886 
L 212.393995 199.699445 
L 212.545171 205.653154 
L 212.655424 214.698034 
L 212.848444 217.521076 
L 213.181298 213.91115 
L 213.367574 208.870896 
L 213.674168 203.595441 
L 213.970901 200.84083 
L 214.184664 200.416411 
L 214.340898 199.665436 
L 214.542859 199.701471 
L 215.993572 199.644034 
L 216.225267 200.301931 
L 216.441942 200.496959 
L 216.645946 201.062153 
L 216.804224 200.166094 
L 217.034182 199.757033 
L 217.452204 198.196817 
L 217.582945 198.36521 
L 217.846112 191.753119 
L 218.969744 181.865996 
L 219.265455 174.836677 
L 219.422712 172.038178 
L 219.801241 156.856335 
L 220.03079 140.74079 
L 220.193156 138.882947 
L 220.541235 137.923239 
L 220.859784 139.23136 
L 221.202601 149.543802 
L 221.416006 155.682698 
L 221.694653 138.643873 
L 221.762297 130.991101 
L 222.301812 123.459972 
L 222.846436 109.201277 
L 223.310082 111.816796 
L 223.573708 112.20301 
L 223.91816 114.102301 
L 224.694377 114.44708 
L 224.768203 121.034006 
L 225.114443 131.756119 
L 225.9089 144.799915 
L 226.210384 146.902965 
L 226.655995 153.12744 
L 227.229077 176.013691 
L 227.891669 178.307718 
L 228.728581 178.12692 
L 230.960723 177.861639 
L 231.477196 199.023539 
L 231.881271 215.307476 
L 232.123746 221.957917 
L 233.290192 230.106765 
L 233.721191 228.746023 
L 233.965812 227.530403 
L 234.218659 224.834401 
L 236.651995 226.325018 
L 237.43843 224.076016 
L 238.139953 224.193198 
L 238.419366 222.497804 
L 238.993725 222.665004 
L 239.150726 223.833423 
L 239.3861 223.57859 
L 239.592812 223.811626 
L 240.103154 223.586605 
L 240.290043 223.740926 
L 240.727837 223.344989 
L 241.359877 223.437323 
L 241.554072 223.108267 
L 242.295292 223.447314 
L 242.693951 223.324028 
L 242.929631 224.360177 
L 244.604121 219.990188 
L 245.034302 205.017663 
L 246.767086 197.868497 
L 246.949428 189.205747 
L 247.702705 179.551007 
L 248.211924 179.162176 
L 250.106306 180.565183 
L 250.22642 181.612875 
L 251.365839 182.93613 
L 251.838886 182.636739 
L 252.071296 182.429928 
L 252.271213 182.535405 
L 252.426221 182.11307 
L 252.616738 182.123822 
L 252.734757 179.818193 
L 252.946629 178.189332 
L 253.114052 178.304485 
L 253.220167 178.618688 
L 253.797285 178.685722 
L 253.98305 178.699985 
L 254.38462 180.128232 
L 254.800139 180.492474 
L 255.004654 180.471178 
L 255.57467 207.38399 
L 255.871199 224.955822 
L 256.167268 225.57929 
L 256.426195 225.752014 
L 256.66024 224.547362 
L 256.789141 224.563588 
L 257.292229 224.226779 
L 257.429253 224.951837 
L 257.573942 224.255359 
L 257.755875 224.577296 
L 257.94726 223.798888 
L 258.031916 222.704574 
L 258.259065 221.465528 
L 258.481972 219.487449 
L 258.786829 223.478989 
L 258.974484 223.390403 
L 259.119888 222.997575 
L 259.533873 222.971277 
L 259.994301 222.066463 
L 260.244899 221.914283 
L 260.387135 222.018471 
L 260.628844 222.670225 
L 260.761475 223.105146 
L 260.986732 223.380526 
L 261.115838 223.887433 
L 261.737507 224.949472 
L 262.901909 225.264464 
L 263.12778 226.509617 
L 263.280336 226.311991 
L 263.459408 226.626699 
L 263.666478 226.216883 
L 263.867059 223.035207 
L 264.568122 222.123126 
L 264.798642 222.316343 
L 265.173033 225.023669 
L 265.350214 226.671088 
L 266.245319 228.841693 
L 266.388985 228.874399 
L 266.742787 226.363877 
L 267.068386 226.189949 
L 267.480993 225.356827 
L 268.175823 211.902893 
L 268.493094 211.056016 
L 268.690303 210.187028 
L 268.95531 208.349719 
L 269.498197 206.515236 
L 270.358407 205.961189 
L 270.802893 206.083741 
L 270.997957 205.852895 
L 272.401922 205.975238 
L 272.581556 204.63997 
L 273.199597 204.798688 
L 273.440489 204.708337 
L 273.628144 204.482341 
L 274.017709 205.36016 
L 275.142107 209.175258 
L 275.31326 207.035461 
L 275.571267 206.28057 
L 275.804495 206.134851 
L 276.10317 205.592417 
L 276.285716 204.530705 
L 276.653465 204.143859 
L 277.315597 205.37895 
L 277.457578 206.783026 
L 277.641912 206.900162 
L 277.865637 207.294581 
L 277.997655 209.735359 
L 278.371126 211.567316 
L 278.818934 219.004744 
L 279.264902 220.469973 
L 279.413422 221.599552 
L 279.939858 223.063869 
L 280.213498 221.780687 
L 280.375404 220.448203 
L 280.674028 220.330118 
L 281.055367 219.588412 
L 281.681582 217.343388 
L 281.830767 218.463934 
L 283.7205 218.389436 
L 284.049471 218.520648 
L 285.706795 218.809126 
L 285.912587 218.22511 
L 286.100293 218.292419 
L 286.226946 218.623737 
L 286.417514 218.66342 
L 286.563837 219.513889 
L 287.139575 218.686579 
L 287.280738 216.331776 
L 287.475852 215.543657 
L 287.885087 215.158354 
L 288.238326 209.224152 
L 288.479677 206.5249 
L 288.567962 201.432488 
L 288.865819 198.520632 
L 289.689244 195.254457 
L 289.86336 195.835057 
L 290.085604 195.557685 
L 290.244444 197.282251 
L 290.617915 196.119875 
L 290.86739 194.630121 
L 291.28066 191.662668 
L 291.59456 189.638054 
L 292.090137 184.558356 
L 292.399439 175.523513 
L 292.790536 162.614221 
L 292.932057 154.963059 
L 293.358662 156.030782 
L 293.871406 149.125922 
L 294.119654 142.282817 
L 294.379909 130.932031 
L 294.536961 129.9416 
L 294.705355 126.764813 
L 295.291005 122.047698 
L 295.850752 117.054948 
L 296.092154 115.115027 
L 296.56893 108.379772 
L 296.820346 104.846249 
L 296.925848 96.678856 
L 297.257476 90.23226 
L 298.801378 83.237222 
L 299.060254 75.870407 
L 299.224152 67.96255 
L 300.098718 52.418048 
L 300.564459 32.82779 
L 301.348442 17.470902 
L 301.508712 19.326952 
L 301.633373 24.320867 
L 302.168801 21.920628 
L 302.645986 17.870953 
L 302.917378 18.196506 
L 303.230256 22.608784 
L 303.40662 17.757887 
L 303.598056 19.592285 
L 303.818205 14.43857 
L 304.246752 23.947458 
L 304.850794 28.525508 
L 304.939078 32.605958 
L 305.379171 37.943561 
L 305.607035 45.353759 
L 305.876486 48.942025 
L 306.005489 52.514945 
L 306.811134 89.733364 
L 307.348657 97.780756 
L 308.371079 138.670567 
L 308.671082 143.489863 
L 308.963269 146.13743 
L 309.251623 147.487082 
L 309.744952 153.992519 
L 310.036832 170.290001 
L 310.291978 177.962429 
L 310.409537 187.379738 
L 310.597294 190.914982 
L 311.630956 203.573339 
L 311.953592 203.756651 
L 312.122242 203.445266 
L 312.340654 204.756411 
L 312.629008 204.688578 
L 312.991444 205.35353 
L 313.293133 206.697371 
L 313.634468 206.434823 
L 313.811088 209.112709 
L 313.995678 208.44055 
L 314.305899 206.849249 
L 315.100355 205.861552 
L 315.274318 207.231083 
L 315.607837 208.474616 
L 315.84321 210.098058 
L 316.285654 210.431408 
L 316.306652 210.943838 
L 316.560112 211.277839 
L 316.626274 211.743165 
L 317.388032 212.998032 
L 317.643995 212.769823 
L 317.832621 211.933839 
L 318.178146 211.08162 
L 318.924782 208.094927 
L 319.098336 207.972515 
L 319.521774 209.086385 
L 319.720209 209.244525 
L 320.625736 211.532525 
L 321.036248 213.232071 
L 321.304371 217.302044 
L 321.539438 224.113761 
L 321.907544 226.827719 
L 322.086259 226.206354 
L 322.302627 225.856287 
L 322.57826 225.686414 
L 322.724327 225.307566 
L 322.904677 225.454842 
L 323.187718 225.348002 
L 323.350032 225.517162 
L 323.495333 225.113419 
L 323.86017 225.323356 
L 323.959643 224.183904 
L 324.937259 228.79234 
L 325.43442 229.413708 
L 325.649358 229.318581 
L 326.407795 228.136861 
L 326.714491 227.871426 
L 327.207463 228.002728 
L 327.382346 224.174438 
L 328.1158 220.207991 
L 328.298551 219.861209 
L 328.848897 217.846609 
L 329.548989 214.297901 
L 329.791976 213.468985 
L 330.071696 212.943915 
L 330.312178 212.859797 
L 330.500907 214.786572 
L 330.707721 215.498694 
L 330.85435 216.71042 
L 331.22777 214.319331 
L 331.477807 211.910014 
L 332.02989 201.749076 
L 332.419353 198.34925 
L 332.746996 197.014921 
L 332.984413 196.625149 
L 333.284723 190.370081 
L 333.624015 187.266669 
L 333.98599 181.65321 
L 335.005143 177.90294 
L 335.47589 173.644501 
L 335.869491 166.005857 
L 336.125505 158.59102 
L 336.241378 159.284569 
L 336.423465 158.727423 
L 336.652196 155.182799 
L 336.826977 154.831257 
L 337.271668 157.314699 
L 337.71406 155.640968 
L 338.024639 144.59899 
L 339.064074 144.479881 
L 339.222404 143.220535 
L 339.947326 117.046728 
L 340.101364 112.334231 
L 340.287895 113.687803 
L 340.488323 116.281399 
L 340.633982 120.838254 
L 340.791749 121.079035 
L 341.204049 120.873889 
L 341.375202 122.294109 
L 341.732273 124.05148 
L 341.92657 124.369536 
L 342.10508 125.469079 
L 342.450196 130.481984 
L 342.615269 135.301785 
L 342.833272 138.175861 
L 344.009425 163.932233 
L 344.193606 163.997418 
L 344.491464 164.254319 
L 344.794839 167.265942 
L 345.205402 167.68676 
L 345.890933 167.176535 
L 346.10398 168.772235 
L 346.488027 173.257684 
L 346.754464 179.696046 
L 347.024681 179.338399 
L 347.553263 179.370652 
L 348.079955 188.934275 
L 348.457104 199.90956 
L 349.241445 205.372072 
L 349.818971 206.543024 
L 350.180845 207.874999 
L 350.331868 210.336837 
L 350.522946 211.104823 
L 351.996446 211.380594 
L 359.462242 211.964513 
L 360.057548 215.050964 
L 360.486606 216.418933 
L 361.05703 216.89698 
L 361.415685 217.001215 
L 361.651263 217.538033 
L 362.247489 201.901686 
L 362.36888 194.56248 
L 362.894345 191.62058 
L 363.281304 191.687718 
L 363.838343 178.131241 
L 364.400951 170.366436 
L 365.225756 156.669188 
L 365.53378 153.246254 
L 365.701765 149.719881 
L 365.890698 150.051057 
L 366.133326 150.079109 
L 366.372685 146.758406 
L 366.66201 136.820848 
L 366.935651 132.481194 
L 367.182213 131.890053 
L 367.737873 129.456492 
L 367.995267 129.334091 
L 368.710635 129.904085 
L 369.559094 128.857415 
L 369.732086 137.601166 
L 370.141372 144.007439 
L 370.364331 151.183225 
L 370.738619 154.993098 
L 371.116229 155.690815 
L 371.392577 155.675004 
L 372.262136 187.647521 
L 372.626462 196.01446 
L 373.487439 205.55164 
L 373.651337 206.280112 
L 373.953588 206.094892 
L 374.155753 208.368665 
L 374.886142 220.506024 
L 376.201721 224.347416 
L 376.321221 224.061364 
L 376.54091 224.143183 
L 376.755235 223.988858 
L 376.983609 224.562642 
L 377.237682 224.536234 
L 377.314011 223.841201 
L 377.435453 218.123828 
L 377.696167 211.763501 
L 377.903135 196.875211 
L 378.047925 196.294702 
L 378.266643 196.87561 
L 378.660551 197.004362 
L 378.900063 196.944231 
L 379.150355 196.265903 
L 379.568019 194.822199 
L 379.716744 194.345255 
L 379.959525 194.399985 
L 380.189381 193.507421 
L 380.478809 193.475673 
L 380.59882 195.139868 
L 380.947002 197.296471 
L 381.088829 197.328384 
L 381.322619 197.145038 
L 381.622877 196.089631 
L 382.054285 195.116018 
L 382.336253 194.490942 
L 382.899065 193.727399 
L 383.123812 192.690709 
L 383.326335 192.766341 
L 383.725913 193.660779 
L 383.928896 194.720822 
L 385.034442 222.193501 
L 385.15946 223.102242 
L 385.900936 222.718707 
L 386.458333 223.17268 
L 386.61845 223.50378 
L 387.320586 226.30008 
L 387.504971 227.300649 
L 388.115298 226.905899 
L 388.647354 226.338178 
L 388.941226 222.850074 
L 389.307289 220.62449 
L 389.561055 219.865014 
L 389.700073 220.399257 
L 389.920885 216.536113 
L 390.069814 208.631196 
L 390.258133 207.757418 
L 390.413448 207.573409 
L 390.658427 207.491935 
L 390.847104 200.512638 
L 391.064698 196.809304 
L 391.321479 183.658451 
L 391.437556 173.474055 
L 391.743588 168.99525 
L 392.161304 165.481801 
L 392.497734 164.723436 
L 393.053547 164.56227 
L 393.498954 164.237356 
L 393.735247 164.128665 
L 393.860725 164.550386 
L 394.117046 164.682839 
L 394.350734 164.28261 
L 394.466811 164.551394 
L 394.806512 165.053735 
L 395.181618 168.761847 
L 395.406007 167.480621 
L 395.534448 165.04128 
L 396.286909 156.125917 
L 396.981279 155.041882 
L 397.126427 153.432871 
L 398.802296 145.74041 
L 399.1937 142.637862 
L 399.376195 142.661018 
L 400.636851 176.52363 
L 400.813982 178.121205 
L 401.027642 177.039762 
L 401.52981 166.124081 
L 401.672915 163.499717 
L 402.160471 160.658519 
L 402.403763 155.379283 
L 403.00331 147.599065 
L 403.311743 142.977349 
L 403.689506 143.293046 
L 403.914763 142.876439 
L 404.412691 142.620691 
L 404.958797 142.972444 
L 405.394496 142.066149 
L 405.653729 140.757466 
L 406.286075 139.777935 
L 406.546126 143.820116 
L 407.058512 154.92111 
L 407.137651 153.483935 
L 407.726622 144.585169 
L 408.228892 131.014526 
L 408.451442 130.263257 
L 408.915445 129.906819 
L 409.342562 129.755252 
L 409.614823 133.30832 
L 411.22223 158.638533 
L 411.369677 163.229058 
L 411.785298 164.63292 
L 412.052654 169.488593 
L 412.495047 169.33989 
L 413.135057 169.345645 
L 413.665529 165.47926 
L 415.099433 166.498099 
L 415.621475 167.154007 
L 416.307569 172.044906 
L 416.471212 174.094011 
L 416.713942 175.509691 
L 417.167421 175.701007 
L 417.939653 193.299865 
L 418.528317 199.49826 
L 418.780551 204.777022 
L 419.188508 204.977008 
L 419.361705 204.563576 
L 419.51094 203.750274 
L 419.744934 203.298802 
L 420.10548 197.490933 
L 422.025203 194.043508 
L 422.217967 192.761329 
L 422.366538 192.65142 
L 422.546888 193.255695 
L 423.266497 193.763463 
L 423.41517 194.805029 
L 423.827725 194.378938 
L 424.195781 194.330505 
L 424.943285 195.712038 
L 425.435133 197.875257 
L 425.87446 197.775456 
L 427.022002 197.159653 
L 427.471854 197.837312 
L 427.924566 197.054673 
L 428.855843 197.661607 
L 429.473015 202.211456 
L 429.636096 204.454776 
L 429.790491 204.828037 
L 429.964046 205.932978 
L 430.430961 205.981113 
L 430.718652 205.244706 
L 431.123084 209.15892 
L 433.201494 217.148495 
L 433.905061 221.247299 
L 434.057923 221.688838 
L 434.850898 220.468086 
L 435.377794 219.938218 
L 435.57955 220.251038 
L 435.895851 220.128266 
L 436.141034 219.661988 
L 436.547561 220.064875 
L 436.939016 220.118981 
L 440.128082 220.116982 
L 440.493991 221.241393 
L 440.828072 221.437183 
L 443.289303 221.55379 
L 444.627924 221.419038 
L 445.229718 220.868376 
L 445.457224 220.278297 
L 446.598636 221.728419 
L 447.407602 222.970332 
L 448.951249 223.016927 
L 449.631211 222.44981 
L 449.778556 222.520186 
L 449.857184 222.961757 
L 450.163318 223.356647 
L 450.284607 223.79406 
L 450.542461 224.02555 
L 450.812984 224.013907 
L 451.166019 225.248718 
L 451.312189 224.664687 
L 451.710593 224.791367 
L 452.179501 224.056807 
L 453.180567 224.596588 
L 453.682326 223.949327 
L 453.972469 223.980652 
L 454.138513 224.595091 
L 454.354421 224.545952 
L 455.024932 224.687599 
L 455.378785 224.602958 
L 455.586927 225.369112 
L 456.15025 225.540543 
L 456.493272 225.927551 
L 456.997943 225.365032 
L 457.177884 225.371471 
L 457.379997 224.939678 
L 457.566375 225.757741 
L 460.243617 225.978057 
L 461.551175 228.814555 
L 461.884642 229.216284 
L 462.36714 229.403559 
L 462.745107 229.215178 
L 463.310168 229.102698 
L 463.448316 228.626627 
L 463.936435 228.61977 
L 464.149737 229.043305 
L 464.411116 228.91884 
L 467.102305 228.966773 
L 467.258438 229.793072 
L 467.393061 229.853287 
L 468.086512 230.595676 
L 468.236411 229.680312 
L 469.091205 229.015402 
L 469.796611 229.474133 
L 469.976296 228.6633 
L 470.14234 228.668161 
L 470.474888 228.002575 
L 470.557757 228.574823 
L 470.971385 228.578996 
L 471.136152 229.805946 
L 471.623912 230.022912 
L 471.83936 229.973128 
L 472.216561 228.792834 
L 472.610775 227.383819 
L 473.049949 227.391401 
L 473.306269 227.715774 
L 473.519163 225.448922 
L 473.743655 224.508845 
L 473.898305 224.446623 
L 474.22273 224.169101 
L 475.801169 224.256906 
L 476.150628 225.353676 
L 476.284587 226.603364 
L 477.557352 227.636108 
L 478.027844 225.174202 
L 478.191487 222.741173 
L 478.895718 219.802542 
L 479.101868 217.315944 
L 480.043311 216.285845 
L 480.211092 214.431849 
L 480.51227 214.379921 
L 480.714538 213.851769 
L 480.951853 207.314765 
L 481.638764 204.191538 
L 481.901113 201.841014 
L 482.28046 199.004208 
L 482.64264 197.248464 
L 482.818442 196.612676 
L 483.613103 194.557779 
L 483.914843 188.519092 
L 484.089777 181.117106 
L 484.719671 172.472458 
L 485.184032 160.781041 
L 485.566138 158.375548 
L 485.983751 154.023974 
L 486.053592 149.655724 
L 486.257851 149.315164 
L 486.737437 148.91483 
L 487.481365 148.64182 
L 489.332781 149.011779 
L 495.924522 149.566633 
L 497.058065 154.492476 
L 497.456111 157.185134 
L 497.746867 160.804829 
L 500.828847 162.05323 
L 501.080672 161.162161 
L 501.394112 160.975407 
L 501.729469 166.861063 
L 502.085416 168.535514 
L 502.291209 167.584347 
L 502.460114 167.511835 
L 502.616246 168.066797 
L 502.773911 164.83104 
L 503.272145 165.647477 
L 503.853299 167.512765 
L 504.762709 168.683647 
L 506.897626 169.367176 
L 507.259704 174.054441 
L 507.479342 180.583988 
L 507.912078 198.229883 
L 508.328311 202.643853 
L 509.527353 204.853009 
L 510.904803 213.291998 
L 511.104566 213.501896 
L 511.417138 210.847203 
L 511.638206 209.349501 
L 511.82392 209.007297 
L 511.936677 208.086134 
L 512.094342 208.240381 
L 512.340189 208.250588 
L 512.65884 208.472286 
L 512.944947 208.196818 
L 513.526203 206.06312 
L 513.784209 201.353188 
L 513.990002 201.604944 
L 514.160542 203.092609 
L 514.375632 203.616264 
L 514.706392 203.805096 
L 515.048749 209.21096 
L 515.245652 209.480747 
L 515.500133 208.06274 
L 515.6485 205.308216 
L 516.020029 206.377006 
L 517.407493 201.843183 
L 517.63929 199.638881 
L 518.969277 198.702158 
L 519.39486 186.660627 
L 519.514258 179.370916 
L 520.176697 169.879265 
L 520.469088 168.728903 
L 520.801278 169.99839 
L 521.090246 170.002034 
L 521.436026 170.709641 
L 521.678756 165.291955 
L 521.927363 160.823435 
L 522.115426 160.147575 
L 522.281368 160.86315 
L 522.555724 167.496869 
L 522.744656 167.844729 
L 523.215455 167.509983 
L 523.516889 167.48892 
L 523.853268 166.480406 
L 524.061155 165.295552 
L 524.301025 164.613474 
L 524.56925 165.03623 
L 524.819542 168.084341 
L 525.250592 169.70175 
L 525.900309 174.611091 
L 526.271992 163.480449 
L 527.528408 160.830005 
L 527.734558 158.971836 
L 527.908061 163.136509 
L 529.984479 167.162771 
L 530.229714 169.998786 
L 530.489049 175.533746 
L 530.796613 177.671297 
L 531.373067 175.208532 
L 531.46176 171.93812 
L 531.833289 171.489432 
L 532.27655 180.305797 
L 532.475139 180.776665 
L 532.677201 180.455445 
L 532.916713 176.520822 
L 533.11847 171.185092 
L 533.690938 169.96446 
L 536.964814 168.958301 
L 537.24622 167.676114 
L 537.592511 163.355482 
L 538.076849 161.39722 
L 538.316821 154.90064 
L 539.148573 154.668571 
L 539.533488 153.824818 
L 539.681497 152.498849 
L 540.432169 169.529388 
L 540.507528 176.794101 
L 541.279709 185.486161 
L 541.465576 185.557548 
L 541.947563 187.503801 
L 542.112126 190.477233 
L 542.749836 191.449809 
L 543.268047 188.327484 
L 543.5095 185.834956 
L 543.99818 179.189131 
L 544.406444 177.961172 
L 544.661539 180.299346 
L 544.831721 175.596756 
L 545.271354 169.811409 
L 545.802695 176.695095 
L 546.593882 156.811672 
L 546.869055 155.184288 
L 547.046492 150.841537 
L 547.200938 141.566373 
L 547.403819 143.651011 
L 548.286917 144.821216 
L 548.582015 141.194252 
L 548.753475 140.894586 
L 548.753475 140.894586 
" clip-path="url(#pf1f1b943f0)" style="fill: none; stroke: #ff7f0e; stroke-width: 1.5; stroke-linecap: square"/>
   </g>
   <g id="line2d_14">
    <path d="M 63.827775 242.920056 
L 66.04229 242.904828 
L 66.881502 242.467005 
L 67.092455 241.989942 
L 67.575208 241.945035 
L 68.010805 241.216259 
L 69.610141 241.103723 
L 70.338129 241.334967 
L 71.148525 241.370082 
L 71.356821 241.345807 
L 72.52153 240.809535 
L 73.017209 240.806451 
L 73.131805 240.569834 
L 73.323088 240.43273 
L 73.885032 240.778201 
L 74.04142 240.125257 
L 74.362012 240.41049 
L 74.582519 240.663206 
L 74.793113 241.077577 
L 75.298091 241.124557 
L 75.513744 241.352818 
L 75.671971 241.352558 
L 76.000023 241.192725 
L 76.552004 241.434896 
L 77.508826 241.116314 
L 78.59128 240.541254 
L 79.300108 240.328974 
L 79.709087 240.49249 
L 80.004952 240.86461 
L 80.49823 240.991644 
L 81.062984 240.546665 
L 81.833939 241.157186 
L 82.083414 240.884423 
L 82.550125 240.622292 
L 83.041513 240.641818 
L 83.355515 240.336581 
L 83.979534 240.180376 
L 84.641461 240.192484 
L 85.55879 239.9079 
L 87.799413 240.357063 
L 88.433701 240.703297 
L 88.57936 240.778491 
L 88.796545 240.481394 
L 88.977508 240.023706 
L 89.297998 239.60094 
L 89.380816 239.113215 
L 90.092301 238.836384 
L 90.704774 237.497173 
L 90.835565 236.260033 
L 91.256806 236.861905 
L 91.861972 237.142526 
L 93.00977 237.834819 
L 93.080428 237.677083 
L 93.557869 237.395516 
L 93.805913 237.45848 
L 94.270529 237.593834 
L 94.630053 237.606493 
L 94.950543 237.028465 
L 95.066621 236.972212 
L 95.578087 237.739179 
L 96.054148 238.610067 
L 96.345057 238.581543 
L 96.564184 238.729445 
L 97.045558 239.812528 
L 97.277457 241.065278 
L 97.481564 241.001877 
L 98.226871 240.211368 
L 98.642645 240.121086 
L 98.721784 240.025962 
L 99.362765 240.001089 
L 99.545516 240.091894 
L 99.751308 239.694178 
L 100.359438 239.265168 
L 100.582499 238.958396 
L 101.210196 236.73318 
L 101.406434 236.521825 
L 101.634451 236.453045 
L 102.001638 236.465436 
L 102.25239 236.305186 
L 102.65672 235.678402 
L 104.224328 235.832501 
L 107.301199 236.21204 
L 107.665116 236.550529 
L 108.362194 236.495103 
L 108.596137 236.350947 
L 109.462325 234.64666 
L 110.102693 234.838478 
L 110.319776 235.313923 
L 110.485156 235.285363 
L 111.178913 235.712043 
L 111.456641 235.487319 
L 111.629173 235.802465 
L 112.147741 237.578454 
L 112.358336 237.563217 
L 112.715356 237.253346 
L 113.190344 237.729902 
L 113.352352 237.668547 
L 113.559319 236.966234 
L 113.758572 236.752761 
L 114.011214 236.707598 
L 114.658734 236.26133 
L 114.779359 236.469042 
L 115.205096 236.675452 
L 115.36741 236.905922 
L 115.565947 235.579141 
L 116.028061 235.838867 
L 116.787367 234.559767 
L 117.651 234.549925 
L 120.486366 234.860902 
L 120.804251 234.763584 
L 121.931357 234.891967 
L 122.184613 235.044476 
L 125.47637 235.75342 
L 125.642465 235.656468 
L 125.779848 235.740062 
L 127.436864 235.99135 
L 127.751377 235.77675 
L 128.765011 235.629167 
L 129.097968 235.228098 
L 129.651788 235.08555 
L 129.775223 235.70684 
L 130.516392 235.967616 
L 130.653212 236.012182 
L 130.899008 236.214168 
L 134.240783 236.015832 
L 134.34792 235.893525 
L 134.856985 235.868775 
L 135.059814 236.150386 
L 137.021534 238.337962 
L 137.803576 239.537689 
L 138.260222 239.378457 
L 138.917245 238.856496 
L 139.160538 238.900542 
L 139.643292 238.704971 
L 140.357485 239.511575 
L 141.345268 240.799783 
L 142.349348 241.163677 
L 142.507473 241.429793 
L 142.869653 241.1818 
L 143.378463 240.372212 
L 143.699056 240.29745 
L 143.831431 240.485577 
L 144.021334 240.43364 
L 144.452946 240.016048 
L 144.659147 239.955272 
L 145.000891 239.706883 
L 145.648718 239.662251 
L 145.823294 239.823176 
L 147.622955 240.121685 
L 148.115008 240.072104 
L 150.041628 239.59976 
L 150.491429 240.283522 
L 150.729306 240.369509 
L 151.312452 240.563262 
L 152.037017 241.860525 
L 152.59988 242.325893 
L 154.211273 242.324075 
L 154.564921 242.332775 
L 154.979265 242.379689 
L 156.093547 242.401858 
L 156.828994 243.08258 
L 157.346541 243.020892 
L 158.333353 242.829518 
L 161.029906 242.514235 
L 161.531104 241.824461 
L 161.774499 241.873719 
L 162.300475 241.897491 
L 162.541417 241.646664 
L 162.63149 241.369422 
L 163.052986 240.831933 
L 163.205133 240.918167 
L 163.448784 240.792729 
L 163.588056 240.860119 
L 163.970621 240.751606 
L 164.353647 240.702303 
L 164.698609 240.016004 
L 165.430838 239.80569 
L 165.977863 239.093086 
L 167.073753 237.318521 
L 167.438283 237.311263 
L 167.73047 236.877865 
L 168.142259 235.441214 
L 168.564112 235.486901 
L 168.631399 235.429358 
L 169.426111 234.397434 
L 169.941511 234.717972 
L 170.077769 234.343422 
L 170.321828 234.212535 
L 171.134064 234.43265 
L 171.756039 234.308406 
L 172.315122 234.355633 
L 172.652012 234.29065 
L 173.097164 234.670431 
L 173.450454 234.882525 
L 173.633562 235.232056 
L 173.841756 235.188019 
L 174.054905 235.342636 
L 174.891562 236.214109 
L 175.138636 236.118694 
L 176.22349 235.867917 
L 176.41278 235.697571 
L 176.720396 236.0196 
L 177.361683 225.890679 
L 177.958011 211.013174 
L 178.410519 210.927799 
L 178.629288 211.302872 
L 178.880756 207.005241 
L 179.265875 196.52415 
L 179.416848 196.106556 
L 180.050471 195.624122 
L 180.310368 195.177103 
L 180.450918 195.300336 
L 180.875276 195.232159 
L 181.830973 195.846043 
L 182.327113 195.808878 
L 182.636108 195.518356 
L 182.753922 195.701187 
L 182.915879 195.740605 
L 183.562582 195.468086 
L 184.105776 195.723374 
L 184.365315 196.085152 
L 184.580355 201.453644 
L 185.023513 207.962639 
L 185.476175 222.855626 
L 185.853375 222.897523 
L 186.834516 222.733128 
L 186.980533 227.378256 
L 187.716593 237.704627 
L 188.035704 238.065828 
L 188.453726 238.935668 
L 189.235257 239.450814 
L 189.446107 239.416573 
L 189.932539 239.653272 
L 191.311061 238.779902 
L 191.564981 238.694433 
L 191.952655 238.747785 
L 192.303391 238.544761 
L 192.512811 238.601291 
L 192.820835 238.504943 
L 193.310435 238.714804 
L 193.462123 239.175392 
L 194.235632 239.076114 
L 194.557451 238.601583 
L 194.936286 238.327815 
L 195.479378 236.412467 
L 195.713321 236.303308 
L 196.270564 236.256796 
L 196.508901 235.905497 
L 197.203732 236.072263 
L 197.437215 236.054714 
L 197.895854 234.077441 
L 199.518282 234.087643 
L 200.328525 233.971 
L 201.313345 234.184783 
L 201.703574 234.831944 
L 202.226689 234.956545 
L 202.514584 234.379657 
L 205.595695 234.550456 
L 205.830047 234.698762 
L 207.147363 234.683645 
L 207.818743 234.763913 
L 208.011762 234.669493 
L 210.090224 234.548059 
L 210.23389 234.955225 
L 210.56838 234.964155 
L 210.867616 236.834204 
L 211.213958 235.408634 
L 211.722921 235.454674 
L 212.134711 223.636832 
L 212.393995 223.683187 
L 212.545171 224.045724 
L 212.848444 225.223742 
L 213.181298 225.50941 
L 213.674168 224.480079 
L 213.970901 224.373958 
L 214.184664 224.462125 
L 214.542859 224.37056 
L 215.993572 224.295552 
L 216.645946 224.994807 
L 217.582945 224.480194 
L 217.846112 223.887131 
L 218.34031 223.398133 
L 218.807634 220.184674 
L 219.422712 197.991606 
L 219.801241 198.396402 
L 220.03079 210.344393 
L 220.193156 210.338286 
L 220.541235 209.999903 
L 220.859784 210.332219 
L 221.578473 212.05889 
L 221.762297 211.974992 
L 222.719067 211.686583 
L 223.048805 211.957837 
L 223.91816 212.393021 
L 224.694377 212.572201 
L 224.768203 213.252616 
L 224.963369 213.977833 
L 225.319367 217.605629 
L 225.762985 229.38516 
L 225.9089 236.124625 
L 226.210384 241.330659 
L 226.655995 241.5308 
L 226.843497 241.897466 
L 228.557428 242.723688 
L 231.663472 242.87725 
L 232.123746 243.183391 
L 233.965812 243.113844 
L 234.218659 242.748838 
L 237.030984 243.005055 
L 237.43843 242.855177 
L 237.97396 242.754609 
L 238.419366 242.131662 
L 239.150726 241.329898 
L 239.795283 241.369143 
L 240.727837 241.263472 
L 241.359877 241.317231 
L 242.066713 241.140117 
L 242.929631 240.8748 
L 244.604121 241.153942 
L 245.034302 240.806521 
L 246.949428 240.516772 
L 247.702705 240.333379 
L 247.896747 240.029182 
L 248.211924 239.982701 
L 249.912214 240.098592 
L 250.106306 240.172668 
L 250.22642 240.433075 
L 251.365839 240.62936 
L 251.535255 240.907487 
L 251.838886 240.686207 
L 252.071296 240.81553 
L 252.271213 239.839964 
L 253.531257 239.496124 
L 254.38462 239.710951 
L 255.004654 239.852088 
L 255.716548 239.834799 
L 255.871199 239.8022 
L 256.167268 240.086618 
L 256.66024 239.991437 
L 256.789141 239.895495 
L 257.573942 239.923592 
L 257.755875 240.309569 
L 257.94726 240.338925 
L 258.031916 241.333323 
L 258.259065 241.236397 
L 258.786829 241.3074 
L 258.974484 241.345831 
L 259.357305 241.056294 
L 259.688115 240.937767 
L 260.244899 240.922253 
L 260.515065 241.013959 
L 261.115838 241.512901 
L 261.737507 241.806887 
L 263.459408 242.12068 
L 263.666478 242.061326 
L 263.867059 241.690418 
L 264.568122 241.255842 
L 265.350214 241.719459 
L 267.068386 241.690457 
L 267.764647 241.833671 
L 268.95531 241.653612 
L 269.498197 241.493222 
L 270.658818 241.462825 
L 270.997957 241.55351 
L 273.809311 241.916127 
L 274.017709 242.08257 
L 274.674936 242.453911 
L 275.142107 242.868334 
L 276.10317 242.55533 
L 276.653465 242.494507 
L 278.818934 242.77424 
L 279.413422 242.857189 
L 279.939858 242.940858 
L 280.674028 242.384896 
L 281.681582 241.89223 
L 281.830767 241.800305 
L 285.706795 241.57529 
L 286.226946 241.183529 
L 287.280738 241.11413 
L 287.475852 240.991346 
L 287.885087 240.950365 
L 288.567962 239.541719 
L 288.865819 239.591813 
L 289.224525 239.252243 
L 289.86336 239.320327 
L 290.085604 239.246524 
L 290.244444 239.512074 
L 290.617915 238.90798 
L 291.28066 238.710113 
L 292.932057 237.033604 
L 293.358662 236.988309 
L 293.871406 236.518532 
L 294.705355 236.859012 
L 295.000198 237.083474 
L 295.291005 236.608172 
L 295.537312 235.754947 
L 295.850752 235.48572 
L 296.269796 235.814786 
L 296.820346 235.410316 
L 296.925848 235.038526 
L 297.257476 234.769676 
L 298.801378 234.547571 
L 299.060254 235.223794 
L 300.098718 235.381202 
L 300.454103 235.572708 
L 300.848062 235.012187 
L 301.048387 234.889915 
L 301.633373 235.26545 
L 302.168801 235.217479 
L 302.392117 235.307588 
L 302.645986 235.197735 
L 303.230256 234.044492 
L 303.598056 232.718531 
L 303.818205 233.002979 
L 304.246752 234.706326 
L 304.529486 234.874841 
L 304.939078 234.733651 
L 305.379171 233.164019 
L 306.005489 231.97189 
L 306.137098 231.425556 
L 306.5003 231.113173 
L 306.655053 230.902233 
L 307.348657 230.927225 
L 307.911878 232.399683 
L 308.963269 232.563354 
L 309.37281 232.632674 
L 309.744952 232.56132 
L 310.409537 234.563307 
L 310.597294 235.46097 
L 311.630956 235.286141 
L 312.340654 235.072415 
L 312.629008 235.114244 
L 312.991444 235.822206 
L 313.293133 236.926219 
L 313.634468 237.582876 
L 313.995678 238.765033 
L 314.305899 239.332533 
L 315.100355 239.624007 
L 315.274318 239.997558 
L 315.84321 240.407345 
L 316.056973 240.52904 
L 316.306652 240.246546 
L 317.388032 240.850142 
L 318.178146 240.79474 
L 318.731711 240.616158 
L 319.521774 240.85155 
L 319.913535 240.918047 
L 320.420863 241.152231 
L 321.725305 240.788545 
L 321.907544 238.349992 
L 322.302627 227.992786 
L 322.57826 222.891623 
L 322.724327 222.391229 
L 323.495333 182.142642 
L 323.86017 157.023039 
L 323.959643 153.491539 
L 324.224036 153.517951 
L 324.371841 153.421521 
L 324.572575 153.434511 
L 324.791498 148.478526 
L 325.173706 127.155619 
L 325.43442 114.795335 
L 326.610829 113.850745 
L 326.714491 114.048567 
L 327.382346 114.339638 
L 327.915679 113.720435 
L 328.1158 115.861595 
L 328.646068 130.992896 
L 328.848897 131.581338 
L 329.17281 140.467272 
L 330.500907 199.754727 
L 330.707721 199.876545 
L 331.22777 200.475526 
L 331.477807 205.658065 
L 332.02989 238.885597 
L 332.419353 237.735671 
L 332.746996 237.567397 
L 333.109534 236.635852 
L 333.624015 235.043837 
L 333.98599 233.669079 
L 335.005143 232.61273 
L 335.47589 231.604356 
L 335.869491 231.077275 
L 336.125505 231.036547 
L 336.241378 231.142831 
L 336.423465 231.129497 
L 336.652196 231.228378 
L 336.826977 231.173997 
L 337.71406 231.521404 
L 337.85318 231.561986 
L 338.024639 231.759407 
L 339.222404 231.78134 
L 339.502277 231.296483 
L 339.73576 230.731165 
L 340.101364 229.465777 
L 340.488323 229.342318 
L 340.633982 229.387591 
L 340.791749 229.903579 
L 341.204049 230.737816 
L 341.375202 231.703896 
L 341.732273 232.070195 
L 342.10508 232.595847 
L 342.615269 233.564293 
L 342.833272 233.632163 
L 343.425819 235.070548 
L 344.009425 235.271075 
L 344.193606 235.108213 
L 344.491464 235.147902 
L 345.890933 234.549075 
L 346.10398 234.252033 
L 346.488027 233.938282 
L 347.024681 232.882715 
L 347.553263 232.78718 
L 348.079955 232.968804 
L 348.294688 233.460085 
L 348.457104 234.315422 
L 349.241445 234.533673 
L 350.180845 234.158991 
L 350.522946 233.926266 
L 351.996446 233.923518 
L 359.462242 234.169953 
L 360.299615 235.196984 
L 360.486606 236.211954 
L 361.05703 236.949524 
L 361.415685 236.89536 
L 361.651263 237.081468 
L 362.247489 236.814289 
L 362.624383 236.873566 
L 362.894345 237.199277 
L 363.189801 237.420947 
L 363.281304 237.768346 
L 364.400951 238.850966 
L 365.225756 239.054832 
L 365.53378 239.163514 
L 365.890698 238.938068 
L 366.133326 238.864511 
L 366.372685 238.939634 
L 366.66201 239.165927 
L 366.935651 239.125489 
L 367.336762 238.762243 
L 367.737873 238.329179 
L 368.20392 238.72126 
L 368.710635 239.299918 
L 369.559094 239.398674 
L 369.732086 239.813984 
L 370.141372 239.969317 
L 370.364331 238.160397 
L 370.738619 237.465774 
L 370.935675 237.269392 
L 371.615536 235.961296 
L 371.891782 236.016273 
L 372.262136 236.236799 
L 373.03723 236.24201 
L 373.953588 236.540128 
L 374.886142 236.391331 
L 375.221551 236.749727 
L 375.457793 236.905811 
L 376.056113 237.608774 
L 376.321221 237.57009 
L 376.755235 237.445833 
L 376.983609 237.50132 
L 377.314011 237.485889 
L 377.435453 239.379618 
L 378.047925 240.751156 
L 378.266643 241.183959 
L 379.150355 241.499474 
L 379.568019 241.43632 
L 379.716744 241.348941 
L 381.088829 241.508249 
L 381.435886 241.491265 
L 381.788819 241.438643 
L 382.336253 240.780012 
L 382.899065 240.495382 
L 383.326335 239.937567 
L 383.928896 239.973578 
L 384.594246 239.725066 
L 385.034442 239.667298 
L 385.15946 239.903086 
L 386.458333 240.242217 
L 386.78383 240.19775 
L 387.157914 240.342027 
L 387.504971 240.421051 
L 388.567704 239.657099 
L 388.647354 239.345029 
L 389.307289 233.573899 
L 389.561055 233.475552 
L 389.920885 234.183958 
L 390.069814 233.532077 
L 390.258133 233.468737 
L 390.847104 233.84182 
L 391.064698 233.840443 
L 391.743588 232.692077 
L 392.161304 232.259628 
L 392.420128 232.12299 
L 392.497734 232.03556 
L 393.053547 231.963092 
L 393.498954 231.68946 
L 394.117046 232.261649 
L 394.350734 232.557432 
L 394.466811 232.519782 
L 394.806512 232.640163 
L 395.089502 234.085455 
L 395.181618 235.712154 
L 395.406007 236.989453 
L 395.534448 238.465609 
L 395.849779 238.879969 
L 396.981279 238.97914 
L 397.126427 239.835098 
L 400.020343 239.952736 
L 400.636851 240.379813 
L 401.027642 239.583102 
L 402.403763 239.541391 
L 402.841609 239.640797 
L 403.00331 239.84947 
L 403.689506 240.166395 
L 403.914763 240.018215 
L 404.958797 240.026283 
L 405.253231 240.263131 
L 405.394496 240.398966 
L 405.653729 240.27066 
L 406.286075 240.222621 
L 406.357193 240.095779 
L 406.546126 240.017135 
L 406.941106 238.044495 
L 407.137651 232.757777 
L 407.726622 232.148662 
L 407.979111 231.557223 
L 408.228892 231.446354 
L 408.451442 230.839135 
L 408.915445 230.507469 
L 409.342562 230.424005 
L 409.614823 231.543104 
L 411.22223 232.352416 
L 411.369677 232.409069 
L 413.135057 232.113594 
L 413.312494 231.518826 
L 413.665529 231.394726 
L 414.829829 231.561987 
L 415.099433 231.466181 
L 416.471212 231.87523 
L 416.713942 232.338711 
L 417.167421 232.558466 
L 417.376483 233.038567 
L 417.557037 234.920948 
L 417.688442 238.054463 
L 417.939653 238.630241 
L 418.780551 239.298158 
L 419.51094 240.285024 
L 419.744934 238.918279 
L 420.10548 238.784267 
L 422.366538 238.541108 
L 422.546888 238.612095 
L 423.827725 238.576701 
L 424.943285 239.160246 
L 425.19884 238.85896 
L 425.435133 238.767213 
L 427.471854 239.011943 
L 427.924566 238.921655 
L 428.855843 239.03302 
L 429.473015 239.581272 
L 429.636096 239.676994 
L 429.790491 239.553406 
L 429.964046 239.659523 
L 430.718652 239.726848 
L 431.04936 239.935611 
L 431.123084 239.901339 
L 431.45558 239.936238 
L 431.668474 241.294505 
L 433.201494 241.32448 
L 433.622735 241.446595 
L 433.905061 241.022286 
L 434.389756 239.542826 
L 434.616853 239.121304 
L 435.377794 238.732039 
L 436.141034 238.90593 
L 436.547561 239.42956 
L 436.939016 239.393932 
L 440.269755 239.376663 
L 440.493991 239.489011 
L 440.828072 239.458622 
L 445.457224 239.295578 
L 446.598636 239.564637 
L 449.631211 239.464339 
L 449.857184 239.827931 
L 450.163318 239.913881 
L 450.284607 240.102566 
L 450.542461 240.194136 
L 450.812984 240.642371 
L 451.312189 242.209894 
L 451.710593 242.58425 
L 452.179501 242.517805 
L 453.180567 242.703055 
L 454.138513 242.510044 
L 454.354421 242.40195 
L 455.586927 242.25825 
L 457.177884 242.298316 
L 457.566375 242.503922 
L 460.84439 242.787619 
L 461.884642 242.96509 
L 463.310168 242.771448 
L 463.448316 242.521164 
L 464.149737 242.395596 
L 464.411116 242.217474 
L 467.102305 242.109102 
L 467.258438 241.974428 
L 468.236411 242.284709 
L 469.091205 242.433643 
L 469.796611 242.995159 
L 469.976296 242.869508 
L 470.557757 242.958511 
L 471.83936 242.609785 
L 471.988391 242.376726 
L 473.049949 242.416543 
L 473.306269 242.665282 
L 473.743655 242.712824 
L 473.898305 242.894955 
L 474.22273 242.902003 
L 476.284587 243.136773 
L 477.557352 243.019777 
L 478.027844 242.522434 
L 478.191487 241.99754 
L 479.101868 241.823387 
L 480.043311 241.962245 
L 480.211092 241.847083 
L 480.714538 241.680724 
L 480.951853 241.569441 
L 481.638764 240.810208 
L 481.901113 240.797266 
L 482.507506 241.052988 
L 482.64264 240.972051 
L 482.818442 240.694462 
L 483.613103 240.137842 
L 484.089777 238.171292 
L 484.934915 237.191129 
L 485.566138 237.177824 
L 486.257851 235.315776 
L 486.737437 235.086031 
L 487.481365 234.990006 
L 489.332781 235.036906 
L 495.924522 235.083165 
L 497.058065 236.01335 
L 497.746867 236.001856 
L 501.394112 235.961499 
L 501.729469 235.923592 
L 502.085416 236.446877 
L 503.272145 236.192055 
L 503.853299 236.307854 
L 504.762709 236.367958 
L 506.63543 236.621289 
L 506.897626 236.798081 
L 507.479342 238.207797 
L 507.6414 238.972571 
L 507.912078 239.214018 
L 508.328311 239.08026 
L 509.527353 238.984043 
L 510.184683 240.357675 
L 510.904803 240.70522 
L 511.247977 240.471741 
L 511.638206 239.928805 
L 511.82392 239.872646 
L 512.094342 239.560228 
L 512.340189 239.479188 
L 513.177817 225.758165 
L 513.284391 219.58157 
L 513.526203 212.397843 
L 513.784209 212.265651 
L 514.160542 212.265217 
L 515.048749 212.131387 
L 515.245652 212.229731 
L 515.500133 212.080778 
L 515.6485 211.552396 
L 516.020029 211.745452 
L 516.485515 211.271228 
L 516.890713 211.323998 
L 517.407493 211.173132 
L 517.63929 210.96257 
L 518.969277 210.860717 
L 519.39486 209.900712 
L 519.514258 209.817487 
L 519.743501 209.954989 
L 520.469088 210.150716 
L 520.801278 210.445653 
L 521.090246 210.476284 
L 521.436026 210.740802 
L 521.58899 210.288675 
L 521.678756 214.728391 
L 522.115426 222.197955 
L 522.281368 228.249541 
L 522.366587 235.449446 
L 523.215455 235.651585 
L 523.853268 235.740449 
L 524.301025 235.517173 
L 524.56925 235.600727 
L 524.819542 236.188755 
L 525.250592 236.493471 
L 525.578235 237.143608 
L 525.900309 236.959709 
L 526.271992 236.52625 
L 527.734558 236.465076 
L 527.908061 236.18747 
L 530.229714 236.126422 
L 530.796613 236.510375 
L 531.373067 235.575779 
L 531.46176 235.06408 
L 531.833289 234.582222 
L 532.27655 235.639413 
L 532.475139 235.764901 
L 532.677201 235.304359 
L 532.916713 235.288956 
L 533.11847 235.392602 
L 533.690938 235.42888 
L 536.964814 235.324636 
L 537.24622 233.597756 
L 537.592511 229.334746 
L 538.233952 225.962499 
L 538.316821 225.71809 
L 539.148573 225.582762 
L 539.962546 224.958637 
L 540.243237 224.950035 
L 540.432169 225.068295 
L 540.507528 225.554651 
L 540.737333 226.191427 
L 541.279709 226.519015 
L 541.465576 226.463606 
L 542.749836 228.341468 
L 543.268047 228.232221 
L 543.5095 228.38753 
L 543.99818 228.451905 
L 544.831721 227.237066 
L 545.151956 227.071744 
L 545.928224 234.754389 
L 546.101217 234.571479 
L 546.290711 234.57398 
L 546.593882 234.457786 
L 546.869055 234.492784 
L 547.046492 234.268797 
L 547.403819 235.256859 
L 547.790114 235.357412 
L 548.286917 235.504865 
L 548.753475 234.032326 
L 548.753475 234.032326 
" clip-path="url(#pf1f1b943f0)" style="fill: none; stroke: #2ca02c; stroke-width: 1.5; stroke-linecap: square"/>
   </g>
   <g id="patch_3">
    <path d="M 39.58149 254.64351 
L 39.58149 3.00024 
" style="fill: none; stroke: #000000; stroke-width: 0.8; stroke-linejoin: miter; stroke-linecap: square"/>
   </g>
   <g id="patch_4">
    <path d="M 572.99976 254.64351 
L 572.99976 3.00024 
" style="fill: none; stroke: #000000; stroke-width: 0.8; stroke-linejoin: miter; stroke-linecap: square"/>
   </g>
   <g id="patch_5">
    <path d="M 39.58149 254.64351 
L 572.99976 254.64351 
" style="fill: none; stroke: #000000; stroke-width: 0.8; stroke-linejoin: miter; stroke-linecap: square"/>
   </g>
   <g id="patch_6">
    <path d="M 39.58149 3.00024 
L 572.99976 3.00024 
" style="fill: none; stroke: #000000; stroke-width: 0.8; stroke-linejoin: miter; stroke-linecap: square"/>
   </g>
   <g id="legend_1">
    <g id="patch_7">
     <path d="M 503.135697 55.034615 
L 565.99976 55.034615 
Q 567.99976 55.034615 567.99976 53.034615 
L 567.99976 10.00024 
Q 567.99976 8.00024 565.99976 8.00024 
L 503.135697 8.00024 
Q 501.135697 8.00024 501.135697 10.00024 
L 501.135697 53.034615 
Q 501.135697 55.034615 503.135697 55.034615 
z
" style="fill: #ffffff; opacity: 0.8; stroke: #cccccc; stroke-linejoin: miter"/>
    </g>
    <g id="line2d_15">
     <path d="M 505.135697 16.098677 
L 515.135697 16.098677 
L 525.135697 16.098677 
" style="fill: none; stroke: #1f77b4; stroke-width: 1.5; stroke-linecap: square"/>
    </g>
    <g id="text_14">
     <!-- sci-fi -->
     <g transform="translate(533.135697 19.598677) scale(0.1 -0.1)">
      <defs>
       <path id="DejaVuSans-63" d="M 3122 3366 
L 3122 2828 
Q 2878 2963 2633 3030 
Q 2388 3097 2138 3097 
Q 1578 3097 1268 2742 
Q 959 2388 959 1747 
Q 959 1106 1268 751 
Q 1578 397 2138 397 
Q 2388 397 2633 464 
Q 2878 531 3122 666 
L 3122 134 
Q 2881 22 2623 -34 
Q 2366 -91 2075 -91 
Q 1284 -91 818 406 
Q 353 903 353 1747 
Q 353 2603 823 3093 
Q 1294 3584 2113 3584 
Q 2378 3584 2631 3529 
Q 2884 3475 3122 3366 
z
" transform="scale(0.015625)"/>
       <path id="DejaVuSans-2d" d="M 313 2009 
L 1997 2009 
L 1997 1497 
L 313 1497 
L 313 2009 
z
" transform="scale(0.015625)"/>
       <path id="DejaVuSans-66" d="M 2375 4863 
L 2375 4384 
L 1825 4384 
Q 1516 4384 1395 4259 
Q 1275 4134 1275 3809 
L 1275 3500 
L 2222 3500 
L 2222 3053 
L 1275 3053 
L 1275 0 
L 697 0 
L 697 3053 
L 147 3053 
L 147 3500 
L 697 3500 
L 697 3744 
Q 697 4328 969 4595 
Q 1241 4863 1831 4863 
L 2375 4863 
z
" transform="scale(0.015625)"/>
      </defs>
      <use xlink:href="#DejaVuSans-73"/>
      <use xlink:href="#DejaVuSans-63" x="52.099609"/>
      <use xlink:href="#DejaVuSans-69" x="107.080078"/>
      <use xlink:href="#DejaVuSans-2d" x="134.863281"/>
      <use xlink:href="#DejaVuSans-66" x="170.947266"/>
      <use xlink:href="#DejaVuSans-69" x="206.152344"/>
     </g>
    </g>
    <g id="line2d_16">
     <path d="M 505.135697 30.776802 
L 515.135697 30.776802 
L 525.135697 30.776802 
" style="fill: none; stroke: #ff7f0e; stroke-width: 1.5; stroke-linecap: square"/>
    </g>
    <g id="text_15">
     <!-- family -->
     <g transform="translate(533.135697 34.276802) scale(0.1 -0.1)">
      <defs>
       <path id="DejaVuSans-61" d="M 2194 1759 
Q 1497 1759 1228 1600 
Q 959 1441 959 1056 
Q 959 750 1161 570 
Q 1363 391 1709 391 
Q 2188 391 2477 730 
Q 2766 1069 2766 1631 
L 2766 1759 
L 2194 1759 
z
M 3341 1997 
L 3341 0 
L 2766 0 
L 2766 531 
Q 2569 213 2275 61 
Q 1981 -91 1556 -91 
Q 1019 -91 701 211 
Q 384 513 384 1019 
Q 384 1609 779 1909 
Q 1175 2209 1959 2209 
L 2766 2209 
L 2766 2266 
Q 2766 2663 2505 2880 
Q 2244 3097 1772 3097 
Q 1472 3097 1187 3025 
Q 903 2953 641 2809 
L 641 3341 
Q 956 3463 1253 3523 
Q 1550 3584 1831 3584 
Q 2591 3584 2966 3190 
Q 3341 2797 3341 1997 
z
" transform="scale(0.015625)"/>
       <path id="DejaVuSans-6c" d="M 603 4863 
L 1178 4863 
L 1178 0 
L 603 0 
L 603 4863 
z
" transform="scale(0.015625)"/>
       <path id="DejaVuSans-79" d="M 2059 -325 
Q 1816 -950 1584 -1140 
Q 1353 -1331 966 -1331 
L 506 -1331 
L 506 -850 
L 844 -850 
Q 1081 -850 1212 -737 
Q 1344 -625 1503 -206 
L 1606 56 
L 191 3500 
L 800 3500 
L 1894 763 
L 2988 3500 
L 3597 3500 
L 2059 -325 
z
" transform="scale(0.015625)"/>
      </defs>
      <use xlink:href="#DejaVuSans-66"/>
      <use xlink:href="#DejaVuSans-61" x="35.205078"/>
      <use xlink:href="#DejaVuSans-6d" x="96.484375"/>
      <use xlink:href="#DejaVuSans-69" x="193.896484"/>
      <use xlink:href="#DejaVuSans-6c" x="221.679688"/>
      <use xlink:href="#DejaVuSans-79" x="249.462891"/>
     </g>
    </g>
    <g id="line2d_17">
     <path d="M 505.135697 45.454927 
L 515.135697 45.454927 
L 525.135697 45.454927 
" style="fill: none; stroke: #2ca02c; stroke-width: 1.5; stroke-linecap: square"/>
    </g>
    <g id="text_16">
     <!-- love -->
     <g transform="translate(533.135697 48.954927) scale(0.1 -0.1)">
      <defs>
       <path id="DejaVuSans-6f" d="M 1959 3097 
Q 1497 3097 1228 2736 
Q 959 2375 959 1747 
Q 959 1119 1226 758 
Q 1494 397 1959 397 
Q 2419 397 2687 759 
Q 2956 1122 2956 1747 
Q 2956 2369 2687 2733 
Q 2419 3097 1959 3097 
z
M 1959 3584 
Q 2709 3584 3137 3096 
Q 3566 2609 3566 1747 
Q 3566 888 3137 398 
Q 2709 -91 1959 -91 
Q 1206 -91 779 398 
Q 353 888 353 1747 
Q 353 2609 779 3096 
Q 1206 3584 1959 3584 
z
" transform="scale(0.015625)"/>
       <path id="DejaVuSans-76" d="M 191 3500 
L 800 3500 
L 1894 563 
L 2988 3500 
L 3597 3500 
L 2284 0 
L 1503 0 
L 191 3500 
z
" transform="scale(0.015625)"/>
      </defs>
      <use xlink:href="#DejaVuSans-6c"/>
      <use xlink:href="#DejaVuSans-6f" x="27.783203"/>
      <use xlink:href="#DejaVuSans-76" x="88.964844"/>
      <use xlink:href="#DejaVuSans-65" x="148.144531"/>
     </g>
    </g>
   </g>
  </g>
 </g>
 <defs>
  <clipPath id="pf1f1b943f0">
   <rect x="39.58149" y="3.00024" width="533.41827" height="251.64327"/>
  </clipPath>
 </defs>
</svg>
