<?xml version="1.0" encoding="utf-8" standalone="no"?>
<!DOCTYPE svg PUBLIC "-//W3C//DTD SVG 1.1//EN"
  "http://www.w3.org/Graphics/SVG/1.1/DTD/svg11.dtd">
<svg xmlns:xlink="http://www.w3.org/1999/xlink" width="576pt" height="288pt" viewBox="0 0 576 288" xmlns="http://www.w3.org/2000/svg" version="1.1">
 <metadata>
  <rdf:RDF xmlns:dc="http://purl.org/dc/elements/1.1/" xmlns:cc="http://creativecommons.org/ns#" xmlns:rdf="http://www.w3.org/1999/02/22-rdf-syntax-ns#">
   <cc:Work>
    <dc:type rdf:resource="http://purl.org/dc/dcmitype/StillImage"/>
    <dc:date>2023-06-15T10:49:06.468060</dc:date>
    <dc:format>image/svg+xml</dc:format>
    <dc:creator>
     <cc:Agent>
      <dc:title>Matplotlib v3.7.1, https://matplotlib.org/</dc:title>
     </cc:Agent>
    </dc:creator>
   </cc:Work>
  </rdf:RDF>
 </metadata>
 <defs>
  <style type="text/css">*{stroke-linejoin: round; stroke-linecap: butt}</style>
 </defs>
 <g id="figure_1">
  <g id="patch_1">
   <path d="M 0 288 
L 576 288 
L 576 0 
L 0 0 
z
" style="fill: #ffffff"/>
  </g>
  <g id="axes_1">
   <g id="patch_2">
    <path d="M 47.961178 254.64351 
L 572.99976 254.64351 
L 572.99976 3.00024 
L 47.961178 3.00024 
z
" style="fill: #ffffff"/>
   </g>
   <g id="matplotlib.axis_1">
    <g id="xtick_1">
     <g id="line2d_1">
      <defs>
       <path id="md7ad695d51" d="M 0 0 
L 0 3.5 
" style="stroke: #000000; stroke-width: 0.8"/>
      </defs>
      <g>
       <use xlink:href="#md7ad695d51" x="71.826568" y="254.64351" style="stroke: #000000; stroke-width: 0.8"/>
      </g>
     </g>
     <g id="text_1">
      <!-- 0 -->
      <g transform="translate(68.645318 269.241947) scale(0.1 -0.1)">
       <defs>
        <path id="DejaVuSans-30" d="M 2034 4250 
Q 1547 4250 1301 3770 
Q 1056 3291 1056 2328 
Q 1056 1369 1301 889 
Q 1547 409 2034 409 
Q 2525 409 2770 889 
Q 3016 1369 3016 2328 
Q 3016 3291 2770 3770 
Q 2525 4250 2034 4250 
z
M 2034 4750 
Q 2819 4750 3233 4129 
Q 3647 3509 3647 2328 
Q 3647 1150 3233 529 
Q 2819 -91 2034 -91 
Q 1250 -91 836 529 
Q 422 1150 422 2328 
Q 422 3509 836 4129 
Q 1250 4750 2034 4750 
z
" transform="scale(0.015625)"/>
       </defs>
       <use xlink:href="#DejaVuSans-30"/>
      </g>
     </g>
    </g>
    <g id="xtick_2">
     <g id="line2d_2">
      <g>
       <use xlink:href="#md7ad695d51" x="167.288128" y="254.64351" style="stroke: #000000; stroke-width: 0.8"/>
      </g>
     </g>
     <g id="text_2">
      <!-- 20 -->
      <g transform="translate(160.925628 269.241947) scale(0.1 -0.1)">
       <defs>
        <path id="DejaVuSans-32" d="M 1228 531 
L 3431 531 
L 3431 0 
L 469 0 
L 469 531 
Q 828 903 1448 1529 
Q 2069 2156 2228 2338 
Q 2531 2678 2651 2914 
Q 2772 3150 2772 3378 
Q 2772 3750 2511 3984 
Q 2250 4219 1831 4219 
Q 1534 4219 1204 4116 
Q 875 4013 500 3803 
L 500 4441 
Q 881 4594 1212 4672 
Q 1544 4750 1819 4750 
Q 2544 4750 2975 4387 
Q 3406 4025 3406 3419 
Q 3406 3131 3298 2873 
Q 3191 2616 2906 2266 
Q 2828 2175 2409 1742 
Q 1991 1309 1228 531 
z
" transform="scale(0.015625)"/>
       </defs>
       <use xlink:href="#DejaVuSans-32"/>
       <use xlink:href="#DejaVuSans-30" x="63.623047"/>
      </g>
     </g>
    </g>
    <g id="xtick_3">
     <g id="line2d_3">
      <g>
       <use xlink:href="#md7ad695d51" x="262.749689" y="254.64351" style="stroke: #000000; stroke-width: 0.8"/>
      </g>
     </g>
     <g id="text_3">
      <!-- 40 -->
      <g transform="translate(256.387189 269.241947) scale(0.1 -0.1)">
       <defs>
        <path id="DejaVuSans-34" d="M 2419 4116 
L 825 1625 
L 2419 1625 
L 2419 4116 
z
M 2253 4666 
L 3047 4666 
L 3047 1625 
L 3713 1625 
L 3713 1100 
L 3047 1100 
L 3047 0 
L 2419 0 
L 2419 1100 
L 313 1100 
L 313 1709 
L 2253 4666 
z
" transform="scale(0.015625)"/>
       </defs>
       <use xlink:href="#DejaVuSans-34"/>
       <use xlink:href="#DejaVuSans-30" x="63.623047"/>
      </g>
     </g>
    </g>
    <g id="xtick_4">
     <g id="line2d_4">
      <g>
       <use xlink:href="#md7ad695d51" x="358.211249" y="254.64351" style="stroke: #000000; stroke-width: 0.8"/>
      </g>
     </g>
     <g id="text_4">
      <!-- 60 -->
      <g transform="translate(351.848749 269.241947) scale(0.1 -0.1)">
       <defs>
        <path id="DejaVuSans-36" d="M 2113 2584 
Q 1688 2584 1439 2293 
Q 1191 2003 1191 1497 
Q 1191 994 1439 701 
Q 1688 409 2113 409 
Q 2538 409 2786 701 
Q 3034 994 3034 1497 
Q 3034 2003 2786 2293 
Q 2538 2584 2113 2584 
z
M 3366 4563 
L 3366 3988 
Q 3128 4100 2886 4159 
Q 2644 4219 2406 4219 
Q 1781 4219 1451 3797 
Q 1122 3375 1075 2522 
Q 1259 2794 1537 2939 
Q 1816 3084 2150 3084 
Q 2853 3084 3261 2657 
Q 3669 2231 3669 1497 
Q 3669 778 3244 343 
Q 2819 -91 2113 -91 
Q 1303 -91 875 529 
Q 447 1150 447 2328 
Q 447 3434 972 4092 
Q 1497 4750 2381 4750 
Q 2619 4750 2861 4703 
Q 3103 4656 3366 4563 
z
" transform="scale(0.015625)"/>
       </defs>
       <use xlink:href="#DejaVuSans-36"/>
       <use xlink:href="#DejaVuSans-30" x="63.623047"/>
      </g>
     </g>
    </g>
    <g id="xtick_5">
     <g id="line2d_5">
      <g>
       <use xlink:href="#md7ad695d51" x="453.672809" y="254.64351" style="stroke: #000000; stroke-width: 0.8"/>
      </g>
     </g>
     <g id="text_5">
      <!-- 80 -->
      <g transform="translate(447.310309 269.241947) scale(0.1 -0.1)">
       <defs>
        <path id="DejaVuSans-38" d="M 2034 2216 
Q 1584 2216 1326 1975 
Q 1069 1734 1069 1313 
Q 1069 891 1326 650 
Q 1584 409 2034 409 
Q 2484 409 2743 651 
Q 3003 894 3003 1313 
Q 3003 1734 2745 1975 
Q 2488 2216 2034 2216 
z
M 1403 2484 
Q 997 2584 770 2862 
Q 544 3141 544 3541 
Q 544 4100 942 4425 
Q 1341 4750 2034 4750 
Q 2731 4750 3128 4425 
Q 3525 4100 3525 3541 
Q 3525 3141 3298 2862 
Q 3072 2584 2669 2484 
Q 3125 2378 3379 2068 
Q 3634 1759 3634 1313 
Q 3634 634 3220 271 
Q 2806 -91 2034 -91 
Q 1263 -91 848 271 
Q 434 634 434 1313 
Q 434 1759 690 2068 
Q 947 2378 1403 2484 
z
M 1172 3481 
Q 1172 3119 1398 2916 
Q 1625 2713 2034 2713 
Q 2441 2713 2670 2916 
Q 2900 3119 2900 3481 
Q 2900 3844 2670 4047 
Q 2441 4250 2034 4250 
Q 1625 4250 1398 4047 
Q 1172 3844 1172 3481 
z
" transform="scale(0.015625)"/>
       </defs>
       <use xlink:href="#DejaVuSans-38"/>
       <use xlink:href="#DejaVuSans-30" x="63.623047"/>
      </g>
     </g>
    </g>
    <g id="xtick_6">
     <g id="line2d_6">
      <g>
       <use xlink:href="#md7ad695d51" x="549.13437" y="254.64351" style="stroke: #000000; stroke-width: 0.8"/>
      </g>
     </g>
     <g id="text_6">
      <!-- 100 -->
      <g transform="translate(539.59062 269.241947) scale(0.1 -0.1)">
       <defs>
        <path id="DejaVuSans-31" d="M 794 531 
L 1825 531 
L 1825 4091 
L 703 3866 
L 703 4441 
L 1819 4666 
L 2450 4666 
L 2450 531 
L 3481 531 
L 3481 0 
L 794 0 
L 794 531 
z
" transform="scale(0.015625)"/>
       </defs>
       <use xlink:href="#DejaVuSans-31"/>
       <use xlink:href="#DejaVuSans-30" x="63.623047"/>
       <use xlink:href="#DejaVuSans-30" x="127.246094"/>
      </g>
     </g>
    </g>
    <g id="text_7">
     <!-- time [%] -->
     <g transform="translate(288.942969 282.920073) scale(0.1 -0.1)">
      <defs>
       <path id="DejaVuSans-74" d="M 1172 4494 
L 1172 3500 
L 2356 3500 
L 2356 3053 
L 1172 3053 
L 1172 1153 
Q 1172 725 1289 603 
Q 1406 481 1766 481 
L 2356 481 
L 2356 0 
L 1766 0 
Q 1100 0 847 248 
Q 594 497 594 1153 
L 594 3053 
L 172 3053 
L 172 3500 
L 594 3500 
L 594 4494 
L 1172 4494 
z
" transform="scale(0.015625)"/>
       <path id="DejaVuSans-69" d="M 603 3500 
L 1178 3500 
L 1178 0 
L 603 0 
L 603 3500 
z
M 603 4863 
L 1178 4863 
L 1178 4134 
L 603 4134 
L 603 4863 
z
" transform="scale(0.015625)"/>
       <path id="DejaVuSans-6d" d="M 3328 2828 
Q 3544 3216 3844 3400 
Q 4144 3584 4550 3584 
Q 5097 3584 5394 3201 
Q 5691 2819 5691 2113 
L 5691 0 
L 5113 0 
L 5113 2094 
Q 5113 2597 4934 2840 
Q 4756 3084 4391 3084 
Q 3944 3084 3684 2787 
Q 3425 2491 3425 1978 
L 3425 0 
L 2847 0 
L 2847 2094 
Q 2847 2600 2669 2842 
Q 2491 3084 2119 3084 
Q 1678 3084 1418 2786 
Q 1159 2488 1159 1978 
L 1159 0 
L 581 0 
L 581 3500 
L 1159 3500 
L 1159 2956 
Q 1356 3278 1631 3431 
Q 1906 3584 2284 3584 
Q 2666 3584 2933 3390 
Q 3200 3197 3328 2828 
z
" transform="scale(0.015625)"/>
       <path id="DejaVuSans-65" d="M 3597 1894 
L 3597 1613 
L 953 1613 
Q 991 1019 1311 708 
Q 1631 397 2203 397 
Q 2534 397 2845 478 
Q 3156 559 3463 722 
L 3463 178 
Q 3153 47 2828 -22 
Q 2503 -91 2169 -91 
Q 1331 -91 842 396 
Q 353 884 353 1716 
Q 353 2575 817 3079 
Q 1281 3584 2069 3584 
Q 2775 3584 3186 3129 
Q 3597 2675 3597 1894 
z
M 3022 2063 
Q 3016 2534 2758 2815 
Q 2500 3097 2075 3097 
Q 1594 3097 1305 2825 
Q 1016 2553 972 2059 
L 3022 2063 
z
" transform="scale(0.015625)"/>
       <path id="DejaVuSans-20" transform="scale(0.015625)"/>
       <path id="DejaVuSans-5b" d="M 550 4863 
L 1875 4863 
L 1875 4416 
L 1125 4416 
L 1125 -397 
L 1875 -397 
L 1875 -844 
L 550 -844 
L 550 4863 
z
" transform="scale(0.015625)"/>
       <path id="DejaVuSans-25" d="M 4653 2053 
Q 4381 2053 4226 1822 
Q 4072 1591 4072 1178 
Q 4072 772 4226 539 
Q 4381 306 4653 306 
Q 4919 306 5073 539 
Q 5228 772 5228 1178 
Q 5228 1588 5073 1820 
Q 4919 2053 4653 2053 
z
M 4653 2450 
Q 5147 2450 5437 2106 
Q 5728 1763 5728 1178 
Q 5728 594 5436 251 
Q 5144 -91 4653 -91 
Q 4153 -91 3862 251 
Q 3572 594 3572 1178 
Q 3572 1766 3864 2108 
Q 4156 2450 4653 2450 
z
M 1428 4353 
Q 1159 4353 1004 4120 
Q 850 3888 850 3481 
Q 850 3069 1003 2837 
Q 1156 2606 1428 2606 
Q 1700 2606 1854 2837 
Q 2009 3069 2009 3481 
Q 2009 3884 1853 4118 
Q 1697 4353 1428 4353 
z
M 4250 4750 
L 4750 4750 
L 1831 -91 
L 1331 -91 
L 4250 4750 
z
M 1428 4750 
Q 1922 4750 2215 4408 
Q 2509 4066 2509 3481 
Q 2509 2891 2217 2550 
Q 1925 2209 1428 2209 
Q 931 2209 642 2551 
Q 353 2894 353 3481 
Q 353 4063 643 4406 
Q 934 4750 1428 4750 
z
" transform="scale(0.015625)"/>
       <path id="DejaVuSans-5d" d="M 1947 4863 
L 1947 -844 
L 622 -844 
L 622 -397 
L 1369 -397 
L 1369 4416 
L 622 4416 
L 622 4863 
L 1947 4863 
z
" transform="scale(0.015625)"/>
      </defs>
      <use xlink:href="#DejaVuSans-74"/>
      <use xlink:href="#DejaVuSans-69" x="39.208984"/>
      <use xlink:href="#DejaVuSans-6d" x="66.992188"/>
      <use xlink:href="#DejaVuSans-65" x="164.404297"/>
      <use xlink:href="#DejaVuSans-20" x="225.927734"/>
      <use xlink:href="#DejaVuSans-5b" x="257.714844"/>
      <use xlink:href="#DejaVuSans-25" x="296.728516"/>
      <use xlink:href="#DejaVuSans-5d" x="391.748047"/>
     </g>
    </g>
   </g>
   <g id="matplotlib.axis_2">
    <g id="ytick_1">
     <g id="line2d_7">
      <defs>
       <path id="m5cd9920d0e" d="M 0 0 
L -3.5 0 
" style="stroke: #000000; stroke-width: 0.8"/>
      </defs>
      <g>
       <use xlink:href="#m5cd9920d0e" x="47.961178" y="238.094378" style="stroke: #000000; stroke-width: 0.8"/>
      </g>
     </g>
     <g id="text_8">
      <!-- −0.3 -->
      <g transform="translate(16.678365 241.893597) scale(0.1 -0.1)">
       <defs>
        <path id="DejaVuSans-2212" d="M 678 2272 
L 4684 2272 
L 4684 1741 
L 678 1741 
L 678 2272 
z
" transform="scale(0.015625)"/>
        <path id="DejaVuSans-2e" d="M 684 794 
L 1344 794 
L 1344 0 
L 684 0 
L 684 794 
z
" transform="scale(0.015625)"/>
        <path id="DejaVuSans-33" d="M 2597 2516 
Q 3050 2419 3304 2112 
Q 3559 1806 3559 1356 
Q 3559 666 3084 287 
Q 2609 -91 1734 -91 
Q 1441 -91 1130 -33 
Q 819 25 488 141 
L 488 750 
Q 750 597 1062 519 
Q 1375 441 1716 441 
Q 2309 441 2620 675 
Q 2931 909 2931 1356 
Q 2931 1769 2642 2001 
Q 2353 2234 1838 2234 
L 1294 2234 
L 1294 2753 
L 1863 2753 
Q 2328 2753 2575 2939 
Q 2822 3125 2822 3475 
Q 2822 3834 2567 4026 
Q 2313 4219 1838 4219 
Q 1578 4219 1281 4162 
Q 984 4106 628 3988 
L 628 4550 
Q 988 4650 1302 4700 
Q 1616 4750 1894 4750 
Q 2613 4750 3031 4423 
Q 3450 4097 3450 3541 
Q 3450 3153 3228 2886 
Q 3006 2619 2597 2516 
z
" transform="scale(0.015625)"/>
       </defs>
       <use xlink:href="#DejaVuSans-2212"/>
       <use xlink:href="#DejaVuSans-30" x="83.789062"/>
       <use xlink:href="#DejaVuSans-2e" x="147.412109"/>
       <use xlink:href="#DejaVuSans-33" x="179.199219"/>
      </g>
     </g>
    </g>
    <g id="ytick_2">
     <g id="line2d_8">
      <g>
       <use xlink:href="#m5cd9920d0e" x="47.961178" y="196.122563" style="stroke: #000000; stroke-width: 0.8"/>
      </g>
     </g>
     <g id="text_9">
      <!-- −0.2 -->
      <g transform="translate(16.678365 199.921782) scale(0.1 -0.1)">
       <use xlink:href="#DejaVuSans-2212"/>
       <use xlink:href="#DejaVuSans-30" x="83.789062"/>
       <use xlink:href="#DejaVuSans-2e" x="147.412109"/>
       <use xlink:href="#DejaVuSans-32" x="179.199219"/>
      </g>
     </g>
    </g>
    <g id="ytick_3">
     <g id="line2d_9">
      <g>
       <use xlink:href="#m5cd9920d0e" x="47.961178" y="154.150747" style="stroke: #000000; stroke-width: 0.8"/>
      </g>
     </g>
     <g id="text_10">
      <!-- −0.1 -->
      <g transform="translate(16.678365 157.949966) scale(0.1 -0.1)">
       <use xlink:href="#DejaVuSans-2212"/>
       <use xlink:href="#DejaVuSans-30" x="83.789062"/>
       <use xlink:href="#DejaVuSans-2e" x="147.412109"/>
       <use xlink:href="#DejaVuSans-31" x="179.199219"/>
      </g>
     </g>
    </g>
    <g id="ytick_4">
     <g id="line2d_10">
      <g>
       <use xlink:href="#m5cd9920d0e" x="47.961178" y="112.178931" style="stroke: #000000; stroke-width: 0.8"/>
      </g>
     </g>
     <g id="text_11">
      <!-- 0.0 -->
      <g transform="translate(25.058053 115.97815) scale(0.1 -0.1)">
       <use xlink:href="#DejaVuSans-30"/>
       <use xlink:href="#DejaVuSans-2e" x="63.623047"/>
       <use xlink:href="#DejaVuSans-30" x="95.410156"/>
      </g>
     </g>
    </g>
    <g id="ytick_5">
     <g id="line2d_11">
      <g>
       <use xlink:href="#m5cd9920d0e" x="47.961178" y="70.207116" style="stroke: #000000; stroke-width: 0.8"/>
      </g>
     </g>
     <g id="text_12">
      <!-- 0.1 -->
      <g transform="translate(25.058053 74.006335) scale(0.1 -0.1)">
       <use xlink:href="#DejaVuSans-30"/>
       <use xlink:href="#DejaVuSans-2e" x="63.623047"/>
       <use xlink:href="#DejaVuSans-31" x="95.410156"/>
      </g>
     </g>
    </g>
    <g id="ytick_6">
     <g id="line2d_12">
      <g>
       <use xlink:href="#m5cd9920d0e" x="47.961178" y="28.2353" style="stroke: #000000; stroke-width: 0.8"/>
      </g>
     </g>
     <g id="text_13">
      <!-- 0.2 -->
      <g transform="translate(25.058053 32.034519) scale(0.1 -0.1)">
       <use xlink:href="#DejaVuSans-30"/>
       <use xlink:href="#DejaVuSans-2e" x="63.623047"/>
       <use xlink:href="#DejaVuSans-32" x="95.410156"/>
      </g>
     </g>
    </g>
    <g id="text_14">
     <!-- sentiment -->
     <g transform="translate(10.598678 154.096875) rotate(-90) scale(0.1 -0.1)">
      <defs>
       <path id="DejaVuSans-73" d="M 2834 3397 
L 2834 2853 
Q 2591 2978 2328 3040 
Q 2066 3103 1784 3103 
Q 1356 3103 1142 2972 
Q 928 2841 928 2578 
Q 928 2378 1081 2264 
Q 1234 2150 1697 2047 
L 1894 2003 
Q 2506 1872 2764 1633 
Q 3022 1394 3022 966 
Q 3022 478 2636 193 
Q 2250 -91 1575 -91 
Q 1294 -91 989 -36 
Q 684 19 347 128 
L 347 722 
Q 666 556 975 473 
Q 1284 391 1588 391 
Q 1994 391 2212 530 
Q 2431 669 2431 922 
Q 2431 1156 2273 1281 
Q 2116 1406 1581 1522 
L 1381 1569 
Q 847 1681 609 1914 
Q 372 2147 372 2553 
Q 372 3047 722 3315 
Q 1072 3584 1716 3584 
Q 2034 3584 2315 3537 
Q 2597 3491 2834 3397 
z
" transform="scale(0.015625)"/>
       <path id="DejaVuSans-6e" d="M 3513 2113 
L 3513 0 
L 2938 0 
L 2938 2094 
Q 2938 2591 2744 2837 
Q 2550 3084 2163 3084 
Q 1697 3084 1428 2787 
Q 1159 2491 1159 1978 
L 1159 0 
L 581 0 
L 581 3500 
L 1159 3500 
L 1159 2956 
Q 1366 3272 1645 3428 
Q 1925 3584 2291 3584 
Q 2894 3584 3203 3211 
Q 3513 2838 3513 2113 
z
" transform="scale(0.015625)"/>
      </defs>
      <use xlink:href="#DejaVuSans-73"/>
      <use xlink:href="#DejaVuSans-65" x="52.099609"/>
      <use xlink:href="#DejaVuSans-6e" x="113.623047"/>
      <use xlink:href="#DejaVuSans-74" x="177.001953"/>
      <use xlink:href="#DejaVuSans-69" x="216.210938"/>
      <use xlink:href="#DejaVuSans-6d" x="243.994141"/>
      <use xlink:href="#DejaVuSans-65" x="341.40625"/>
      <use xlink:href="#DejaVuSans-6e" x="402.929688"/>
      <use xlink:href="#DejaVuSans-74" x="466.308594"/>
     </g>
    </g>
   </g>
   <g id="line2d_13">
    <path d="M 71.826568 191.945111 
L 76.599646 185.031033 
L 81.372724 178.216811 
L 86.145802 173.532915 
L 90.91888 172.072572 
L 95.691958 174.011949 
L 100.465036 178.799059 
L 105.238114 185.405863 
L 110.011192 192.579133 
L 114.78427 199.054532 
L 119.557348 203.718127 
L 124.330426 205.712233 
L 129.103504 204.490208 
L 133.876582 199.828791 
L 138.64966 191.808162 
L 143.422738 180.769781 
L 148.195816 167.261067 
L 152.968894 151.974391 
L 157.741972 135.686191 
L 162.51505 119.200359 
L 167.288128 103.298579 
L 172.061206 88.699108 
L 176.834284 76.024536 
L 181.607362 65.778409 
L 186.38044 58.330158 
L 191.153518 53.907526 
L 195.926596 52.595579 
L 200.699674 54.341412 
L 205.472752 58.963658 
L 210.24583 66.166062 
L 215.018908 75.554386 
L 219.791986 86.65603 
L 224.565064 98.941743 
L 229.338142 111.848822 
L 234.11122 124.805147 
L 238.884298 137.253393 
L 243.657376 148.674636 
L 248.430454 158.610598 
L 253.203532 166.683671 
L 257.97661 172.613909 
L 262.749689 176.232162 
L 267.522767 177.48865 
L 272.295845 176.456373 
L 277.068923 173.328943 
L 281.842001 168.412639 
L 286.615079 162.112761 
L 291.388157 154.914618 
L 296.161235 147.3598 
L 300.934313 140.018672 
L 305.707391 133.460266 
L 310.480469 128.221021 
L 315.253547 124.773933 
L 320.026625 123.499814 
L 324.799703 124.662335 
L 329.572781 128.388472 
L 334.345859 134.65575 
L 339.118937 143.287445 
L 343.892015 153.956503 
L 348.665093 166.198486 
L 353.438171 179.433376 
L 358.211249 192.995494 
L 362.984327 206.170268 
L 367.757405 218.236035 
L 372.530483 228.508634 
L 377.303561 236.386115 
L 382.076639 241.390728 
L 386.849717 243.20518 
L 391.622795 241.700325 
L 396.395873 236.951695 
L 401.168951 229.24282 
L 405.942029 219.053982 
L 410.715107 207.035984 
L 415.488185 193.969491 
L 420.261263 180.71178 
L 425.034341 168.133812 
L 429.807419 157.051757 
L 434.580497 148.158069 
L 439.353575 141.95801 
L 444.126653 138.717767 
L 448.899731 138.430401 
L 453.672809 140.80483 
L 458.445887 145.282068 
L 463.218965 151.08037 
L 467.992043 157.268429 
L 472.765122 162.86201 
L 477.5382 166.935518 
L 482.311278 168.736025 
L 487.084356 167.783055 
L 491.857434 163.935436 
L 496.630512 157.40476 
L 501.40359 148.699055 
L 506.176668 138.486583 
L 510.949746 127.385076 
L 515.722824 115.707019 
L 520.495902 103.228509 
L 525.26898 89.10509 
L 530.042058 72.135523 
L 534.815136 51.680926 
L 539.588214 29.686223 
L 544.361292 14.43857 
L 549.13437 26.933917 
" clip-path="url(#p90fd22f9b8)" style="fill: none; stroke: #0000ff; stroke-width: 1.5; stroke-linecap: square"/>
   </g>
   <g id="line2d_14">
    <path d="M 71.826568 94.672628 
L 76.599646 159.531313 
L 81.372724 164.393219 
L 86.145802 150.451469 
L 90.91888 137.12479 
L 95.691958 131.427631 
L 100.465036 133.927854 
L 105.238114 142.361687 
L 110.011192 153.686696 
L 114.78427 165.131304 
L 119.557348 174.630866 
L 124.330426 180.914641 
L 129.103504 183.416022 
L 133.876582 182.112782 
L 138.64966 177.358477 
L 143.422738 169.735779 
L 148.195816 159.943255 
L 152.968894 148.715824 
L 157.741972 136.773402 
L 162.51505 124.790135 
L 167.288128 113.376793 
L 172.061206 103.070216 
L 176.834284 94.325589 
L 181.607362 87.509169 
L 186.38044 82.890726 
L 191.153518 80.636145 
L 195.926596 80.801377 
L 200.699674 83.329234 
L 205.472752 88.050463 
L 210.24583 94.690188 
L 215.018908 102.880249 
L 219.791986 112.177409 
L 224.565064 122.086723 
L 229.338142 132.088857 
L 234.11122 141.669705 
L 238.884298 150.350383 
L 243.657376 157.71559 
L 248.430454 163.438392 
L 253.203532 167.299729 
L 257.97661 169.201283 
L 262.749689 169.170838 
L 267.522767 167.35975 
L 272.295845 164.032691 
L 277.068923 159.550356 
L 281.842001 154.346261 
L 286.615079 148.89916 
L 291.388157 143.702845 
L 296.161235 139.235263 
L 300.934313 135.928889 
L 305.707391 134.144164 
L 310.480469 134.147617 
L 315.253547 136.095925 
L 320.026625 140.026782 
L 324.799703 145.856997 
L 329.572781 153.387775 
L 334.345859 162.316664 
L 339.118937 172.255277 
L 343.892015 182.751508 
L 348.665093 193.314767 
L 353.438171 203.44258 
L 358.211249 212.646885 
L 362.984327 220.478482 
L 367.757405 226.548257 
L 372.530483 230.54412 
L 377.303561 232.242986 
L 382.076639 231.517523 
L 386.849717 228.337799 
L 391.622795 222.768367 
L 396.395873 214.96168 
L 401.168951 205.14884 
L 405.942029 193.628905 
L 410.715107 180.757833 
L 415.488185 166.937936 
L 420.261263 152.608337 
L 425.034341 138.236551 
L 429.807419 124.310501 
L 434.580497 111.329989 
L 439.353575 99.796088 
L 444.126653 90.196283 
L 448.899731 82.983659 
L 453.672809 78.548555 
L 458.445887 77.181711 
L 463.218965 79.030001 
L 467.992043 84.047034 
L 472.765122 91.94423 
L 477.5382 102.15082 
L 482.311278 113.793214 
L 487.084356 125.70873 
L 491.857434 136.507602 
L 496.630512 144.699739 
L 501.40359 148.893415 
L 506.176668 148.067154 
L 510.949746 141.895557 
L 515.722824 131.077327 
L 520.495902 117.572486 
L 525.26898 104.581749 
L 530.042058 96.014334 
L 534.815136 95.050227 
L 539.588214 101.238789 
L 544.361292 105.335219 
L 549.13437 80.780814 
" clip-path="url(#p90fd22f9b8)" style="fill: none; stroke: #008000; stroke-width: 1.5; stroke-linecap: square"/>
   </g>
   <g id="line2d_15">
    <path d="M 71.826568 163.524296 
L 76.599646 189.6836 
L 81.372724 172.044881 
L 86.145802 149.866253 
L 90.91888 137.746547 
L 95.691958 137.622093 
L 100.465036 146.005645 
L 105.238114 158.043851 
L 110.011192 169.529473 
L 114.78427 177.667826 
L 119.557348 181.143414 
L 124.330426 179.845346 
L 129.103504 174.474685 
L 133.876582 166.161699 
L 138.64966 156.156431 
L 143.422738 145.614407 
L 148.195816 135.474347 
L 152.968894 126.411639 
L 157.741972 118.846242 
L 162.51505 112.983644 
L 167.288128 108.870502 
L 172.061206 106.450947 
L 176.834284 105.614254 
L 181.607362 106.228975 
L 186.38044 108.162263 
L 191.153518 111.285818 
L 195.926596 115.471624 
L 200.699674 120.581557 
L 205.472752 126.454983 
L 210.24583 132.898074 
L 215.018908 139.677683 
L 219.791986 146.521565 
L 224.565064 153.125594 
L 229.338142 159.167586 
L 234.11122 164.326436 
L 238.884298 168.304613 
L 243.657376 170.851681 
L 248.430454 171.786394 
L 253.203532 171.015043 
L 257.97661 168.544103 
L 262.749689 164.485778 
L 267.522767 159.055644 
L 272.295845 152.562348 
L 277.068923 145.389951 
L 281.842001 137.974179 
L 286.615079 130.774308 
L 291.388157 124.242815 
L 296.161235 118.795077 
L 300.934313 114.781436 
L 305.707391 112.463758 
L 310.480469 111.998266 
L 315.253547 113.425967 
L 320.026625 116.671404 
L 324.799703 121.549811 
L 329.572781 127.782125 
L 334.345859 135.016669 
L 339.118937 142.855814 
L 343.892015 150.885472 
L 348.665093 158.70511 
L 353.438171 165.955808 
L 358.211249 172.344071 
L 362.984327 177.65943 
L 367.757405 181.784308 
L 372.530483 184.695301 
L 377.303561 186.455807 
L 382.076639 187.200605 
L 386.849717 187.113931 
L 391.622795 186.40312 
L 396.395873 185.270612 
L 401.168951 183.887294 
L 405.942029 182.370358 
L 410.715107 180.768467 
L 415.488185 179.05663 
L 420.261263 177.142224 
L 425.034341 174.882201 
L 429.807419 172.110755 
L 434.580497 168.674315 
L 439.353575 164.470384 
L 444.126653 159.484191 
L 448.899731 153.817553 
L 453.672809 147.703233 
L 458.445887 141.499075 
L 463.218965 135.657267 
L 467.992043 130.668061 
L 472.765122 126.979567 
L 477.5382 124.901169 
L 482.311278 124.504404 
L 487.084356 125.539039 
L 491.857434 127.389917 
L 496.630512 129.101302 
L 501.40359 129.495053 
L 506.176668 127.399836 
L 510.949746 121.993683 
L 515.722824 113.223826 
L 520.495902 102.218012 
L 525.26898 91.514511 
L 530.042058 84.824348 
L 534.815136 85.859679 
L 539.588214 95.541633 
L 544.361292 106.580121 
L 549.13437 94.021076 
" clip-path="url(#p90fd22f9b8)" style="fill: none; stroke: #ff0000; stroke-width: 1.5; stroke-linecap: square"/>
   </g>
   <g id="line2d_16">
    <path d="M 71.826568 168.935906 
L 76.599646 156.783116 
L 81.372724 140.198229 
L 86.145802 130.348907 
L 90.91888 128.157408 
L 95.691958 130.656902 
L 100.465036 134.340069 
L 105.238114 136.633696 
L 110.011192 136.286203 
L 114.78427 133.194936 
L 119.557348 128.008958 
L 124.330426 121.70615 
L 129.103504 115.2486 
L 133.876582 109.357275 
L 138.64966 104.407934 
L 143.422738 100.428334 
L 148.195816 97.167068 
L 152.968894 94.202644 
L 157.741972 91.064697 
L 162.51505 87.345149 
L 167.288128 82.784162 
L 172.061206 77.322576 
L 176.834284 71.118644 
L 181.607362 64.531724 
L 186.38044 58.07908 
L 191.153518 52.374032 
L 195.926596 48.054544 
L 200.699674 45.71113 
L 205.472752 45.821885 
L 210.24583 48.700858 
L 215.018908 54.464012 
L 219.791986 63.014941 
L 224.565064 74.050532 
L 229.338142 87.084944 
L 234.11122 101.488856 
L 238.884298 116.539858 
L 243.657376 131.479226 
L 248.430454 145.57014 
L 253.203532 158.152564 
L 257.97661 168.690596 
L 262.749689 176.808847 
L 267.522767 182.315474 
L 272.295845 185.210588 
L 277.068923 185.6799 
L 281.842001 184.074568 
L 286.615079 180.87921 
L 291.388157 176.670786 
L 296.161235 172.071672 
L 300.934313 167.700547 
L 305.707391 164.124779 
L 310.480469 161.817786 
L 315.253547 161.124444 
L 320.026625 162.236948 
L 324.799703 165.182763 
L 329.572781 169.825408 
L 334.345859 175.87788 
L 339.118937 182.9276 
L 343.892015 190.470943 
L 348.665093 197.9547 
L 353.438171 204.821297 
L 358.211249 210.554297 
L 362.984327 214.720655 
L 367.757405 217.006394 
L 372.530483 217.242782 
L 377.303561 215.420803 
L 382.076639 211.692553 
L 386.849717 206.359169 
L 391.622795 199.845972 
L 396.395873 192.666586 
L 401.168951 185.378791 
L 405.942029 178.535583 
L 410.715107 172.635631 
L 415.488185 168.077637 
L 420.261263 165.122678 
L 425.034341 163.86876 
L 429.807419 164.240229 
L 434.580497 165.994251 
L 439.353575 168.744218 
L 444.126653 171.999086 
L 448.899731 175.214782 
L 453.672809 177.853589 
L 458.445887 179.444194 
L 463.218965 179.636074 
L 467.992043 178.239672 
L 472.765122 175.246799 
L 477.5382 170.825792 
L 482.311278 165.289121 
L 487.084356 159.036384 
L 491.857434 152.478894 
L 496.630512 145.958679 
L 501.40359 139.679325 
L 506.176668 133.666911 
L 510.949746 127.785661 
L 515.722824 121.816859 
L 520.495902 115.604168 
L 525.26898 109.235749 
L 530.042058 103.186451 
L 534.815136 98.272607 
L 539.588214 95.167947 
L 544.361292 93.076096 
L 549.13437 86.953215 
" clip-path="url(#p90fd22f9b8)" style="fill: none; stroke: #ffa500; stroke-width: 1.5; stroke-linecap: square"/>
   </g>
   <g id="line2d_17">
    <path d="M 47.961178 112.178931 
L 572.99976 112.178931 
" clip-path="url(#p90fd22f9b8)" style="fill: none; stroke-dasharray: 5.55,2.4; stroke-dashoffset: 0; stroke: #000000; stroke-width: 1.5"/>
   </g>
   <g id="patch_3">
    <path d="M 47.961178 254.64351 
L 47.961178 3.00024 
" style="fill: none; stroke: #000000; stroke-width: 0.8; stroke-linejoin: miter; stroke-linecap: square"/>
   </g>
   <g id="patch_4">
    <path d="M 572.99976 254.64351 
L 572.99976 3.00024 
" style="fill: none; stroke: #000000; stroke-width: 0.8; stroke-linejoin: miter; stroke-linecap: square"/>
   </g>
   <g id="patch_5">
    <path d="M 47.961178 254.64351 
L 572.99976 254.64351 
" style="fill: none; stroke: #000000; stroke-width: 0.8; stroke-linejoin: miter; stroke-linecap: square"/>
   </g>
   <g id="patch_6">
    <path d="M 47.961178 3.00024 
L 572.99976 3.00024 
" style="fill: none; stroke: #000000; stroke-width: 0.8; stroke-linejoin: miter; stroke-linecap: square"/>
   </g>
   <g id="legend_1">
    <g id="patch_7">
     <path d="M 54.961178 69.71274 
L 114.954928 69.71274 
Q 116.954928 69.71274 116.954928 67.71274 
L 116.954928 10.00024 
Q 116.954928 8.00024 114.954928 8.00024 
L 54.961178 8.00024 
Q 52.961178 8.00024 52.961178 10.00024 
L 52.961178 67.71274 
Q 52.961178 69.71274 54.961178 69.71274 
z
" style="fill: #ffffff; opacity: 0.8; stroke: #cccccc; stroke-linejoin: miter"/>
    </g>
    <g id="line2d_18">
     <path d="M 56.961178 16.098677 
L 66.961178 16.098677 
L 76.961178 16.098677 
" style="fill: none; stroke: #0000ff; stroke-width: 1.5; stroke-linecap: square"/>
    </g>
    <g id="text_15">
     <!-- ref -->
     <g transform="translate(84.961178 19.598677) scale(0.1 -0.1)">
      <defs>
       <path id="DejaVuSans-72" d="M 2631 2963 
Q 2534 3019 2420 3045 
Q 2306 3072 2169 3072 
Q 1681 3072 1420 2755 
Q 1159 2438 1159 1844 
L 1159 0 
L 581 0 
L 581 3500 
L 1159 3500 
L 1159 2956 
Q 1341 3275 1631 3429 
Q 1922 3584 2338 3584 
Q 2397 3584 2469 3576 
Q 2541 3569 2628 3553 
L 2631 2963 
z
" transform="scale(0.015625)"/>
       <path id="DejaVuSans-66" d="M 2375 4863 
L 2375 4384 
L 1825 4384 
Q 1516 4384 1395 4259 
Q 1275 4134 1275 3809 
L 1275 3500 
L 2222 3500 
L 2222 3053 
L 1275 3053 
L 1275 0 
L 697 0 
L 697 3053 
L 147 3053 
L 147 3500 
L 697 3500 
L 697 3744 
Q 697 4328 969 4595 
Q 1241 4863 1831 4863 
L 2375 4863 
z
" transform="scale(0.015625)"/>
      </defs>
      <use xlink:href="#DejaVuSans-72"/>
      <use xlink:href="#DejaVuSans-65" x="38.863281"/>
      <use xlink:href="#DejaVuSans-66" x="100.386719"/>
     </g>
    </g>
    <g id="line2d_19">
     <path d="M 56.961178 30.776802 
L 66.961178 30.776802 
L 76.961178 30.776802 
" style="fill: none; stroke: #008000; stroke-width: 1.5; stroke-linecap: square"/>
    </g>
    <g id="text_16">
     <!-- best1 -->
     <g transform="translate(84.961178 34.276802) scale(0.1 -0.1)">
      <defs>
       <path id="DejaVuSans-62" d="M 3116 1747 
Q 3116 2381 2855 2742 
Q 2594 3103 2138 3103 
Q 1681 3103 1420 2742 
Q 1159 2381 1159 1747 
Q 1159 1113 1420 752 
Q 1681 391 2138 391 
Q 2594 391 2855 752 
Q 3116 1113 3116 1747 
z
M 1159 2969 
Q 1341 3281 1617 3432 
Q 1894 3584 2278 3584 
Q 2916 3584 3314 3078 
Q 3713 2572 3713 1747 
Q 3713 922 3314 415 
Q 2916 -91 2278 -91 
Q 1894 -91 1617 61 
Q 1341 213 1159 525 
L 1159 0 
L 581 0 
L 581 4863 
L 1159 4863 
L 1159 2969 
z
" transform="scale(0.015625)"/>
      </defs>
      <use xlink:href="#DejaVuSans-62"/>
      <use xlink:href="#DejaVuSans-65" x="63.476562"/>
      <use xlink:href="#DejaVuSans-73" x="125"/>
      <use xlink:href="#DejaVuSans-74" x="177.099609"/>
      <use xlink:href="#DejaVuSans-31" x="216.308594"/>
     </g>
    </g>
    <g id="line2d_20">
     <path d="M 56.961178 45.454927 
L 66.961178 45.454927 
L 76.961178 45.454927 
" style="fill: none; stroke: #ff0000; stroke-width: 1.5; stroke-linecap: square"/>
    </g>
    <g id="text_17">
     <!-- best2 -->
     <g transform="translate(84.961178 48.954927) scale(0.1 -0.1)">
      <use xlink:href="#DejaVuSans-62"/>
      <use xlink:href="#DejaVuSans-65" x="63.476562"/>
      <use xlink:href="#DejaVuSans-73" x="125"/>
      <use xlink:href="#DejaVuSans-74" x="177.099609"/>
      <use xlink:href="#DejaVuSans-32" x="216.308594"/>
     </g>
    </g>
    <g id="line2d_21">
     <path d="M 56.961178 60.133052 
L 66.961178 60.133052 
L 76.961178 60.133052 
" style="fill: none; stroke: #ffa500; stroke-width: 1.5; stroke-linecap: square"/>
    </g>
    <g id="text_18">
     <!-- best3 -->
     <g transform="translate(84.961178 63.633052) scale(0.1 -0.1)">
      <use xlink:href="#DejaVuSans-62"/>
      <use xlink:href="#DejaVuSans-65" x="63.476562"/>
      <use xlink:href="#DejaVuSans-73" x="125"/>
      <use xlink:href="#DejaVuSans-74" x="177.099609"/>
      <use xlink:href="#DejaVuSans-33" x="216.308594"/>
     </g>
    </g>
   </g>
  </g>
 </g>
 <defs>
  <clipPath id="p90fd22f9b8">
   <rect x="47.961178" y="3.00024" width="525.038582" height="251.64327"/>
  </clipPath>
 </defs>
</svg>
