<?xml version="1.0" encoding="utf-8" standalone="no"?>
<!DOCTYPE svg PUBLIC "-//W3C//DTD SVG 1.1//EN"
  "http://www.w3.org/Graphics/SVG/1.1/DTD/svg11.dtd">
<svg xmlns:xlink="http://www.w3.org/1999/xlink" width="576pt" height="288pt" viewBox="0 0 576 288" xmlns="http://www.w3.org/2000/svg" version="1.1">
 <metadata>
  <rdf:RDF xmlns:dc="http://purl.org/dc/elements/1.1/" xmlns:cc="http://creativecommons.org/ns#" xmlns:rdf="http://www.w3.org/1999/02/22-rdf-syntax-ns#">
   <cc:Work>
    <dc:type rdf:resource="http://purl.org/dc/dcmitype/StillImage"/>
    <dc:date>2023-06-15T10:48:20.566913</dc:date>
    <dc:format>image/svg+xml</dc:format>
    <dc:creator>
     <cc:Agent>
      <dc:title>Matplotlib v3.7.1, https://matplotlib.org/</dc:title>
     </cc:Agent>
    </dc:creator>
   </cc:Work>
  </rdf:RDF>
 </metadata>
 <defs>
  <style type="text/css">*{stroke-linejoin: round; stroke-linecap: butt}</style>
 </defs>
 <g id="figure_1">
  <g id="patch_1">
   <path d="M 0 288 
L 576 288 
L 576 0 
L 0 0 
z
" style="fill: #ffffff"/>
  </g>
  <g id="axes_1">
   <g id="patch_2">
    <path d="M 47.961178 254.64351 
L 572.99976 254.64351 
L 572.99976 3.00024 
L 47.961178 3.00024 
z
" style="fill: #ffffff"/>
   </g>
   <g id="matplotlib.axis_1">
    <g id="xtick_1">
     <g id="line2d_1">
      <defs>
       <path id="md58dfd2ae7" d="M 0 0 
L 0 3.5 
" style="stroke: #000000; stroke-width: 0.8"/>
      </defs>
      <g>
       <use xlink:href="#md58dfd2ae7" x="71.826568" y="254.64351" style="stroke: #000000; stroke-width: 0.8"/>
      </g>
     </g>
     <g id="text_1">
      <!-- 0 -->
      <g transform="translate(68.645318 269.241947) scale(0.1 -0.1)">
       <defs>
        <path id="DejaVuSans-30" d="M 2034 4250 
Q 1547 4250 1301 3770 
Q 1056 3291 1056 2328 
Q 1056 1369 1301 889 
Q 1547 409 2034 409 
Q 2525 409 2770 889 
Q 3016 1369 3016 2328 
Q 3016 3291 2770 3770 
Q 2525 4250 2034 4250 
z
M 2034 4750 
Q 2819 4750 3233 4129 
Q 3647 3509 3647 2328 
Q 3647 1150 3233 529 
Q 2819 -91 2034 -91 
Q 1250 -91 836 529 
Q 422 1150 422 2328 
Q 422 3509 836 4129 
Q 1250 4750 2034 4750 
z
" transform="scale(0.015625)"/>
       </defs>
       <use xlink:href="#DejaVuSans-30"/>
      </g>
     </g>
    </g>
    <g id="xtick_2">
     <g id="line2d_2">
      <g>
       <use xlink:href="#md58dfd2ae7" x="167.288128" y="254.64351" style="stroke: #000000; stroke-width: 0.8"/>
      </g>
     </g>
     <g id="text_2">
      <!-- 20 -->
      <g transform="translate(160.925628 269.241947) scale(0.1 -0.1)">
       <defs>
        <path id="DejaVuSans-32" d="M 1228 531 
L 3431 531 
L 3431 0 
L 469 0 
L 469 531 
Q 828 903 1448 1529 
Q 2069 2156 2228 2338 
Q 2531 2678 2651 2914 
Q 2772 3150 2772 3378 
Q 2772 3750 2511 3984 
Q 2250 4219 1831 4219 
Q 1534 4219 1204 4116 
Q 875 4013 500 3803 
L 500 4441 
Q 881 4594 1212 4672 
Q 1544 4750 1819 4750 
Q 2544 4750 2975 4387 
Q 3406 4025 3406 3419 
Q 3406 3131 3298 2873 
Q 3191 2616 2906 2266 
Q 2828 2175 2409 1742 
Q 1991 1309 1228 531 
z
" transform="scale(0.015625)"/>
       </defs>
       <use xlink:href="#DejaVuSans-32"/>
       <use xlink:href="#DejaVuSans-30" x="63.623047"/>
      </g>
     </g>
    </g>
    <g id="xtick_3">
     <g id="line2d_3">
      <g>
       <use xlink:href="#md58dfd2ae7" x="262.749689" y="254.64351" style="stroke: #000000; stroke-width: 0.8"/>
      </g>
     </g>
     <g id="text_3">
      <!-- 40 -->
      <g transform="translate(256.387189 269.241947) scale(0.1 -0.1)">
       <defs>
        <path id="DejaVuSans-34" d="M 2419 4116 
L 825 1625 
L 2419 1625 
L 2419 4116 
z
M 2253 4666 
L 3047 4666 
L 3047 1625 
L 3713 1625 
L 3713 1100 
L 3047 1100 
L 3047 0 
L 2419 0 
L 2419 1100 
L 313 1100 
L 313 1709 
L 2253 4666 
z
" transform="scale(0.015625)"/>
       </defs>
       <use xlink:href="#DejaVuSans-34"/>
       <use xlink:href="#DejaVuSans-30" x="63.623047"/>
      </g>
     </g>
    </g>
    <g id="xtick_4">
     <g id="line2d_4">
      <g>
       <use xlink:href="#md58dfd2ae7" x="358.211249" y="254.64351" style="stroke: #000000; stroke-width: 0.8"/>
      </g>
     </g>
     <g id="text_4">
      <!-- 60 -->
      <g transform="translate(351.848749 269.241947) scale(0.1 -0.1)">
       <defs>
        <path id="DejaVuSans-36" d="M 2113 2584 
Q 1688 2584 1439 2293 
Q 1191 2003 1191 1497 
Q 1191 994 1439 701 
Q 1688 409 2113 409 
Q 2538 409 2786 701 
Q 3034 994 3034 1497 
Q 3034 2003 2786 2293 
Q 2538 2584 2113 2584 
z
M 3366 4563 
L 3366 3988 
Q 3128 4100 2886 4159 
Q 2644 4219 2406 4219 
Q 1781 4219 1451 3797 
Q 1122 3375 1075 2522 
Q 1259 2794 1537 2939 
Q 1816 3084 2150 3084 
Q 2853 3084 3261 2657 
Q 3669 2231 3669 1497 
Q 3669 778 3244 343 
Q 2819 -91 2113 -91 
Q 1303 -91 875 529 
Q 447 1150 447 2328 
Q 447 3434 972 4092 
Q 1497 4750 2381 4750 
Q 2619 4750 2861 4703 
Q 3103 4656 3366 4563 
z
" transform="scale(0.015625)"/>
       </defs>
       <use xlink:href="#DejaVuSans-36"/>
       <use xlink:href="#DejaVuSans-30" x="63.623047"/>
      </g>
     </g>
    </g>
    <g id="xtick_5">
     <g id="line2d_5">
      <g>
       <use xlink:href="#md58dfd2ae7" x="453.672809" y="254.64351" style="stroke: #000000; stroke-width: 0.8"/>
      </g>
     </g>
     <g id="text_5">
      <!-- 80 -->
      <g transform="translate(447.310309 269.241947) scale(0.1 -0.1)">
       <defs>
        <path id="DejaVuSans-38" d="M 2034 2216 
Q 1584 2216 1326 1975 
Q 1069 1734 1069 1313 
Q 1069 891 1326 650 
Q 1584 409 2034 409 
Q 2484 409 2743 651 
Q 3003 894 3003 1313 
Q 3003 1734 2745 1975 
Q 2488 2216 2034 2216 
z
M 1403 2484 
Q 997 2584 770 2862 
Q 544 3141 544 3541 
Q 544 4100 942 4425 
Q 1341 4750 2034 4750 
Q 2731 4750 3128 4425 
Q 3525 4100 3525 3541 
Q 3525 3141 3298 2862 
Q 3072 2584 2669 2484 
Q 3125 2378 3379 2068 
Q 3634 1759 3634 1313 
Q 3634 634 3220 271 
Q 2806 -91 2034 -91 
Q 1263 -91 848 271 
Q 434 634 434 1313 
Q 434 1759 690 2068 
Q 947 2378 1403 2484 
z
M 1172 3481 
Q 1172 3119 1398 2916 
Q 1625 2713 2034 2713 
Q 2441 2713 2670 2916 
Q 2900 3119 2900 3481 
Q 2900 3844 2670 4047 
Q 2441 4250 2034 4250 
Q 1625 4250 1398 4047 
Q 1172 3844 1172 3481 
z
" transform="scale(0.015625)"/>
       </defs>
       <use xlink:href="#DejaVuSans-38"/>
       <use xlink:href="#DejaVuSans-30" x="63.623047"/>
      </g>
     </g>
    </g>
    <g id="xtick_6">
     <g id="line2d_6">
      <g>
       <use xlink:href="#md58dfd2ae7" x="549.13437" y="254.64351" style="stroke: #000000; stroke-width: 0.8"/>
      </g>
     </g>
     <g id="text_6">
      <!-- 100 -->
      <g transform="translate(539.59062 269.241947) scale(0.1 -0.1)">
       <defs>
        <path id="DejaVuSans-31" d="M 794 531 
L 1825 531 
L 1825 4091 
L 703 3866 
L 703 4441 
L 1819 4666 
L 2450 4666 
L 2450 531 
L 3481 531 
L 3481 0 
L 794 0 
L 794 531 
z
" transform="scale(0.015625)"/>
       </defs>
       <use xlink:href="#DejaVuSans-31"/>
       <use xlink:href="#DejaVuSans-30" x="63.623047"/>
       <use xlink:href="#DejaVuSans-30" x="127.246094"/>
      </g>
     </g>
    </g>
    <g id="text_7">
     <!-- time [s] -->
     <g transform="translate(291.089063 282.920073) scale(0.1 -0.1)">
      <defs>
       <path id="DejaVuSans-74" d="M 1172 4494 
L 1172 3500 
L 2356 3500 
L 2356 3053 
L 1172 3053 
L 1172 1153 
Q 1172 725 1289 603 
Q 1406 481 1766 481 
L 2356 481 
L 2356 0 
L 1766 0 
Q 1100 0 847 248 
Q 594 497 594 1153 
L 594 3053 
L 172 3053 
L 172 3500 
L 594 3500 
L 594 4494 
L 1172 4494 
z
" transform="scale(0.015625)"/>
       <path id="DejaVuSans-69" d="M 603 3500 
L 1178 3500 
L 1178 0 
L 603 0 
L 603 3500 
z
M 603 4863 
L 1178 4863 
L 1178 4134 
L 603 4134 
L 603 4863 
z
" transform="scale(0.015625)"/>
       <path id="DejaVuSans-6d" d="M 3328 2828 
Q 3544 3216 3844 3400 
Q 4144 3584 4550 3584 
Q 5097 3584 5394 3201 
Q 5691 2819 5691 2113 
L 5691 0 
L 5113 0 
L 5113 2094 
Q 5113 2597 4934 2840 
Q 4756 3084 4391 3084 
Q 3944 3084 3684 2787 
Q 3425 2491 3425 1978 
L 3425 0 
L 2847 0 
L 2847 2094 
Q 2847 2600 2669 2842 
Q 2491 3084 2119 3084 
Q 1678 3084 1418 2786 
Q 1159 2488 1159 1978 
L 1159 0 
L 581 0 
L 581 3500 
L 1159 3500 
L 1159 2956 
Q 1356 3278 1631 3431 
Q 1906 3584 2284 3584 
Q 2666 3584 2933 3390 
Q 3200 3197 3328 2828 
z
" transform="scale(0.015625)"/>
       <path id="DejaVuSans-65" d="M 3597 1894 
L 3597 1613 
L 953 1613 
Q 991 1019 1311 708 
Q 1631 397 2203 397 
Q 2534 397 2845 478 
Q 3156 559 3463 722 
L 3463 178 
Q 3153 47 2828 -22 
Q 2503 -91 2169 -91 
Q 1331 -91 842 396 
Q 353 884 353 1716 
Q 353 2575 817 3079 
Q 1281 3584 2069 3584 
Q 2775 3584 3186 3129 
Q 3597 2675 3597 1894 
z
M 3022 2063 
Q 3016 2534 2758 2815 
Q 2500 3097 2075 3097 
Q 1594 3097 1305 2825 
Q 1016 2553 972 2059 
L 3022 2063 
z
" transform="scale(0.015625)"/>
       <path id="DejaVuSans-20" transform="scale(0.015625)"/>
       <path id="DejaVuSans-5b" d="M 550 4863 
L 1875 4863 
L 1875 4416 
L 1125 4416 
L 1125 -397 
L 1875 -397 
L 1875 -844 
L 550 -844 
L 550 4863 
z
" transform="scale(0.015625)"/>
       <path id="DejaVuSans-73" d="M 2834 3397 
L 2834 2853 
Q 2591 2978 2328 3040 
Q 2066 3103 1784 3103 
Q 1356 3103 1142 2972 
Q 928 2841 928 2578 
Q 928 2378 1081 2264 
Q 1234 2150 1697 2047 
L 1894 2003 
Q 2506 1872 2764 1633 
Q 3022 1394 3022 966 
Q 3022 478 2636 193 
Q 2250 -91 1575 -91 
Q 1294 -91 989 -36 
Q 684 19 347 128 
L 347 722 
Q 666 556 975 473 
Q 1284 391 1588 391 
Q 1994 391 2212 530 
Q 2431 669 2431 922 
Q 2431 1156 2273 1281 
Q 2116 1406 1581 1522 
L 1381 1569 
Q 847 1681 609 1914 
Q 372 2147 372 2553 
Q 372 3047 722 3315 
Q 1072 3584 1716 3584 
Q 2034 3584 2315 3537 
Q 2597 3491 2834 3397 
z
" transform="scale(0.015625)"/>
       <path id="DejaVuSans-5d" d="M 1947 4863 
L 1947 -844 
L 622 -844 
L 622 -397 
L 1369 -397 
L 1369 4416 
L 622 4416 
L 622 4863 
L 1947 4863 
z
" transform="scale(0.015625)"/>
      </defs>
      <use xlink:href="#DejaVuSans-74"/>
      <use xlink:href="#DejaVuSans-69" x="39.208984"/>
      <use xlink:href="#DejaVuSans-6d" x="66.992188"/>
      <use xlink:href="#DejaVuSans-65" x="164.404297"/>
      <use xlink:href="#DejaVuSans-20" x="225.927734"/>
      <use xlink:href="#DejaVuSans-5b" x="257.714844"/>
      <use xlink:href="#DejaVuSans-73" x="296.728516"/>
      <use xlink:href="#DejaVuSans-5d" x="348.828125"/>
     </g>
    </g>
   </g>
   <g id="matplotlib.axis_2">
    <g id="ytick_1">
     <g id="line2d_7">
      <defs>
       <path id="mff0e5cb009" d="M 0 0 
L -3.5 0 
" style="stroke: #000000; stroke-width: 0.8"/>
      </defs>
      <g>
       <use xlink:href="#mff0e5cb009" x="47.961178" y="224.36175" style="stroke: #000000; stroke-width: 0.8"/>
      </g>
     </g>
     <g id="text_8">
      <!-- −0.3 -->
      <g transform="translate(16.678365 228.160969) scale(0.1 -0.1)">
       <defs>
        <path id="DejaVuSans-2212" d="M 678 2272 
L 4684 2272 
L 4684 1741 
L 678 1741 
L 678 2272 
z
" transform="scale(0.015625)"/>
        <path id="DejaVuSans-2e" d="M 684 794 
L 1344 794 
L 1344 0 
L 684 0 
L 684 794 
z
" transform="scale(0.015625)"/>
        <path id="DejaVuSans-33" d="M 2597 2516 
Q 3050 2419 3304 2112 
Q 3559 1806 3559 1356 
Q 3559 666 3084 287 
Q 2609 -91 1734 -91 
Q 1441 -91 1130 -33 
Q 819 25 488 141 
L 488 750 
Q 750 597 1062 519 
Q 1375 441 1716 441 
Q 2309 441 2620 675 
Q 2931 909 2931 1356 
Q 2931 1769 2642 2001 
Q 2353 2234 1838 2234 
L 1294 2234 
L 1294 2753 
L 1863 2753 
Q 2328 2753 2575 2939 
Q 2822 3125 2822 3475 
Q 2822 3834 2567 4026 
Q 2313 4219 1838 4219 
Q 1578 4219 1281 4162 
Q 984 4106 628 3988 
L 628 4550 
Q 988 4650 1302 4700 
Q 1616 4750 1894 4750 
Q 2613 4750 3031 4423 
Q 3450 4097 3450 3541 
Q 3450 3153 3228 2886 
Q 3006 2619 2597 2516 
z
" transform="scale(0.015625)"/>
       </defs>
       <use xlink:href="#DejaVuSans-2212"/>
       <use xlink:href="#DejaVuSans-30" x="83.789062"/>
       <use xlink:href="#DejaVuSans-2e" x="147.412109"/>
       <use xlink:href="#DejaVuSans-33" x="179.199219"/>
      </g>
     </g>
    </g>
    <g id="ytick_2">
     <g id="line2d_8">
      <g>
       <use xlink:href="#mff0e5cb009" x="47.961178" y="185.092515" style="stroke: #000000; stroke-width: 0.8"/>
      </g>
     </g>
     <g id="text_9">
      <!-- −0.2 -->
      <g transform="translate(16.678365 188.891734) scale(0.1 -0.1)">
       <use xlink:href="#DejaVuSans-2212"/>
       <use xlink:href="#DejaVuSans-30" x="83.789062"/>
       <use xlink:href="#DejaVuSans-2e" x="147.412109"/>
       <use xlink:href="#DejaVuSans-32" x="179.199219"/>
      </g>
     </g>
    </g>
    <g id="ytick_3">
     <g id="line2d_9">
      <g>
       <use xlink:href="#mff0e5cb009" x="47.961178" y="145.823281" style="stroke: #000000; stroke-width: 0.8"/>
      </g>
     </g>
     <g id="text_10">
      <!-- −0.1 -->
      <g transform="translate(16.678365 149.622499) scale(0.1 -0.1)">
       <use xlink:href="#DejaVuSans-2212"/>
       <use xlink:href="#DejaVuSans-30" x="83.789062"/>
       <use xlink:href="#DejaVuSans-2e" x="147.412109"/>
       <use xlink:href="#DejaVuSans-31" x="179.199219"/>
      </g>
     </g>
    </g>
    <g id="ytick_4">
     <g id="line2d_10">
      <g>
       <use xlink:href="#mff0e5cb009" x="47.961178" y="106.554046" style="stroke: #000000; stroke-width: 0.8"/>
      </g>
     </g>
     <g id="text_11">
      <!-- 0.0 -->
      <g transform="translate(25.058053 110.353265) scale(0.1 -0.1)">
       <use xlink:href="#DejaVuSans-30"/>
       <use xlink:href="#DejaVuSans-2e" x="63.623047"/>
       <use xlink:href="#DejaVuSans-30" x="95.410156"/>
      </g>
     </g>
    </g>
    <g id="ytick_5">
     <g id="line2d_11">
      <g>
       <use xlink:href="#mff0e5cb009" x="47.961178" y="67.284811" style="stroke: #000000; stroke-width: 0.8"/>
      </g>
     </g>
     <g id="text_12">
      <!-- 0.1 -->
      <g transform="translate(25.058053 71.08403) scale(0.1 -0.1)">
       <use xlink:href="#DejaVuSans-30"/>
       <use xlink:href="#DejaVuSans-2e" x="63.623047"/>
       <use xlink:href="#DejaVuSans-31" x="95.410156"/>
      </g>
     </g>
    </g>
    <g id="ytick_6">
     <g id="line2d_12">
      <g>
       <use xlink:href="#mff0e5cb009" x="47.961178" y="28.015577" style="stroke: #000000; stroke-width: 0.8"/>
      </g>
     </g>
     <g id="text_13">
      <!-- 0.2 -->
      <g transform="translate(25.058053 31.814796) scale(0.1 -0.1)">
       <use xlink:href="#DejaVuSans-30"/>
       <use xlink:href="#DejaVuSans-2e" x="63.623047"/>
       <use xlink:href="#DejaVuSans-32" x="95.410156"/>
      </g>
     </g>
    </g>
    <g id="text_14">
     <!-- sentiment -->
     <g transform="translate(10.598678 154.096875) rotate(-90) scale(0.1 -0.1)">
      <defs>
       <path id="DejaVuSans-6e" d="M 3513 2113 
L 3513 0 
L 2938 0 
L 2938 2094 
Q 2938 2591 2744 2837 
Q 2550 3084 2163 3084 
Q 1697 3084 1428 2787 
Q 1159 2491 1159 1978 
L 1159 0 
L 581 0 
L 581 3500 
L 1159 3500 
L 1159 2956 
Q 1366 3272 1645 3428 
Q 1925 3584 2291 3584 
Q 2894 3584 3203 3211 
Q 3513 2838 3513 2113 
z
" transform="scale(0.015625)"/>
      </defs>
      <use xlink:href="#DejaVuSans-73"/>
      <use xlink:href="#DejaVuSans-65" x="52.099609"/>
      <use xlink:href="#DejaVuSans-6e" x="113.623047"/>
      <use xlink:href="#DejaVuSans-74" x="177.001953"/>
      <use xlink:href="#DejaVuSans-69" x="216.210938"/>
      <use xlink:href="#DejaVuSans-6d" x="243.994141"/>
      <use xlink:href="#DejaVuSans-65" x="341.40625"/>
      <use xlink:href="#DejaVuSans-6e" x="402.929688"/>
      <use xlink:href="#DejaVuSans-74" x="466.308594"/>
     </g>
    </g>
   </g>
   <g id="line2d_13">
    <path d="M 71.826568 181.184051 
L 73.735799 178.737716 
L 78.031569 172.690729 
L 80.418108 169.5042 
L 82.327339 167.257901 
L 84.23657 165.385264 
L 85.668494 164.269686 
L 87.100417 163.426068 
L 88.532341 162.868448 
L 89.964264 162.603974 
L 91.396188 162.633344 
L 92.828111 162.951305 
L 94.260034 163.547214 
L 95.691958 164.405613 
L 97.123881 165.50684 
L 99.033112 167.312222 
L 100.942344 169.444429 
L 103.328883 172.461876 
L 107.147345 177.754702 
L 111.920423 184.341797 
L 114.306962 187.290569 
L 116.216193 189.364458 
L 118.125424 191.121091 
L 119.557348 192.198998 
L 120.989271 193.0501 
L 122.421195 193.657682 
L 123.853118 194.007489 
L 125.285041 194.087758 
L 126.716965 193.889216 
L 128.148888 193.405062 
L 129.580812 192.630929 
L 131.012735 191.56482 
L 132.444659 190.20704 
L 133.876582 188.560098 
L 135.308505 186.628616 
L 137.217737 183.62239 
L 139.126968 180.143089 
L 141.036199 176.21689 
L 143.422738 170.728305 
L 145.809277 164.659785 
L 148.673124 156.72249 
L 152.014278 146.746431 
L 156.310049 133.173102 
L 166.81082 99.688931 
L 170.151975 89.864068 
L 173.015822 82.05354 
L 175.879669 74.930907 
L 178.266208 69.594923 
L 180.652747 64.858305 
L 182.561978 61.529372 
L 184.471209 58.629308 
L 186.38044 56.172616 
L 187.812364 54.627842 
L 189.244287 53.34215 
L 190.67621 52.317856 
L 192.108134 51.556202 
L 193.540057 51.057377 
L 194.971981 50.820528 
L 196.403904 50.843785 
L 197.835827 51.12428 
L 199.267751 51.658179 
L 200.699674 52.440706 
L 202.131598 53.466178 
L 203.563521 54.728036 
L 205.472752 56.765324 
L 207.381983 59.189886 
L 209.291215 61.979639 
L 211.677754 65.943236 
L 214.064293 70.387721 
L 216.92814 76.276901 
L 219.791986 82.674574 
L 223.610449 91.806653 
L 228.860835 105.026722 
L 236.975067 125.444446 
L 240.79353 134.429083 
L 244.134684 141.698409 
L 246.998531 147.375677 
L 249.38507 151.65583 
L 251.771609 155.483735 
L 253.68084 158.19772 
L 255.590071 160.586443 
L 257.499303 162.638339 
L 259.408534 164.344629 
L 261.317765 165.699395 
L 262.749689 166.482865 
L 264.181612 167.066674 
L 265.613535 167.45158 
L 267.045459 167.639278 
L 268.477382 167.632394 
L 269.909306 167.43448 
L 271.341229 167.049998 
L 272.773152 166.484309 
L 274.682384 165.45908 
L 276.591615 164.140011 
L 278.500846 162.546799 
L 280.887385 160.20369 
L 283.273924 157.515104 
L 286.137771 153.907843 
L 289.478925 149.301141 
L 294.729311 141.593635 
L 300.457005 133.263706 
L 303.79816 128.798486 
L 306.662006 125.370758 
L 309.048545 122.876382 
L 310.957777 121.158574 
L 312.867008 119.716436 
L 314.776239 118.574166 
L 316.68547 117.753428 
L 318.117394 117.360354 
L 319.549317 117.165711 
L 320.98124 117.175387 
L 322.413164 117.394241 
L 323.845087 117.826065 
L 325.277011 118.473549 
L 326.708934 119.338258 
L 328.140857 120.420607 
L 330.050089 122.200828 
L 331.95932 124.361475 
L 333.868551 126.893797 
L 335.777782 129.785341 
L 338.164321 133.880053 
L 340.55086 138.471379 
L 342.937399 143.511783 
L 345.801246 150.074669 
L 349.142401 158.301479 
L 353.915479 170.743854 
L 362.507019 193.296287 
L 365.848174 201.433311 
L 368.712021 207.857928 
L 371.09856 212.721475 
L 373.485099 217.062768 
L 375.39433 220.115928 
L 377.303561 222.763483 
L 379.212792 224.979283 
L 380.644716 226.344239 
L 382.076639 227.445846 
L 383.508562 228.277615 
L 384.940486 228.834497 
L 386.372409 229.112929 
L 387.804333 229.110874 
L 389.236256 228.827855 
L 390.66818 228.264975 
L 392.100103 227.424929 
L 393.532026 226.312008 
L 394.96395 224.932095 
L 396.395873 223.292645 
L 398.305104 220.718762 
L 400.214336 217.725143 
L 402.123567 214.341824 
L 404.510106 209.617346 
L 406.896645 204.413546 
L 409.760492 197.655279 
L 413.578954 188.035473 
L 424.079726 161.170789 
L 426.943573 154.551081 
L 429.330112 149.491705 
L 431.716651 144.932411 
L 433.625882 141.69124 
L 435.535113 138.843241 
L 437.444344 136.41214 
L 439.353575 134.415638 
L 440.785499 133.210556 
L 442.217422 132.258834 
L 443.649346 131.560683 
L 445.081269 131.114147 
L 446.513192 130.915102 
L 447.945116 130.957208 
L 449.377039 131.232017 
L 450.808963 131.728934 
L 452.240886 132.43536 
L 454.150117 133.677693 
L 456.059348 135.226764 
L 458.445887 137.525659 
L 461.309734 140.6859 
L 465.605504 145.857403 
L 469.901275 150.951217 
L 472.287814 153.500914 
L 474.674353 155.712938 
L 476.583584 157.173326 
L 478.492815 158.310445 
L 479.924739 158.927944 
L 481.356662 159.328496 
L 482.788585 159.500967 
L 484.220509 159.436831 
L 485.652432 159.130149 
L 487.084356 158.577799 
L 488.516279 157.779398 
L 489.948202 156.737314 
L 491.380126 155.456599 
L 493.289357 153.391359 
L 495.198588 150.940449 
L 497.107819 148.135137 
L 499.494358 144.186213 
L 501.880897 139.819959 
L 504.744744 134.144508 
L 508.563207 126.050544 
L 513.336285 115.384809 
L 517.632055 105.306676 
L 520.97321 96.945378 
L 523.837056 89.157956 
L 526.223595 82.038534 
L 528.610134 74.192002 
L 530.996673 65.515557 
L 533.383212 56.002374 
L 536.724367 41.64232 
L 540.065522 27.45626 
L 541.497445 22.158218 
L 542.452061 19.156258 
L 543.406676 16.747681 
L 544.361292 15.107224 
L 544.8386 14.637414 
L 545.315907 14.43857 
L 545.793215 14.5414 
L 546.270523 14.978807 
L 546.747831 15.786209 
L 547.225139 17.00139 
L 547.702446 18.665225 
L 548.179754 20.821199 
L 549.13437 26.79799 
L 549.13437 26.79799 
" clip-path="url(#pfa1aa838ab)" style="fill: none; stroke: #0000ff; stroke-width: 1.5; stroke-linecap: square"/>
   </g>
   <g id="line2d_14">
    <path d="M 71.826568 178.037512 
L 73.258491 175.021931 
L 74.690414 172.559312 
L 75.64503 171.264286 
L 76.599646 170.257651 
L 77.554261 169.538556 
L 78.508877 169.098816 
L 79.463492 168.924362 
L 80.418108 168.996521 
L 81.372724 169.293149 
L 82.327339 169.789608 
L 83.759263 170.851254 
L 85.191186 172.211448 
L 87.100417 174.3313 
L 92.828111 180.95104 
L 94.737342 182.727658 
L 96.169266 183.805359 
L 97.601189 184.634459 
L 99.033112 185.198334 
L 100.465036 185.489406 
L 101.896959 185.508328 
L 103.328883 185.263076 
L 104.760806 184.767978 
L 106.192729 184.042734 
L 108.101961 182.759867 
L 110.011192 181.177165 
L 112.397731 178.888863 
L 116.693501 174.35443 
L 120.511963 170.447942 
L 122.898502 168.305945 
L 124.807734 166.84101 
L 126.716965 165.640295 
L 128.626196 164.733332 
L 130.058119 164.258137 
L 131.490043 163.964303 
L 132.921966 163.853733 
L 134.35389 163.925578 
L 135.785813 164.176405 
L 137.695044 164.778904 
L 139.604276 165.669402 
L 141.513507 166.822486 
L 143.422738 168.208009 
L 145.809277 170.215018 
L 148.673124 172.932049 
L 152.968894 177.370025 
L 159.173895 183.780822 
L 162.51505 186.893736 
L 165.378897 189.241102 
L 167.765436 190.926091 
L 170.151975 192.340693 
L 172.538514 193.473033 
L 174.925053 194.320794 
L 177.311592 194.890502 
L 179.698131 195.196587 
L 182.08467 195.260256 
L 184.471209 195.108257 
L 187.335056 194.684978 
L 190.67621 193.933579 
L 194.971981 192.709323 
L 205.472752 189.607267 
L 209.291215 188.744075 
L 213.109677 188.105835 
L 216.92814 187.693538 
L 221.22391 187.455851 
L 235.543144 186.91444 
L 238.884298 186.416096 
L 241.748145 185.749802 
L 244.134684 184.992449 
L 246.521223 184.027803 
L 248.907762 182.837494 
L 251.294301 181.407225 
L 253.68084 179.727181 
L 256.067379 177.792325 
L 258.453918 175.60258 
L 261.317765 172.645764 
L 264.181612 169.34731 
L 267.522767 165.105052 
L 270.863921 160.496017 
L 275.159691 154.152579 
L 281.364693 144.520842 
L 288.52431 133.461725 
L 292.82008 127.236613 
L 296.161235 122.758874 
L 299.025081 119.237555 
L 301.888928 116.049773 
L 304.752775 113.225516 
L 307.139314 111.164822 
L 309.525853 109.377805 
L 311.912392 107.866417 
L 314.298931 106.627865 
L 316.68547 105.654749 
L 319.072009 104.935292 
L 321.458548 104.453662 
L 323.845087 104.190379 
L 326.708934 104.130561 
L 329.572781 104.308334 
L 332.913935 104.751759 
L 337.209706 105.571455 
L 348.665093 107.920385 
L 352.483555 108.409455 
L 355.82471 108.617492 
L 359.165865 108.591459 
L 362.507019 108.319567 
L 365.848174 107.805182 
L 369.189328 107.066011 
L 373.007791 105.985638 
L 377.780869 104.374836 
L 393.054719 98.971058 
L 397.350489 97.820616 
L 401.168951 97.033217 
L 404.987414 96.473347 
L 409.283184 96.0879 
L 414.53357 95.866622 
L 424.079726 95.521908 
L 427.898188 95.135101 
L 431.239343 94.571308 
L 434.10319 93.883314 
L 436.967036 92.985834 
L 439.830883 91.871238 
L 443.172038 90.304586 
L 446.513192 88.483794 
L 450.808963 85.869652 
L 459.877811 80.230925 
L 462.741658 78.720337 
L 465.128197 77.665024 
L 467.514736 76.841287 
L 469.901275 76.286347 
L 471.810506 76.055483 
L 473.719737 76.024566 
L 475.628968 76.197566 
L 477.5382 76.572246 
L 479.447431 77.139559 
L 481.83397 78.093821 
L 484.697817 79.531015 
L 488.993587 82.019131 
L 492.812049 84.156501 
L 495.198588 85.233084 
L 497.107819 85.846385 
L 498.539743 86.118366 
L 499.971666 86.199344 
L 501.40359 86.06417 
L 502.835513 85.690089 
L 504.267436 85.057901 
L 505.69936 84.152161 
L 507.131283 82.962786 
L 508.563207 81.485301 
L 509.99513 79.72221 
L 511.904361 76.945833 
L 513.813593 73.728334 
L 516.200132 69.206757 
L 520.97321 59.418236 
L 523.359749 54.813339 
L 525.26898 51.636551 
L 526.700903 49.698275 
L 527.655519 48.670568 
L 528.610134 47.885272 
L 529.56475 47.367247 
L 530.519366 47.138312 
L 531.473981 47.215856 
L 532.428597 47.61264 
L 533.383212 48.334868 
L 534.337828 49.381515 
L 535.292444 50.741067 
L 536.724367 53.315277 
L 538.15629 56.407322 
L 541.974753 65.168296 
L 542.929368 66.79193 
L 543.883984 67.822725 
L 544.361292 68.040391 
L 544.8386 68.013307 
L 545.315907 67.703722 
L 545.793215 67.070755 
L 546.270523 66.06975 
L 546.747831 64.652614 
L 547.225139 62.768347 
L 547.702446 60.360976 
L 548.657062 53.734924 
L 549.13437 49.383824 
L 549.13437 49.383824 
" clip-path="url(#pfa1aa838ab)" style="fill: none; stroke: #008000; stroke-width: 1.5; stroke-linecap: square"/>
   </g>
   <g id="line2d_15">
    <path d="M 71.826568 176.898416 
L 73.258491 174.370297 
L 74.690414 172.339136 
L 76.122338 170.709082 
L 77.554261 169.400959 
L 78.986185 168.349671 
L 80.895416 167.256907 
L 82.804647 166.427683 
L 85.191186 165.649606 
L 88.055033 164.961151 
L 92.350803 164.199095 
L 100.465036 163.060061 
L 115.261578 160.959887 
L 124.807734 159.374644 
L 132.921966 157.807315 
L 140.558891 156.113689 
L 148.673124 154.089364 
L 170.151975 148.553888 
L 174.925053 147.666297 
L 178.743515 147.175498 
L 182.08467 146.950638 
L 185.425825 146.953601 
L 188.289671 147.163128 
L 191.153518 147.584502 
L 194.017365 148.235048 
L 196.881212 149.129079 
L 199.745059 150.277198 
L 202.608905 151.685652 
L 205.472752 153.355757 
L 208.336599 155.283407 
L 211.200446 157.458712 
L 214.5416 160.287998 
L 218.360063 163.860952 
L 222.655833 168.226868 
L 228.860835 174.922302 
L 236.497759 183.147116 
L 240.316222 186.961419 
L 243.657376 189.997224 
L 246.521223 192.307109 
L 248.907762 193.986948 
L 251.294301 195.41479 
L 253.68084 196.565797 
L 255.590071 197.272433 
L 257.499303 197.778082 
L 259.408534 198.074526 
L 261.317765 198.155158 
L 263.226996 198.015087 
L 265.136228 197.651217 
L 267.045459 197.062325 
L 268.95469 196.249109 
L 270.863921 195.214223 
L 272.773152 193.962288 
L 275.159691 192.102362 
L 277.54623 189.930829 
L 279.932769 187.469359 
L 282.796616 184.169773 
L 285.660463 180.542838 
L 289.478925 175.302105 
L 294.252003 168.326144 
L 303.79816 154.256039 
L 307.616622 149.074509 
L 310.480469 145.509899 
L 313.344316 142.288303 
L 315.730855 139.903379 
L 318.117394 137.817812 
L 320.503933 136.051353 
L 322.413164 134.877626 
L 324.322395 133.921744 
L 326.231626 133.185629 
L 328.140857 132.66858 
L 330.050089 132.367248 
L 331.95932 132.27562 
L 333.868551 132.385042 
L 335.777782 132.684275 
L 338.164321 133.304068 
L 340.55086 134.16673 
L 343.414707 135.469448 
L 346.755862 137.263992 
L 352.960863 140.941537 
L 357.256633 143.345112 
L 360.12048 144.700529 
L 362.507019 145.601726 
L 364.893558 146.242428 
L 366.802789 146.536609 
L 368.712021 146.613601 
L 370.621252 146.454555 
L 372.530483 146.043245 
L 374.439714 145.36635 
L 376.348945 144.413709 
L 378.258177 143.178545 
L 380.167408 141.657652 
L 382.076639 139.851545 
L 383.98587 137.764564 
L 386.372409 134.773766 
L 388.758948 131.381874 
L 391.145487 127.622889 
L 394.009334 122.688748 
L 397.350489 116.464505 
L 402.123567 107.028963 
L 409.283184 92.851259 
L 412.624338 86.743099 
L 415.488185 81.993329 
L 417.874724 78.474017 
L 419.783955 75.993471 
L 421.693187 73.843079 
L 423.602418 72.048598 
L 425.034341 70.949226 
L 426.466265 70.069162 
L 427.898188 69.413784 
L 429.330112 68.986652 
L 430.762035 68.789433 
L 432.193958 68.82182 
L 433.625882 69.081467 
L 435.057805 69.563966 
L 436.489729 70.262805 
L 437.921652 71.169372 
L 439.830883 72.682468 
L 441.740114 74.514558 
L 443.649346 76.628377 
L 446.035885 79.600569 
L 448.899731 83.522918 
L 458.445887 96.964974 
L 460.832426 99.786415 
L 462.741658 101.72207 
L 464.650889 103.312479 
L 466.082812 104.24907 
L 467.514736 104.945747 
L 468.946659 105.387085 
L 470.378583 105.560519 
L 471.810506 105.456795 
L 473.242429 105.070112 
L 474.674353 104.398508 
L 476.106276 103.444046 
L 477.5382 102.213006 
L 478.970123 100.716053 
L 480.879354 98.333382 
L 482.788585 95.554143 
L 485.175124 91.619705 
L 488.038971 86.430137 
L 494.243973 74.998409 
L 496.153204 71.907308 
L 498.062435 69.237209 
L 499.494358 67.586733 
L 500.926282 66.29517 
L 501.880897 65.657424 
L 502.835513 65.214024 
L 503.790129 64.977366 
L 504.744744 64.958701 
L 505.69936 65.168066 
L 506.653975 65.613954 
L 507.608591 66.303395 
L 508.563207 67.24162 
L 509.517822 68.431841 
L 510.949746 70.691928 
L 512.381669 73.516068 
L 513.813593 76.886835 
L 515.245516 80.773791 
L 517.154747 86.681177 
L 519.541286 95.021245 
L 522.882441 107.782164 
L 526.700903 122.320006 
L 528.610134 128.879299 
L 530.519366 134.574215 
L 531.951289 138.122699 
L 533.383212 140.957659 
L 534.337828 142.424898 
L 535.292444 143.548033 
L 536.247059 144.333738 
L 537.201675 144.801752 
L 538.15629 144.987061 
L 539.110906 144.94228 
L 540.542829 144.610621 
L 541.974753 144.283006 
L 542.929368 144.305847 
L 543.406676 144.457465 
L 543.883984 144.738256 
L 544.361292 145.177982 
L 544.8386 145.809433 
L 545.315907 146.668259 
L 545.793215 147.793043 
L 546.270523 149.225914 
L 547.225139 153.200972 
L 548.179754 159.001816 
L 549.13437 167.101321 
L 549.13437 167.101321 
" clip-path="url(#pfa1aa838ab)" style="fill: none; stroke: #ff0000; stroke-width: 1.5; stroke-linecap: square"/>
   </g>
   <g id="line2d_16">
    <path d="M 71.826568 186.56043 
L 72.781183 186.204835 
L 73.735799 185.621563 
L 75.167722 184.417293 
L 77.076953 182.380472 
L 79.463492 179.426539 
L 84.713878 172.400797 
L 89.964264 165.540853 
L 93.782727 160.909494 
L 97.123881 157.200946 
L 99.987728 154.345165 
L 102.374267 152.240504 
L 104.760806 150.42649 
L 106.670037 149.209425 
L 108.579268 148.219252 
L 110.4885 147.470779 
L 112.397731 146.975709 
L 114.306962 146.742068 
L 116.216193 146.773805 
L 118.125424 147.070541 
L 120.034656 147.62749 
L 121.943887 148.435524 
L 123.853118 149.481377 
L 125.762349 150.747968 
L 128.148888 152.610162 
L 130.535427 154.738927 
L 133.399274 157.572655 
L 137.217737 161.668082 
L 147.2412 172.592967 
L 150.582355 175.845923 
L 153.446202 178.356483 
L 156.310049 180.57485 
L 159.173895 182.484767 
L 162.037742 184.086691 
L 164.901589 185.396789 
L 167.765436 186.445305 
L 171.10659 187.394821 
L 174.925053 188.221752 
L 186.857748 190.582807 
L 190.198903 191.595367 
L 193.062749 192.699485 
L 195.926596 194.057476 
L 198.790443 195.691883 
L 201.65429 197.613569 
L 204.518137 199.821479 
L 207.381983 202.302838 
L 210.723138 205.510932 
L 214.5416 209.521265 
L 219.314679 214.889875 
L 230.292758 227.385047 
L 234.11122 231.313599 
L 237.452375 234.404537 
L 240.316222 236.739026 
L 242.702761 238.434005 
L 245.0893 239.883567 
L 247.475839 241.07588 
L 249.862378 242.003911 
L 252.248917 242.665517 
L 254.635456 243.063437 
L 257.021995 243.20518 
L 259.408534 243.102806 
L 261.795073 242.772628 
L 264.181612 242.234816 
L 267.045459 241.348749 
L 270.386613 240.041882 
L 274.205076 238.287393 
L 281.842001 234.440071 
L 286.615079 232.168306 
L 290.433541 230.604085 
L 293.774696 229.497586 
L 296.638542 228.780612 
L 299.502389 228.298213 
L 302.366236 228.061117 
L 305.230083 228.071092 
L 308.09393 228.321017 
L 310.957777 228.795212 
L 314.298931 229.599951 
L 318.117394 230.78947 
L 322.890472 232.545438 
L 332.913935 236.317805 
L 336.732398 237.460745 
L 340.073552 238.204325 
L 342.937399 238.607954 
L 345.801246 238.767577 
L 348.187785 238.700345 
L 350.574324 238.443854 
L 352.960863 237.995692 
L 355.82471 237.207716 
L 358.688557 236.157553 
L 361.552404 234.864486 
L 364.893558 233.085165 
L 368.712021 230.761737 
L 373.485099 227.564677 
L 384.940486 219.759849 
L 388.758948 217.471077 
L 392.100103 215.702632 
L 395.441258 214.185132 
L 398.782412 212.931434 
L 402.123567 211.935657 
L 405.464721 211.172855 
L 409.283184 210.530149 
L 415.010877 209.825792 
L 420.738571 209.080696 
L 424.079726 208.4553 
L 426.943573 207.72863 
L 429.807419 206.777815 
L 432.671266 205.566278 
L 435.535113 204.068961 
L 438.39896 202.274747 
L 441.262807 200.188361 
L 444.126653 197.831824 
L 447.467808 194.795294 
L 452.240886 190.107262 
L 458.923195 183.535717 
L 461.787042 180.998636 
L 464.173581 179.127342 
L 466.56012 177.541602 
L 468.469351 176.516108 
L 470.378583 175.733928 
L 472.287814 175.215873 
L 474.197045 174.977695 
L 476.106276 175.029432 
L 478.015507 175.374309 
L 479.924739 176.008391 
L 481.83397 176.919987 
L 483.743201 178.088995 
L 486.12974 179.868471 
L 488.516279 181.93223 
L 492.334741 185.589413 
L 497.107819 190.139945 
L 499.494358 192.113516 
L 501.40359 193.430606 
L 503.312821 194.449674 
L 504.744744 194.986665 
L 506.176668 195.308584 
L 507.608591 195.401693 
L 509.040514 195.257639 
L 510.472438 194.873808 
L 511.904361 194.254334 
L 513.336285 193.410727 
L 515.245516 191.971754 
L 517.154747 190.238061 
L 520.018594 187.300125 
L 523.359749 183.884965 
L 525.26898 182.240841 
L 526.700903 181.281328 
L 528.132827 180.63135 
L 529.087442 180.399788 
L 530.042058 180.347076 
L 530.996673 180.484278 
L 531.951289 180.818032 
L 532.905905 181.349163 
L 533.86052 182.071946 
L 535.292444 183.480672 
L 537.201675 185.806418 
L 539.588214 188.818962 
L 540.542829 189.783096 
L 541.497445 190.428638 
L 541.974753 190.583956 
L 542.452061 190.598534 
L 542.929368 190.447609 
L 543.406676 190.104784 
L 543.883984 189.540618 
L 544.361292 188.724372 
L 544.8386 187.621319 
L 545.315907 186.194945 
L 546.270523 182.210585 
L 547.225139 176.416315 
L 548.179754 168.402088 
L 549.13437 157.697911 
L 549.13437 157.697911 
" clip-path="url(#pfa1aa838ab)" style="fill: none; stroke: #ffff00; stroke-width: 1.5; stroke-linecap: square"/>
   </g>
   <g id="line2d_17">
    <path d="M 47.961178 106.554046 
L 572.99976 106.554046 
" clip-path="url(#pfa1aa838ab)" style="fill: none; stroke-dasharray: 5.55,2.4; stroke-dashoffset: 0; stroke: #000000; stroke-width: 1.5"/>
   </g>
   <g id="patch_3">
    <path d="M 47.961178 254.64351 
L 47.961178 3.00024 
" style="fill: none; stroke: #000000; stroke-width: 0.8; stroke-linejoin: miter; stroke-linecap: square"/>
   </g>
   <g id="patch_4">
    <path d="M 572.99976 254.64351 
L 572.99976 3.00024 
" style="fill: none; stroke: #000000; stroke-width: 0.8; stroke-linejoin: miter; stroke-linecap: square"/>
   </g>
   <g id="patch_5">
    <path d="M 47.961178 254.64351 
L 572.99976 254.64351 
" style="fill: none; stroke: #000000; stroke-width: 0.8; stroke-linejoin: miter; stroke-linecap: square"/>
   </g>
   <g id="patch_6">
    <path d="M 47.961178 3.00024 
L 572.99976 3.00024 
" style="fill: none; stroke: #000000; stroke-width: 0.8; stroke-linejoin: miter; stroke-linecap: square"/>
   </g>
   <g id="legend_1">
    <g id="patch_7">
     <path d="M 54.961178 69.71274 
L 114.954928 69.71274 
Q 116.954928 69.71274 116.954928 67.71274 
L 116.954928 10.00024 
Q 116.954928 8.00024 114.954928 8.00024 
L 54.961178 8.00024 
Q 52.961178 8.00024 52.961178 10.00024 
L 52.961178 67.71274 
Q 52.961178 69.71274 54.961178 69.71274 
z
" style="fill: #ffffff; opacity: 0.8; stroke: #cccccc; stroke-linejoin: miter"/>
    </g>
    <g id="line2d_18">
     <path d="M 56.961178 16.098677 
L 66.961178 16.098677 
L 76.961178 16.098677 
" style="fill: none; stroke: #0000ff; stroke-width: 1.5; stroke-linecap: square"/>
    </g>
    <g id="text_15">
     <!-- ref -->
     <g transform="translate(84.961178 19.598677) scale(0.1 -0.1)">
      <defs>
       <path id="DejaVuSans-72" d="M 2631 2963 
Q 2534 3019 2420 3045 
Q 2306 3072 2169 3072 
Q 1681 3072 1420 2755 
Q 1159 2438 1159 1844 
L 1159 0 
L 581 0 
L 581 3500 
L 1159 3500 
L 1159 2956 
Q 1341 3275 1631 3429 
Q 1922 3584 2338 3584 
Q 2397 3584 2469 3576 
Q 2541 3569 2628 3553 
L 2631 2963 
z
" transform="scale(0.015625)"/>
       <path id="DejaVuSans-66" d="M 2375 4863 
L 2375 4384 
L 1825 4384 
Q 1516 4384 1395 4259 
Q 1275 4134 1275 3809 
L 1275 3500 
L 2222 3500 
L 2222 3053 
L 1275 3053 
L 1275 0 
L 697 0 
L 697 3053 
L 147 3053 
L 147 3500 
L 697 3500 
L 697 3744 
Q 697 4328 969 4595 
Q 1241 4863 1831 4863 
L 2375 4863 
z
" transform="scale(0.015625)"/>
      </defs>
      <use xlink:href="#DejaVuSans-72"/>
      <use xlink:href="#DejaVuSans-65" x="38.863281"/>
      <use xlink:href="#DejaVuSans-66" x="100.386719"/>
     </g>
    </g>
    <g id="line2d_19">
     <path d="M 56.961178 30.776802 
L 66.961178 30.776802 
L 76.961178 30.776802 
" style="fill: none; stroke: #008000; stroke-width: 1.5; stroke-linecap: square"/>
    </g>
    <g id="text_16">
     <!-- best1 -->
     <g transform="translate(84.961178 34.276802) scale(0.1 -0.1)">
      <defs>
       <path id="DejaVuSans-62" d="M 3116 1747 
Q 3116 2381 2855 2742 
Q 2594 3103 2138 3103 
Q 1681 3103 1420 2742 
Q 1159 2381 1159 1747 
Q 1159 1113 1420 752 
Q 1681 391 2138 391 
Q 2594 391 2855 752 
Q 3116 1113 3116 1747 
z
M 1159 2969 
Q 1341 3281 1617 3432 
Q 1894 3584 2278 3584 
Q 2916 3584 3314 3078 
Q 3713 2572 3713 1747 
Q 3713 922 3314 415 
Q 2916 -91 2278 -91 
Q 1894 -91 1617 61 
Q 1341 213 1159 525 
L 1159 0 
L 581 0 
L 581 4863 
L 1159 4863 
L 1159 2969 
z
" transform="scale(0.015625)"/>
      </defs>
      <use xlink:href="#DejaVuSans-62"/>
      <use xlink:href="#DejaVuSans-65" x="63.476562"/>
      <use xlink:href="#DejaVuSans-73" x="125"/>
      <use xlink:href="#DejaVuSans-74" x="177.099609"/>
      <use xlink:href="#DejaVuSans-31" x="216.308594"/>
     </g>
    </g>
    <g id="line2d_20">
     <path d="M 56.961178 45.454927 
L 66.961178 45.454927 
L 76.961178 45.454927 
" style="fill: none; stroke: #ff0000; stroke-width: 1.5; stroke-linecap: square"/>
    </g>
    <g id="text_17">
     <!-- best2 -->
     <g transform="translate(84.961178 48.954927) scale(0.1 -0.1)">
      <use xlink:href="#DejaVuSans-62"/>
      <use xlink:href="#DejaVuSans-65" x="63.476562"/>
      <use xlink:href="#DejaVuSans-73" x="125"/>
      <use xlink:href="#DejaVuSans-74" x="177.099609"/>
      <use xlink:href="#DejaVuSans-32" x="216.308594"/>
     </g>
    </g>
    <g id="line2d_21">
     <path d="M 56.961178 60.133052 
L 66.961178 60.133052 
L 76.961178 60.133052 
" style="fill: none; stroke: #ffff00; stroke-width: 1.5; stroke-linecap: square"/>
    </g>
    <g id="text_18">
     <!-- best3 -->
     <g transform="translate(84.961178 63.633052) scale(0.1 -0.1)">
      <use xlink:href="#DejaVuSans-62"/>
      <use xlink:href="#DejaVuSans-65" x="63.476562"/>
      <use xlink:href="#DejaVuSans-73" x="125"/>
      <use xlink:href="#DejaVuSans-74" x="177.099609"/>
      <use xlink:href="#DejaVuSans-33" x="216.308594"/>
     </g>
    </g>
   </g>
  </g>
 </g>
 <defs>
  <clipPath id="pfa1aa838ab">
   <rect x="47.961178" y="3.00024" width="525.038582" height="251.64327"/>
  </clipPath>
 </defs>
</svg>
