<?xml version="1.0" encoding="utf-8" standalone="no"?>
<!DOCTYPE svg PUBLIC "-//W3C//DTD SVG 1.1//EN"
  "http://www.w3.org/Graphics/SVG/1.1/DTD/svg11.dtd">
<svg xmlns:xlink="http://www.w3.org/1999/xlink" width="576pt" height="288pt" viewBox="0 0 576 288" xmlns="http://www.w3.org/2000/svg" version="1.1">
 <metadata>
  <rdf:RDF xmlns:dc="http://purl.org/dc/elements/1.1/" xmlns:cc="http://creativecommons.org/ns#" xmlns:rdf="http://www.w3.org/1999/02/22-rdf-syntax-ns#">
   <cc:Work>
    <dc:type rdf:resource="http://purl.org/dc/dcmitype/StillImage"/>
    <dc:date>2023-06-15T10:41:39.653994</dc:date>
    <dc:format>image/svg+xml</dc:format>
    <dc:creator>
     <cc:Agent>
      <dc:title>Matplotlib v3.7.1, https://matplotlib.org/</dc:title>
     </cc:Agent>
    </dc:creator>
   </cc:Work>
  </rdf:RDF>
 </metadata>
 <defs>
  <style type="text/css">*{stroke-linejoin: round; stroke-linecap: butt}</style>
 </defs>
 <g id="figure_1">
  <g id="patch_1">
   <path d="M 0 288 
L 576 288 
L 576 0 
L 0 0 
z
" style="fill: #ffffff"/>
  </g>
  <g id="axes_1">
   <g id="patch_2">
    <path d="M 39.58149 254.64351 
L 572.99976 254.64351 
L 572.99976 3.00024 
L 39.58149 3.00024 
z
" style="fill: #ffffff"/>
   </g>
   <g id="matplotlib.axis_1">
    <g id="xtick_1">
     <g id="line2d_1">
      <defs>
       <path id="m1d1ff354fc" d="M 0 0 
L 0 3.5 
" style="stroke: #000000; stroke-width: 0.8"/>
      </defs>
      <g>
       <use xlink:href="#m1d1ff354fc" x="63.502687" y="254.64351" style="stroke: #000000; stroke-width: 0.8"/>
      </g>
     </g>
     <g id="text_1">
      <!-- 0 -->
      <g transform="translate(60.321437 269.241947) scale(0.1 -0.1)">
       <defs>
        <path id="DejaVuSans-30" d="M 2034 4250 
Q 1547 4250 1301 3770 
Q 1056 3291 1056 2328 
Q 1056 1369 1301 889 
Q 1547 409 2034 409 
Q 2525 409 2770 889 
Q 3016 1369 3016 2328 
Q 3016 3291 2770 3770 
Q 2525 4250 2034 4250 
z
M 2034 4750 
Q 2819 4750 3233 4129 
Q 3647 3509 3647 2328 
Q 3647 1150 3233 529 
Q 2819 -91 2034 -91 
Q 1250 -91 836 529 
Q 422 1150 422 2328 
Q 422 3509 836 4129 
Q 1250 4750 2034 4750 
z
" transform="scale(0.015625)"/>
       </defs>
       <use xlink:href="#DejaVuSans-30"/>
      </g>
     </g>
    </g>
    <g id="xtick_2">
     <g id="line2d_2">
      <g>
       <use xlink:href="#m1d1ff354fc" x="171.86527" y="254.64351" style="stroke: #000000; stroke-width: 0.8"/>
      </g>
     </g>
     <g id="text_2">
      <!-- 2000 -->
      <g transform="translate(159.14027 269.241947) scale(0.1 -0.1)">
       <defs>
        <path id="DejaVuSans-32" d="M 1228 531 
L 3431 531 
L 3431 0 
L 469 0 
L 469 531 
Q 828 903 1448 1529 
Q 2069 2156 2228 2338 
Q 2531 2678 2651 2914 
Q 2772 3150 2772 3378 
Q 2772 3750 2511 3984 
Q 2250 4219 1831 4219 
Q 1534 4219 1204 4116 
Q 875 4013 500 3803 
L 500 4441 
Q 881 4594 1212 4672 
Q 1544 4750 1819 4750 
Q 2544 4750 2975 4387 
Q 3406 4025 3406 3419 
Q 3406 3131 3298 2873 
Q 3191 2616 2906 2266 
Q 2828 2175 2409 1742 
Q 1991 1309 1228 531 
z
" transform="scale(0.015625)"/>
       </defs>
       <use xlink:href="#DejaVuSans-32"/>
       <use xlink:href="#DejaVuSans-30" x="63.623047"/>
       <use xlink:href="#DejaVuSans-30" x="127.246094"/>
       <use xlink:href="#DejaVuSans-30" x="190.869141"/>
      </g>
     </g>
    </g>
    <g id="xtick_3">
     <g id="line2d_3">
      <g>
       <use xlink:href="#m1d1ff354fc" x="280.227853" y="254.64351" style="stroke: #000000; stroke-width: 0.8"/>
      </g>
     </g>
     <g id="text_3">
      <!-- 4000 -->
      <g transform="translate(267.502853 269.241947) scale(0.1 -0.1)">
       <defs>
        <path id="DejaVuSans-34" d="M 2419 4116 
L 825 1625 
L 2419 1625 
L 2419 4116 
z
M 2253 4666 
L 3047 4666 
L 3047 1625 
L 3713 1625 
L 3713 1100 
L 3047 1100 
L 3047 0 
L 2419 0 
L 2419 1100 
L 313 1100 
L 313 1709 
L 2253 4666 
z
" transform="scale(0.015625)"/>
       </defs>
       <use xlink:href="#DejaVuSans-34"/>
       <use xlink:href="#DejaVuSans-30" x="63.623047"/>
       <use xlink:href="#DejaVuSans-30" x="127.246094"/>
       <use xlink:href="#DejaVuSans-30" x="190.869141"/>
      </g>
     </g>
    </g>
    <g id="xtick_4">
     <g id="line2d_4">
      <g>
       <use xlink:href="#m1d1ff354fc" x="388.590435" y="254.64351" style="stroke: #000000; stroke-width: 0.8"/>
      </g>
     </g>
     <g id="text_4">
      <!-- 6000 -->
      <g transform="translate(375.865435 269.241947) scale(0.1 -0.1)">
       <defs>
        <path id="DejaVuSans-36" d="M 2113 2584 
Q 1688 2584 1439 2293 
Q 1191 2003 1191 1497 
Q 1191 994 1439 701 
Q 1688 409 2113 409 
Q 2538 409 2786 701 
Q 3034 994 3034 1497 
Q 3034 2003 2786 2293 
Q 2538 2584 2113 2584 
z
M 3366 4563 
L 3366 3988 
Q 3128 4100 2886 4159 
Q 2644 4219 2406 4219 
Q 1781 4219 1451 3797 
Q 1122 3375 1075 2522 
Q 1259 2794 1537 2939 
Q 1816 3084 2150 3084 
Q 2853 3084 3261 2657 
Q 3669 2231 3669 1497 
Q 3669 778 3244 343 
Q 2819 -91 2113 -91 
Q 1303 -91 875 529 
Q 447 1150 447 2328 
Q 447 3434 972 4092 
Q 1497 4750 2381 4750 
Q 2619 4750 2861 4703 
Q 3103 4656 3366 4563 
z
" transform="scale(0.015625)"/>
       </defs>
       <use xlink:href="#DejaVuSans-36"/>
       <use xlink:href="#DejaVuSans-30" x="63.623047"/>
       <use xlink:href="#DejaVuSans-30" x="127.246094"/>
       <use xlink:href="#DejaVuSans-30" x="190.869141"/>
      </g>
     </g>
    </g>
    <g id="xtick_5">
     <g id="line2d_5">
      <g>
       <use xlink:href="#m1d1ff354fc" x="496.953018" y="254.64351" style="stroke: #000000; stroke-width: 0.8"/>
      </g>
     </g>
     <g id="text_5">
      <!-- 8000 -->
      <g transform="translate(484.228018 269.241947) scale(0.1 -0.1)">
       <defs>
        <path id="DejaVuSans-38" d="M 2034 2216 
Q 1584 2216 1326 1975 
Q 1069 1734 1069 1313 
Q 1069 891 1326 650 
Q 1584 409 2034 409 
Q 2484 409 2743 651 
Q 3003 894 3003 1313 
Q 3003 1734 2745 1975 
Q 2488 2216 2034 2216 
z
M 1403 2484 
Q 997 2584 770 2862 
Q 544 3141 544 3541 
Q 544 4100 942 4425 
Q 1341 4750 2034 4750 
Q 2731 4750 3128 4425 
Q 3525 4100 3525 3541 
Q 3525 3141 3298 2862 
Q 3072 2584 2669 2484 
Q 3125 2378 3379 2068 
Q 3634 1759 3634 1313 
Q 3634 634 3220 271 
Q 2806 -91 2034 -91 
Q 1263 -91 848 271 
Q 434 634 434 1313 
Q 434 1759 690 2068 
Q 947 2378 1403 2484 
z
M 1172 3481 
Q 1172 3119 1398 2916 
Q 1625 2713 2034 2713 
Q 2441 2713 2670 2916 
Q 2900 3119 2900 3481 
Q 2900 3844 2670 4047 
Q 2441 4250 2034 4250 
Q 1625 4250 1398 4047 
Q 1172 3844 1172 3481 
z
" transform="scale(0.015625)"/>
       </defs>
       <use xlink:href="#DejaVuSans-38"/>
       <use xlink:href="#DejaVuSans-30" x="63.623047"/>
       <use xlink:href="#DejaVuSans-30" x="127.246094"/>
       <use xlink:href="#DejaVuSans-30" x="190.869141"/>
      </g>
     </g>
    </g>
    <g id="text_6">
     <!-- time [s] -->
     <g transform="translate(286.899219 282.920073) scale(0.1 -0.1)">
      <defs>
       <path id="DejaVuSans-74" d="M 1172 4494 
L 1172 3500 
L 2356 3500 
L 2356 3053 
L 1172 3053 
L 1172 1153 
Q 1172 725 1289 603 
Q 1406 481 1766 481 
L 2356 481 
L 2356 0 
L 1766 0 
Q 1100 0 847 248 
Q 594 497 594 1153 
L 594 3053 
L 172 3053 
L 172 3500 
L 594 3500 
L 594 4494 
L 1172 4494 
z
" transform="scale(0.015625)"/>
       <path id="DejaVuSans-69" d="M 603 3500 
L 1178 3500 
L 1178 0 
L 603 0 
L 603 3500 
z
M 603 4863 
L 1178 4863 
L 1178 4134 
L 603 4134 
L 603 4863 
z
" transform="scale(0.015625)"/>
       <path id="DejaVuSans-6d" d="M 3328 2828 
Q 3544 3216 3844 3400 
Q 4144 3584 4550 3584 
Q 5097 3584 5394 3201 
Q 5691 2819 5691 2113 
L 5691 0 
L 5113 0 
L 5113 2094 
Q 5113 2597 4934 2840 
Q 4756 3084 4391 3084 
Q 3944 3084 3684 2787 
Q 3425 2491 3425 1978 
L 3425 0 
L 2847 0 
L 2847 2094 
Q 2847 2600 2669 2842 
Q 2491 3084 2119 3084 
Q 1678 3084 1418 2786 
Q 1159 2488 1159 1978 
L 1159 0 
L 581 0 
L 581 3500 
L 1159 3500 
L 1159 2956 
Q 1356 3278 1631 3431 
Q 1906 3584 2284 3584 
Q 2666 3584 2933 3390 
Q 3200 3197 3328 2828 
z
" transform="scale(0.015625)"/>
       <path id="DejaVuSans-65" d="M 3597 1894 
L 3597 1613 
L 953 1613 
Q 991 1019 1311 708 
Q 1631 397 2203 397 
Q 2534 397 2845 478 
Q 3156 559 3463 722 
L 3463 178 
Q 3153 47 2828 -22 
Q 2503 -91 2169 -91 
Q 1331 -91 842 396 
Q 353 884 353 1716 
Q 353 2575 817 3079 
Q 1281 3584 2069 3584 
Q 2775 3584 3186 3129 
Q 3597 2675 3597 1894 
z
M 3022 2063 
Q 3016 2534 2758 2815 
Q 2500 3097 2075 3097 
Q 1594 3097 1305 2825 
Q 1016 2553 972 2059 
L 3022 2063 
z
" transform="scale(0.015625)"/>
       <path id="DejaVuSans-20" transform="scale(0.015625)"/>
       <path id="DejaVuSans-5b" d="M 550 4863 
L 1875 4863 
L 1875 4416 
L 1125 4416 
L 1125 -397 
L 1875 -397 
L 1875 -844 
L 550 -844 
L 550 4863 
z
" transform="scale(0.015625)"/>
       <path id="DejaVuSans-73" d="M 2834 3397 
L 2834 2853 
Q 2591 2978 2328 3040 
Q 2066 3103 1784 3103 
Q 1356 3103 1142 2972 
Q 928 2841 928 2578 
Q 928 2378 1081 2264 
Q 1234 2150 1697 2047 
L 1894 2003 
Q 2506 1872 2764 1633 
Q 3022 1394 3022 966 
Q 3022 478 2636 193 
Q 2250 -91 1575 -91 
Q 1294 -91 989 -36 
Q 684 19 347 128 
L 347 722 
Q 666 556 975 473 
Q 1284 391 1588 391 
Q 1994 391 2212 530 
Q 2431 669 2431 922 
Q 2431 1156 2273 1281 
Q 2116 1406 1581 1522 
L 1381 1569 
Q 847 1681 609 1914 
Q 372 2147 372 2553 
Q 372 3047 722 3315 
Q 1072 3584 1716 3584 
Q 2034 3584 2315 3537 
Q 2597 3491 2834 3397 
z
" transform="scale(0.015625)"/>
       <path id="DejaVuSans-5d" d="M 1947 4863 
L 1947 -844 
L 622 -844 
L 622 -397 
L 1369 -397 
L 1369 4416 
L 622 4416 
L 622 4863 
L 1947 4863 
z
" transform="scale(0.015625)"/>
      </defs>
      <use xlink:href="#DejaVuSans-74"/>
      <use xlink:href="#DejaVuSans-69" x="39.208984"/>
      <use xlink:href="#DejaVuSans-6d" x="66.992188"/>
      <use xlink:href="#DejaVuSans-65" x="164.404297"/>
      <use xlink:href="#DejaVuSans-20" x="225.927734"/>
      <use xlink:href="#DejaVuSans-5b" x="257.714844"/>
      <use xlink:href="#DejaVuSans-73" x="296.728516"/>
      <use xlink:href="#DejaVuSans-5d" x="348.828125"/>
     </g>
    </g>
   </g>
   <g id="matplotlib.axis_2">
    <g id="ytick_1">
     <g id="line2d_6">
      <defs>
       <path id="mc96673fa49" d="M 0 0 
L -3.5 0 
" style="stroke: #000000; stroke-width: 0.8"/>
      </defs>
      <g>
       <use xlink:href="#mc96673fa49" x="39.58149" y="237.756397" style="stroke: #000000; stroke-width: 0.8"/>
      </g>
     </g>
     <g id="text_7">
      <!-- 0.1 -->
      <g transform="translate(16.678365 241.555615) scale(0.1 -0.1)">
       <defs>
        <path id="DejaVuSans-2e" d="M 684 794 
L 1344 794 
L 1344 0 
L 684 0 
L 684 794 
z
" transform="scale(0.015625)"/>
        <path id="DejaVuSans-31" d="M 794 531 
L 1825 531 
L 1825 4091 
L 703 3866 
L 703 4441 
L 1819 4666 
L 2450 4666 
L 2450 531 
L 3481 531 
L 3481 0 
L 794 0 
L 794 531 
z
" transform="scale(0.015625)"/>
       </defs>
       <use xlink:href="#DejaVuSans-30"/>
       <use xlink:href="#DejaVuSans-2e" x="63.623047"/>
       <use xlink:href="#DejaVuSans-31" x="95.410156"/>
      </g>
     </g>
    </g>
    <g id="ytick_2">
     <g id="line2d_7">
      <g>
       <use xlink:href="#mc96673fa49" x="39.58149" y="185.635719" style="stroke: #000000; stroke-width: 0.8"/>
      </g>
     </g>
     <g id="text_8">
      <!-- 0.2 -->
      <g transform="translate(16.678365 189.434938) scale(0.1 -0.1)">
       <use xlink:href="#DejaVuSans-30"/>
       <use xlink:href="#DejaVuSans-2e" x="63.623047"/>
       <use xlink:href="#DejaVuSans-32" x="95.410156"/>
      </g>
     </g>
    </g>
    <g id="ytick_3">
     <g id="line2d_8">
      <g>
       <use xlink:href="#mc96673fa49" x="39.58149" y="133.515042" style="stroke: #000000; stroke-width: 0.8"/>
      </g>
     </g>
     <g id="text_9">
      <!-- 0.3 -->
      <g transform="translate(16.678365 137.314261) scale(0.1 -0.1)">
       <defs>
        <path id="DejaVuSans-33" d="M 2597 2516 
Q 3050 2419 3304 2112 
Q 3559 1806 3559 1356 
Q 3559 666 3084 287 
Q 2609 -91 1734 -91 
Q 1441 -91 1130 -33 
Q 819 25 488 141 
L 488 750 
Q 750 597 1062 519 
Q 1375 441 1716 441 
Q 2309 441 2620 675 
Q 2931 909 2931 1356 
Q 2931 1769 2642 2001 
Q 2353 2234 1838 2234 
L 1294 2234 
L 1294 2753 
L 1863 2753 
Q 2328 2753 2575 2939 
Q 2822 3125 2822 3475 
Q 2822 3834 2567 4026 
Q 2313 4219 1838 4219 
Q 1578 4219 1281 4162 
Q 984 4106 628 3988 
L 628 4550 
Q 988 4650 1302 4700 
Q 1616 4750 1894 4750 
Q 2613 4750 3031 4423 
Q 3450 4097 3450 3541 
Q 3450 3153 3228 2886 
Q 3006 2619 2597 2516 
z
" transform="scale(0.015625)"/>
       </defs>
       <use xlink:href="#DejaVuSans-30"/>
       <use xlink:href="#DejaVuSans-2e" x="63.623047"/>
       <use xlink:href="#DejaVuSans-33" x="95.410156"/>
      </g>
     </g>
    </g>
    <g id="ytick_4">
     <g id="line2d_9">
      <g>
       <use xlink:href="#mc96673fa49" x="39.58149" y="81.394365" style="stroke: #000000; stroke-width: 0.8"/>
      </g>
     </g>
     <g id="text_10">
      <!-- 0.4 -->
      <g transform="translate(16.678365 85.193583) scale(0.1 -0.1)">
       <use xlink:href="#DejaVuSans-30"/>
       <use xlink:href="#DejaVuSans-2e" x="63.623047"/>
       <use xlink:href="#DejaVuSans-34" x="95.410156"/>
      </g>
     </g>
    </g>
    <g id="ytick_5">
     <g id="line2d_10">
      <g>
       <use xlink:href="#mc96673fa49" x="39.58149" y="29.273687" style="stroke: #000000; stroke-width: 0.8"/>
      </g>
     </g>
     <g id="text_11">
      <!-- 0.5 -->
      <g transform="translate(16.678365 33.072906) scale(0.1 -0.1)">
       <defs>
        <path id="DejaVuSans-35" d="M 691 4666 
L 3169 4666 
L 3169 4134 
L 1269 4134 
L 1269 2991 
Q 1406 3038 1543 3061 
Q 1681 3084 1819 3084 
Q 2600 3084 3056 2656 
Q 3513 2228 3513 1497 
Q 3513 744 3044 326 
Q 2575 -91 1722 -91 
Q 1428 -91 1123 -41 
Q 819 9 494 109 
L 494 744 
Q 775 591 1075 516 
Q 1375 441 1709 441 
Q 2250 441 2565 725 
Q 2881 1009 2881 1497 
Q 2881 1984 2565 2268 
Q 2250 2553 1709 2553 
Q 1456 2553 1204 2497 
Q 953 2441 691 2322 
L 691 4666 
z
" transform="scale(0.015625)"/>
       </defs>
       <use xlink:href="#DejaVuSans-30"/>
       <use xlink:href="#DejaVuSans-2e" x="63.623047"/>
       <use xlink:href="#DejaVuSans-35" x="95.410156"/>
      </g>
     </g>
    </g>
    <g id="text_12">
     <!-- sentiment -->
     <g transform="translate(10.598677 154.096875) rotate(-90) scale(0.1 -0.1)">
      <defs>
       <path id="DejaVuSans-6e" d="M 3513 2113 
L 3513 0 
L 2938 0 
L 2938 2094 
Q 2938 2591 2744 2837 
Q 2550 3084 2163 3084 
Q 1697 3084 1428 2787 
Q 1159 2491 1159 1978 
L 1159 0 
L 581 0 
L 581 3500 
L 1159 3500 
L 1159 2956 
Q 1366 3272 1645 3428 
Q 1925 3584 2291 3584 
Q 2894 3584 3203 3211 
Q 3513 2838 3513 2113 
z
" transform="scale(0.015625)"/>
      </defs>
      <use xlink:href="#DejaVuSans-73"/>
      <use xlink:href="#DejaVuSans-65" x="52.099609"/>
      <use xlink:href="#DejaVuSans-6e" x="113.623047"/>
      <use xlink:href="#DejaVuSans-74" x="177.001953"/>
      <use xlink:href="#DejaVuSans-69" x="216.210938"/>
      <use xlink:href="#DejaVuSans-6d" x="243.994141"/>
      <use xlink:href="#DejaVuSans-65" x="341.40625"/>
      <use xlink:href="#DejaVuSans-6e" x="402.929688"/>
      <use xlink:href="#DejaVuSans-74" x="466.308594"/>
     </g>
    </g>
   </g>
   <g id="line2d_11">
    <path d="M 63.827775 99.055598 
L 64.892817 99.079129 
L 65.079254 99.207599 
L 65.340842 100.026068 
L 65.748664 100.767163 
L 65.871277 101.816727 
L 66.176263 102.097509 
L 66.349535 101.385696 
L 67.066245 100.228977 
L 67.28996 99.074254 
L 67.513024 97.219996 
L 68.09271 94.88352 
L 68.263868 95.355469 
L 69.816487 95.030969 
L 69.959959 95.803651 
L 70.183457 96.002424 
L 70.583098 96.58337 
L 70.731989 97.734374 
L 71.049003 96.221473 
L 71.216044 94.762268 
L 71.591412 94.690159 
L 71.812309 94.866237 
L 72.251991 95.069566 
L 72.473484 95.767327 
L 72.759073 98.500311 
L 73.04748 104.690249 
L 73.215659 106.127306 
L 73.418893 106.40292 
L 73.694676 107.441379 
L 74.108675 103.21974 
L 74.311855 103.497474 
L 74.878537 107.187187 
L 75.233154 104.338408 
L 75.604837 102.603412 
L 75.992017 102.865135 
L 76.388515 101.199164 
L 77.007916 97.305328 
L 77.140823 98.554331 
L 77.321788 99.203589 
L 79.116923 108.647236 
L 79.365073 111.203319 
L 79.484434 113.639037 
L 80.236146 116.85908 
L 80.496162 115.745157 
L 80.831544 111.653048 
L 80.983631 108.055086 
L 81.506751 104.552786 
L 81.827667 98.562516 
L 82.923267 94.46312 
L 83.187834 91.353824 
L 83.68278 89.464924 
L 84.203896 89.665926 
L 84.36709 90.75139 
L 84.536894 90.850595 
L 85.198664 90.266732 
L 85.665544 90.223289 
L 86.319079 91.904111 
L 87.689974 97.012166 
L 88.635817 95.715469 
L 89.04727 94.899417 
L 89.249637 93.671461 
L 89.404216 93.952571 
L 89.688451 96.307994 
L 89.922298 96.806868 
L 90.499003 99.814756 
L 90.838883 100.029543 
L 90.92671 99.752498 
L 91.13753 98.014157 
L 91.468415 97.470108 
L 91.681239 97.747195 
L 92.129427 97.491033 
L 92.469468 93.471855 
L 92.698764 93.978504 
L 92.839798 95.362951 
L 92.916193 92.70797 
L 93.370287 90.879762 
L 93.557971 89.032104 
L 93.778814 89.569759 
L 93.960375 89.677406 
L 94.252466 88.798473 
L 94.775208 88.55312 
L 94.85014 90.618672 
L 95.083878 91.151695 
L 95.519713 90.169965 
L 95.619515 90.10751 
L 95.864035 90.298897 
L 96.112239 90.328175 
L 96.833392 86.708903 
L 96.956492 85.232831 
L 97.219596 84.397702 
L 97.74548 78.937949 
L 98.204396 74.780797 
L 98.814152 73.753879 
L 99.301079 69.544666 
L 99.777712 70.593907 
L 100.130866 73.381874 
L 101.257836 90.349057 
L 101.512543 92.732132 
L 101.706349 92.983623 
L 102.129451 94.155178 
L 102.397703 93.487799 
L 102.569511 94.101878 
L 102.806067 95.759482 
L 103.108669 95.51917 
L 103.26482 94.525998 
L 103.679849 94.102984 
L 103.92166 94.135296 
L 104.576982 90.230769 
L 105.005773 86.281576 
L 106.358897 83.236527 
L 106.515589 83.245333 
L 106.668218 84.385394 
L 109.398196 83.698079 
L 109.931232 81.465022 
L 110.190489 80.940314 
L 110.317165 82.289022 
L 111.056415 83.471801 
L 111.304511 82.891165 
L 111.541554 82.715576 
L 111.665683 82.477407 
L 111.933501 82.555459 
L 112.2231 82.910517 
L 112.593917 82.393108 
L 112.902209 80.477334 
L 113.132425 79.926233 
L 113.30781 79.889726 
L 113.563275 80.355544 
L 113.697969 80.293514 
L 114.043538 79.214279 
L 114.521037 76.698932 
L 114.71777 76.798823 
L 114.926801 76.624579 
L 115.070977 77.07917 
L 115.561752 76.531981 
L 115.839377 77.130448 
L 116.567952 89.787531 
L 116.779259 91.497585 
L 117.047186 91.55515 
L 117.73388 97.248923 
L 117.861802 98.707503 
L 118.129566 100.016024 
L 118.313294 100.248975 
L 118.485428 99.876767 
L 118.695977 100.279282 
L 118.955343 99.104937 
L 119.186047 97.518998 
L 119.991289 95.96977 
L 120.499293 95.286926 
L 120.907169 93.635147 
L 123.914069 93.044108 
L 124.251185 93.238296 
L 125.715055 93.003135 
L 128.802955 93.724202 
L 129.205955 94.88636 
L 129.527792 96.191067 
L 131.138656 97.561895 
L 131.285054 98.564272 
L 131.618594 98.749274 
L 132.422807 98.826002 
L 132.693551 101.08565 
L 133.04665 107.155179 
L 133.764877 110.581947 
L 134.384603 111.122616 
L 134.695983 116.616134 
L 134.956649 117.118518 
L 138.500593 114.644162 
L 138.614211 115.761964 
L 138.902889 115.876987 
L 139.154074 117.021827 
L 139.369174 116.922256 
L 140.884408 116.436868 
L 141.129524 116.049006 
L 141.449573 115.838382 
L 142.278926 115.939583 
L 142.513314 116.52722 
L 142.763198 118.370541 
L 142.958792 121.423821 
L 143.124533 121.571357 
L 144.22994 134.65995 
L 144.402724 135.18854 
L 144.629147 134.155015 
L 144.816669 134.500621 
L 144.98734 134.369411 
L 145.256513 136.753322 
L 145.349434 139.854742 
L 145.733904 143.833405 
L 146.236923 143.414908 
L 146.450289 142.749303 
L 146.702015 144.090256 
L 147.267397 148.106398 
L 147.651488 147.03626 
L 148.19108 147.727669 
L 148.337694 148.572131 
L 148.872843 144.259183 
L 149.911661 149.105615 
L 150.442258 146.035574 
L 150.783817 140.217548 
L 151.08837 139.246317 
L 151.626228 138.70122 
L 151.904015 136.916172 
L 152.046946 136.893914 
L 152.692353 137.218668 
L 152.934923 138.815464 
L 153.465899 147.468266 
L 153.870254 149.438335 
L 154.162725 148.66876 
L 154.486946 151.044898 
L 154.728486 152.469404 
L 155.25735 152.636565 
L 155.468711 152.477023 
L 155.734362 153.645965 
L 155.912347 153.302808 
L 155.98663 155.685142 
L 156.605055 158.41687 
L 156.818746 158.820153 
L 157.152828 159.845998 
L 157.373454 159.969388 
L 157.609359 160.827803 
L 157.677736 163.461179 
L 157.970369 166.330939 
L 158.461523 168.352212 
L 158.714062 168.370155 
L 158.927536 168.496912 
L 159.148433 168.974349 
L 159.311031 170.05081 
L 159.869749 175.344886 
L 160.173272 173.178661 
L 160.493701 173.088392 
L 160.737625 173.162502 
L 161.174759 177.87937 
L 161.675394 179.003942 
L 162.228694 179.251716 
L 162.455334 178.907695 
L 162.673035 178.786257 
L 163.004191 179.209122 
L 163.213005 178.153192 
L 163.512682 180.867436 
L 163.69018 182.381704 
L 164.050702 187.858419 
L 164.430188 188.607051 
L 164.726993 188.293579 
L 165.253364 189.173433 
L 165.632363 189.310199 
L 166.029836 189.315161 
L 166.547214 188.02104 
L 166.744813 187.812057 
L 167.085667 187.008396 
L 167.608138 186.695091 
L 167.700029 183.980955 
L 168.051232 182.866704 
L 168.257825 182.412377 
L 169.055862 186.945189 
L 169.475604 187.587425 
L 169.623302 188.884474 
L 170.029012 189.550812 
L 170.435209 189.37075 
L 170.621647 190.293895 
L 170.801041 190.482281 
L 171.577567 193.569241 
L 171.790066 195.265473 
L 172.066066 195.426379 
L 172.157686 193.590514 
L 172.39538 193.576628 
L 172.641092 194.101519 
L 172.855 195.238233 
L 173.48399 202.604848 
L 174.248976 202.57188 
L 174.453023 203.09373 
L 175.234859 205.994209 
L 175.614128 205.995748 
L 175.814544 206.607461 
L 175.978714 207.501575 
L 176.764451 207.706126 
L 177.625825 204.410091 
L 178.285428 204.970668 
L 178.648117 205.579818 
L 178.878334 205.450884 
L 179.47785 200.559089 
L 179.707687 200.107091 
L 180.08235 197.949242 
L 180.276536 198.663971 
L 180.497325 198.922019 
L 180.723369 199.38986 
L 181.216473 199.106688 
L 181.610642 199.384674 
L 181.872663 199.724742 
L 182.591811 201.528905 
L 183.22389 208.761285 
L 183.550116 209.080966 
L 184.230199 209.164106 
L 184.542608 209.517443 
L 184.862603 210.413419 
L 185.342487 211.013879 
L 185.574491 210.919693 
L 185.841171 210.498655 
L 186.24959 205.334038 
L 186.409696 202.884672 
L 186.732616 201.480062 
L 187.081652 201.679919 
L 187.357272 202.118547 
L 187.506325 203.856125 
L 187.689837 203.866315 
L 187.956355 203.154673 
L 188.200333 201.514118 
L 188.96987 198.14819 
L 189.496025 197.249606 
L 189.948655 194.475379 
L 190.12041 193.22316 
L 190.378367 192.70233 
L 190.42946 191.657659 
L 190.661735 191.685 
L 191.081261 193.491784 
L 191.885582 199.323931 
L 192.355551 199.415153 
L 192.620226 199.324572 
L 192.835597 198.331942 
L 194.276115 194.066443 
L 194.430965 191.56509 
L 194.937777 189.907555 
L 195.211555 188.264447 
L 195.549971 188.772382 
L 195.819523 188.800706 
L 195.993283 187.897625 
L 196.822094 189.073212 
L 197.0457 189.050288 
L 197.56156 183.296579 
L 197.814207 182.033305 
L 198.73296 179.753976 
L 199.292761 174.259957 
L 199.703888 171.308474 
L 200.075843 169.8385 
L 200.624591 164.880995 
L 200.913757 160.540602 
L 201.14381 160.897302 
L 201.478867 161.850904 
L 202.124979 162.00764 
L 202.868022 162.71899 
L 203.301526 162.812904 
L 203.443969 161.933676 
L 203.692065 161.606747 
L 204.535776 164.958256 
L 204.755644 164.169762 
L 205.005528 163.861591 
L 205.272641 164.029366 
L 205.606398 164.751638 
L 205.803943 165.212186 
L 206.006635 165.073745 
L 206.336599 164.409551 
L 209.630876 164.370018 
L 210.044713 162.617999 
L 210.599475 159.764098 
L 210.904787 153.666516 
L 212.759196 152.724837 
L 214.172298 154.063501 
L 214.420827 153.986202 
L 215.817838 152.291841 
L 216.529834 152.377859 
L 216.734531 151.482418 
L 218.542344 148.74278 
L 218.938734 148.592877 
L 219.091092 146.428434 
L 219.445817 144.719696 
L 219.666931 142.862061 
L 219.763157 142.968112 
L 220.670206 143.125299 
L 220.877233 141.072318 
L 221.381877 139.247145 
L 221.659123 138.965722 
L 221.86382 138.974833 
L 222.216811 138.661369 
L 222.414356 141.985907 
L 223.280877 146.354105 
L 223.446564 148.087148 
L 223.660742 148.025459 
L 225.19922 147.849015 
L 225.444932 147.146051 
L 225.674715 146.963903 
L 225.891061 146.252536 
L 226.302785 151.235882 
L 226.53143 153.320068 
L 226.746096 153.042913 
L 227.163834 149.928732 
L 227.687929 147.268375 
L 228.183526 141.876031 
L 228.355443 141.44712 
L 228.522863 140.188147 
L 228.669044 138.189296 
L 228.835814 137.90582 
L 229.076433 136.587973 
L 229.237243 136.929205 
L 229.344631 136.873971 
L 229.48068 136.561374 
L 230.022005 144.696705 
L 230.578664 147.916416 
L 230.723382 147.716239 
L 230.949697 147.387106 
L 231.121994 148.73938 
L 231.316938 155.051882 
L 231.889092 158.28452 
L 232.466665 159.050254 
L 232.95836 160.418244 
L 233.237936 161.17468 
L 233.402213 162.286759 
L 233.603226 162.504537 
L 234.426402 163.084922 
L 236.034124 144.624381 
L 236.506693 143.003015 
L 236.705538 143.289896 
L 237.114445 148.115106 
L 237.442783 149.559583 
L 237.555805 151.107465 
L 237.817122 151.114154 
L 238.201484 151.313557 
L 238.523158 150.441991 
L 238.704665 147.195354 
L 241.071846 143.963607 
L 241.619565 148.590425 
L 241.81711 149.242677 
L 242.305229 153.425587 
L 243.399637 155.895755 
L 243.542242 157.926506 
L 243.804154 159.289027 
L 244.258735 164.025823 
L 244.865783 168.317995 
L 246.698465 168.355804 
L 247.314181 168.44177 
L 247.791085 163.879933 
L 247.941438 164.060395 
L 248.509366 164.027831 
L 248.685401 163.522836 
L 249.354865 164.460138 
L 249.590825 163.716716 
L 249.757324 163.718552 
L 250.676997 154.290527 
L 250.767371 154.907301 
L 250.965567 153.578908 
L 251.165983 150.825108 
L 251.429846 149.124334 
L 251.663693 149.209104 
L 251.899002 150.101147 
L 252.306066 155.24117 
L 252.849721 157.16587 
L 253.092128 157.122589 
L 253.514905 156.731856 
L 253.764843 155.680062 
L 255.540635 156.736181 
L 255.772477 157.412316 
L 255.996841 157.381968 
L 257.834454 158.265902 
L 258.027827 160.988015 
L 259.032457 156.892339 
L 259.366701 155.288637 
L 261.169854 155.270438 
L 261.503069 149.439645 
L 262.71142 148.625243 
L 262.891086 150.490196 
L 263.213085 150.868976 
L 263.671567 149.093598 
L 264.387844 140.00105 
L 264.67793 134.539034 
L 265.00784 130.109019 
L 265.289962 129.2651 
L 265.633147 127.043365 
L 265.91283 126.084353 
L 266.353487 123.75303 
L 266.570375 120.50697 
L 266.755783 120.45957 
L 267.033191 121.25264 
L 267.174875 121.023596 
L 267.489343 122.192626 
L 267.803324 124.249405 
L 268.077915 124.646413 
L 268.326119 125.927673 
L 268.462819 127.908803 
L 268.806003 128.161476 
L 268.996342 129.432184 
L 269.141656 129.450794 
L 269.295097 129.713974 
L 269.488037 129.413281 
L 269.691 128.27178 
L 270.021669 123.106593 
L 270.396495 119.77016 
L 270.780369 116.647081 
L 270.934569 116.882984 
L 271.18635 116.263568 
L 272.127641 109.340086 
L 272.278482 109.201667 
L 272.414152 109.473181 
L 272.534814 106.807852 
L 272.675468 106.962794 
L 272.914354 106.982602 
L 273.48109 108.020223 
L 274.316078 109.586681 
L 274.697568 110.356319 
L 274.945393 110.277105 
L 275.184929 109.642126 
L 275.53662 108.264086 
L 275.756216 107.74357 
L 275.968932 106.180408 
L 276.712408 104.914548 
L 276.956874 104.879239 
L 277.541815 105.286699 
L 278.491071 105.241067 
L 278.834852 110.14067 
L 279.018635 113.336093 
L 279.363932 114.22661 
L 279.8015 114.593517 
L 279.944539 115.279179 
L 280.102315 114.771903 
L 280.365852 114.552217 
L 280.538366 113.723344 
L 280.874831 114.619675 
L 281.36501 114.82316 
L 282.781525 113.674887 
L 282.85299 112.219421 
L 283.171576 110.598665 
L 283.531232 106.93306 
L 285.020134 104.119667 
L 285.210635 101.967963 
L 285.866066 102.259653 
L 286.121531 104.365811 
L 286.320539 104.879675 
L 286.733671 102.897154 
L 287.430659 100.821572 
L 287.926093 98.730493 
L 288.381216 99.369765 
L 289.138887 107.455184 
L 289.528884 109.456729 
L 290.231074 108.900081 
L 290.381643 110.102831 
L 290.577129 112.758871 
L 290.814389 110.891417 
L 290.954394 107.623727 
L 291.350459 105.510504 
L 291.607333 102.628936 
L 291.825358 102.332352 
L 292.113061 103.309917 
L 292.455812 105.430285 
L 293.014096 106.660588 
L 293.792681 106.78771 
L 294.597165 106.511455 
L 295.019399 112.752485 
L 297.023457 113.436593 
L 297.37233 112.058714 
L 299.129917 108.775503 
L 299.348159 111.000104 
L 299.547221 111.481208 
L 299.681537 111.369417 
L 299.883633 110.985779 
L 300.649377 113.601871 
L 301.005999 115.611165 
L 301.602318 118.764775 
L 301.8146 120.573821 
L 302.070553 120.470949 
L 302.480055 123.864701 
L 302.860462 126.366684 
L 303.119936 127.501943 
L 303.353295 127.772497 
L 303.537944 127.395159 
L 303.773633 127.881899 
L 303.942083 124.836302 
L 304.338148 122.619022 
L 304.602715 123.145785 
L 305.040988 127.222231 
L 305.166526 129.157052 
L 305.373878 129.411878 
L 305.726218 128.986917 
L 306.051686 125.298211 
L 306.446125 119.311842 
L 306.79229 117.976721 
L 307.504611 121.871454 
L 307.788467 124.720661 
L 308.327733 127.898731 
L 308.672868 131.426874 
L 308.985548 131.429498 
L 309.555156 130.446017 
L 309.887558 131.229107 
L 310.143565 130.352076 
L 310.331953 128.505651 
L 310.649185 128.843572 
L 310.915811 127.297279 
L 311.027695 127.315814 
L 311.379386 130.317474 
L 313.016691 130.317334 
L 314.392516 131.195732 
L 314.769401 135.413944 
L 314.886433 138.532401 
L 315.399638 143.882994 
L 315.887811 151.982792 
L 316.020014 153.379476 
L 316.282955 152.786393 
L 316.82466 148.916476 
L 317.093887 148.424823 
L 317.381698 148.268528 
L 318.337022 144.940076 
L 318.791495 144.863875 
L 319.43208 146.937887 
L 319.525706 148.285261 
L 319.992423 148.305515 
L 320.234072 147.768057 
L 320.656632 148.559795 
L 320.796203 147.183466 
L 321.181378 150.46057 
L 321.511017 155.146255 
L 322.081058 157.097179 
L 322.320377 158.596008 
L 322.464824 158.749481 
L 322.678353 158.420581 
L 322.98594 159.622911 
L 323.165334 161.40656 
L 323.793349 165.700878 
L 324.099149 164.712017 
L 324.227667 161.78874 
L 324.622323 159.696793 
L 324.74797 158.024894 
L 324.931861 157.580777 
L 325.202442 155.864546 
L 325.327113 155.987053 
L 325.52623 155.619031 
L 326.335752 155.455301 
L 327.375058 168.551288 
L 327.680857 169.186244 
L 328.065219 168.712326 
L 330.486202 168.454512 
L 330.839897 166.949671 
L 331.316205 160.773827 
L 331.55872 160.788784 
L 331.580989 160.632761 
L 332.144637 159.803854 
L 332.537939 157.091347 
L 332.999238 151.049584 
L 333.199276 148.672487 
L 333.565704 146.926428 
L 333.754688 147.051627 
L 333.926822 144.129883 
L 334.152758 142.820518 
L 334.357509 139.935632 
L 334.541563 139.44278 
L 334.990618 137.85271 
L 335.201058 135.856114 
L 335.40608 135.023338 
L 335.576588 134.858745 
L 336.161367 141.985209 
L 336.596714 146.043058 
L 336.881057 149.082076 
L 337.027455 147.859457 
L 337.130345 145.143548 
L 337.710247 138.296384 
L 338.232013 132.262199 
L 338.386918 130.464103 
L 338.578178 130.000992 
L 338.878342 133.003234 
L 339.204568 137.039586 
L 339.591476 133.868871 
L 339.696967 134.150741 
L 339.847754 133.91022 
L 340.134102 132.123894 
L 340.34698 132.348654 
L 340.579147 132.35158 
L 340.984477 133.056792 
L 341.755423 135.48085 
L 341.950909 134.980535 
L 342.103808 134.946356 
L 342.293226 134.74187 
L 342.508543 134.943018 
L 342.618476 133.192521 
L 342.937875 131.851317 
L 343.141272 131.492682 
L 343.326734 131.619574 
L 343.630475 131.582674 
L 343.892333 128.568843 
L 344.104561 127.817389 
L 344.49044 124.365733 
L 344.882008 117.682056 
L 345.225518 114.327702 
L 345.882141 105.492785 
L 346.433815 103.679712 
L 346.63396 103.820335 
L 346.853286 105.470362 
L 347.008787 105.540786 
L 347.176044 102.475449 
L 347.669961 98.675899 
L 347.83115 98.15357 
L 348.087861 96.696235 
L 348.255444 94.17582 
L 348.668468 91.262771 
L 349.015932 90.842501 
L 349.400403 89.752273 
L 349.586191 88.298075 
L 349.946009 87.019628 
L 350.329883 85.14793 
L 351.410691 83.904113 
L 351.909918 84.567142 
L 352.32733 82.998843 
L 352.598833 80.160557 
L 352.914818 73.646637 
L 353.814336 64.110852 
L 354.283492 61.701654 
L 354.61286 55.12091 
L 355.715178 52.834391 
L 356.179891 49.996485 
L 356.651864 46.062668 
L 356.815221 48.377074 
L 357.22559 48.45027 
L 357.380061 48.168758 
L 357.547373 47.33074 
L 357.984616 46.557774 
L 358.166123 44.682725 
L 358.544796 42.233724 
L 359.178717 33.184383 
L 359.712403 23.383436 
L 360.340798 17.242657 
L 361.155034 14.43857 
L 361.792639 18.884508 
L 362.66848 22.348794 
L 362.955045 25.632106 
L 363.180981 26.046695 
L 363.870817 28.740828 
L 364.157382 30.18557 
L 364.717942 32.41122 
L 365.276497 38.34727 
L 365.676463 42.226484 
L 366.508254 45.297246 
L 366.919653 50.502516 
L 367.120719 53.624739 
L 367.504485 56.732049 
L 367.867283 63.213207 
L 369.429926 65.075109 
L 377.347384 65.572463 
L 377.809063 65.362653 
L 378.235415 63.729073 
L 378.433719 65.238589 
L 379.038653 63.681452 
L 379.668835 66.026212 
L 380.099739 66.623869 
L 380.301131 67.171124 
L 380.429866 70.119155 
L 380.98712 75.321664 
L 381.300451 75.68982 
L 381.39749 74.886327 
L 381.988228 74.141744 
L 382.584873 75.820841 
L 382.976062 78.055988 
L 383.459575 77.794859 
L 383.786234 77.779638 
L 383.964382 78.456118 
L 384.164745 78.065951 
L 384.422052 76.919063 
L 384.675891 76.948094 
L 384.98272 76.835297 
L 385.14288 77.227735 
L 385.272915 78.118256 
L 385.534394 78.603457 
L 386.123669 85.634141 
L 386.396635 87.254827 
L 386.617911 87.25799 
L 386.848073 86.224455 
L 387.033373 86.265737 
L 388.05507 84.500418 
L 388.238528 84.836008 
L 388.672574 83.375638 
L 388.909021 83.53311 
L 389.174889 85.311776 
L 389.514931 90.621984 
L 389.706407 93.457926 
L 389.999474 95.352934 
L 390.235921 95.86034 
L 390.528879 95.764511 
L 390.92164 91.94087 
L 391.308006 91.031029 
L 391.743624 87.78421 
L 392.221069 85.785405 
L 392.394883 86.96446 
L 392.71542 87.454338 
L 392.929815 87.273363 
L 393.259779 85.037283 
L 393.47217 84.668186 
L 393.704391 83.695162 
L 394.060091 80.099735 
L 394.945142 70.703311 
L 395.099559 70.644356 
L 395.459268 69.100575 
L 395.928749 67.066922 
L 396.198193 67.92899 
L 396.684416 73.310017 
L 396.749 73.173785 
L 397.057454 71.792339 
L 397.707142 77.885507 
L 397.961144 80.537004 
L 398.421956 82.05997 
L 398.66951 82.40973 
L 399.084701 82.385936 
L 399.328463 81.853575 
L 399.762672 78.448423 
L 400.002912 77.053305 
L 400.282325 72.284985 
L 400.530258 71.826092 
L 400.650378 74.060395 
L 400.848682 75.149594 
L 401.173227 80.334048 
L 401.306188 83.72768 
L 401.605215 86.580751 
L 402.655194 91.70931 
L 403.294208 98.830828 
L 403.567824 99.362426 
L 403.999811 101.808443 
L 404.466637 102.694783 
L 404.599219 101.186069 
L 405.11405 99.655733 
L 405.385552 97.705919 
L 405.97667 96.156826 
L 406.146474 96.958562 
L 407.086628 97.810303 
L 407.343176 97.639524 
L 407.733878 98.601921 
L 407.977856 99.248734 
L 408.213653 99.382977 
L 408.458227 100.253992 
L 408.609772 100.594881 
L 408.775242 99.793325 
L 409.414527 91.971967 
L 410.006349 90.377001 
L 410.17106 90.218394 
L 410.43086 89.49628 
L 410.630951 89.693746 
L 410.861709 90.328659 
L 411.134024 93.315509 
L 411.257124 95.392035 
L 411.421023 95.471248 
L 411.58167 95.92514 
L 412.299139 84.289999 
L 412.38144 82.051787 
L 413.180452 79.981671 
L 413.443231 81.119036 
L 413.69382 80.479577 
L 414.098716 78.477815 
L 414.346542 77.844471 
L 414.469641 75.469882 
L 415.130003 69.235999 
L 415.227692 66.04838 
L 415.465656 63.102486 
L 415.601868 59.579313 
L 415.936275 58.037356 
L 416.39985 60.410947 
L 417.136228 60.732122 
L 417.290157 60.952478 
L 419.067412 62.552652 
L 419.67603 63.509626 
L 419.949537 62.510089 
L 420.202781 60.772133 
L 420.359148 61.205017 
L 420.645279 61.581888 
L 421.012953 61.592527 
L 421.2008 62.665033 
L 421.959934 70.463431 
L 422.111696 73.854647 
L 422.628748 75.44079 
L 422.886759 77.718328 
L 423.351093 79.560786 
L 423.522577 78.531315 
L 424.250286 81.551294 
L 424.489171 84.542894 
L 425.596366 90.026015 
L 425.908612 95.320318 
L 426.33334 100.330177 
L 427.003941 101.566088 
L 427.079362 103.491908 
L 427.279724 104.989203 
L 427.6986 113.163317 
L 427.907035 115.981356 
L 428.799401 118.888306 
L 429.064293 119.319368 
L 429.300307 122.633907 
L 430.245337 128.722604 
L 430.534069 128.614304 
L 431.227427 129.329759 
L 431.968681 133.16025 
L 433.119384 145.08086 
L 433.58854 144.687397 
L 434.45544 146.970509 
L 434.829833 149.146553 
L 436.06457 148.751927 
L 436.350485 150.323945 
L 437.473284 151.282507 
L 438.062668 146.559033 
L 438.543581 148.246842 
L 438.765291 149.851303 
L 438.956768 148.723875 
L 439.362531 143.634844 
L 440.870613 136.242499 
L 441.277027 137.205681 
L 441.659385 137.223124 
L 443.16362 136.885135 
L 443.695247 138.204721 
L 444.248492 137.671172 
L 445.468546 137.823249 
L 445.606817 138.253432 
L 445.997139 138.32922 
L 447.06088 138.281354 
L 447.311469 134.755063 
L 447.777374 131.902416 
L 448.99434 131.870792 
L 449.471406 131.191332 
L 449.951506 131.691837 
L 450.939123 138.265849 
L 451.136776 141.229142 
L 451.593633 143.599879 
L 451.930315 147.935349 
L 452.114369 147.799647 
L 452.609532 148.994066 
L 452.914627 148.497174 
L 453.265342 143.16931 
L 453.343526 142.936624 
L 453.696138 142.618776 
L 453.921911 143.002823 
L 455.547675 142.485665 
L 455.9944 144.73034 
L 456.293806 145.55595 
L 456.672425 147.441276 
L 457.048659 148.993606 
L 457.296864 148.50938 
L 458.069598 144.350182 
L 458.405034 145.218508 
L 458.887735 146.7745 
L 459.09617 146.153064 
L 459.511307 146.537997 
L 462.893304 147.072724 
L 463.043548 149.596085 
L 463.28135 149.520762 
L 463.635642 149.694424 
L 466.245771 152.910838 
L 467.665375 152.649536 
L 468.303577 149.468267 
L 468.544846 146.293929 
L 469.75531 143.00181 
L 470.398713 141.87385 
L 470.613217 141.069384 
L 472.25025 143.619752 
L 472.725366 145.419514 
L 472.971349 145.460175 
L 473.127608 145.934717 
L 473.210993 146.569443 
L 473.535647 146.88297 
L 473.664274 146.630772 
L 473.937726 144.702082 
L 474.382717 138.373894 
L 474.754022 140.067999 
L 475.176528 140.320374 
L 475.673803 141.309555 
L 476.735432 140.680788 
L 477.267546 139.154536 
L 477.980301 132.381272 
L 478.691376 131.613541 
L 479.066636 132.478672 
L 479.28737 134.094883 
L 479.884773 134.296424 
L 480.248547 136.67551 
L 480.783749 136.937234 
L 480.974576 136.662015 
L 481.38657 132.674717 
L 484.225778 129.625352 
L 484.862896 127.43456 
L 485.443124 124.335842 
L 485.61244 121.27015 
L 485.966082 118.755773 
L 486.47777 117.028939 
L 486.878603 114.310348 
L 487.624354 112.124357 
L 488.142002 111.479046 
L 488.368209 111.579038 
L 488.645401 112.732628 
L 491.4994 115.371437 
L 491.807746 116.7804 
L 492.543148 116.697185 
L 492.702116 115.799524 
L 493.326502 115.920254 
L 493.608624 116.197168 
L 493.988814 118.338896 
L 494.356705 117.579354 
L 494.54726 116.883705 
L 494.873269 117.016106 
L 495.076015 118.316407 
L 495.163898 120.284386 
L 495.602549 120.851823 
L 495.777284 118.831347 
L 496.294553 123.740093 
L 496.523035 126.276806 
L 496.681082 129.337493 
L 497.106568 132.591993 
L 498.304462 141.429394 
L 498.542535 141.49317 
L 498.706541 140.924361 
L 499.050592 141.104839 
L 502.586951 141.541269 
L 503.085907 140.831148 
L 503.259449 138.225987 
L 504.006284 138.909933 
L 504.224906 140.485987 
L 505.223304 140.378848 
L 505.401236 141.079148 
L 505.720635 141.40999 
L 505.935138 140.352367 
L 506.18681 140.397551 
L 506.721959 140.126203 
L 506.915278 139.484174 
L 507.053169 139.477602 
L 507.193499 139.708625 
L 507.398683 141.227407 
L 507.595795 140.829241 
L 507.836577 141.423756 
L 508.166324 147.580959 
L 509.00906 146.793353 
L 509.514571 147.730505 
L 510.182572 148.204385 
L 511.523126 155.636001 
L 511.597192 157.786654 
L 511.813808 159.280632 
L 512.322408 160.030871 
L 513.111342 161.490104 
L 515.074764 163.640754 
L 522.065288 163.809214 
L 523.267408 164.162072 
L 523.689535 167.242987 
L 523.99788 172.79103 
L 527.266313 173.595117 
L 527.865774 180.085206 
L 528.598902 174.951143 
L 528.817144 174.912663 
L 529.329049 183.982459 
L 529.857425 187.02368 
L 531.438164 187.208997 
L 533.702237 187.466735 
L 534.08622 187.590076 
L 534.491009 188.447605 
L 535.219476 194.268204 
L 536.491057 197.523593 
L 537.951839 198.124592 
L 538.163687 197.931874 
L 538.92656 205.097626 
L 539.046138 206.312894 
L 539.213342 205.527365 
L 540.115406 197.833894 
L 540.731826 197.733219 
L 541.223684 197.431578 
L 541.404541 199.147895 
L 541.632645 199.683771 
L 541.983414 199.979087 
L 542.250745 200.490566 
L 542.555298 204.009597 
L 542.982517 209.613018 
L 543.376524 211.338962 
L 543.870169 214.037217 
L 544.299881 213.192137 
L 544.847925 211.353996 
L 545.093745 211.965462 
L 546.504193 212.153689 
L 546.705205 212.35338 
L 547.082145 212.418168 
L 547.325256 212.414144 
L 547.784659 211.537332 
L 548.447026 213.561157 
L 548.753475 213.643222 
L 548.753475 213.643222 
" clip-path="url(#pe6e4c04eb0)" style="fill: none; stroke: #ff0000; stroke-width: 1.5; stroke-linecap: square"/>
   </g>
   <g id="line2d_12">
    <path d="M 63.827775 199.994947 
L 64.892817 197.752174 
L 65.748664 193.35096 
L 65.871277 191.104481 
L 66.176263 189.850425 
L 66.349535 190.492839 
L 66.7145 190.791385 
L 67.28996 190.807803 
L 68.09271 191.254481 
L 68.263868 191.230708 
L 70.183457 191.302527 
L 70.583098 191.189233 
L 70.731989 190.923109 
L 71.216044 191.179882 
L 71.591412 190.727976 
L 71.812309 188.88956 
L 72.251991 186.776161 
L 72.880439 178.535743 
L 73.215659 178.446528 
L 73.573147 178.552252 
L 73.694676 177.983771 
L 73.897531 178.209466 
L 74.108675 178.691391 
L 74.311855 178.756987 
L 74.878537 178.380185 
L 75.233154 180.679773 
L 75.604837 184.748649 
L 76.388515 185.005279 
L 77.007916 185.329185 
L 77.321788 182.008058 
L 77.930298 180.76341 
L 78.336495 178.787577 
L 78.598191 178.190698 
L 79.116923 172.486795 
L 79.484434 167.685359 
L 80.236146 166.602553 
L 80.496162 166.695092 
L 80.831544 167.529331 
L 80.983631 170.684778 
L 81.827667 176.456269 
L 82.105671 176.40104 
L 82.923267 177.745796 
L 83.521699 179.357185 
L 83.68278 179.470744 
L 84.203896 178.751173 
L 84.536894 175.213379 
L 85.198664 176.98641 
L 85.665544 177.385533 
L 85.900637 174.543646 
L 86.319079 171.255727 
L 86.504433 170.872463 
L 86.873462 170.563939 
L 88.179827 170.542944 
L 88.520086 170.195763 
L 88.635817 173.539295 
L 89.04727 176.650776 
L 89.249637 179.372642 
L 90.307093 178.613641 
L 90.499003 175.646483 
L 90.92671 175.173834 
L 91.13753 175.362481 
L 91.468415 175.426263 
L 92.129427 173.821211 
L 92.469468 174.005462 
L 92.698764 173.26281 
L 92.839798 171.211623 
L 92.916193 171.669292 
L 93.557971 171.89275 
L 93.778814 171.057164 
L 93.960375 169.557968 
L 94.513458 174.166832 
L 94.775208 175.066858 
L 94.85014 174.940555 
L 95.356464 174.900323 
L 96.377728 174.92397 
L 96.493513 175.031839 
L 97.74548 182.643542 
L 98.544654 189.802668 
L 98.814152 190.892155 
L 99.301079 196.243918 
L 99.517533 195.753862 
L 99.777712 195.448377 
L 100.130866 192.126156 
L 100.30793 191.961656 
L 101.04485 188.788511 
L 101.257836 186.786762 
L 101.512543 186.256096 
L 102.129451 186.308468 
L 102.397703 186.57331 
L 102.569511 186.526918 
L 102.938215 183.747303 
L 103.108669 183.60387 
L 103.679849 192.182147 
L 103.92166 193.019677 
L 104.576982 193.139182 
L 105.005773 193.455267 
L 106.515589 194.413019 
L 106.668218 194.34249 
L 109.166084 194.336613 
L 109.398196 193.716078 
L 110.190489 193.260195 
L 110.317165 192.432406 
L 111.056415 190.312051 
L 111.541554 189.926357 
L 112.2231 189.819327 
L 112.593917 189.912764 
L 113.132425 192.335351 
L 113.30781 192.451986 
L 113.563275 192.761921 
L 113.697969 193.632728 
L 114.043538 194.357647 
L 114.521037 197.160508 
L 114.71777 198.805551 
L 114.926801 201.57235 
L 115.839377 201.738703 
L 116.176655 196.303994 
L 116.567952 188.803695 
L 116.779259 188.400294 
L 117.290948 188.269226 
L 117.58293 188.005753 
L 117.861802 189.302877 
L 118.129566 189.988318 
L 118.955343 199.478438 
L 119.186047 203.188061 
L 119.991289 206.643914 
L 120.907169 207.382235 
L 123.914069 207.201913 
L 124.251185 207.404883 
L 125.715055 207.992892 
L 128.802955 206.788194 
L 129.205955 204.707353 
L 129.527792 199.698391 
L 131.138656 196.792291 
L 131.618594 193.949825 
L 132.422807 193.575171 
L 132.890717 187.185362 
L 133.04665 184.066152 
L 133.633975 183.21415 
L 133.764877 183.724548 
L 134.384603 184.77964 
L 134.695983 184.380459 
L 134.956649 184.893578 
L 138.500593 187.197862 
L 138.614211 187.036593 
L 138.902889 187.132261 
L 139.154074 186.907768 
L 139.369174 186.948841 
L 140.884408 189.772215 
L 141.129524 189.871165 
L 141.449573 191.040715 
L 142.278926 191.926235 
L 142.763198 191.884888 
L 143.255164 191.635336 
L 143.717981 190.177919 
L 144.021558 188.509054 
L 144.22994 188.016852 
L 144.402724 187.903829 
L 144.98734 188.013879 
L 145.256513 187.833886 
L 145.558248 187.142299 
L 146.034881 187.536114 
L 146.236923 188.014469 
L 146.450289 188.861215 
L 146.702015 187.985844 
L 146.943014 186.670356 
L 147.099706 184.556779 
L 147.267397 184.565687 
L 147.651488 187.786482 
L 148.052159 186.259814 
L 148.337694 184.567907 
L 148.531067 185.393008 
L 148.671451 187.355788 
L 148.872843 187.492898 
L 149.330567 185.788865 
L 149.698295 185.33641 
L 149.911661 184.675036 
L 150.442258 186.763165 
L 150.783817 190.568763 
L 151.377536 190.286786 
L 151.626228 189.546413 
L 151.904015 190.357262 
L 152.692353 190.343269 
L 152.934923 190.222535 
L 153.078774 189.858164 
L 153.465899 187.049146 
L 153.870254 186.179508 
L 154.162725 186.592515 
L 154.728486 183.761345 
L 155.25735 182.835704 
L 155.468711 182.741591 
L 155.734362 181.421936 
L 155.912347 181.384416 
L 155.98663 180.990234 
L 156.605055 180.556768 
L 156.991205 180.853051 
L 157.152828 180.577558 
L 157.373454 180.959713 
L 157.609359 180.466077 
L 157.677736 179.946508 
L 157.970369 178.660679 
L 158.461523 177.393762 
L 158.714062 177.902842 
L 158.927536 177.528547 
L 159.679247 173.178658 
L 159.869749 173.077721 
L 160.173272 176.232641 
L 160.493701 176.820995 
L 160.737625 176.654638 
L 161.174759 168.179456 
L 161.675394 162.147423 
L 162.228694 159.654779 
L 162.455334 159.33814 
L 162.673035 158.649674 
L 163.004191 156.955671 
L 163.308906 156.483904 
L 163.69018 154.732173 
L 164.050702 154.133518 
L 164.430188 150.915403 
L 164.726993 150.452026 
L 165.426745 142.814076 
L 165.632363 141.667644 
L 165.853476 141.282565 
L 166.029836 141.426077 
L 166.15169 143.215113 
L 166.329676 143.516387 
L 166.547214 144.814099 
L 167.276494 157.65129 
L 167.441909 157.340493 
L 167.608138 156.277555 
L 167.700029 156.530835 
L 168.257825 156.846895 
L 169.055862 156.242846 
L 169.475604 157.217669 
L 169.623302 157.339169 
L 169.801396 157.102117 
L 170.029012 157.053965 
L 170.435209 156.844503 
L 170.801041 151.725417 
L 171.577567 148.281325 
L 172.066066 141.804532 
L 172.39538 143.530591 
L 172.641092 143.654269 
L 173.03862 142.764543 
L 173.319875 137.087425 
L 173.48399 137.143839 
L 174.016321 136.147418 
L 174.900398 132.421017 
L 174.971754 130.62117 
L 175.234859 128.815746 
L 175.614128 128.312123 
L 175.978714 122.445128 
L 176.361125 120.324082 
L 176.505627 118.262412 
L 176.764451 117.20024 
L 177.625825 117.983611 
L 178.285428 118.050307 
L 178.648117 117.96531 
L 178.878334 118.133551 
L 179.235605 119.928711 
L 179.47785 120.209823 
L 179.707687 119.774496 
L 180.08235 120.302817 
L 180.497325 119.913334 
L 180.723369 119.891585 
L 181.216473 119.960389 
L 182.591811 118.177011 
L 183.023148 116.673057 
L 183.22389 114.84786 
L 184.230199 109.36614 
L 184.862603 102.958932 
L 185.574491 100.320602 
L 185.841171 99.720196 
L 186.072309 100.741799 
L 186.409696 104.83468 
L 186.732616 105.770128 
L 187.081652 105.437944 
L 187.357272 102.755115 
L 187.506325 99.738612 
L 187.689837 99.492698 
L 188.200333 99.721491 
L 188.96987 100.686934 
L 189.496025 103.114336 
L 189.636733 103.563835 
L 190.378367 107.987335 
L 190.42946 110.093803 
L 190.661735 108.562546 
L 191.081261 102.567435 
L 191.885582 93.326691 
L 192.355551 93.349313 
L 192.620226 94.103367 
L 192.835597 97.599533 
L 193.235617 100.709577 
L 194.276115 102.942705 
L 194.430965 106.321067 
L 194.937777 109.2273 
L 195.211555 111.65753 
L 195.549971 110.513347 
L 195.819523 110.304097 
L 195.993283 112.037847 
L 197.0457 112.728309 
L 197.277813 114.088423 
L 197.56156 114.584368 
L 197.814207 114.233894 
L 198.73296 114.408984 
L 199.02348 117.934937 
L 199.292761 118.465123 
L 200.075843 123.396516 
L 200.297932 126.738194 
L 200.624591 129.943666 
L 200.913757 135.489731 
L 201.14381 135.790653 
L 201.304675 135.477228 
L 201.478867 136.008131 
L 202.124979 135.514547 
L 202.466267 134.846632 
L 203.301526 129.844494 
L 203.443969 130.762799 
L 203.692065 131.533205 
L 204.28302 131.007431 
L 204.535776 130.358868 
L 204.755644 130.350822 
L 205.272641 129.929251 
L 205.52025 129.271214 
L 205.606398 129.319808 
L 205.803943 129.335049 
L 206.006635 129.706166 
L 206.336599 129.921952 
L 207.727216 129.529534 
L 208.586478 129.499163 
L 209.630876 129.728401 
L 210.044713 132.702221 
L 210.599475 135.018889 
L 210.904787 142.1661 
L 212.759196 145.740275 
L 214.172298 145.63368 
L 214.420827 145.014481 
L 215.817838 144.902034 
L 216.529834 143.456248 
L 216.734531 145.815081 
L 218.542344 148.98246 
L 218.938734 148.888802 
L 219.763157 152.013955 
L 219.946777 151.392404 
L 220.130452 151.420946 
L 220.670206 153.156257 
L 221.381877 162.577433 
L 221.659123 164.785715 
L 221.86382 164.965479 
L 222.216811 167.954663 
L 222.414356 167.049738 
L 222.739498 166.763328 
L 223.660742 164.835502 
L 225.19922 164.647126 
L 225.444932 165.196918 
L 225.674715 165.292569 
L 225.891061 165.541696 
L 226.302785 164.522925 
L 226.53143 164.297864 
L 226.884746 165.878868 
L 227.163834 166.911255 
L 227.912348 168.328434 
L 228.355443 171.478287 
L 229.48068 187.368985 
L 229.652868 187.316221 
L 230.022005 186.880977 
L 230.578664 187.728954 
L 230.949697 193.85026 
L 231.121994 194.181753 
L 231.245202 194.030402 
L 231.316938 193.556513 
L 231.889092 192.212289 
L 232.681277 185.463863 
L 233.237936 183.809719 
L 233.402213 182.621231 
L 233.603226 182.273964 
L 234.426402 181.741727 
L 234.504694 184.726499 
L 234.871881 191.762195 
L 235.7144 206.274653 
L 236.034124 209.293061 
L 236.506693 209.427726 
L 236.705538 209.094243 
L 237.114445 207.379338 
L 237.442783 207.00359 
L 237.555805 206.368845 
L 237.817122 206.49709 
L 238.201484 207.326229 
L 238.523158 207.221562 
L 238.704665 207.337706 
L 241.071846 207.568169 
L 241.299841 206.784597 
L 241.619565 206.195534 
L 241.81711 206.076865 
L 242.305229 204.712468 
L 243.399637 204.072112 
L 243.542242 203.132042 
L 243.804154 203.16545 
L 243.999315 202.810258 
L 244.258735 201.385594 
L 245.059752 193.292539 
L 246.698465 191.501033 
L 247.107425 187.232914 
L 247.314181 187.840881 
L 247.791085 193.30737 
L 247.941438 193.251132 
L 248.509366 193.362771 
L 248.981719 194.128375 
L 249.354865 194.449319 
L 249.757324 195.071772 
L 250.006937 195.946853 
L 250.226155 196.124491 
L 250.676997 196.803031 
L 250.767371 196.294982 
L 250.965567 196.269448 
L 251.165983 196.763608 
L 251.429846 196.625222 
L 252.306066 190.597296 
L 252.849721 189.573257 
L 253.092128 188.202686 
L 253.514905 187.317789 
L 253.764843 187.46125 
L 255.540635 185.535001 
L 255.772477 184.68035 
L 255.996841 185.681347 
L 257.834454 184.741915 
L 258.027827 183.698055 
L 259.366701 184.022325 
L 260.988076 183.429005 
L 261.169854 181.111677 
L 261.503069 184.805255 
L 262.71142 185.481327 
L 262.891086 184.858713 
L 263.213085 184.216692 
L 263.459556 184.396606 
L 263.671567 185.150951 
L 264.037995 191.643123 
L 264.163154 191.817309 
L 265.00784 195.126856 
L 265.289962 195.368343 
L 265.633147 195.780781 
L 265.91283 195.890914 
L 266.353487 196.483386 
L 266.570375 197.012509 
L 267.033191 196.122164 
L 267.325337 195.8001 
L 267.489343 195.602924 
L 267.803324 194.794944 
L 268.077915 195.103213 
L 268.326119 194.581434 
L 268.462819 193.944876 
L 268.806003 195.004991 
L 268.996342 194.766705 
L 269.141656 194.793134 
L 269.295097 194.059462 
L 269.780779 193.509996 
L 270.258062 193.787051 
L 270.780369 193.651666 
L 270.934569 193.154135 
L 271.18635 192.821312 
L 271.3736 193.121451 
L 271.750539 196.351901 
L 271.861882 198.210836 
L 272.127641 199.658014 
L 272.278482 198.774053 
L 272.414152 196.249538 
L 272.534814 197.041211 
L 272.675468 196.832864 
L 272.914354 196.077812 
L 273.05127 196.544282 
L 273.710548 197.053443 
L 274.945393 197.093182 
L 275.756216 197.505986 
L 275.968932 197.960032 
L 276.712408 199.125746 
L 276.956874 199.301975 
L 277.353914 198.22238 
L 277.541815 198.319473 
L 278.491071 196.913551 
L 279.363932 186.405244 
L 279.8015 184.54288 
L 279.944539 182.570385 
L 280.102315 182.932783 
L 280.365852 182.991143 
L 280.538366 183.159197 
L 280.874831 181.314116 
L 281.36501 176.553551 
L 281.94074 176.851568 
L 282.781525 177.873611 
L 282.85299 181.163916 
L 283.171576 184.07476 
L 283.531232 189.373792 
L 285.210635 191.758608 
L 286.121531 191.685992 
L 286.320539 191.608896 
L 286.512666 192.061554 
L 286.733671 192.250282 
L 287.430659 192.688254 
L 288.1076 192.816269 
L 288.381216 192.800797 
L 288.628553 192.174284 
L 289.138887 189.938682 
L 289.528884 189.15744 
L 290.231074 188.936178 
L 290.577129 185.664156 
L 290.814389 186.154901 
L 290.954394 188.053935 
L 291.350459 189.551787 
L 291.607333 191.143916 
L 291.825358 191.638612 
L 292.298307 187.023199 
L 292.455812 185.605807 
L 293.304291 181.905 
L 293.792681 176.913407 
L 294.19709 176.618109 
L 294.597165 175.836057 
L 295.019399 172.25638 
L 297.023457 172.235 
L 297.37233 173.217507 
L 299.129917 176.376305 
L 299.348159 175.954236 
L 299.883633 175.844742 
L 300.038808 173.995479 
L 300.413147 173.318056 
L 301.602318 168.604893 
L 301.8146 167.821217 
L 302.164178 167.714081 
L 303.353295 167.332885 
L 303.537944 167.43752 
L 303.773633 167.430545 
L 303.942083 168.279258 
L 304.338148 168.937274 
L 304.602715 169.032372 
L 304.853358 168.680592 
L 305.166526 167.678569 
L 305.373878 168.13204 
L 305.726218 168.328297 
L 306.051686 169.653849 
L 306.446125 171.243643 
L 306.642207 171.552096 
L 306.79229 171.387771 
L 307.788467 166.361468 
L 308.051734 165.933792 
L 308.327733 164.904247 
L 308.672868 161.418709 
L 308.985548 160.820637 
L 309.293948 161.247269 
L 310.143565 161.615619 
L 310.331953 162.025243 
L 310.649185 162.079577 
L 310.915811 163.138082 
L 311.027695 162.938916 
L 311.379386 159.347577 
L 313.016691 157.219611 
L 313.291227 157.430483 
L 313.465041 155.814112 
L 313.93761 155.073144 
L 314.392516 155.116601 
L 314.769401 152.853363 
L 314.886433 150.182891 
L 316.020014 142.733394 
L 316.282955 142.571773 
L 317.093887 146.096737 
L 317.713504 149.652782 
L 318.337022 156.672163 
L 318.546325 156.087668 
L 318.791495 157.261099 
L 319.091334 155.579396 
L 319.43208 152.778168 
L 319.525706 149.988503 
L 319.72829 149.263945 
L 319.992423 149.368529 
L 320.234072 151.932328 
L 320.519824 153.039511 
L 320.796203 154.612111 
L 321.019321 152.270864 
L 321.345493 146.090228 
L 321.511017 144.999444 
L 322.081058 144.229683 
L 322.464824 142.308718 
L 322.678353 142.17311 
L 322.98594 141.794294 
L 323.483487 140.689866 
L 323.793349 140.457609 
L 324.099149 140.473302 
L 324.622323 141.399146 
L 324.74797 142.864897 
L 325.52623 146.503804 
L 326.335752 147.593023 
L 326.96458 143.3496 
L 327.143433 142.864135 
L 327.680857 139.660958 
L 328.065219 140.771936 
L 328.38516 141.010936 
L 328.747145 140.156262 
L 328.93445 140.093535 
L 329.130207 140.858906 
L 329.459195 142.739795 
L 330.301714 145.002488 
L 330.486202 145.061339 
L 330.839897 146.740193 
L 331.316205 150.413212 
L 331.849782 150.483683 
L 331.919947 150.857018 
L 332.144637 151.124108 
L 332.537939 152.396258 
L 332.72779 155.047344 
L 332.999238 155.844899 
L 333.199276 157.017393 
L 333.565704 157.592834 
L 333.754688 157.350468 
L 333.926822 159.322513 
L 334.152758 159.700589 
L 334.357509 160.560802 
L 335.40608 160.9131 
L 335.576588 160.893117 
L 335.72537 160.650531 
L 336.881057 146.490536 
L 337.027455 146.550455 
L 337.327457 147.19732 
L 337.520721 148.160342 
L 338.386918 149.686409 
L 338.578178 149.763176 
L 338.878342 147.139265 
L 339.204568 142.161802 
L 339.361856 142.609042 
L 339.591476 143.987658 
L 339.696967 143.117646 
L 339.977355 144.935352 
L 340.134102 145.319441 
L 340.34698 145.526151 
L 340.733726 148.266931 
L 340.984477 148.864448 
L 341.950909 148.373472 
L 342.293226 148.670303 
L 342.508543 149.403049 
L 342.618476 152.977608 
L 343.326734 160.747181 
L 343.892333 163.289244 
L 344.104561 162.532816 
L 344.49044 164.583816 
L 344.882008 169.248338 
L 346.178783 174.690122 
L 346.433815 174.999491 
L 346.63396 175.010831 
L 347.008787 173.091047 
L 347.176044 173.690373 
L 347.404798 173.813107 
L 347.669961 174.452928 
L 347.83115 175.258814 
L 348.087861 175.792049 
L 348.255444 179.010211 
L 348.498501 180.481972 
L 349.586191 194.920991 
L 349.946009 195.229553 
L 350.329883 195.391496 
L 351.909918 195.46504 
L 352.32733 198.011516 
L 352.598833 201.404522 
L 352.721716 204.691332 
L 353.342742 207.788167 
L 353.814336 209.032755 
L 354.283492 209.426564 
L 354.61286 210.618294 
L 356.651864 210.803596 
L 356.815221 207.964006 
L 357.380061 204.766069 
L 357.547373 205.590913 
L 358.544796 208.854746 
L 359.178717 217.119131 
L 359.481211 224.007095 
L 359.712403 226.807937 
L 360.340798 230.197452 
L 360.959711 231.719445 
L 361.155034 231.841258 
L 361.792639 231.595038 
L 362.66848 230.964606 
L 362.955045 229.850558 
L 363.588262 229.263923 
L 364.157382 228.546252 
L 364.717942 228.204796 
L 365.037503 227.749674 
L 365.50422 225.985415 
L 365.676463 225.928054 
L 366.508254 224.68297 
L 366.709538 223.640966 
L 367.504485 222.736691 
L 367.664645 222.230936 
L 367.867283 222.024958 
L 369.429926 221.946437 
L 377.347384 222.073666 
L 377.809063 224.780949 
L 378.235415 231.464645 
L 378.433719 231.797721 
L 379.038653 234.812073 
L 379.419006 234.596817 
L 379.668835 234.591609 
L 380.099739 234.462392 
L 380.301131 234.538185 
L 380.429866 234.096595 
L 381.300451 233.567177 
L 381.39749 235.591364 
L 381.747447 237.764306 
L 381.988228 240.156206 
L 382.584873 240.331164 
L 382.976062 239.952886 
L 383.786234 242.914111 
L 384.164745 242.698103 
L 384.422052 243.20518 
L 384.98272 236.286817 
L 385.272915 232.364664 
L 385.534394 231.39104 
L 385.698292 228.574114 
L 385.970553 226.336562 
L 386.396635 220.228151 
L 387.033373 220.067925 
L 387.155281 219.218606 
L 388.238528 219.60497 
L 388.672574 220.581347 
L 388.909021 220.431999 
L 389.305953 218.923912 
L 390.235921 217.553707 
L 390.528879 217.469419 
L 390.92164 217.693586 
L 391.308006 217.711389 
L 391.743624 219.058433 
L 392.221069 219.89284 
L 392.394883 219.752326 
L 392.929815 219.763645 
L 393.259779 220.054027 
L 393.47217 219.98989 
L 394.060091 220.246139 
L 394.58034 220.553172 
L 394.945142 220.940197 
L 395.226289 220.72199 
L 395.686559 220.645969 
L 396.198193 220.669436 
L 396.27914 220.62046 
L 396.749 219.182148 
L 396.903904 219.217422 
L 397.057454 218.911376 
L 397.289404 216.052208 
L 397.961144 213.126343 
L 398.66951 212.967821 
L 399.328463 213.12116 
L 400.282325 221.33411 
L 400.530258 220.455942 
L 400.650378 216.628152 
L 400.848682 216.406705 
L 401.173227 213.631946 
L 401.306188 211.112067 
L 401.605215 208.19987 
L 402.44042 205.280891 
L 402.655194 205.144679 
L 402.898685 203.195733 
L 403.294208 197.699208 
L 403.567824 197.302833 
L 403.999811 194.209338 
L 404.466637 194.375857 
L 404.599219 195.368279 
L 405.11405 195.563404 
L 405.56305 196.147426 
L 405.97667 196.115314 
L 406.891088 187.271613 
L 407.086628 186.697151 
L 407.343176 187.516216 
L 407.553075 187.055687 
L 408.298121 175.37428 
L 408.609772 170.30833 
L 408.775242 170.18822 
L 409.2671 170.653368 
L 409.414527 171.15482 
L 410.006349 171.297757 
L 410.17106 171.352745 
L 410.861709 170.757902 
L 410.990498 170.688316 
L 411.257124 170.171206 
L 412.38144 173.36585 
L 413.180452 173.595323 
L 413.443231 172.731646 
L 414.098716 180.119598 
L 414.469641 183.69015 
L 414.829893 184.970227 
L 415.130003 187.915159 
L 415.227692 190.191016 
L 415.465656 192.973837 
L 415.601868 196.465894 
L 415.936275 196.601145 
L 416.39985 196.17556 
L 417.136228 193.00629 
L 417.290157 191.248878 
L 419.67603 191.018553 
L 419.949537 191.289088 
L 420.202781 192.496242 
L 420.359148 192.22299 
L 421.2008 192.909697 
L 421.427386 192.577669 
L 421.735136 192.365479 
L 422.111696 190.42311 
L 422.628748 190.280401 
L 422.886759 189.985229 
L 423.522577 189.701051 
L 423.849669 188.471228 
L 424.250286 188.419354 
L 424.489171 188.183448 
L 425.017222 187.834099 
L 425.596366 186.995415 
L 425.908612 185.388721 
L 426.33334 184.682684 
L 427.079362 184.622141 
L 427.279724 184.720009 
L 427.435658 184.354366 
L 427.582164 183.607556 
L 427.907035 180.314748 
L 428.531637 179.36652 
L 428.799401 179.22436 
L 429.064293 179.409665 
L 429.300307 178.354505 
L 429.792382 177.085433 
L 430.395744 173.408134 
L 430.534069 173.275152 
L 431.227427 170.449146 
L 431.486685 167.96517 
L 431.753636 166.742504 
L 431.968681 166.637485 
L 432.835853 164.194849 
L 433.119384 161.510914 
L 433.58854 160.764113 
L 434.267269 158.501135 
L 434.45544 158.37387 
L 434.644425 158.412714 
L 434.829833 159.405271 
L 436.06457 162.652816 
L 436.350485 162.134058 
L 436.904109 162.296195 
L 437.473284 162.835014 
L 438.062668 170.266231 
L 438.765291 170.409867 
L 438.956768 172.328555 
L 439.096122 175.5284 
L 439.362531 177.844225 
L 439.986808 178.349824 
L 440.254301 180.394237 
L 440.686939 181.625724 
L 440.870613 181.662676 
L 441.277027 181.493074 
L 443.16362 181.436477 
L 443.695247 180.36546 
L 443.899673 180.652487 
L 444.248492 182.136664 
L 445.011635 183.543382 
L 445.169303 185.401008 
L 445.468546 186.517669 
L 445.606817 186.511041 
L 445.997139 186.915088 
L 446.789865 189.416471 
L 447.311469 196.273528 
L 447.777374 199.01965 
L 448.99434 198.665447 
L 449.471406 200.709521 
L 449.951506 200.218823 
L 450.939123 196.726046 
L 451.136776 193.566318 
L 451.76658 190.837437 
L 451.930315 190.398061 
L 452.914627 190.252987 
L 453.265342 190.763294 
L 453.343526 190.695538 
L 453.921911 190.906204 
L 455.547675 190.990329 
L 455.9944 190.395881 
L 457.296864 190.215642 
L 458.069598 192.006184 
L 458.66505 187.276932 
L 458.887735 185.00437 
L 459.09617 185.012517 
L 459.511307 184.678469 
L 462.893304 184.246293 
L 463.043548 183.187491 
L 463.635642 182.926012 
L 466.245771 182.441826 
L 467.665375 182.593236 
L 468.303577 186.187201 
L 468.544846 189.061283 
L 469.75531 189.417523 
L 470.613217 189.390422 
L 472.25025 187.516596 
L 472.725366 186.317068 
L 472.971349 186.71888 
L 473.127608 185.976694 
L 473.210993 183.897064 
L 473.664274 181.599452 
L 473.937726 181.413239 
L 474.382717 183.264345 
L 474.599009 182.953342 
L 474.754022 183.056323 
L 475.176528 182.824489 
L 475.673803 182.785362 
L 476.735432 183.89301 
L 477.267546 183.920185 
L 477.575242 184.183298 
L 477.980301 185.438876 
L 478.691376 186.271 
L 479.066636 186.018904 
L 479.28737 185.607206 
L 479.884773 185.224785 
L 480.248547 183.497458 
L 480.783749 183.202012 
L 480.974576 183.464461 
L 481.188917 184.237613 
L 481.38657 185.592783 
L 483.73262 186.560408 
L 484.225778 186.938951 
L 484.862896 187.783355 
L 485.443124 188.282601 
L 485.61244 189.152712 
L 486.47777 191.506292 
L 486.878603 195.21374 
L 487.477848 198.462034 
L 487.624354 200.300733 
L 488.142002 203.793033 
L 488.368209 206.324817 
L 488.645401 206.606645 
L 491.4994 204.799644 
L 491.807746 200.655819 
L 492.543148 201.18623 
L 492.702116 203.510522 
L 493.326502 204.104362 
L 493.608624 203.805717 
L 493.988814 202.825528 
L 494.20814 202.857173 
L 494.356705 202.69132 
L 494.54726 202.852725 
L 494.873269 198.695834 
L 495.163898 194.543666 
L 495.602549 194.285321 
L 495.777284 194.584118 
L 496.923056 190.20672 
L 497.588402 186.096964 
L 497.806861 185.42775 
L 498.304462 184.860911 
L 498.706541 186.099836 
L 499.050592 183.920732 
L 500.724523 182.146054 
L 500.828931 179.994855 
L 501.095124 178.472135 
L 501.237187 176.20842 
L 502.42392 174.267748 
L 502.586951 173.738843 
L 503.085907 173.723868 
L 503.259449 174.026621 
L 504.006284 173.988076 
L 504.224906 173.4918 
L 505.223304 174.456852 
L 505.401236 172.11262 
L 505.720635 171.301469 
L 506.18681 173.91576 
L 506.721959 176.783699 
L 507.053169 179.634728 
L 507.398683 177.624712 
L 507.595795 177.546589 
L 507.836577 174.929548 
L 508.166324 168.299992 
L 509.329054 168.592878 
L 509.514571 165.180294 
L 510.182572 162.957432 
L 510.410838 161.516862 
L 510.675026 158.808858 
L 511.080248 158.131373 
L 511.523126 156.587621 
L 511.597192 154.62659 
L 511.813808 153.593765 
L 512.322408 153.365282 
L 513.111342 153.18246 
L 515.074764 149.518096 
L 522.065288 148.365545 
L 523.267408 146.284813 
L 523.689535 143.235654 
L 523.99788 136.810973 
L 527.266313 133.958214 
L 527.865774 126.466975 
L 528.22142 126.939256 
L 528.598902 127.248476 
L 528.817144 127.28279 
L 528.996267 127.073952 
L 529.329049 120.879384 
L 529.857425 117.205967 
L 530.473737 115.299561 
L 531.438164 113.078108 
L 533.424179 109.477945 
L 533.702237 107.353942 
L 534.491009 104.774689 
L 534.778061 102.993098 
L 535.219476 102.793001 
L 536.491057 102.567626 
L 537.188153 102.594509 
L 537.951839 101.513848 
L 538.163687 101.982558 
L 538.495169 101.033893 
L 538.729611 100.697023 
L 539.046138 100.037211 
L 539.474062 100.292672 
L 540.115406 101.816899 
L 540.362364 101.967309 
L 540.475386 102.215044 
L 541.404541 99.517732 
L 541.983414 99.695847 
L 542.346483 100.002792 
L 542.555298 99.28593 
L 542.825175 97.161335 
L 542.982517 94.309695 
L 543.870169 88.860279 
L 544.299881 88.89703 
L 544.847925 89.163941 
L 545.093745 87.172727 
L 546.504193 86.73887 
L 546.955523 88.067003 
L 547.082145 90.768091 
L 547.325256 92.756772 
L 547.784659 93.178945 
L 548.447026 93.090774 
L 548.753475 92.43656 
L 548.753475 92.43656 
" clip-path="url(#pe6e4c04eb0)" style="fill: none; stroke: #008000; stroke-width: 1.5; stroke-linecap: square"/>
   </g>
   <g id="patch_3">
    <path d="M 39.58149 254.64351 
L 39.58149 3.00024 
" style="fill: none; stroke: #000000; stroke-width: 0.8; stroke-linejoin: miter; stroke-linecap: square"/>
   </g>
   <g id="patch_4">
    <path d="M 572.99976 254.64351 
L 572.99976 3.00024 
" style="fill: none; stroke: #000000; stroke-width: 0.8; stroke-linejoin: miter; stroke-linecap: square"/>
   </g>
   <g id="patch_5">
    <path d="M 39.58149 254.64351 
L 572.99976 254.64351 
" style="fill: none; stroke: #000000; stroke-width: 0.8; stroke-linejoin: miter; stroke-linecap: square"/>
   </g>
   <g id="patch_6">
    <path d="M 39.58149 3.00024 
L 572.99976 3.00024 
" style="fill: none; stroke: #000000; stroke-width: 0.8; stroke-linejoin: miter; stroke-linecap: square"/>
   </g>
   <g id="legend_1">
    <g id="patch_7">
     <path d="M 515.160697 40.35649 
L 565.99976 40.35649 
Q 567.99976 40.35649 567.99976 38.35649 
L 567.99976 10.00024 
Q 567.99976 8.00024 565.99976 8.00024 
L 515.160697 8.00024 
Q 513.160697 8.00024 513.160697 10.00024 
L 513.160697 38.35649 
Q 513.160697 40.35649 515.160697 40.35649 
z
" style="fill: #ffffff; opacity: 0.8; stroke: #cccccc; stroke-linejoin: miter"/>
    </g>
    <g id="line2d_13">
     <path d="M 517.160697 16.098678 
L 527.160697 16.098678 
L 537.160697 16.098678 
" style="fill: none; stroke: #ff0000; stroke-width: 1.5; stroke-linecap: square"/>
    </g>
    <g id="text_13">
     <!-- neg -->
     <g transform="translate(545.160697 19.598678) scale(0.1 -0.1)">
      <defs>
       <path id="DejaVuSans-67" d="M 2906 1791 
Q 2906 2416 2648 2759 
Q 2391 3103 1925 3103 
Q 1463 3103 1205 2759 
Q 947 2416 947 1791 
Q 947 1169 1205 825 
Q 1463 481 1925 481 
Q 2391 481 2648 825 
Q 2906 1169 2906 1791 
z
M 3481 434 
Q 3481 -459 3084 -895 
Q 2688 -1331 1869 -1331 
Q 1566 -1331 1297 -1286 
Q 1028 -1241 775 -1147 
L 775 -588 
Q 1028 -725 1275 -790 
Q 1522 -856 1778 -856 
Q 2344 -856 2625 -561 
Q 2906 -266 2906 331 
L 2906 616 
Q 2728 306 2450 153 
Q 2172 0 1784 0 
Q 1141 0 747 490 
Q 353 981 353 1791 
Q 353 2603 747 3093 
Q 1141 3584 1784 3584 
Q 2172 3584 2450 3431 
Q 2728 3278 2906 2969 
L 2906 3500 
L 3481 3500 
L 3481 434 
z
" transform="scale(0.015625)"/>
      </defs>
      <use xlink:href="#DejaVuSans-6e"/>
      <use xlink:href="#DejaVuSans-65" x="63.378906"/>
      <use xlink:href="#DejaVuSans-67" x="124.902344"/>
     </g>
    </g>
    <g id="line2d_14">
     <path d="M 517.160697 30.776803 
L 527.160697 30.776803 
L 537.160697 30.776803 
" style="fill: none; stroke: #008000; stroke-width: 1.5; stroke-linecap: square"/>
    </g>
    <g id="text_14">
     <!-- pos -->
     <g transform="translate(545.160697 34.276803) scale(0.1 -0.1)">
      <defs>
       <path id="DejaVuSans-70" d="M 1159 525 
L 1159 -1331 
L 581 -1331 
L 581 3500 
L 1159 3500 
L 1159 2969 
Q 1341 3281 1617 3432 
Q 1894 3584 2278 3584 
Q 2916 3584 3314 3078 
Q 3713 2572 3713 1747 
Q 3713 922 3314 415 
Q 2916 -91 2278 -91 
Q 1894 -91 1617 61 
Q 1341 213 1159 525 
z
M 3116 1747 
Q 3116 2381 2855 2742 
Q 2594 3103 2138 3103 
Q 1681 3103 1420 2742 
Q 1159 2381 1159 1747 
Q 1159 1113 1420 752 
Q 1681 391 2138 391 
Q 2594 391 2855 752 
Q 3116 1113 3116 1747 
z
" transform="scale(0.015625)"/>
       <path id="DejaVuSans-6f" d="M 1959 3097 
Q 1497 3097 1228 2736 
Q 959 2375 959 1747 
Q 959 1119 1226 758 
Q 1494 397 1959 397 
Q 2419 397 2687 759 
Q 2956 1122 2956 1747 
Q 2956 2369 2687 2733 
Q 2419 3097 1959 3097 
z
M 1959 3584 
Q 2709 3584 3137 3096 
Q 3566 2609 3566 1747 
Q 3566 888 3137 398 
Q 2709 -91 1959 -91 
Q 1206 -91 779 398 
Q 353 888 353 1747 
Q 353 2609 779 3096 
Q 1206 3584 1959 3584 
z
" transform="scale(0.015625)"/>
      </defs>
      <use xlink:href="#DejaVuSans-70"/>
      <use xlink:href="#DejaVuSans-6f" x="63.476562"/>
      <use xlink:href="#DejaVuSans-73" x="124.658203"/>
     </g>
    </g>
   </g>
  </g>
 </g>
 <defs>
  <clipPath id="pe6e4c04eb0">
   <rect x="39.58149" y="3.00024" width="533.41827" height="251.64327"/>
  </clipPath>
 </defs>
</svg>
