<?xml version="1.0" encoding="utf-8" standalone="no"?>
<!DOCTYPE svg PUBLIC "-//W3C//DTD SVG 1.1//EN"
  "http://www.w3.org/Graphics/SVG/1.1/DTD/svg11.dtd">
<svg xmlns:xlink="http://www.w3.org/1999/xlink" width="576pt" height="288pt" viewBox="0 0 576 288" xmlns="http://www.w3.org/2000/svg" version="1.1">
 <metadata>
  <rdf:RDF xmlns:dc="http://purl.org/dc/elements/1.1/" xmlns:cc="http://creativecommons.org/ns#" xmlns:rdf="http://www.w3.org/1999/02/22-rdf-syntax-ns#">
   <cc:Work>
    <dc:type rdf:resource="http://purl.org/dc/dcmitype/StillImage"/>
    <dc:date>2023-06-15T10:40:15.986031</dc:date>
    <dc:format>image/svg+xml</dc:format>
    <dc:creator>
     <cc:Agent>
      <dc:title>Matplotlib v3.7.1, https://matplotlib.org/</dc:title>
     </cc:Agent>
    </dc:creator>
   </cc:Work>
  </rdf:RDF>
 </metadata>
 <defs>
  <style type="text/css">*{stroke-linejoin: round; stroke-linecap: butt}</style>
 </defs>
 <g id="figure_1">
  <g id="patch_1">
   <path d="M 0 288 
L 576 288 
L 576 0 
L 0 0 
z
" style="fill: #ffffff"/>
  </g>
  <g id="axes_1">
   <g id="patch_2">
    <path d="M 39.58149 254.64351 
L 568.67859 254.64351 
L 568.67859 3.00024 
L 39.58149 3.00024 
z
" style="fill: #ffffff"/>
   </g>
   <g id="matplotlib.axis_1">
    <g id="xtick_1">
     <g id="line2d_1">
      <defs>
       <path id="m9885dce21b" d="M 0 0 
L 0 3.5 
" style="stroke: #000000; stroke-width: 0.8"/>
      </defs>
      <g>
       <use xlink:href="#m9885dce21b" x="63.335127" y="254.64351" style="stroke: #000000; stroke-width: 0.8"/>
      </g>
     </g>
     <g id="text_1">
      <!-- 0 -->
      <g transform="translate(60.153877 269.241947) scale(0.1 -0.1)">
       <defs>
        <path id="DejaVuSans-30" d="M 2034 4250 
Q 1547 4250 1301 3770 
Q 1056 3291 1056 2328 
Q 1056 1369 1301 889 
Q 1547 409 2034 409 
Q 2525 409 2770 889 
Q 3016 1369 3016 2328 
Q 3016 3291 2770 3770 
Q 2525 4250 2034 4250 
z
M 2034 4750 
Q 2819 4750 3233 4129 
Q 3647 3509 3647 2328 
Q 3647 1150 3233 529 
Q 2819 -91 2034 -91 
Q 1250 -91 836 529 
Q 422 1150 422 2328 
Q 422 3509 836 4129 
Q 1250 4750 2034 4750 
z
" transform="scale(0.015625)"/>
       </defs>
       <use xlink:href="#DejaVuSans-30"/>
      </g>
     </g>
    </g>
    <g id="xtick_2">
     <g id="line2d_2">
      <g>
       <use xlink:href="#m9885dce21b" x="162.078992" y="254.64351" style="stroke: #000000; stroke-width: 0.8"/>
      </g>
     </g>
     <g id="text_2">
      <!-- 2000 -->
      <g transform="translate(149.353992 269.241947) scale(0.1 -0.1)">
       <defs>
        <path id="DejaVuSans-32" d="M 1228 531 
L 3431 531 
L 3431 0 
L 469 0 
L 469 531 
Q 828 903 1448 1529 
Q 2069 2156 2228 2338 
Q 2531 2678 2651 2914 
Q 2772 3150 2772 3378 
Q 2772 3750 2511 3984 
Q 2250 4219 1831 4219 
Q 1534 4219 1204 4116 
Q 875 4013 500 3803 
L 500 4441 
Q 881 4594 1212 4672 
Q 1544 4750 1819 4750 
Q 2544 4750 2975 4387 
Q 3406 4025 3406 3419 
Q 3406 3131 3298 2873 
Q 3191 2616 2906 2266 
Q 2828 2175 2409 1742 
Q 1991 1309 1228 531 
z
" transform="scale(0.015625)"/>
       </defs>
       <use xlink:href="#DejaVuSans-32"/>
       <use xlink:href="#DejaVuSans-30" x="63.623047"/>
       <use xlink:href="#DejaVuSans-30" x="127.246094"/>
       <use xlink:href="#DejaVuSans-30" x="190.869141"/>
      </g>
     </g>
    </g>
    <g id="xtick_3">
     <g id="line2d_3">
      <g>
       <use xlink:href="#m9885dce21b" x="260.822857" y="254.64351" style="stroke: #000000; stroke-width: 0.8"/>
      </g>
     </g>
     <g id="text_3">
      <!-- 4000 -->
      <g transform="translate(248.097857 269.241947) scale(0.1 -0.1)">
       <defs>
        <path id="DejaVuSans-34" d="M 2419 4116 
L 825 1625 
L 2419 1625 
L 2419 4116 
z
M 2253 4666 
L 3047 4666 
L 3047 1625 
L 3713 1625 
L 3713 1100 
L 3047 1100 
L 3047 0 
L 2419 0 
L 2419 1100 
L 313 1100 
L 313 1709 
L 2253 4666 
z
" transform="scale(0.015625)"/>
       </defs>
       <use xlink:href="#DejaVuSans-34"/>
       <use xlink:href="#DejaVuSans-30" x="63.623047"/>
       <use xlink:href="#DejaVuSans-30" x="127.246094"/>
       <use xlink:href="#DejaVuSans-30" x="190.869141"/>
      </g>
     </g>
    </g>
    <g id="xtick_4">
     <g id="line2d_4">
      <g>
       <use xlink:href="#m9885dce21b" x="359.566722" y="254.64351" style="stroke: #000000; stroke-width: 0.8"/>
      </g>
     </g>
     <g id="text_4">
      <!-- 6000 -->
      <g transform="translate(346.841722 269.241947) scale(0.1 -0.1)">
       <defs>
        <path id="DejaVuSans-36" d="M 2113 2584 
Q 1688 2584 1439 2293 
Q 1191 2003 1191 1497 
Q 1191 994 1439 701 
Q 1688 409 2113 409 
Q 2538 409 2786 701 
Q 3034 994 3034 1497 
Q 3034 2003 2786 2293 
Q 2538 2584 2113 2584 
z
M 3366 4563 
L 3366 3988 
Q 3128 4100 2886 4159 
Q 2644 4219 2406 4219 
Q 1781 4219 1451 3797 
Q 1122 3375 1075 2522 
Q 1259 2794 1537 2939 
Q 1816 3084 2150 3084 
Q 2853 3084 3261 2657 
Q 3669 2231 3669 1497 
Q 3669 778 3244 343 
Q 2819 -91 2113 -91 
Q 1303 -91 875 529 
Q 447 1150 447 2328 
Q 447 3434 972 4092 
Q 1497 4750 2381 4750 
Q 2619 4750 2861 4703 
Q 3103 4656 3366 4563 
z
" transform="scale(0.015625)"/>
       </defs>
       <use xlink:href="#DejaVuSans-36"/>
       <use xlink:href="#DejaVuSans-30" x="63.623047"/>
       <use xlink:href="#DejaVuSans-30" x="127.246094"/>
       <use xlink:href="#DejaVuSans-30" x="190.869141"/>
      </g>
     </g>
    </g>
    <g id="xtick_5">
     <g id="line2d_5">
      <g>
       <use xlink:href="#m9885dce21b" x="458.310587" y="254.64351" style="stroke: #000000; stroke-width: 0.8"/>
      </g>
     </g>
     <g id="text_5">
      <!-- 8000 -->
      <g transform="translate(445.585587 269.241947) scale(0.1 -0.1)">
       <defs>
        <path id="DejaVuSans-38" d="M 2034 2216 
Q 1584 2216 1326 1975 
Q 1069 1734 1069 1313 
Q 1069 891 1326 650 
Q 1584 409 2034 409 
Q 2484 409 2743 651 
Q 3003 894 3003 1313 
Q 3003 1734 2745 1975 
Q 2488 2216 2034 2216 
z
M 1403 2484 
Q 997 2584 770 2862 
Q 544 3141 544 3541 
Q 544 4100 942 4425 
Q 1341 4750 2034 4750 
Q 2731 4750 3128 4425 
Q 3525 4100 3525 3541 
Q 3525 3141 3298 2862 
Q 3072 2584 2669 2484 
Q 3125 2378 3379 2068 
Q 3634 1759 3634 1313 
Q 3634 634 3220 271 
Q 2806 -91 2034 -91 
Q 1263 -91 848 271 
Q 434 634 434 1313 
Q 434 1759 690 2068 
Q 947 2378 1403 2484 
z
M 1172 3481 
Q 1172 3119 1398 2916 
Q 1625 2713 2034 2713 
Q 2441 2713 2670 2916 
Q 2900 3119 2900 3481 
Q 2900 3844 2670 4047 
Q 2441 4250 2034 4250 
Q 1625 4250 1398 4047 
Q 1172 3844 1172 3481 
z
" transform="scale(0.015625)"/>
       </defs>
       <use xlink:href="#DejaVuSans-38"/>
       <use xlink:href="#DejaVuSans-30" x="63.623047"/>
       <use xlink:href="#DejaVuSans-30" x="127.246094"/>
       <use xlink:href="#DejaVuSans-30" x="190.869141"/>
      </g>
     </g>
    </g>
    <g id="xtick_6">
     <g id="line2d_6">
      <g>
       <use xlink:href="#m9885dce21b" x="557.054453" y="254.64351" style="stroke: #000000; stroke-width: 0.8"/>
      </g>
     </g>
     <g id="text_6">
      <!-- 10000 -->
      <g transform="translate(541.148203 269.241947) scale(0.1 -0.1)">
       <defs>
        <path id="DejaVuSans-31" d="M 794 531 
L 1825 531 
L 1825 4091 
L 703 3866 
L 703 4441 
L 1819 4666 
L 2450 4666 
L 2450 531 
L 3481 531 
L 3481 0 
L 794 0 
L 794 531 
z
" transform="scale(0.015625)"/>
       </defs>
       <use xlink:href="#DejaVuSans-31"/>
       <use xlink:href="#DejaVuSans-30" x="63.623047"/>
       <use xlink:href="#DejaVuSans-30" x="127.246094"/>
       <use xlink:href="#DejaVuSans-30" x="190.869141"/>
       <use xlink:href="#DejaVuSans-30" x="254.492188"/>
      </g>
     </g>
    </g>
    <g id="text_7">
     <!-- time [s] -->
     <g transform="translate(284.738634 282.920073) scale(0.1 -0.1)">
      <defs>
       <path id="DejaVuSans-74" d="M 1172 4494 
L 1172 3500 
L 2356 3500 
L 2356 3053 
L 1172 3053 
L 1172 1153 
Q 1172 725 1289 603 
Q 1406 481 1766 481 
L 2356 481 
L 2356 0 
L 1766 0 
Q 1100 0 847 248 
Q 594 497 594 1153 
L 594 3053 
L 172 3053 
L 172 3500 
L 594 3500 
L 594 4494 
L 1172 4494 
z
" transform="scale(0.015625)"/>
       <path id="DejaVuSans-69" d="M 603 3500 
L 1178 3500 
L 1178 0 
L 603 0 
L 603 3500 
z
M 603 4863 
L 1178 4863 
L 1178 4134 
L 603 4134 
L 603 4863 
z
" transform="scale(0.015625)"/>
       <path id="DejaVuSans-6d" d="M 3328 2828 
Q 3544 3216 3844 3400 
Q 4144 3584 4550 3584 
Q 5097 3584 5394 3201 
Q 5691 2819 5691 2113 
L 5691 0 
L 5113 0 
L 5113 2094 
Q 5113 2597 4934 2840 
Q 4756 3084 4391 3084 
Q 3944 3084 3684 2787 
Q 3425 2491 3425 1978 
L 3425 0 
L 2847 0 
L 2847 2094 
Q 2847 2600 2669 2842 
Q 2491 3084 2119 3084 
Q 1678 3084 1418 2786 
Q 1159 2488 1159 1978 
L 1159 0 
L 581 0 
L 581 3500 
L 1159 3500 
L 1159 2956 
Q 1356 3278 1631 3431 
Q 1906 3584 2284 3584 
Q 2666 3584 2933 3390 
Q 3200 3197 3328 2828 
z
" transform="scale(0.015625)"/>
       <path id="DejaVuSans-65" d="M 3597 1894 
L 3597 1613 
L 953 1613 
Q 991 1019 1311 708 
Q 1631 397 2203 397 
Q 2534 397 2845 478 
Q 3156 559 3463 722 
L 3463 178 
Q 3153 47 2828 -22 
Q 2503 -91 2169 -91 
Q 1331 -91 842 396 
Q 353 884 353 1716 
Q 353 2575 817 3079 
Q 1281 3584 2069 3584 
Q 2775 3584 3186 3129 
Q 3597 2675 3597 1894 
z
M 3022 2063 
Q 3016 2534 2758 2815 
Q 2500 3097 2075 3097 
Q 1594 3097 1305 2825 
Q 1016 2553 972 2059 
L 3022 2063 
z
" transform="scale(0.015625)"/>
       <path id="DejaVuSans-20" transform="scale(0.015625)"/>
       <path id="DejaVuSans-5b" d="M 550 4863 
L 1875 4863 
L 1875 4416 
L 1125 4416 
L 1125 -397 
L 1875 -397 
L 1875 -844 
L 550 -844 
L 550 4863 
z
" transform="scale(0.015625)"/>
       <path id="DejaVuSans-73" d="M 2834 3397 
L 2834 2853 
Q 2591 2978 2328 3040 
Q 2066 3103 1784 3103 
Q 1356 3103 1142 2972 
Q 928 2841 928 2578 
Q 928 2378 1081 2264 
Q 1234 2150 1697 2047 
L 1894 2003 
Q 2506 1872 2764 1633 
Q 3022 1394 3022 966 
Q 3022 478 2636 193 
Q 2250 -91 1575 -91 
Q 1294 -91 989 -36 
Q 684 19 347 128 
L 347 722 
Q 666 556 975 473 
Q 1284 391 1588 391 
Q 1994 391 2212 530 
Q 2431 669 2431 922 
Q 2431 1156 2273 1281 
Q 2116 1406 1581 1522 
L 1381 1569 
Q 847 1681 609 1914 
Q 372 2147 372 2553 
Q 372 3047 722 3315 
Q 1072 3584 1716 3584 
Q 2034 3584 2315 3537 
Q 2597 3491 2834 3397 
z
" transform="scale(0.015625)"/>
       <path id="DejaVuSans-5d" d="M 1947 4863 
L 1947 -844 
L 622 -844 
L 622 -397 
L 1369 -397 
L 1369 4416 
L 622 4416 
L 622 4863 
L 1947 4863 
z
" transform="scale(0.015625)"/>
      </defs>
      <use xlink:href="#DejaVuSans-74"/>
      <use xlink:href="#DejaVuSans-69" x="39.208984"/>
      <use xlink:href="#DejaVuSans-6d" x="66.992188"/>
      <use xlink:href="#DejaVuSans-65" x="164.404297"/>
      <use xlink:href="#DejaVuSans-20" x="225.927734"/>
      <use xlink:href="#DejaVuSans-5b" x="257.714844"/>
      <use xlink:href="#DejaVuSans-73" x="296.728516"/>
      <use xlink:href="#DejaVuSans-5d" x="348.828125"/>
     </g>
    </g>
   </g>
   <g id="matplotlib.axis_2">
    <g id="ytick_1">
     <g id="line2d_7">
      <defs>
       <path id="mffb61188c3" d="M 0 0 
L -3.5 0 
" style="stroke: #000000; stroke-width: 0.8"/>
      </defs>
      <g>
       <use xlink:href="#mffb61188c3" x="39.58149" y="243.752018" style="stroke: #000000; stroke-width: 0.8"/>
      </g>
     </g>
     <g id="text_8">
      <!-- 0.0 -->
      <g transform="translate(16.678365 247.551236) scale(0.1 -0.1)">
       <defs>
        <path id="DejaVuSans-2e" d="M 684 794 
L 1344 794 
L 1344 0 
L 684 0 
L 684 794 
z
" transform="scale(0.015625)"/>
       </defs>
       <use xlink:href="#DejaVuSans-30"/>
       <use xlink:href="#DejaVuSans-2e" x="63.623047"/>
       <use xlink:href="#DejaVuSans-30" x="95.410156"/>
      </g>
     </g>
    </g>
    <g id="ytick_2">
     <g id="line2d_8">
      <g>
       <use xlink:href="#mffb61188c3" x="39.58149" y="196.973792" style="stroke: #000000; stroke-width: 0.8"/>
      </g>
     </g>
     <g id="text_9">
      <!-- 0.2 -->
      <g transform="translate(16.678365 200.773011) scale(0.1 -0.1)">
       <use xlink:href="#DejaVuSans-30"/>
       <use xlink:href="#DejaVuSans-2e" x="63.623047"/>
       <use xlink:href="#DejaVuSans-32" x="95.410156"/>
      </g>
     </g>
    </g>
    <g id="ytick_3">
     <g id="line2d_9">
      <g>
       <use xlink:href="#mffb61188c3" x="39.58149" y="150.195567" style="stroke: #000000; stroke-width: 0.8"/>
      </g>
     </g>
     <g id="text_10">
      <!-- 0.4 -->
      <g transform="translate(16.678365 153.994785) scale(0.1 -0.1)">
       <use xlink:href="#DejaVuSans-30"/>
       <use xlink:href="#DejaVuSans-2e" x="63.623047"/>
       <use xlink:href="#DejaVuSans-34" x="95.410156"/>
      </g>
     </g>
    </g>
    <g id="ytick_4">
     <g id="line2d_10">
      <g>
       <use xlink:href="#mffb61188c3" x="39.58149" y="103.417341" style="stroke: #000000; stroke-width: 0.8"/>
      </g>
     </g>
     <g id="text_11">
      <!-- 0.6 -->
      <g transform="translate(16.678365 107.21656) scale(0.1 -0.1)">
       <use xlink:href="#DejaVuSans-30"/>
       <use xlink:href="#DejaVuSans-2e" x="63.623047"/>
       <use xlink:href="#DejaVuSans-36" x="95.410156"/>
      </g>
     </g>
    </g>
    <g id="ytick_5">
     <g id="line2d_11">
      <g>
       <use xlink:href="#mffb61188c3" x="39.58149" y="56.639116" style="stroke: #000000; stroke-width: 0.8"/>
      </g>
     </g>
     <g id="text_12">
      <!-- 0.8 -->
      <g transform="translate(16.678365 60.438335) scale(0.1 -0.1)">
       <use xlink:href="#DejaVuSans-30"/>
       <use xlink:href="#DejaVuSans-2e" x="63.623047"/>
       <use xlink:href="#DejaVuSans-38" x="95.410156"/>
      </g>
     </g>
    </g>
    <g id="ytick_6">
     <g id="line2d_12">
      <g>
       <use xlink:href="#mffb61188c3" x="39.58149" y="9.860891" style="stroke: #000000; stroke-width: 0.8"/>
      </g>
     </g>
     <g id="text_13">
      <!-- 1.0 -->
      <g transform="translate(16.678365 13.660109) scale(0.1 -0.1)">
       <use xlink:href="#DejaVuSans-31"/>
       <use xlink:href="#DejaVuSans-2e" x="63.623047"/>
       <use xlink:href="#DejaVuSans-30" x="95.410156"/>
      </g>
     </g>
    </g>
    <g id="text_14">
     <!-- sentiment -->
     <g transform="translate(10.598677 154.096875) rotate(-90) scale(0.1 -0.1)">
      <defs>
       <path id="DejaVuSans-6e" d="M 3513 2113 
L 3513 0 
L 2938 0 
L 2938 2094 
Q 2938 2591 2744 2837 
Q 2550 3084 2163 3084 
Q 1697 3084 1428 2787 
Q 1159 2491 1159 1978 
L 1159 0 
L 581 0 
L 581 3500 
L 1159 3500 
L 1159 2956 
Q 1366 3272 1645 3428 
Q 1925 3584 2291 3584 
Q 2894 3584 3203 3211 
Q 3513 2838 3513 2113 
z
" transform="scale(0.015625)"/>
      </defs>
      <use xlink:href="#DejaVuSans-73"/>
      <use xlink:href="#DejaVuSans-65" x="52.099609"/>
      <use xlink:href="#DejaVuSans-6e" x="113.623047"/>
      <use xlink:href="#DejaVuSans-74" x="177.001953"/>
      <use xlink:href="#DejaVuSans-69" x="216.210938"/>
      <use xlink:href="#DejaVuSans-6d" x="243.994141"/>
      <use xlink:href="#DejaVuSans-65" x="341.40625"/>
      <use xlink:href="#DejaVuSans-6e" x="402.929688"/>
      <use xlink:href="#DejaVuSans-74" x="466.308594"/>
     </g>
    </g>
   </g>
   <g id="line2d_13">
    <path d="M 63.631358 239.523787 
L 64.601862 217.735832 
L 64.771751 185.793122 
L 65.010119 184.978919 
L 65.381741 180.410893 
L 65.49347 218.803416 
L 65.771385 197.898222 
L 65.929276 148.958218 
L 66.261845 119.727787 
L 66.582368 124.992047 
L 66.786225 157.529875 
L 67.25274 78.547921 
L 67.382095 83.903076 
L 67.517719 47.705833 
L 67.673685 59.429613 
L 69.088487 88.517128 
L 69.219224 65.539478 
L 69.422883 98.519111 
L 69.787051 88.793062 
L 69.922725 156.774873 
L 70.2116 227.201441 
L 70.363814 222.370507 
L 70.705862 231.025991 
L 70.907152 228.229841 
L 71.307805 202.649942 
L 71.509637 85.71475 
L 71.769877 44.306572 
L 72.032684 69.11678 
L 72.185934 154.01305 
L 72.371128 124.76651 
L 72.51169 212.986278 
L 72.622431 187.009882 
L 72.80728 205.95568 
L 72.999682 188.275459 
L 73.184827 148.038126 
L 73.350322 155.92008 
L 73.501449 133.886229 
L 73.811258 237.716125 
L 74.024347 234.776108 
L 74.227859 221.389394 
L 74.363039 133.868929 
L 74.715851 133.028259 
L 74.92425 106.082687 
L 75.077155 173.736731 
L 75.394172 190.228245 
L 75.641575 160.378774 
L 75.762684 193.942363 
L 75.927586 47.237109 
L 76.482082 177.324398 
L 76.630889 80.674843 
L 77.09069 133.525959 
L 77.237621 97.330738 
L 77.418618 146.96766 
L 77.7895 46.969791 
L 77.898267 48.008019 
L 78.436717 47.957608 
L 78.820189 149.622235 
L 78.978475 152.396159 
L 79.125801 240.845741 
L 79.264388 242.090951 
L 79.741074 235.695491 
L 79.90494 227.60757 
L 80.033504 200.825891 
L 80.286832 226.394318 
L 81.031854 216.070578 
L 81.272937 225.938049 
L 81.72395 139.313745 
L 82.198809 158.496502 
L 82.502249 242.497801 
L 83.105278 242.230546 
L 83.530716 212.88591 
L 84.12624 81.403218 
L 84.295141 83.302386 
L 84.631413 69.1021 
L 85.375449 241.127755 
L 85.82182 239.42268 
L 86.131876 242.541297 
L 86.237334 241.94824 
L 86.612265 241.761432 
L 86.937527 88.51519 
L 87.196532 133.376686 
L 87.409622 126.767837 
L 87.550381 178.252903 
L 87.760261 168.840339 
L 87.935136 100.329544 
L 88.244847 103.472208 
L 88.324878 147.106352 
L 88.516985 126.548824 
L 89.012432 216.743083 
L 89.420837 197.089805 
L 89.730695 155.097025 
L 89.939637 158.468634 
L 90.137766 212.346941 
L 90.551553 202.232513 
L 90.722577 184.477405 
L 90.923817 236.209886 
L 91.089262 238.88357 
L 91.355426 239.506854 
L 91.593251 223.261302 
L 91.900048 49.799325 
L 92.113039 93.612088 
L 92.510187 56.256837 
L 92.60113 57.210318 
L 93.050118 105.043832 
L 93.29204 98.615471 
L 93.522114 215.611345 
L 93.707258 203.028583 
L 93.819431 132.098931 
L 94.059182 207.333754 
L 94.538385 240.36754 
L 94.773741 240.875407 
L 94.956566 225.115119 
L 95.054865 232.805898 
L 95.266621 227.547389 
L 95.512197 240.697716 
L 95.731804 234.93153 
L 96.153144 119.254685 
L 96.390228 82.989453 
L 96.873382 51.021477 
L 97.092099 40.89468 
L 97.27517 44.079571 
L 97.351648 59.668311 
L 97.544889 74.814549 
L 97.73897 40.790388 
L 97.971068 132.89989 
L 98.147671 76.956974 
L 98.533217 154.906577 
L 98.777657 69.874027 
L 99.149773 218.228574 
L 99.270192 241.139892 
L 99.425516 239.909079 
L 99.567806 242.729276 
L 99.756357 242.697065 
L 99.945995 238.34747 
L 100.166341 216.87552 
L 100.521178 151.661203 
L 100.763495 169.844272 
L 100.923114 161.35539 
L 101.154224 236.046378 
L 102.530023 66.762173 
L 102.669103 204.228505 
L 104.945248 225.274515 
L 105.394928 206.744751 
L 105.878723 136.797298 
L 105.994155 170.675567 
L 106.667786 185.831944 
L 106.89386 148.902245 
L 107.222973 55.631876 
L 107.467019 41.413982 
L 107.730911 98.889439 
L 108.068813 232.12138 
L 108.349739 231.235684 
L 108.559521 221.140964 
L 108.719338 201.585672 
L 108.952126 187.671839 
L 109.074865 147.323845 
L 109.389759 182.313226 
L 109.658145 161.335071 
L 109.824874 234.009959 
L 110.004143 242.432338 
L 110.19462 186.877153 
L 110.325999 196.991364 
L 110.52951 83.933244 
L 110.77321 32.894416 
L 110.874521 35.619909 
L 111.026192 31.348178 
L 111.150609 34.179176 
L 111.333532 40.919189 
L 111.49009 61.7388 
L 111.690096 57.48377 
L 111.882647 146.701247 
L 112.126791 45.050032 
L 112.348915 37.47296 
L 112.614981 155.457065 
L 112.752531 140.466457 
L 112.869098 150.859296 
L 113.113094 220.845462 
L 113.280514 225.655169 
L 113.437369 208.960753 
L 113.629228 239.735206 
L 113.865572 242.703987 
L 114.075797 238.77043 
L 114.809563 121.026753 
L 115.272474 173.20215 
L 115.644146 232.985004 
L 118.38414 205.708952 
L 118.691332 223.005699 
L 119.780527 219.894909 
L 120.025263 195.074282 
L 122.839068 171.227756 
L 123.206297 180.027969 
L 123.366805 223.81044 
L 123.499566 162.031932 
L 124.967443 179.310203 
L 125.100846 229.245431 
L 125.40478 238.078253 
L 126.563983 47.25625 
L 126.706076 95.29867 
L 127.36055 202.029212 
L 127.925266 60.16033 
L 128.076789 76.297746 
L 128.209007 184.198885 
L 128.446535 237.991102 
L 131.675904 51.553591 
L 131.779437 107.334854 
L 132.04249 96.103247 
L 132.271379 215.36027 
L 132.467385 242.393091 
L 133.848121 188.397746 
L 134.071479 232.182681 
L 135.118856 174.000878 
L 135.332439 80.416154 
L 135.560142 52.341703 
L 135.738375 53.605887 
L 135.889403 52.6694 
L 136.195065 79.948837 
L 136.430174 37.733991 
L 136.706805 62.685477 
L 137.054137 165.869045 
L 137.431338 84.129227 
L 137.832139 48.262288 
L 137.916812 98.910379 
L 138.107092 143.546177 
L 138.267156 214.819221 
L 138.541417 202.160742 
L 138.725525 209.502374 
L 138.919951 134.88315 
L 139.149333 98.969307 
L 139.36894 184.540196 
L 139.511723 151.99456 
L 139.664529 243.129995 
L 140.014527 214.515456 
L 140.253339 228.259199 
L 140.379632 225.336298 
L 140.506222 188.543632 
L 140.639823 217.061185 
L 140.816031 230.021 
L 141.127469 147.34551 
L 141.335029 124.209915 
L 141.544563 151.929686 
L 141.879651 105.146661 
L 142.074077 238.597433 
L 142.557577 215.175914 
L 142.700113 230.389045 
L 142.868817 182.8614 
L 143.146337 227.381658 
L 143.636452 240.203489 
L 144.019825 63.676933 
L 144.607944 50.879265 
L 144.828982 53.479149 
L 144.960064 61.139044 
L 145.53974 167.352807 
L 145.681289 222.670938 
L 145.947799 153.746086 
L 146.109492 142.49398 
L 146.243241 141.770086 
L 146.463341 214.266958 
L 146.94526 238.614259 
L 147.13786 152.480286 
L 147.379931 138.816421 
L 147.609806 60.115189 
L 147.839336 61.808477 
L 147.941833 69.169491 
L 148.173338 122.079536 
L 148.525211 219.043992 
L 148.672488 228.342238 
L 148.87353 184.10884 
L 149.150803 75.037536 
L 149.417461 124.129476 
L 149.865018 239.747691 
L 150.09514 232.423772 
L 150.289666 212.988802 
L 150.490955 177.850496 
L 150.63912 71.643628 
L 150.854875 45.756743 
L 150.974652 57.133503 
L 151.316404 237.947548 
L 151.424825 240.206671 
L 151.716811 238.737991 
L 152.056391 150.007787 
L 152.23255 148.323178 
L 152.337416 198.240714 
L 152.591237 218.465894 
L 152.793612 224.247147 
L 153.297799 226.020597 
L 153.504321 234.226162 
L 153.702698 204.275567 
L 154.004459 232.081155 
L 154.282127 151.607802 
L 154.467815 149.782912 
L 154.748445 78.324112 
L 154.958078 199.035783 
L 155.303879 216.863116 
L 155.785996 214.149961 
L 156.053987 236.492265 
L 156.211977 237.982013 
L 156.399343 240.906185 
L 156.60083 237.874448 
L 156.761536 240.772189 
L 156.872573 236.886604 
L 157.232989 242.485475 
L 157.413048 242.460804 
L 157.897535 241.17762 
L 158.048267 239.250554 
L 158.19974 233.085194 
L 158.283475 223.668233 
L 158.488171 228.33697 
L 158.603504 213.055736 
L 158.791759 95.864354 
L 159.024597 115.76004 
L 159.11164 113.941785 
L 159.398046 161.862723 
L 159.518958 209.640923 
L 159.665988 214.512431 
L 159.901443 166.119028 
L 160.036031 220.084416 
L 160.198316 222.30545 
L 160.775869 186.296322 
L 160.945758 227.721794 
L 161.109228 62.080326 
L 161.816827 144.099313 
L 162.010464 231.026781 
L 162.261964 229.658302 
L 162.345452 237.364135 
L 162.785949 171.858642 
L 162.980869 106.50351 
L 163.14819 138.09464 
L 163.290283 76.592542 
L 163.40448 206.629208 
L 163.756749 238.789724 
L 164.039107 232.200817 
L 164.437045 189.119179 
L 164.641494 171.270123 
L 164.909732 218.18928 
L 165.149482 240.891681 
L 165.677712 181.66138 
L 165.827309 233.388981 
L 166.175776 235.887052 
L 166.307451 238.549336 
L 166.543301 237.049464 
L 167.328216 107.408797 
L 167.92927 105.816317 
L 168.469547 203.193362 
L 168.693843 174.831539 
L 168.795105 189.931162 
L 169.015847 152.847931 
L 169.225283 202.778676 
L 169.56669 62.254603 
L 169.743639 52.689378 
L 169.944829 58.688788 
L 170.150809 127.073954 
L 170.600143 210.995539 
L 170.959324 218.822625 
L 171.198087 137.670485 
L 171.8534 79.30567 
L 172.071723 82.330796 
L 172.429373 218.902083 
L 172.726642 238.321567 
L 173.001643 238.629285 
L 173.346358 222.312806 
L 173.631037 190.447714 
L 173.922627 178.466577 
L 174.571325 222.209144 
L 174.814334 223.593576 
L 175.024954 223.868652 
L 175.186499 229.450201 
L 175.332393 219.624185 
L 175.62665 119.105545 
L 175.944704 210.946463 
L 176.331681 121.004824 
L 176.498904 94.282441 
L 176.741765 145.244051 
L 176.964086 240.024533 
L 177.665316 237.524372 
L 177.961301 233.416104 
L 178.443368 240.23118 
L 178.55722 240.778324 
L 178.713729 239.704696 
L 178.948789 240.412738 
L 178.995346 239.682295 
L 179.338679 172.979519 
L 179.589291 98.798976 
L 179.863601 80.949216 
L 180.114411 210.885245 
L 180.322217 235.021662 
L 180.750469 242.994863 
L 181.187905 242.234883 
L 181.552418 240.235311 
L 182.500556 241.809634 
L 182.641661 239.492253 
L 183.103486 238.479283 
L 183.352963 206.260078 
L 183.66134 227.250735 
L 183.906965 228.564928 
L 184.065301 171.428625 
L 184.820543 240.126904 
L 185.024301 239.667736 
L 185.235811 236.762342 
L 185.494371 237.810297 
L 185.724593 236.900057 
L 186.561793 242.037121 
L 186.826525 198.857321 
L 187.071903 240.2212 
L 187.446538 239.710541 
L 187.785476 241.990116 
L 187.987852 240.33997 
L 188.285515 242.010636 
L 188.484385 237.055018 
L 188.549013 219.309612 
L 188.905231 211.144104 
L 189.063962 230.481477 
L 189.963716 217.176369 
L 190.329809 236.565551 
L 190.724834 236.838623 
L 190.854633 230.423834 
L 191.080707 77.185523 
L 191.849527 216.651405 
L 192.049878 186.959224 
L 192.277581 186.649124 
L 192.520985 188.269182 
L 192.746615 170.312355 
L 192.825116 202.562504 
L 193.189826 239.529569 
L 193.490502 240.621371 
L 194.483667 240.179298 
L 194.757682 240.48499 
L 195.540671 197.411915 
L 196.492364 239.321697 
L 196.869467 238.542695 
L 197.374986 239.394948 
L 197.526114 241.530752 
L 197.653197 240.269205 
L 199.343001 124.206388 
L 200.63067 236.566523 
L 200.857139 241.049897 
L 201.669801 237.151384 
L 202.130145 236.72326 
L 202.778942 240.087889 
L 202.965469 241.884914 
L 204.612813 232.261487 
L 204.974018 225.528117 
L 205.112852 231.740257 
L 205.43609 238.23599 
L 205.637577 233.797415 
L 205.725261 240.768612 
L 205.892583 233.869184 
L 206.059954 241.313042 
L 206.740447 240.980093 
L 206.949735 242.246692 
L 207.200297 233.019204 
L 207.346389 241.126224 
L 207.452933 241.075889 
L 207.639461 237.372596 
L 207.961119 47.725546 
L 208.141129 139.608291 
L 208.43741 140.805857 
L 208.724162 156.389746 
L 208.930734 63.690512 
L 209.276881 127.378112 
L 210.678797 126.885193 
L 210.902698 78.832052 
L 211.112085 103.30854 
L 211.309227 67.511627 
L 211.684404 110.808588 
L 211.892754 226.963033 
L 212.214708 241.30144 
L 212.469023 242.424174 
L 212.946598 238.788531 
L 213.151096 238.449993 
L 213.398203 237.264475 
L 213.840625 242.608436 
L 213.992592 241.912452 
L 214.358388 205.106039 
L 214.456243 198.024765 
L 214.580216 80.003166 
L 214.73712 70.803947 
L 214.950999 88.758851 
L 215.073491 138.943577 
L 215.381325 130.585301 
L 215.580738 236.141195 
L 215.712611 232.522382 
L 216.07584 53.405792 
L 216.188112 51.010756 
L 216.25348 46.685966 
L 216.774848 215.68146 
L 216.9791 223.905122 
L 217.178069 215.169114 
L 217.301153 192.897339 
L 218.003962 168.850969 
L 218.153658 209.788322 
L 218.336828 180.406906 
L 219.158278 241.307485 
L 219.346879 242.300165 
L 219.492872 241.791066 
L 219.690902 241.609844 
L 219.943489 242.230434 
L 220.260605 237.791943 
L 220.551949 185.489675 
L 220.982571 177.50844 
L 221.163766 59.951954 
L 221.397641 98.132164 
L 221.536376 144.283613 
L 221.83557 144.099341 
L 221.93856 235.435799 
L 222.176681 228.877635 
L 222.526925 176.692083 
L 222.820046 238.954221 
L 222.985442 238.810158 
L 225.142502 54.995483 
L 225.350259 90.942123 
L 225.641603 165.247967 
L 226.032085 55.784725 
L 226.266405 69.533811 
L 227.263668 70.688321 
L 227.393615 155.275386 
L 227.632279 98.334281 
L 227.810117 99.237225 
L 228.04651 103.835677 
L 228.290851 125.918203 
L 228.599673 239.798421 
L 228.776424 239.390329 
L 230.269678 239.27147 
L 230.511008 239.484343 
L 230.642338 239.005258 
L 231.008579 241.959951 
L 231.265313 186.335883 
L 231.40232 211.645043 
L 231.919836 226.251143 
L 232.080246 214.796055 
L 232.350261 171.360411 
L 232.690285 169.2579 
L 233.05702 210.701861 
L 233.284477 189.366921 
L 233.484236 229.016305 
L 233.895059 201.378338 
L 233.977412 239.242385 
L 234.158014 240.032916 
L 234.340641 232.964268 
L 234.581082 204.187268 
L 235.008594 74.614914 
L 235.191863 56.822451 
L 235.379525 73.858782 
L 235.874923 186.179239 
L 236.481062 232.126459 
L 236.708815 179.460661 
L 238.32698 201.416697 
L 238.538243 241.664119 
L 238.742692 188.653835 
L 240.41719 84.520397 
L 240.593399 223.651073 
L 241.321339 101.202725 
L 241.508853 133.590555 
L 241.813429 131.533623 
L 243.290884 239.888944 
L 243.456527 242.454651 
L 243.644091 241.989076 
L 243.760164 240.5359 
L 244.861257 123.215225 
L 245.024974 189.785932 
L 245.318392 188.603132 
L 245.736177 240.44146 
L 245.885971 241.599218 
L 246.070079 219.367259 
L 246.184128 238.686673 
L 246.388874 235.453336 
L 246.550666 237.935035 
L 246.816435 163.23633 
L 246.953837 92.359852 
L 247.210916 117.243181 
L 247.523638 68.369501 
L 247.687701 62.447699 
L 247.778496 204.538128 
L 248.180038 234.777908 
L 248.377674 230.524055 
L 248.546625 211.04329 
L 249.065622 73.012438 
L 249.215071 94.490385 
L 249.501182 212.627876 
L 249.977571 127.163755 
L 250.102137 226.325629 
L 250.414859 166.215451 
L 250.588302 232.557292 
L 250.860539 180.069213 
L 251.036353 227.552183 
L 251.2213 240.007807 
L 251.303109 239.298598 
L 251.522617 234.882217 
L 251.738026 219.586518 
L 251.864172 224.643071 
L 252.213972 199.264642 
L 252.354484 236.342343 
L 252.583916 230.663684 
L 252.754545 232.368356 
L 252.903599 231.970952 
L 253.098026 235.739232 
L 253.199485 231.029174 
L 253.441654 232.903777 
L 253.702733 221.689817 
L 253.812684 232.72866 
L 253.940854 222.297514 
L 254.158535 213.744163 
L 254.283298 190.400691 
L 254.674965 175.368553 
L 254.884055 62.406253 
L 255.435836 57.910936 
L 255.783464 63.232201 
L 256.009291 110.712716 
L 256.227564 126.063859 
L 256.374989 82.078283 
L 256.548038 92.358598 
L 256.748142 193.98686 
L 256.941976 213.067732 
L 257.619458 222.175935 
L 258.375243 240.331301 
L 259.24024 126.629445 
L 259.379074 52.467702 
L 259.553505 53.178958 
L 259.720974 190.291871 
L 260.035622 221.409645 
L 260.434349 202.713286 
L 260.564691 207.377247 
L 260.708462 194.649008 
L 260.948607 211.420021 
L 261.105808 187.334439 
L 261.412407 233.538464 
L 261.602983 236.158043 
L 261.859075 233.494558 
L 262.383701 235.605484 
L 263.149855 240.690319 
L 263.214977 239.528435 
L 263.505283 241.832057 
L 263.644512 240.574804 
L 263.833014 240.765653 
L 265.189755 241.358512 
L 265.363347 122.819106 
L 265.960599 97.314762 
L 266.193388 196.701625 
L 266.374731 209.774534 
L 266.549804 197.244289 
L 266.751192 238.447572 
L 267.386312 201.547442 
L 267.837769 126.555795 
L 268.003165 196.391594 
L 268.252494 77.142668 
L 268.477876 80.037419 
L 268.766505 53.481157 
L 268.942911 90.440749 
L 269.29829 236.805775 
L 269.93815 162.939631 
L 270.075355 81.85492 
L 270.469688 209.056457 
L 270.597265 189.924749 
L 270.958174 217.824332 
L 271.192247 208.855383 
L 271.390919 184.413353 
L 271.653084 183.693217 
L 271.965411 171.711501 
L 272.474139 240.124054 
L 272.738575 240.25378 
L 273.183614 239.426892 
L 273.552126 240.878308 
L 273.916689 44.880648 
L 274.157278 44.717943 
L 274.301444 41.474054 
L 276.127613 129.942935 
L 276.445519 240.434324 
L 278.047095 39.547659 
L 278.549751 230.337937 
L 278.733908 211.543005 
L 278.875309 141.846204 
L 279.21642 162.31842 
L 279.431682 99.436233 
L 279.568096 102.850857 
L 279.756648 102.234024 
L 280.152117 113.298464 
L 280.493474 63.90169 
L 280.726707 61.036215 
L 280.812022 62.064908 
L 281.09986 33.417914 
L 281.251185 42.716044 
L 281.446501 32.73047 
L 281.682943 43.001151 
L 281.895588 70.627203 
L 282.063847 48.324535 
L 282.278615 227.801429 
L 282.432113 233.323324 
L 282.793021 194.103486 
L 283.034105 116.793291 
L 283.262499 118.942128 
L 283.433474 110.832887 
L 283.547869 212.631557 
L 283.736815 235.431967 
L 284.057881 241.029044 
L 284.354458 240.839174 
L 284.514621 239.204736 
L 284.713886 233.626269 
L 284.892563 217.050449 
L 285.029323 162.797426 
L 285.212147 161.98447 
L 285.441579 129.615467 
L 285.678416 53.00312 
L 285.937075 135.912086 
L 286.428474 115.419879 
L 286.580244 143.450904 
L 286.742974 212.814846 
L 287.027899 200.763192 
L 287.546946 124.86227 
L 287.849843 191.855574 
L 288.083125 196.880443 
L 288.254791 97.550323 
L 288.543864 224.952976 
L 288.786823 240.378615 
L 288.888776 68.593602 
L 289.20925 241.62851 
L 290.70122 223.435277 
L 290.951388 231.642169 
L 291.109773 232.103528 
L 291.540395 203.594692 
L 292.298353 58.682152 
L 292.404996 74.239581 
L 292.67906 81.575264 
L 292.872647 47.412389 
L 293.019084 62.460205 
L 293.317488 140.356853 
L 293.437956 220.147823 
L 293.677558 238.765988 
L 294.171178 240.934134 
L 294.416507 237.71025 
L 294.678771 224.408941 
L 294.981125 236.120857 
L 295.151557 236.723746 
L 295.336553 241.443116 
L 295.549297 242.484698 
L 295.740021 242.09766 
L 295.963429 178.239353 
L 296.236653 182.030279 
L 296.547153 163.809646 
L 296.632468 238.819591 
L 296.81707 241.186391 
L 297.057758 240.198293 
L 297.277956 208.212138 
L 297.538344 194.931198 
L 297.79019 146.432409 
L 297.993504 144.717004 
L 298.141175 127.137839 
L 298.290723 79.164656 
L 298.441554 117.764839 
L 298.960996 139.573773 
L 299.310698 226.217916 
L 299.505272 161.362235 
L 300.238939 81.436063 
L 300.917063 233.262503 
L 301.276688 231.425853 
L 301.391182 210.39855 
L 301.55875 205.409287 
L 301.805313 204.831955 
L 301.918918 232.025512 
L 302.10036 234.41758 
L 302.838026 28.005573 
L 303.099253 21.360694 
L 303.411037 68.541463 
L 303.574013 52.307339 
L 303.785078 191.81963 
L 304.063734 240.564564 
L 304.413978 243.020941 
L 304.705519 241.121504 
L 305.035373 242.379982 
L 305.206052 242.390489 
L 305.384433 242.204546 
L 305.684219 243.005613 
L 306.451953 232.275802 
L 306.620064 232.161334 
L 306.942364 231.772312 
L 307.169821 216.31041 
L 307.376393 80.769154 
L 307.597382 50.79771 
L 307.617673 51.847035 
L 307.862608 167.328494 
L 307.926544 137.610455 
L 308.282615 208.301852 
L 308.489681 240.348342 
L 308.66268 230.409149 
L 309.092314 158.619343 
L 309.426217 159.081425 
L 309.598426 221.213621 
L 309.755281 175.461902 
L 309.961162 199.660427 
L 310.147738 57.992742 
L 310.315455 117.908933 
L 310.724649 146.927614 
L 310.91641 97.086548 
L 311.103233 117.643092 
L 311.791478 48.952981 
L 312.037794 76.282787 
L 312.188181 52.862678 
L 312.447285 105.96299 
L 312.674446 234.360335 
L 312.854061 235.525708 
L 313.03017 221.96882 
L 313.202873 227.268691 
L 313.411963 211.022267 
L 313.993762 67.409273 
L 314.267283 68.778167 
L 314.424137 178.699036 
L 314.707878 224.863294 
L 314.917116 218.733055 
L 315.013243 234.514069 
L 315.150645 216.661305 
L 315.411576 224.721991 
L 315.605558 236.534098 
L 315.957975 212.965548 
L 316.438414 129.678216 
L 316.646121 169.842906 
L 316.888982 141.478957 
L 317.067116 90.822021 
L 317.379048 136.134076 
L 317.575252 241.44321 
L 317.675427 241.008648 
L 317.966475 241.620468 
L 318.151817 232.203258 
L 318.320817 239.949316 
L 318.597596 237.314349 
L 318.836211 231.763869 
L 319.029601 234.845754 
L 319.206204 233.724096 
L 319.381228 237.80601 
L 319.542032 235.083654 
L 319.738039 228.068676 
L 320.051057 221.844015 
L 320.254617 237.025854 
L 320.414582 220.453305 
L 320.649395 220.582275 
L 320.919706 186.081153 
L 321.1521 116.785121 
L 321.33448 139.481295 
L 321.676035 228.732687 
L 321.828446 157.66403 
L 322.278521 213.889115 
L 322.425402 187.360602 
L 322.659326 241.284298 
L 322.812034 238.921071 
L 323.033516 238.201475 
L 323.188396 241.199203 
L 323.505018 241.202635 
L 323.73445 241.900629 
L 323.855362 239.268776 
L 324.024658 209.326759 
L 324.352537 234.348492 
L 324.702337 214.272196 
L 325.687208 78.032285 
L 326.142121 237.127209 
L 326.522483 242.258697 
L 326.769885 241.194852 
L 327.057823 229.825744 
L 327.278861 225.666368 
L 327.447762 227.107662 
L 327.667122 207.325961 
L 327.877495 230.423961 
L 328.305007 234.233425 
L 328.439447 233.685264 
L 329.609611 87.683275 
L 329.762615 47.271028 
L 330.033074 135.392136 
L 330.258704 184.888504 
L 330.463153 106.829186 
L 330.612009 211.868698 
L 330.792266 210.886384 
L 331.279172 239.242753 
L 331.677604 222.087761 
L 331.843 223.238287 
L 332.18806 228.291451 
L 332.375822 213.342767 
L 332.548327 240.974149 
L 332.765712 240.805907 
L 332.881834 241.674338 
L 333.041355 240.080966 
L 333.252025 235.306977 
L 333.56529 238.326888 
L 333.824641 234.420825 
L 334.388616 145.723419 
L 334.566602 42.592178 
L 334.854441 50.750715 
L 335.147611 81.628282 
L 335.544364 41.835753 
L 335.945709 29.073133 
L 336.206837 153.254004 
L 336.412718 126.846493 
L 336.783846 112.982101 
L 337.041321 126.849086 
L 337.302449 64.165955 
L 337.813251 59.553297 
L 338.322226 58.325862 
L 338.529737 166.272867 
L 338.68669 53.388965 
L 339.444648 100.25206 
L 339.628065 33.952886 
L 340.002748 26.575464 
L 340.35245 32.243357 
L 340.498393 49.251988 
L 340.683044 108.188879 
L 342.10698 189.889231 
L 349.321651 240.227645 
L 349.742349 237.912419 
L 349.896933 237.799404 
L 350.130857 120.518813 
L 350.311558 227.423539 
L 350.862796 35.735898 
L 351.209387 68.359184 
L 351.437041 118.208943 
L 351.829696 129.246644 
L 352.130519 41.479087 
L 352.500512 52.185857 
L 352.63831 88.040471 
L 352.923827 239.857731 
L 353.012253 239.100978 
L 353.331146 240.223866 
L 353.550555 130.670613 
L 354.094238 107.355626 
L 354.450704 234.923659 
L 354.891299 220.698572 
L 355.188962 140.570122 
L 355.533875 237.632175 
L 355.768342 236.702125 
L 355.999649 239.429168 
L 356.140113 239.036583 
L 356.425186 186.219288 
L 356.543679 202.878947 
L 356.931298 88.85878 
L 357.179392 105.21479 
L 357.318917 147.688019 
L 357.567653 140.894836 
L 357.769288 163.97001 
L 358.147872 239.491948 
L 358.258958 237.829764 
L 359.078878 64.20018 
L 359.246052 188.600455 
L 359.64157 139.699068 
L 359.857029 130.608011 
L 360.218728 33.324677 
L 360.409156 35.394901 
L 360.583636 29.700687 
L 360.850689 67.875655 
L 361.066148 74.270084 
L 361.333102 158.607152 
L 361.690999 124.862466 
L 362.04307 234.258714 
L 362.440021 216.738825 
L 362.875086 52.660046 
L 363.033471 52.22326 
L 363.325556 75.791925 
L 363.52092 183.886607 
L 363.821595 103.651447 
L 364.015133 96.511886 
L 364.550868 217.058946 
L 364.779164 202.773065 
L 365.024937 217.707598 
L 365.357359 135.892883 
L 365.498069 126.838358 
L 365.61355 142.827476 
L 365.825849 116.116581 
L 366.032964 147.044245 
L 366.253657 79.227837 
L 366.499183 47.2993 
L 366.690302 74.135302 
L 366.942247 54.868439 
L 367.001098 107.228414 
L 367.142253 105.9591 
L 367.282173 92.039851 
L 367.493534 40.381666 
L 367.874192 49.539786 
L 368.105647 82.304922 
L 368.34752 32.858462 
L 368.525556 23.815913 
L 368.751136 28.372151 
L 368.894858 28.20861 
L 369.129473 66.113973 
L 369.351597 239.768414 
L 369.747264 211.754051 
L 369.966179 208.842927 
L 370.083734 189.742732 
L 370.22079 194.843715 
L 370.556174 82.567919 
L 370.736875 73.20336 
L 371.032613 42.265847 
L 371.153772 75.614121 
L 371.426255 52.977887 
L 371.970137 31.003793 
L 372.769172 119.23054 
L 372.965327 184.020643 
L 373.214655 164.696433 
L 373.411945 171.413443 
L 373.608297 151.038849 
L 374.033686 217.666229 
L 374.154499 177.067988 
L 374.623631 211.613543 
L 374.871034 182.965741 
L 375.032776 209.834926 
L 375.409682 192.007074 
L 375.564413 226.529865 
L 375.72423 232.667478 
L 376.085732 221.474502 
L 376.242932 229.773186 
L 376.421115 224.690899 
L 376.654891 208.504237 
L 376.846158 209.023571 
L 377.010912 205.058991 
L 377.233234 234.599353 
L 377.525071 215.136313 
L 377.670966 218.457222 
L 377.809059 228.176173 
L 378.162809 177.286841 
L 378.408039 207.225294 
L 378.54238 137.981725 
L 378.755766 127.238806 
L 378.899685 111.539068 
L 379.08167 152.538301 
L 379.23176 160.680924 
L 379.468499 220.433462 
L 380.109248 109.187278 
L 380.221421 193.705182 
L 380.517159 222.282043 
L 380.721608 227.117767 
L 380.920824 235.742257 
L 381.170942 219.824318 
L 381.245938 179.427035 
L 381.783055 171.724062 
L 381.974026 171.75506 
L 382.21348 238.369676 
L 382.441825 232.482844 
L 382.563082 239.503813 
L 382.810781 239.734796 
L 383.036608 237.370675 
L 383.148781 230.748861 
L 383.477055 240.078403 
L 383.750527 234.412394 
L 384.056386 240.780023 
L 384.180507 141.076543 
L 384.48523 104.603854 
L 384.907657 223.391769 
L 385.578671 228.107622 
L 385.718936 147.814359 
L 387.338434 83.476426 
L 387.716673 104.716957 
L 388.142259 232.774366 
L 388.515511 186.608517 
L 388.776244 198.29116 
L 389.488928 68.765704 
L 389.76936 53.482816 
L 389.974204 29.408316 
L 390.112495 72.601318 
L 390.583651 47.761765 
L 390.818761 101.92767 
L 391.241878 120.384826 
L 391.39814 80.361798 
L 391.696199 65.396764 
L 392.061255 55.446363 
L 392.278935 82.450577 
L 392.760114 40.621465 
L 393.287851 55.991805 
L 393.402789 47.284592 
L 393.572381 55.936612 
L 393.708895 33.125697 
L 393.959408 50.271451 
L 394.63921 132.506461 
L 394.821788 82.427854 
L 394.96388 98.563387 
L 395.097382 62.681128 
L 395.203482 83.666846 
L 395.316939 128.744978 
L 395.393416 95.551616 
L 396.206571 209.184157 
L 396.447951 47.04326 
L 396.663015 47.703519 
L 397.111411 86.133873 
L 397.52416 242.194447 
L 397.661217 240.218032 
L 397.787263 201.841528 
L 398.419076 142.366524 
L 398.655321 60.275845 
L 399.094533 28.04076 
L 399.340603 27.173281 
L 399.884731 63.481411 
L 400.143094 195.900847 
L 401.189088 52.337033 
L 401.360557 72.356821 
L 401.701717 242.723221 
L 402.826854 145.131414 
L 403.08739 214.859351 
L 403.591872 203.48446 
L 404.254888 239.494266 
L 404.413026 228.638673 
L 404.647592 132.997261 
L 405.085817 69.209209 
L 405.287847 217.141731 
L 405.462328 241.358419 
L 405.589312 238.265495 
L 405.832074 214.555568 
L 406.400937 239.978621 
L 406.644687 236.63021 
L 407.038922 201.950142 
L 407.350508 89.165621 
L 407.576631 99.616434 
L 407.925049 157.496828 
L 409.295762 146.324067 
L 409.780199 238.058709 
L 409.96648 236.058422 
L 410.110053 241.350124 
L 410.284336 239.333824 
L 411.123412 233.902559 
L 411.396093 214.881362 
L 411.522091 231.52434 
L 411.877766 241.283427 
L 412.600127 242.211897 
L 412.847085 242.310225 
L 413.07543 242.166731 
L 413.49998 242.173714 
L 414.608923 238.037851 
L 415.043642 182.134844 
L 415.481127 46.608705 
L 415.889482 24.795672 
L 416.381079 68.442064 
L 416.561187 94.942673 
L 416.977492 98.796871 
L 417.135087 91.40534 
L 417.284289 143.427957 
L 417.452005 119.202755 
L 417.903215 231.775909 
L 418.181229 221.339651 
L 418.317989 203.724674 
L 418.572057 228.462744 
L 418.893369 198.255171 
L 419.099102 240.345513 
L 420.580557 32.911312 
L 420.987628 102.789182 
L 421.260457 44.227415 
L 421.408178 56.817279 
L 421.605468 91.26165 
L 421.728849 77.828495 
L 422.17448 237.085201 
L 423.184284 173.353319 
L 423.42122 203.35559 
L 423.814073 58.740454 
L 424.19236 54.013201 
L 427.274156 51.315911 
L 427.411065 66.953569 
L 427.627758 38.409321 
L 427.950601 52.506737 
L 430.329045 240.942666 
L 431.622639 241.840041 
L 432.204191 240.764846 
L 432.424044 239.728177 
L 433.527062 129.506128 
L 434.113354 113.655772 
L 434.308817 91.330909 
L 435.800541 132.946369 
L 436.233483 232.254019 
L 436.600021 198.902274 
L 436.676004 200.154346 
L 436.971841 221.770431 
L 437.08905 217.330788 
L 437.33823 228.107465 
L 437.599654 224.199474 
L 437.743721 163.709195 
L 437.940814 178.583312 
L 438.082067 207.758247 
L 438.46707 61.252161 
L 438.920205 159.472665 
L 439.887599 159.753172 
L 440.372481 227.283578 
L 440.813323 216.48855 
L 441.021968 218.091724 
L 441.669926 189.288883 
L 442.011876 147.723325 
L 442.213017 229.10483 
L 442.757392 121.262022 
L 442.983812 224.834971 
L 443.088875 218.510888 
L 443.576571 230.550959 
L 443.750459 240.267712 
L 443.945774 242.373968 
L 444.125883 240.179561 
L 446.263688 134.100189 
L 446.713071 212.293637 
L 447.293636 230.006909 
L 447.82236 233.944309 
L 447.976647 237.430063 
L 448.298898 240.786352 
L 448.765166 242.785184 
L 449.13042 240.635344 
L 449.676473 235.556394 
L 449.809975 242.937186 
L 450.281674 224.361942 
L 450.740389 85.843063 
L 453.341056 202.075813 
L 453.491936 198.883945 
L 453.622031 205.705756 
L 454.292156 232.28377 
L 454.437014 173.300427 
L 455.005976 222.099487 
L 455.263056 92.997862 
L 455.476589 145.208515 
L 455.609498 220.625009 
L 455.809356 220.055905 
L 455.944734 235.428016 
L 456.118375 238.391623 
L 456.278834 235.011896 
L 456.600196 112.807239 
L 456.680277 154.592298 
L 457.079992 229.944847 
L 457.239216 161.369275 
L 457.392368 152.382378 
L 457.71057 84.182928 
L 457.918772 50.318711 
L 458.06279 149.299382 
L 458.283285 141.802611 
L 458.450507 127.078338 
L 458.664239 155.970819 
L 459.08864 100.618332 
L 459.336339 138.08279 
L 459.542072 222.120951 
L 459.759012 223.664307 
L 459.908461 231.964018 
L 460.221972 229.191905 
L 461.747318 241.358058 
L 461.842458 234.530578 
L 462.085022 240.753031 
L 462.214476 239.591008 
L 463.295869 235.877586 
L 463.444429 241.033711 
L 463.899095 239.712182 
L 464.057234 39.760483 
L 464.737776 78.310938 
L 464.936992 240.357268 
L 465.846769 199.009717 
L 466.299954 228.714597 
L 466.495417 220.300329 
L 466.72475 238.653315 
L 467.388555 228.112482 
L 467.514207 211.11868 
L 467.64208 135.633294 
L 467.829052 187.810025 
L 468.008667 203.234509 
L 468.228076 50.218419 
L 468.358664 68.813912 
L 468.528553 212.309296 
L 469.296484 210.205596 
L 469.588075 220.314777 
L 469.757124 210.640026 
L 470.573835 150.212141 
L 470.814572 103.485103 
L 471.183825 105.852493 
L 471.587391 116.050026 
L 471.654883 142.205833 
L 471.852272 126.601452 
L 472.315726 80.459691 
L 473.034631 119.360818 
L 474.823771 233.52886 
L 481.193787 232.171965 
L 481.761021 233.912989 
L 482.289202 65.279228 
L 482.835601 84.727867 
L 482.954834 196.257496 
L 486.176501 48.384425 
L 486.479398 237.257223 
L 486.803475 225.933518 
L 487.14745 59.108287 
L 487.34632 58.431201 
L 487.509543 50.629205 
L 487.660424 64.716193 
L 487.812786 67.447345 
L 488.294261 237.823779 
L 488.855867 236.324492 
L 489.734687 234.589613 
L 491.544415 235.513587 
L 491.797792 235.360888 
L 492.359941 207.284201 
L 492.516549 106.547034 
L 492.778121 38.332241 
L 493.180354 50.484191 
L 494.339064 219.964934 
L 494.974283 219.636782 
L 495.670181 222.254647 
L 495.863225 118.070607 
L 496.001812 123.356392 
L 496.165282 72.08539 
L 496.378915 55.177344 
L 496.558382 70.281843 
L 496.667346 150.790734 
L 496.819707 173.993329 
L 497.057285 238.981929 
L 497.365218 240.558281 
L 497.641701 240.681325 
L 497.866738 241.571174 
L 497.969728 241.180327 
L 498.203405 233.544268 
L 498.452733 214.742426 
L 498.651604 123.749765 
L 498.816407 129.861875 
L 499.024263 89.453266 
L 499.343897 109.671295 
L 499.587498 86.454739 
L 499.674738 52.016892 
L 499.865018 57.851241 
L 500.110939 93.004498 
L 500.254315 141.59719 
L 500.613348 86.629628 
L 501.063176 135.104171 
L 501.454744 215.524432 
L 501.954142 205.870577 
L 502.178142 230.105516 
L 503.463392 222.628486 
L 503.646562 237.416011 
L 503.87466 242.512924 
L 503.990043 239.37752 
L 504.211574 200.925911 
L 504.630199 180.722182 
L 504.912755 180.235167 
L 505.233771 238.005382 
L 505.722306 167.772347 
L 505.994987 202.517161 
L 506.081734 195.469966 
L 506.321978 240.957634 
L 506.503716 240.051038 
L 506.664076 241.302349 
L 506.929203 187.185821 
L 507.11178 113.888921 
L 507.329955 239.006415 
L 507.566743 232.01721 
L 507.858037 227.813432 
L 508.183102 229.891485 
L 508.383996 226.124248 
L 508.615798 238.233602 
L 508.875 239.806564 
L 509.116873 235.046509 
L 509.533424 233.88579 
L 509.850047 229.98512 
L 510.161287 220.062887 
L 510.406271 229.915121 
L 510.520468 225.784262 
L 510.755232 190.991992 
L 511.734623 242.330622 
L 511.933838 241.974302 
L 512.101505 242.543409 
L 514.10808 241.086829 
L 514.345065 241.950155 
L 514.595677 241.159751 
L 514.892896 237.656241 
L 515.214653 200.24444 
L 515.535669 79.046255 
L 515.894702 168.8393 
L 515.997642 234.203249 
L 516.164865 239.234831 
L 516.323053 229.887367 
L 516.514961 167.964844 
L 516.710227 222.89566 
L 516.941683 223.067134 
L 517.136653 194.239516 
L 517.689865 227.734955 
L 520.853619 224.388598 
L 521.125559 222.872007 
L 521.31811 164.939383 
L 521.460202 237.383414 
L 521.928248 232.007828 
L 522.080067 240.693613 
L 522.160148 167.069296 
L 522.963923 242.123629 
L 523.195379 242.226664 
L 523.478922 236.353698 
L 523.750517 239.691157 
L 524.021766 232.37286 
L 524.204344 239.848519 
L 524.277167 239.583309 
L 524.499242 228.0198 
L 524.743831 169.695062 
L 524.907943 164.277911 
L 525.023375 242.893929 
L 525.20299 243.20518 
L 525.668764 243.190021 
L 525.827791 242.246677 
L 526.073762 241.933918 
L 526.24296 242.323966 
L 526.444052 242.444141 
L 526.944831 242.1236 
L 527.178163 241.677967 
L 527.650406 86.60381 
L 528.044937 81.686848 
L 528.291451 56.898025 
L 528.455909 214.621458 
L 528.880754 242.811106 
L 529.031536 242.134774 
L 529.259289 242.441975 
L 529.394222 242.350901 
L 529.515529 242.948978 
L 529.682703 241.958617 
L 529.865823 242.445631 
L 530.158796 240.821685 
L 530.424713 233.882183 
L 530.596182 241.253649 
L 530.941489 235.312723 
L 531.10496 238.810301 
L 531.558392 191.508575 
L 531.794883 206.547695 
L 531.877038 184.259975 
L 532.080056 197.973511 
L 532.387741 105.669992 
L 532.788296 42.034831 
L 533.002669 53.22283 
L 533.369255 116.363713 
L 533.633494 238.783881 
L 533.799186 239.29584 
L 534.154911 239.570326 
L 534.370222 206.443211 
L 536.171804 222.334831 
L 536.576999 160.642545 
L 536.754639 106.416212 
L 536.925516 139.050574 
L 537.103304 134.237368 
L 537.538764 206.367054 
L 537.971559 240.605518 
L 538.205927 240.735241 
L 538.351871 241.617124 
L 538.86287 86.562837 
L 539.154658 109.941848 
L 539.627543 240.993078 
L 539.943918 240.917296 
L 540.172115 234.098707 
L 540.384118 242.223512 
L 540.934763 241.426832 
L 541.298042 239.146383 
L 542.755403 150.5619 
L 543.553895 241.43968 
L 543.726894 235.765993 
L 544.628722 242.719156 
L 544.628722 242.719156 
" clip-path="url(#p27981f346c)" style="fill: none; stroke: #ff0000; stroke-width: 1.5; stroke-linecap: square"/>
   </g>
   <g id="line2d_14">
    <path d="M 63.631358 183.292769 
L 64.601862 222.083701 
L 64.771751 192.85652 
L 65.010119 190.82081 
L 65.381741 192.42536 
L 65.49347 163.37093 
L 65.929276 216.367366 
L 66.261845 233.187334 
L 66.582368 232.77847 
L 66.786225 229.755966 
L 67.382095 237.681806 
L 67.517719 240.70345 
L 67.673685 237.42061 
L 69.088487 237.423304 
L 69.219224 238.873886 
L 69.422883 236.368651 
L 69.787051 238.088729 
L 70.2116 227.414902 
L 70.705862 218.788258 
L 70.907152 219.377088 
L 71.307805 222.136553 
L 71.509637 236.894808 
L 71.769877 240.610669 
L 72.032684 238.532053 
L 72.185934 229.253731 
L 72.371128 230.467416 
L 72.51169 218.546363 
L 72.622431 227.744839 
L 72.80728 213.727131 
L 72.999682 219.035324 
L 73.184827 230.800024 
L 73.350322 228.68674 
L 73.501449 236.574244 
L 73.701208 195.115725 
L 74.024347 89.599256 
L 74.227859 143.193427 
L 74.363039 232.091573 
L 74.715851 232.821629 
L 74.92425 238.306534 
L 75.077155 231.720988 
L 75.394172 224.487072 
L 75.641575 235.058475 
L 75.762684 212.887377 
L 75.927586 238.528346 
L 76.482082 206.281087 
L 76.630889 234.134377 
L 76.852224 233.30886 
L 77.09069 234.897227 
L 77.237621 237.297382 
L 77.418618 233.911179 
L 77.563377 239.203977 
L 77.7895 241.894682 
L 77.898267 241.862843 
L 78.436717 241.886698 
L 78.583253 236.457782 
L 78.978475 214.713 
L 79.125801 61.18767 
L 79.264388 45.730464 
L 80.033504 234.892355 
L 80.286832 163.143657 
L 81.031854 194.238495 
L 81.272937 143.894806 
L 81.72395 226.165826 
L 82.198809 202.989356 
L 82.347517 164.073947 
L 82.502249 25.70726 
L 83.105278 24.647326 
L 83.530716 180.330391 
L 83.74494 217.932692 
L 84.12624 237.627353 
L 84.295141 236.327512 
L 84.631413 236.961801 
L 85.375449 221.750976 
L 85.82182 223.281252 
L 86.131876 35.151714 
L 86.237334 56.315431 
L 86.612265 73.288665 
L 86.796669 238.970935 
L 86.937527 241.449932 
L 87.196532 238.328035 
L 87.409622 238.01792 
L 87.760261 224.294747 
L 87.935136 239.430111 
L 88.244847 237.846213 
L 88.324878 230.754303 
L 88.516985 233.32564 
L 88.818499 222.457236 
L 89.012432 219.939943 
L 89.420837 226.79818 
L 89.604303 222.339961 
L 89.730695 228.736563 
L 89.939637 224.079048 
L 90.068152 214.688012 
L 90.137766 217.930413 
L 90.551553 228.07966 
L 90.722577 221.805059 
L 91.089262 56.756831 
L 91.355426 48.694459 
L 91.593251 122.967772 
L 91.900048 241.200377 
L 92.113039 238.229937 
L 92.510187 240.917391 
L 92.60113 240.998427 
L 92.823945 238.310343 
L 93.050118 237.782901 
L 93.29204 234.460551 
L 93.522114 160.282846 
L 93.707258 154.856515 
L 93.819431 211.516367 
L 94.059182 136.270119 
L 94.313694 119.686466 
L 94.773741 54.468109 
L 94.956566 161.081184 
L 95.054865 94.643332 
L 95.266621 97.231241 
L 95.512197 63.387811 
L 95.731804 91.338103 
L 95.955903 239.708474 
L 96.153144 233.515819 
L 96.390228 230.595395 
L 97.092099 241.509859 
L 97.27517 241.401291 
L 97.351648 240.361921 
L 97.544889 239.337888 
L 97.73897 241.924557 
L 97.971068 236.145999 
L 98.147671 239.772541 
L 98.533217 222.802577 
L 98.777657 241.368093 
L 98.934216 234.52122 
L 99.149773 198.937043 
L 99.270192 113.18978 
L 99.425516 97.983665 
L 99.567806 43.491233 
L 99.756357 46.140915 
L 100.166341 234.960563 
L 100.521178 238.385102 
L 100.763495 232.937334 
L 100.923114 232.856584 
L 101.154224 185.892915 
L 102.387239 240.708699 
L 102.530023 241.408899 
L 102.669103 222.803138 
L 104.945248 221.163447 
L 105.156758 227.18065 
L 105.394928 226.073449 
L 105.878723 236.032296 
L 105.994155 231.502106 
L 106.667786 235.006444 
L 107.222973 240.599702 
L 107.467019 242.069355 
L 107.730911 232.743798 
L 108.068813 138.414997 
L 108.349739 118.765663 
L 108.559521 167.035928 
L 108.719338 158.639418 
L 108.952126 168.284386 
L 109.074865 199.024157 
L 109.389759 145.187903 
L 109.658145 172.976312 
L 109.824874 60.309987 
L 110.004143 22.343911 
L 110.19462 182.960722 
L 110.325999 186.108673 
L 110.52951 235.444635 
L 110.77321 241.773214 
L 110.874521 241.573367 
L 111.026192 241.573766 
L 111.150609 242.436225 
L 111.333532 242.18435 
L 111.690096 240.373872 
L 111.882647 231.720017 
L 112.126791 240.386286 
L 112.348915 240.7828 
L 112.614981 189.908532 
L 112.752531 197.766686 
L 112.869098 184.833716 
L 113.113094 90.463626 
L 113.280514 73.38918 
L 113.437369 127.549941 
L 113.629228 47.572934 
L 113.865572 17.092713 
L 114.075797 29.074959 
L 114.809563 215.612703 
L 115.272474 218.605893 
L 115.644146 233.53145 
L 118.38414 223.975416 
L 118.691332 203.339188 
L 119.780527 227.203876 
L 120.025263 235.03857 
L 122.839068 229.632348 
L 123.206297 231.390298 
L 123.366805 224.955529 
L 123.499566 229.110462 
L 124.967443 233.548385 
L 125.100846 226.776561 
L 125.40478 53.861481 
L 126.137607 217.382732 
L 126.563983 241.590164 
L 126.706076 236.989296 
L 127.241267 189.625927 
L 127.36055 160.577203 
L 127.925266 230.765813 
L 128.076789 228.955665 
L 128.446535 106.259083 
L 131.675904 240.976461 
L 131.779437 226.76887 
L 132.04249 232.076632 
L 132.271379 173.809043 
L 132.467385 22.075268 
L 133.848121 216.493769 
L 134.071479 153.690239 
L 135.332439 238.089779 
L 135.889403 240.33424 
L 136.008439 238.695163 
L 136.195065 239.136927 
L 136.430174 241.226284 
L 136.706805 240.65658 
L 137.054137 231.810929 
L 137.260462 230.155251 
L 137.58686 236.44781 
L 137.832139 239.573599 
L 138.541417 177.048018 
L 138.725525 159.811271 
L 138.919951 224.851831 
L 139.149333 237.278815 
L 139.36894 211.559696 
L 139.511723 215.96878 
L 139.664529 39.767355 
L 140.014527 226.864592 
L 140.253339 184.306795 
L 140.379632 190.675165 
L 140.506222 222.16807 
L 140.816031 124.357634 
L 140.943954 211.443114 
L 141.127469 235.078783 
L 141.335029 238.114348 
L 141.544563 235.594729 
L 141.879651 238.703378 
L 142.074077 118.834713 
L 142.557577 154.962703 
L 142.700113 104.951055 
L 142.868817 232.755658 
L 143.146337 219.606787 
L 143.409835 227.988675 
L 143.636452 184.788785 
L 143.889582 239.040153 
L 144.019825 241.169896 
L 144.607944 242.078417 
L 144.828982 241.871376 
L 144.960064 241.387108 
L 145.312827 237.357707 
L 145.53974 222.465559 
L 145.681289 185.519976 
L 145.947799 216.10257 
L 146.109492 212.706667 
L 146.243241 230.685801 
L 146.94526 109.709159 
L 147.13786 220.205723 
L 147.609806 239.422113 
L 147.839336 238.931989 
L 147.941833 238.110804 
L 148.173338 218.16046 
L 148.368061 178.173335 
L 148.525211 173.735442 
L 148.672488 176.442079 
L 149.088496 240.663411 
L 149.150803 240.484383 
L 149.417461 238.675922 
L 149.865018 154.801051 
L 150.09514 181.268606 
L 150.289666 185.212012 
L 150.490955 193.737744 
L 150.63912 240.112269 
L 150.854875 239.931082 
L 150.974652 238.422803 
L 151.424825 21.045251 
L 151.716811 31.684979 
L 152.056391 230.983065 
L 152.23255 233.594723 
L 152.337416 225.648923 
L 152.591237 231.460616 
L 152.793612 230.721269 
L 153.297799 224.205402 
L 153.504321 209.128135 
L 153.702698 227.729307 
L 154.004459 220.576998 
L 154.282127 230.173081 
L 154.467815 227.57881 
L 154.629557 238.482162 
L 154.748445 238.145523 
L 154.958078 223.173767 
L 155.303879 235.634004 
L 155.574338 234.102241 
L 155.785996 230.216007 
L 156.399343 58.736773 
L 156.60083 109.894797 
L 156.761536 62.184368 
L 156.872573 181.960714 
L 157.232989 32.341404 
L 157.413048 31.651618 
L 157.723647 62.42308 
L 158.048267 218.943145 
L 158.19974 221.181579 
L 158.283475 218.978114 
L 158.488171 217.81444 
L 158.603504 215.55221 
L 158.791759 238.61693 
L 159.398046 219.181769 
L 159.518958 176.168271 
L 159.665988 184.24963 
L 159.901443 222.177397 
L 160.036031 220.8691 
L 160.405728 233.880191 
L 160.775869 235.140009 
L 160.945758 233.602577 
L 161.109228 240.256148 
L 161.816827 231.249658 
L 162.010464 198.510448 
L 162.261964 195.607741 
L 162.345452 145.366871 
L 162.562047 212.38456 
L 162.785949 228.980077 
L 162.980869 234.193121 
L 163.14819 230.148126 
L 163.290283 239.015063 
L 163.554028 220.217268 
L 163.756749 210.404663 
L 164.039107 219.717161 
L 164.25111 204.208991 
L 164.437045 204.524685 
L 164.641494 208.448302 
L 164.909732 161.717312 
L 165.149482 90.156059 
L 165.495085 216.480452 
L 165.677712 224.769464 
L 165.827309 166.56574 
L 166.175776 156.914025 
L 166.307451 119.560077 
L 166.543301 196.1002 
L 167.328216 229.983037 
L 167.92927 237.099522 
L 168.259765 219.318712 
L 168.469547 174.218588 
L 169.015847 229.415255 
L 169.225283 200.71413 
L 169.56669 238.776635 
L 169.743639 239.492435 
L 169.944829 239.01449 
L 170.150809 226.895541 
L 170.600143 209.270121 
L 170.959324 185.461734 
L 171.198087 231.363874 
L 171.8534 239.516671 
L 172.071723 239.889645 
L 172.24645 235.143483 
L 172.429373 220.941928 
L 172.726642 168.33854 
L 173.001643 151.926521 
L 173.346358 206.667256 
L 173.631037 203.204131 
L 173.922627 209.24303 
L 174.359914 160.4719 
L 174.571325 161.58872 
L 174.814334 174.812321 
L 175.186499 104.30337 
L 175.62665 228.086031 
L 175.944704 215.291548 
L 176.195859 228.768714 
L 176.331681 229.563135 
L 176.498904 233.234776 
L 176.741765 229.863788 
L 176.964086 183.48848 
L 177.665316 157.911134 
L 177.85757 198.393069 
L 177.961301 189.949027 
L 178.144767 210.819426 
L 178.272986 166.626495 
L 178.443368 165.904344 
L 178.55722 184.042537 
L 178.713729 159.769155 
L 178.948789 102.421154 
L 178.995346 116.395052 
L 179.338679 202.503614 
L 179.589291 232.624955 
L 179.863601 235.494756 
L 180.322217 54.840195 
L 180.750469 22.129456 
L 180.991651 27.605968 
L 181.552418 113.61781 
L 182.500556 46.87364 
L 182.641661 63.756564 
L 183.103486 87.544018 
L 183.352963 206.017696 
L 183.906965 130.425976 
L 184.065301 206.794921 
L 184.820543 213.336521 
L 185.024301 159.382732 
L 185.235811 197.749946 
L 185.494371 224.307187 
L 185.724593 217.933795 
L 186.561793 38.32555 
L 186.826525 209.017691 
L 187.071903 82.630932 
L 187.446538 72.345836 
L 187.785476 36.45924 
L 187.987852 44.258113 
L 188.285515 36.617875 
L 188.758646 199.265894 
L 188.905231 189.633689 
L 189.063962 235.195773 
L 189.652722 234.377658 
L 189.963716 233.496547 
L 190.329809 212.158824 
L 190.854633 157.888047 
L 191.080707 235.730002 
L 191.619207 226.604789 
L 191.849527 215.687756 
L 192.049878 228.206652 
L 192.746615 222.289526 
L 193.005126 203.044008 
L 193.490502 229.156321 
L 194.483667 207.252872 
L 194.757682 222.763532 
L 195.540671 221.84868 
L 196.492364 67.303126 
L 196.869467 107.399679 
L 197.526114 27.723254 
L 197.653197 30.010511 
L 199.343001 230.357019 
L 200.63067 209.762245 
L 200.857139 219.488609 
L 201.669801 201.835509 
L 202.130145 210.231921 
L 202.965469 58.052577 
L 204.612813 229.349411 
L 204.974018 200.917951 
L 205.112852 172.469704 
L 205.43609 155.428744 
L 205.637577 178.300254 
L 205.725261 136.712446 
L 205.892583 152.413578 
L 206.059954 71.187548 
L 206.551797 58.01396 
L 206.740447 61.228016 
L 206.949735 31.729757 
L 207.200297 72.520558 
L 207.452933 38.491935 
L 207.639461 58.548974 
L 207.961119 241.096973 
L 208.141129 233.814062 
L 208.43741 232.217284 
L 208.724162 228.982465 
L 208.930734 240.307842 
L 209.276881 234.352671 
L 210.678797 204.410066 
L 210.902698 231.060872 
L 211.112085 223.593213 
L 211.462181 237.765245 
L 211.684404 230.847646 
L 211.892754 177.204805 
L 212.214708 172.952564 
L 212.946598 207.877227 
L 213.151096 130.304348 
L 213.398203 112.882465 
L 213.840625 22.23117 
L 213.992592 19.610834 
L 214.358388 122.625535 
L 214.456243 127.101453 
L 214.580216 233.493094 
L 214.73712 237.149071 
L 214.950999 237.564372 
L 215.073491 198.136889 
L 215.381325 209.005409 
L 215.580738 61.190138 
L 215.712611 55.501082 
L 215.918837 215.437834 
L 216.188112 238.372496 
L 216.25348 238.94341 
L 216.774848 225.750912 
L 216.9791 227.923257 
L 217.301153 236.638593 
L 217.496715 235.962198 
L 217.749203 235.643106 
L 218.003962 236.416409 
L 218.153658 222.406245 
L 218.336828 223.416429 
L 219.086936 28.439849 
L 219.158278 30.735276 
L 219.346879 15.225874 
L 219.492872 16.096141 
L 219.690902 19.519743 
L 219.943489 19.280795 
L 220.260605 65.44224 
L 220.551949 228.425365 
L 220.982571 232.383606 
L 221.163766 241.888492 
L 221.397641 240.926409 
L 221.536376 230.690273 
L 221.83557 227.136194 
L 221.93856 140.295958 
L 222.176681 157.563396 
L 222.526925 230.012407 
L 222.820046 232.966423 
L 222.985442 226.825057 
L 225.142502 237.507579 
L 225.350259 226.236933 
L 225.641603 204.176024 
L 225.821613 227.990929 
L 226.032085 240.855938 
L 226.266405 239.471544 
L 227.263668 237.643703 
L 227.393615 200.591787 
L 227.632279 228.404865 
L 227.810117 228.380088 
L 228.04651 236.375737 
L 228.290851 236.945665 
L 228.599673 182.231357 
L 228.776424 181.262758 
L 230.269678 220.128751 
L 230.642338 196.012668 
L 231.008579 57.704484 
L 231.265313 222.945655 
L 231.40232 202.140106 
L 231.919836 205.529584 
L 232.080246 189.351387 
L 232.350261 215.225633 
L 232.690285 216.370916 
L 232.9053 213.694753 
L 233.05702 186.40493 
L 233.284477 225.080799 
L 233.484236 215.388671 
L 233.679896 224.360937 
L 233.895059 225.762418 
L 233.977412 207.832396 
L 234.158014 206.036349 
L 234.581082 235.016077 
L 235.008594 240.468866 
L 235.191863 241.672552 
L 235.379525 239.013647 
L 235.874923 235.310737 
L 236.095813 224.234241 
L 236.481062 174.195481 
L 236.708815 215.511939 
L 238.32698 199.353251 
L 238.538243 127.186144 
L 238.742692 220.508661 
L 240.41719 239.986515 
L 240.593399 223.969678 
L 241.321339 238.969293 
L 241.508853 236.152867 
L 241.813429 218.747711 
L 243.290884 192.755291 
L 243.456527 101.010604 
L 243.760164 170.86368 
L 244.861257 239.08698 
L 245.318392 221.345199 
L 245.542984 185.73786 
L 245.736177 58.359251 
L 245.885971 48.817544 
L 246.070079 230.2474 
L 246.184128 189.118158 
L 246.388874 217.362701 
L 246.550666 192.493981 
L 246.653211 197.557536 
L 246.953837 227.72655 
L 247.210916 223.532408 
L 247.390433 235.990047 
L 247.523638 236.555059 
L 247.687701 237.903038 
L 247.778496 200.941518 
L 248.672227 222.091532 
L 248.928517 235.924767 
L 249.065622 238.49726 
L 249.215071 236.964367 
L 249.501182 187.149658 
L 249.751399 222.926818 
L 249.977571 225.096157 
L 250.102137 126.946491 
L 250.414859 215.303575 
L 250.588302 157.695961 
L 250.720718 230.04692 
L 250.860539 235.3122 
L 251.036353 230.462373 
L 251.2213 221.7426 
L 251.303109 227.970467 
L 251.522617 223.818369 
L 251.738026 232.031597 
L 251.864172 232.565845 
L 252.032629 235.732623 
L 252.213972 234.478708 
L 252.354484 229.174393 
L 252.583916 211.152354 
L 252.903599 107.636453 
L 253.098026 103.622004 
L 253.199485 141.922524 
L 253.579106 186.936409 
L 253.702733 189.655067 
L 253.812684 168.149744 
L 253.940854 202.459288 
L 254.158535 192.844806 
L 254.283298 199.884853 
L 254.674965 211.722224 
L 254.884055 238.36858 
L 255.783464 238.850609 
L 256.009291 234.272914 
L 256.227564 232.760706 
L 256.374989 238.819286 
L 256.548038 236.16048 
L 256.748142 213.228409 
L 256.941976 168.055733 
L 257.619458 216.255184 
L 257.842224 209.107328 
L 258.049092 190.676517 
L 258.204022 147.662347 
L 258.375243 205.189064 
L 259.24024 224.000325 
L 259.379074 239.637759 
L 259.553505 240.062785 
L 259.720974 192.499299 
L 260.035622 192.401193 
L 260.434349 197.359692 
L 260.564691 187.623052 
L 260.708462 202.853006 
L 260.948607 202.68958 
L 261.105808 183.646166 
L 261.602983 208.002675 
L 261.859075 146.547513 
L 263.149855 34.521818 
L 263.214977 57.093395 
L 263.505283 78.358839 
L 263.644512 69.873581 
L 263.833014 111.939189 
L 265.363347 236.592388 
L 265.960599 235.735238 
L 266.374731 208.55264 
L 266.549804 226.041935 
L 266.751192 212.815215 
L 267.386312 233.660651 
L 267.837769 236.950609 
L 268.003165 228.868673 
L 268.252494 236.66952 
L 268.477876 235.284311 
L 268.766505 239.794234 
L 268.942911 238.930645 
L 269.29829 196.580115 
L 269.93815 206.365758 
L 270.075355 234.420798 
L 270.253489 213.070217 
L 270.469688 133.356966 
L 270.597265 154.928855 
L 270.958174 149.799055 
L 271.390919 180.19296 
L 271.653084 156.585282 
L 271.965411 182.43583 
L 272.474139 104.86844 
L 272.895035 184.683342 
L 273.183614 166.547742 
L 273.552126 180.0273 
L 273.916689 238.764758 
L 274.157278 239.026367 
L 274.301444 239.926779 
L 276.127613 184.667456 
L 276.445519 59.648194 
L 278.047095 241.047841 
L 278.733908 194.813365 
L 278.875309 231.679406 
L 279.21642 229.067386 
L 279.431682 239.595526 
L 279.568096 240.490942 
L 279.756648 240.252664 
L 280.152117 239.502706 
L 280.300035 237.733505 
L 280.726707 240.861969 
L 280.812022 240.326239 
L 281.09986 242.184414 
L 281.251185 241.028427 
L 281.446501 240.90861 
L 281.682943 239.875501 
L 281.895588 234.973059 
L 282.063847 241.002359 
L 282.278615 192.918829 
L 283.034105 226.502258 
L 283.262499 223.175966 
L 283.433474 227.171486 
L 283.547869 190.554077 
L 283.736815 204.856558 
L 284.215723 188.532333 
L 284.354458 187.839368 
L 284.514621 201.616478 
L 284.713886 159.214018 
L 285.029323 220.148462 
L 285.212147 213.528196 
L 285.441579 222.279253 
L 285.678416 240.136499 
L 285.937075 227.566315 
L 286.176974 230.670771 
L 286.428474 232.333921 
L 286.580244 229.548901 
L 286.742974 205.900554 
L 287.027899 210.057069 
L 287.308924 228.39229 
L 287.546946 232.093008 
L 287.849843 222.831489 
L 288.083125 210.39907 
L 288.254791 225.048265 
L 288.786823 41.928531 
L 288.888776 235.128631 
L 289.20925 156.182345 
L 290.70122 159.089197 
L 290.951388 219.638785 
L 291.109773 218.841818 
L 291.540395 222.011382 
L 292.123922 239.736857 
L 292.298353 241.469488 
L 292.404996 240.659942 
L 292.67906 241.200341 
L 292.872647 242.24239 
L 293.019084 241.622142 
L 293.162608 239.308779 
L 293.317488 235.014225 
L 293.437956 226.377764 
L 293.677558 168.765678 
L 293.955374 169.006321 
L 294.171178 153.239366 
L 294.416507 124.433069 
L 294.678771 112.110301 
L 294.981125 65.385583 
L 295.151557 67.928324 
L 295.336553 47.17984 
L 295.549297 85.427203 
L 295.740021 84.059801 
L 295.963429 208.439164 
L 296.236653 206.205154 
L 296.547153 212.342629 
L 296.632468 77.664912 
L 296.81707 65.419558 
L 297.057758 71.647447 
L 297.277956 163.66558 
L 297.538344 157.779356 
L 297.663008 223.516602 
L 297.993504 225.120911 
L 298.141175 227.487359 
L 298.290723 239.9549 
L 298.441554 239.902159 
L 298.960996 238.046074 
L 299.179072 230.110482 
L 299.310698 215.287027 
L 299.505272 234.553252 
L 300.238939 240.771512 
L 300.521297 237.192909 
L 300.799953 227.979959 
L 300.917063 200.68271 
L 301.276688 155.05431 
L 301.391182 191.611446 
L 301.55875 194.056202 
L 301.805313 183.870867 
L 301.918918 117.581584 
L 302.10036 135.260317 
L 302.838026 241.258559 
L 303.099253 242.437313 
L 303.411037 240.965347 
L 303.574013 241.250733 
L 303.785078 199.363519 
L 304.063734 49.275659 
L 304.413978 22.393722 
L 304.705519 91.990987 
L 305.035373 37.873485 
L 305.206052 36.856782 
L 305.684219 18.449563 
L 306.451953 149.585877 
L 306.942364 110.493786 
L 307.169821 161.681079 
L 307.376393 238.698694 
L 307.597382 241.102542 
L 307.617673 241.089248 
L 307.862608 216.804277 
L 307.926544 225.083598 
L 308.282615 199.732063 
L 308.489681 88.591935 
L 308.66268 192.768298 
L 308.910033 170.826199 
L 309.092314 205.528831 
L 309.426217 201.258881 
L 309.598426 124.7958 
L 309.755281 215.775879 
L 309.961162 192.719253 
L 310.147738 238.03043 
L 310.315455 236.000518 
L 310.724649 235.711552 
L 310.91641 238.442699 
L 311.103233 235.739608 
L 311.258607 237.168569 
L 311.394182 237.081901 
L 311.593496 239.88062 
L 311.791478 240.983266 
L 312.037794 240.601758 
L 312.188181 241.668781 
L 312.447285 238.331625 
L 312.854061 172.100253 
L 313.03017 220.691116 
L 313.202873 216.601386 
L 313.411963 216.129559 
L 313.678325 224.659778 
L 313.993762 240.159216 
L 314.267283 240.614232 
L 314.424137 176.931527 
L 314.564551 178.466075 
L 314.707878 156.570665 
L 314.917116 164.849129 
L 315.013243 90.98159 
L 315.268743 203.000645 
L 315.605558 122.648189 
L 315.817117 139.025676 
L 316.186469 234.562775 
L 316.438414 236.049384 
L 316.646121 235.844362 
L 316.888982 232.581001 
L 317.067116 233.927824 
L 317.206443 228.169217 
L 317.379048 191.537465 
L 317.675427 28.842493 
L 317.966475 33.952203 
L 318.151817 171.201644 
L 318.320817 126.794618 
L 318.836211 224.507547 
L 319.381228 88.077875 
L 319.738039 159.407853 
L 320.051057 201.044733 
L 320.254617 171.106797 
L 320.414582 172.629147 
L 320.649395 180.927693 
L 321.1521 236.206272 
L 321.33448 237.15973 
L 321.676035 206.749912 
L 321.828446 234.052301 
L 322.278521 176.815391 
L 322.425402 204.300172 
L 322.659326 51.853908 
L 322.812034 151.461561 
L 323.033516 111.842313 
L 323.188396 45.302879 
L 323.505018 52.104581 
L 323.73445 36.046378 
L 323.855362 71.426845 
L 324.024658 218.911795 
L 324.352537 227.262031 
L 324.702337 232.408633 
L 325.687208 239.217358 
L 326.142121 89.810936 
L 326.522483 44.958091 
L 326.769885 52.635063 
L 326.881861 177.300371 
L 327.057823 195.687163 
L 327.278861 167.313598 
L 327.667122 207.497701 
L 327.877495 212.794109 
L 328.305007 209.759962 
L 328.439447 201.656538 
L 328.605139 227.430704 
L 329.609611 238.094286 
L 329.762615 241.842207 
L 330.258704 235.594316 
L 330.463153 239.396928 
L 330.792266 200.101845 
L 330.985952 197.824903 
L 331.126712 124.455542 
L 331.279172 115.49859 
L 331.677604 213.080265 
L 331.843 160.711873 
L 332.18806 95.912214 
L 332.375822 113.090102 
L 332.548327 36.121868 
L 332.765712 42.898615 
L 332.881834 34.270462 
L 333.252025 137.817416 
L 333.56529 148.418402 
L 333.824641 152.966276 
L 334.566602 241.635173 
L 334.854441 241.517574 
L 335.147611 240.15722 
L 335.544364 242.246389 
L 335.945709 242.534699 
L 336.206837 238.248597 
L 336.412718 240.425218 
L 336.783846 240.747035 
L 337.041321 240.147942 
L 337.302449 240.870039 
L 337.813251 238.579777 
L 338.104447 238.174177 
L 338.322226 238.582079 
L 338.529737 187.337401 
L 338.68669 238.069872 
L 339.444648 237.492506 
L 339.628065 242.12982 
L 339.819529 242.209977 
L 340.002748 242.413356 
L 340.35245 242.190753 
L 340.498393 241.607092 
L 340.683044 234.59175 
L 342.10698 223.234483 
L 349.321651 70.927925 
L 349.742349 36.069868 
L 349.896933 36.762903 
L 350.130857 190.204845 
L 350.311558 52.902089 
L 350.862796 241.773391 
L 351.437041 230.14565 
L 351.829696 227.416143 
L 352.130519 241.94182 
L 352.500512 241.085445 
L 352.63831 237.377567 
L 353.012253 77.363201 
L 353.331146 54.277592 
L 353.550555 204.155528 
L 354.094238 235.758193 
L 354.450704 114.87572 
L 354.891299 151.726726 
L 355.188962 238.644441 
L 355.351297 225.062706 
L 355.533875 183.407197 
L 355.768342 218.575419 
L 355.999649 200.528606 
L 356.140113 205.868632 
L 356.279243 226.117117 
L 356.425186 231.155855 
L 356.543679 221.258952 
L 356.931298 239.532074 
L 357.179392 239.614919 
L 357.318917 233.62629 
L 357.567653 235.810755 
L 357.769288 234.672398 
L 357.97902 221.897252 
L 358.147872 223.710222 
L 358.258958 211.045113 
L 359.078878 238.046014 
L 359.246052 181.05839 
L 359.64157 231.777803 
L 359.857029 232.809744 
L 360.218728 242.189761 
L 360.409156 241.94952 
L 360.583636 242.096501 
L 360.850689 240.002978 
L 361.066148 241.43103 
L 361.333102 232.211717 
L 361.690999 236.85763 
L 362.04307 161.101357 
L 362.440021 185.905176 
L 362.875086 241.175148 
L 363.033471 241.102094 
L 363.325556 239.321962 
L 363.52092 223.105383 
L 363.821595 234.929151 
L 364.015133 236.704808 
L 364.226741 235.999389 
L 364.550868 230.399066 
L 364.779164 232.905946 
L 365.024937 218.49258 
L 365.357359 236.635596 
L 365.498069 236.564029 
L 365.61355 236.15088 
L 365.825849 239.699458 
L 366.032964 236.08025 
L 366.253657 239.852016 
L 366.499183 241.429118 
L 366.690302 238.11167 
L 366.942247 239.666114 
L 367.001098 234.977953 
L 367.142253 234.51168 
L 367.282173 235.414488 
L 367.493534 241.264703 
L 367.874192 238.604617 
L 368.105647 231.961269 
L 368.34752 241.062865 
L 368.525556 241.927537 
L 368.751136 241.264687 
L 368.894858 241.567876 
L 369.129473 235.068796 
L 369.351597 76.291152 
L 369.631289 145.170644 
L 369.747264 144.520569 
L 369.966179 145.59183 
L 370.446716 234.306428 
L 370.556174 238.433682 
L 370.736875 238.789023 
L 371.032613 240.938404 
L 371.153772 235.969613 
L 371.426255 236.843462 
L 371.970137 241.699632 
L 372.187324 241.135535 
L 372.383034 239.79368 
L 372.604912 240.389428 
L 373.214655 233.706446 
L 373.411945 223.102537 
L 373.608297 223.089124 
L 374.033686 178.543852 
L 374.154499 227.103908 
L 374.623631 217.873685 
L 374.871034 217.149532 
L 375.032776 222.52245 
L 375.409682 221.256894 
L 375.564413 212.437578 
L 375.72423 186.170822 
L 375.910313 189.246596 
L 376.085732 184.042593 
L 376.242932 166.55235 
L 376.421115 177.639925 
L 376.654891 229.488466 
L 377.233234 213.140197 
L 377.525071 230.081494 
L 377.670966 230.542512 
L 377.809059 226.433998 
L 378.162809 228.834228 
L 378.408039 209.336713 
L 378.54238 226.046175 
L 378.899685 233.313062 
L 379.08167 222.723426 
L 379.23176 231.769698 
L 379.468499 216.035802 
L 379.650829 230.169632 
L 379.861104 231.151717 
L 379.978462 234.82649 
L 380.109248 235.158269 
L 380.221421 205.711075 
L 380.370771 202.176819 
L 380.517159 191.668032 
L 380.721608 214.205147 
L 380.920824 214.029929 
L 381.079209 219.088391 
L 381.170942 217.606504 
L 381.245938 228.798621 
L 381.783055 222.50107 
L 381.974026 212.533607 
L 382.21348 67.517901 
L 382.441825 98.387312 
L 382.563082 61.677376 
L 382.810781 55.441958 
L 383.036608 176.542991 
L 383.148781 165.334053 
L 383.477055 70.500061 
L 383.750527 111.007303 
L 384.056386 41.175424 
L 384.180507 231.767533 
L 384.48523 236.631492 
L 385.578671 174.925459 
L 385.718936 231.796037 
L 387.338434 239.487788 
L 387.716673 237.141369 
L 387.893029 223.199267 
L 388.142259 162.574007 
L 388.373023 224.462412 
L 388.515511 222.547136 
L 388.776244 214.796126 
L 389.111282 218.406413 
L 389.282454 231.784682 
L 389.488928 236.58955 
L 389.76936 238.001561 
L 389.974204 241.950595 
L 390.112495 237.880239 
L 390.583651 238.475414 
L 390.818761 233.833414 
L 391.241878 233.104051 
L 391.39814 240.238523 
L 391.696199 240.8357 
L 392.061255 239.784876 
L 392.278935 231.245155 
L 392.760114 240.775264 
L 393.287851 239.998387 
L 393.402789 240.576084 
L 393.572381 239.033519 
L 393.708895 241.907453 
L 393.959408 240.604685 
L 394.570484 230.493071 
L 394.63921 224.885155 
L 394.821788 235.780692 
L 394.96388 232.583605 
L 395.203482 239.533147 
L 395.316939 237.747067 
L 395.393416 238.61594 
L 395.962575 219.647522 
L 396.206571 178.722603 
L 396.447951 237.196347 
L 396.663015 237.004059 
L 397.111411 216.93248 
L 397.52416 71.184118 
L 397.787263 190.069805 
L 398.655321 239.080256 
L 399.094533 242.203314 
L 399.340603 242.49618 
L 399.884731 240.889588 
L 400.143094 220.832505 
L 400.570606 232.281156 
L 401.189088 234.651674 
L 401.360557 226.504813 
L 401.532766 153.582977 
L 401.701717 14.43857 
L 402.826854 225.71378 
L 403.08739 159.356857 
L 403.591872 160.152477 
L 404.254888 68.693308 
L 404.413026 100.625986 
L 404.647592 210.251246 
L 405.085817 233.31156 
L 405.462328 55.682356 
L 405.832074 212.53574 
L 406.400937 117.080224 
L 407.038922 232.653961 
L 407.350508 238.311869 
L 407.576631 237.124304 
L 407.925049 231.445067 
L 409.295762 220.677952 
L 409.780199 115.496527 
L 409.96648 109.720144 
L 410.284336 67.832703 
L 410.97974 107.010335 
L 411.123412 133.555326 
L 411.396093 224.686933 
L 411.522091 203.035721 
L 411.877766 80.719092 
L 412.600127 25.625106 
L 412.847085 39.059069 
L 413.07543 71.857092 
L 413.49998 81.945119 
L 414.608923 87.691235 
L 415.043642 219.534893 
L 415.481127 241.289272 
L 415.889482 242.172338 
L 416.381079 238.140092 
L 416.561187 231.8419 
L 416.977492 232.164017 
L 417.135087 232.97267 
L 417.452005 215.942944 
L 417.903215 205.394143 
L 418.317989 227.154749 
L 418.500813 220.084353 
L 418.572057 220.197655 
L 418.893369 230.072705 
L 419.099102 220.636979 
L 420.580557 241.478285 
L 420.987628 236.783626 
L 421.260457 240.938514 
L 421.605468 238.271375 
L 421.728849 238.463899 
L 421.948307 226.016683 
L 422.17448 162.924072 
L 422.878623 220.828975 
L 423.184284 222.294621 
L 423.42122 212.068717 
L 423.814073 238.861527 
L 424.19236 239.656689 
L 427.274156 241.732292 
L 427.411065 241.044241 
L 427.627758 241.758784 
L 427.950601 239.536364 
L 430.329045 212.185933 
L 431.622639 32.735433 
L 432.204191 73.979888 
L 432.424044 218.954857 
L 433.527062 238.632631 
L 434.113354 237.60789 
L 434.308817 238.73876 
L 435.800541 231.912835 
L 436.233483 208.766833 
L 436.457632 233.982284 
L 436.676004 229.742551 
L 436.971841 212.713021 
L 437.08905 224.401369 
L 437.33823 173.10848 
L 437.599654 195.274213 
L 437.743721 229.683025 
L 438.082067 217.472869 
L 438.46707 233.141401 
L 438.920205 169.597649 
L 439.887599 237.85603 
L 440.372481 226.234497 
L 440.652864 211.178549 
L 440.813323 192.601365 
L 441.021968 184.018105 
L 441.669926 204.268007 
L 442.011876 225.656171 
L 442.213017 214.730135 
L 442.757392 236.054227 
L 443.088875 230.506706 
L 443.576571 214.778177 
L 443.945774 151.813578 
L 444.125883 175.50774 
L 446.263688 199.720436 
L 446.713071 184.149848 
L 447.293636 211.481843 
L 447.82236 189.366499 
L 447.976647 176.58809 
L 448.298898 164.108667 
L 448.765166 27.549619 
L 449.13042 49.343301 
L 449.676473 114.099667 
L 449.809975 27.744346 
L 450.281674 83.402427 
L 450.740389 234.651864 
L 453.341056 194.244374 
L 453.491936 211.499617 
L 453.622031 180.660346 
L 454.292156 86.724636 
L 454.437014 177.936373 
L 455.005976 102.295894 
L 455.263056 227.341578 
L 455.476589 228.736049 
L 455.609498 210.595317 
L 455.944734 195.916405 
L 456.118375 168.669973 
L 456.600196 238.48578 
L 456.680277 233.981367 
L 457.079992 217.014604 
L 457.239216 234.798651 
L 457.567688 239.481134 
L 457.918772 241.577302 
L 458.06279 234.51107 
L 458.283285 232.775239 
L 458.450507 234.77647 
L 458.664239 230.791578 
L 459.08864 236.718729 
L 459.336339 228.599732 
L 459.542072 159.158825 
L 459.759012 131.98336 
L 459.908461 150.089356 
L 460.221972 129.995213 
L 461.747318 148.634459 
L 461.842458 213.712134 
L 462.085022 197.696256 
L 462.214476 224.306225 
L 463.295869 226.244102 
L 463.899095 219.153296 
L 464.057234 239.399576 
L 464.737776 229.59405 
L 464.936992 61.599724 
L 465.846769 205.10263 
L 466.299954 159.454604 
L 466.495417 123.382224 
L 466.72475 56.645651 
L 467.212396 105.201602 
L 467.388555 202.057655 
L 467.514207 207.734942 
L 467.64208 224.27853 
L 467.829052 215.786478 
L 468.008667 198.820977 
L 468.228076 240.409645 
L 468.358664 238.527414 
L 468.528553 216.192427 
L 469.588075 233.879212 
L 469.757124 225.469098 
L 470.365831 207.333263 
L 470.573835 233.167071 
L 471.183825 238.730692 
L 471.587391 235.376826 
L 471.654883 232.350293 
L 471.852272 234.665212 
L 472.315726 238.252549 
L 473.034631 236.342283 
L 474.823771 86.294766 
L 481.193787 85.181075 
L 481.761021 81.533009 
L 482.289202 225.476311 
L 482.673859 219.673874 
L 482.835601 214.832539 
L 482.954834 180.914797 
L 485.933147 233.187133 
L 486.176501 234.59655 
L 486.479398 211.724768 
L 486.803475 220.882907 
L 487.14745 239.172445 
L 487.34632 239.066852 
L 487.509543 239.417285 
L 487.660424 237.43884 
L 487.812786 237.244984 
L 488.294261 131.10638 
L 488.855867 163.012047 
L 489.734687 231.84691 
L 491.544415 191.351181 
L 491.797792 112.015502 
L 492.147691 150.736532 
L 492.359941 159.744459 
L 492.516549 213.705275 
L 492.778121 238.829057 
L 493.180354 235.880982 
L 494.339064 211.819047 
L 494.974283 227.435999 
L 495.670181 204.15635 
L 495.863225 230.893952 
L 496.001812 233.220873 
L 496.165282 239.416932 
L 496.378915 241.347714 
L 496.558382 240.942097 
L 496.819707 231.815173 
L 497.057285 189.78766 
L 497.365218 202.008304 
L 497.641701 192.763882 
L 497.866738 170.766037 
L 497.969728 197.636644 
L 498.452733 229.853175 
L 498.651604 234.096718 
L 498.816407 229.654409 
L 499.024263 231.088029 
L 499.343897 221.463891 
L 499.674738 240.158434 
L 499.865018 239.345586 
L 500.110939 237.364929 
L 500.254315 238.521274 
L 500.613348 240.505031 
L 501.063176 235.924957 
L 501.454744 219.714387 
L 501.954142 228.341679 
L 502.178142 228.827885 
L 503.463392 185.038593 
L 503.87466 65.315349 
L 503.990043 102.407784 
L 504.211574 211.127103 
L 504.630199 220.231742 
L 504.912755 212.046449 
L 505.233771 85.141789 
L 505.513019 191.543553 
L 505.847168 212.412972 
L 505.994987 191.450647 
L 506.081734 205.18751 
L 506.321978 69.689922 
L 506.664076 27.453468 
L 506.746428 192.42942 
L 507.11178 234.177507 
L 507.329955 200.051817 
L 507.566743 189.752874 
L 507.858037 224.881541 
L 508.183102 186.841112 
L 508.383996 214.865607 
L 508.615798 161.137938 
L 508.875 160.419126 
L 509.116873 182.994676 
L 509.533424 118.865564 
L 509.850047 194.887204 
L 510.161287 218.64452 
L 510.520468 212.414101 
L 510.755232 149.891826 
L 511.734623 24.921852 
L 511.933838 28.057852 
L 512.101505 25.069822 
L 514.10808 126.247267 
L 514.345065 67.668673 
L 514.595677 112.834257 
L 514.892896 195.863851 
L 515.449959 236.54342 
L 515.535669 237.185531 
L 515.894702 201.088041 
L 516.164865 70.450195 
L 516.514961 218.788636 
L 516.710227 214.212783 
L 516.941683 221.379754 
L 517.136653 236.997118 
L 517.689865 234.02495 
L 521.125559 155.299385 
L 521.31811 211.299107 
L 521.460202 48.498365 
L 521.928248 66.443998 
L 522.080067 31.692061 
L 522.160148 229.465417 
L 522.963923 232.042135 
L 523.195379 37.860715 
L 523.478922 124.587033 
L 523.750517 77.619576 
L 524.021766 196.720874 
L 524.277167 122.735432 
L 524.743831 221.541166 
L 524.907943 227.751255 
L 525.023375 25.861587 
L 525.20299 20.09237 
L 525.418004 25.934833 
L 525.668764 21.262243 
L 525.827791 50.332889 
L 526.444052 17.052591 
L 526.944831 19.331512 
L 527.178163 18.156202 
L 527.650406 238.852499 
L 528.044937 238.644509 
L 528.291451 241.143413 
L 528.455909 227.071255 
L 528.880754 22.009578 
L 529.031536 26.244281 
L 529.259289 21.602626 
L 529.394222 35.412034 
L 529.515529 25.053887 
L 529.682703 69.348647 
L 529.865823 40.780155 
L 530.424713 132.755907 
L 530.596182 111.370856 
L 530.745433 227.335557 
L 530.84314 222.935414 
L 530.941489 213.363232 
L 531.10496 165.362952 
L 531.314791 231.079008 
L 531.558392 198.083063 
L 531.877038 220.067162 
L 532.080056 212.69961 
L 532.387741 239.509371 
L 532.788296 241.937543 
L 533.002669 241.532223 
L 533.369255 237.815162 
L 533.799186 184.995878 
L 534.154911 156.477511 
L 534.370222 185.542919 
L 536.171804 198.630574 
L 536.754639 239.273762 
L 536.925516 235.034842 
L 537.103304 236.712251 
L 537.538764 198.981978 
L 537.971559 73.567053 
L 538.205927 96.587446 
L 538.351871 69.424946 
L 538.86287 238.035929 
L 539.154658 235.045707 
L 539.627543 113.966558 
L 539.943918 203.907197 
L 540.172115 229.478197 
L 540.384118 162.706091 
L 540.934763 220.465623 
L 541.298042 216.637379 
L 542.755403 235.376691 
L 543.553895 217.228358 
L 543.726894 209.98528 
L 544.628722 47.563844 
L 544.628722 47.563844 
" clip-path="url(#p27981f346c)" style="fill: none; stroke: #008000; stroke-width: 1.5; stroke-linecap: square"/>
   </g>
   <g id="patch_3">
    <path d="M 39.58149 254.64351 
L 39.58149 3.00024 
" style="fill: none; stroke: #000000; stroke-width: 0.8; stroke-linejoin: miter; stroke-linecap: square"/>
   </g>
   <g id="patch_4">
    <path d="M 568.67859 254.64351 
L 568.67859 3.00024 
" style="fill: none; stroke: #000000; stroke-width: 0.8; stroke-linejoin: miter; stroke-linecap: square"/>
   </g>
   <g id="patch_5">
    <path d="M 39.58149 254.64351 
L 568.67859 254.64351 
" style="fill: none; stroke: #000000; stroke-width: 0.8; stroke-linejoin: miter; stroke-linecap: square"/>
   </g>
   <g id="patch_6">
    <path d="M 39.58149 3.00024 
L 568.67859 3.00024 
" style="fill: none; stroke: #000000; stroke-width: 0.8; stroke-linejoin: miter; stroke-linecap: square"/>
   </g>
   <g id="legend_1">
    <g id="patch_7">
     <path d="M 46.58149 40.35649 
L 97.420552 40.35649 
Q 99.420552 40.35649 99.420552 38.35649 
L 99.420552 10.00024 
Q 99.420552 8.00024 97.420552 8.00024 
L 46.58149 8.00024 
Q 44.58149 8.00024 44.58149 10.00024 
L 44.58149 38.35649 
Q 44.58149 40.35649 46.58149 40.35649 
z
" style="fill: #ffffff; opacity: 0.8; stroke: #cccccc; stroke-linejoin: miter"/>
    </g>
    <g id="line2d_15">
     <path d="M 48.58149 16.098677 
L 58.58149 16.098677 
L 68.58149 16.098677 
" style="fill: none; stroke: #ff0000; stroke-width: 1.5; stroke-linecap: square"/>
    </g>
    <g id="text_15">
     <!-- neg -->
     <g transform="translate(76.58149 19.598677) scale(0.1 -0.1)">
      <defs>
       <path id="DejaVuSans-67" d="M 2906 1791 
Q 2906 2416 2648 2759 
Q 2391 3103 1925 3103 
Q 1463 3103 1205 2759 
Q 947 2416 947 1791 
Q 947 1169 1205 825 
Q 1463 481 1925 481 
Q 2391 481 2648 825 
Q 2906 1169 2906 1791 
z
M 3481 434 
Q 3481 -459 3084 -895 
Q 2688 -1331 1869 -1331 
Q 1566 -1331 1297 -1286 
Q 1028 -1241 775 -1147 
L 775 -588 
Q 1028 -725 1275 -790 
Q 1522 -856 1778 -856 
Q 2344 -856 2625 -561 
Q 2906 -266 2906 331 
L 2906 616 
Q 2728 306 2450 153 
Q 2172 0 1784 0 
Q 1141 0 747 490 
Q 353 981 353 1791 
Q 353 2603 747 3093 
Q 1141 3584 1784 3584 
Q 2172 3584 2450 3431 
Q 2728 3278 2906 2969 
L 2906 3500 
L 3481 3500 
L 3481 434 
z
" transform="scale(0.015625)"/>
      </defs>
      <use xlink:href="#DejaVuSans-6e"/>
      <use xlink:href="#DejaVuSans-65" x="63.378906"/>
      <use xlink:href="#DejaVuSans-67" x="124.902344"/>
     </g>
    </g>
    <g id="line2d_16">
     <path d="M 48.58149 30.776802 
L 58.58149 30.776802 
L 68.58149 30.776802 
" style="fill: none; stroke: #008000; stroke-width: 1.5; stroke-linecap: square"/>
    </g>
    <g id="text_16">
     <!-- pos -->
     <g transform="translate(76.58149 34.276802) scale(0.1 -0.1)">
      <defs>
       <path id="DejaVuSans-70" d="M 1159 525 
L 1159 -1331 
L 581 -1331 
L 581 3500 
L 1159 3500 
L 1159 2969 
Q 1341 3281 1617 3432 
Q 1894 3584 2278 3584 
Q 2916 3584 3314 3078 
Q 3713 2572 3713 1747 
Q 3713 922 3314 415 
Q 2916 -91 2278 -91 
Q 1894 -91 1617 61 
Q 1341 213 1159 525 
z
M 3116 1747 
Q 3116 2381 2855 2742 
Q 2594 3103 2138 3103 
Q 1681 3103 1420 2742 
Q 1159 2381 1159 1747 
Q 1159 1113 1420 752 
Q 1681 391 2138 391 
Q 2594 391 2855 752 
Q 3116 1113 3116 1747 
z
" transform="scale(0.015625)"/>
       <path id="DejaVuSans-6f" d="M 1959 3097 
Q 1497 3097 1228 2736 
Q 959 2375 959 1747 
Q 959 1119 1226 758 
Q 1494 397 1959 397 
Q 2419 397 2687 759 
Q 2956 1122 2956 1747 
Q 2956 2369 2687 2733 
Q 2419 3097 1959 3097 
z
M 1959 3584 
Q 2709 3584 3137 3096 
Q 3566 2609 3566 1747 
Q 3566 888 3137 398 
Q 2709 -91 1959 -91 
Q 1206 -91 779 398 
Q 353 888 353 1747 
Q 353 2609 779 3096 
Q 1206 3584 1959 3584 
z
" transform="scale(0.015625)"/>
      </defs>
      <use xlink:href="#DejaVuSans-70"/>
      <use xlink:href="#DejaVuSans-6f" x="63.476562"/>
      <use xlink:href="#DejaVuSans-73" x="124.658203"/>
     </g>
    </g>
   </g>
  </g>
 </g>
 <defs>
  <clipPath id="p27981f346c">
   <rect x="39.58149" y="3.00024" width="529.0971" height="251.64327"/>
  </clipPath>
 </defs>
</svg>
