<?xml version="1.0" encoding="UTF-8"?>
<!DOCTYPE svg PUBLIC "-//W3C//DTD SVG 1.1//EN" "http://www.w3.org/Graphics/SVG/1.1/DTD/svg11.dtd">
<svg width="160mm" height="90mm" viewBox="0 0 16000 9000" version="1.1" xmlns="http://www.w3.org/2000/svg" xmlns:xlink="http://www.w3.org/1999/xlink" stroke-width="28.222" stroke-linejoin="round" xml:space="preserve">
 <path fill="rgb(255,255,255)" stroke="none" d="M 7988,8977 L -11,8977 -11,-11 15986,-11 15986,8977 7988,8977 Z"/>
 <path fill="none" stroke="rgb(0,0,0)" stroke-linejoin="round" d="M 7988,8977 L -11,8977 -11,-11 15986,-11 15986,8977 7988,8977 Z"/>
 <path fill="none" stroke="rgb(179,179,179)" stroke-linejoin="round" d="M 9090,7174 L 2513,7174 2513,370 15667,370 15667,7174 9090,7174 Z"/>
 <path fill="none" stroke="rgb(179,179,179)" stroke-linejoin="round" d="M 15667,7173 L 2513,7173"/>
 <path fill="none" stroke="rgb(179,179,179)" stroke-linejoin="round" d="M 15667,5471 L 2513,5471"/>
 <path fill="none" stroke="rgb(179,179,179)" stroke-linejoin="round" d="M 15667,3771 L 2513,3771"/>
 <path fill="none" stroke="rgb(179,179,179)" stroke-linejoin="round" d="M 15667,2070 L 2513,2070"/>
 <path fill="none" stroke="rgb(179,179,179)" stroke-linejoin="round" d="M 15667,369 L 2513,369"/>
 <path fill="none" stroke="rgb(179,179,179)" stroke-linejoin="round" d="M 2513,7323 L 2513,7173"/>
 <path fill="none" stroke="rgb(179,179,179)" stroke-linejoin="round" d="M 2513,7323 L 2513,7173"/>
 <path fill="none" stroke="rgb(179,179,179)" stroke-linejoin="round" d="M 4705,7323 L 4705,7173"/>
 <path fill="none" stroke="rgb(179,179,179)" stroke-linejoin="round" d="M 4705,7323 L 4705,7173"/>
 <path fill="none" stroke="rgb(179,179,179)" stroke-linejoin="round" d="M 6898,7323 L 6898,7173"/>
 <path fill="none" stroke="rgb(179,179,179)" stroke-linejoin="round" d="M 6898,7323 L 6898,7173"/>
 <path fill="none" stroke="rgb(179,179,179)" stroke-linejoin="round" d="M 9089,7323 L 9089,7173"/>
 <path fill="none" stroke="rgb(179,179,179)" stroke-linejoin="round" d="M 9089,7323 L 9089,7173"/>
 <path fill="none" stroke="rgb(179,179,179)" stroke-linejoin="round" d="M 11282,7323 L 11282,7173"/>
 <path fill="none" stroke="rgb(179,179,179)" stroke-linejoin="round" d="M 11282,7323 L 11282,7173"/>
 <path fill="none" stroke="rgb(179,179,179)" stroke-linejoin="round" d="M 13474,7323 L 13474,7173"/>
 <path fill="none" stroke="rgb(179,179,179)" stroke-linejoin="round" d="M 13474,7323 L 13474,7173"/>
 <path fill="none" stroke="rgb(179,179,179)" stroke-linejoin="round" d="M 15667,7323 L 15667,7173"/>
 <path fill="none" stroke="rgb(179,179,179)" stroke-linejoin="round" d="M 15667,7323 L 15667,7173"/>
 <path fill="none" stroke="rgb(179,179,179)" stroke-linejoin="round" d="M 2513,7173 L 15667,7173"/>
 <path fill="none" stroke="rgb(179,179,179)" stroke-linejoin="round" d="M 2363,7173 L 2513,7173"/>
 <path fill="none" stroke="rgb(179,179,179)" stroke-linejoin="round" d="M 2363,7173 L 2513,7173"/>
 <path fill="none" stroke="rgb(179,179,179)" stroke-linejoin="round" d="M 2363,5471 L 2513,5471"/>
 <path fill="none" stroke="rgb(179,179,179)" stroke-linejoin="round" d="M 2363,5471 L 2513,5471"/>
 <path fill="none" stroke="rgb(179,179,179)" stroke-linejoin="round" d="M 2363,3771 L 2513,3771"/>
 <path fill="none" stroke="rgb(179,179,179)" stroke-linejoin="round" d="M 2363,3771 L 2513,3771"/>
 <path fill="none" stroke="rgb(179,179,179)" stroke-linejoin="round" d="M 2363,2070 L 2513,2070"/>
 <path fill="none" stroke="rgb(179,179,179)" stroke-linejoin="round" d="M 2363,2070 L 2513,2070"/>
 <path fill="none" stroke="rgb(179,179,179)" stroke-linejoin="round" d="M 2363,369 L 2513,369"/>
 <path fill="none" stroke="rgb(179,179,179)" stroke-linejoin="round" d="M 2363,369 L 2513,369"/>
 <path fill="none" stroke="rgb(179,179,179)" stroke-linejoin="round" d="M 2513,7173 L 2513,369"/>
 <path fill="rgb(230,81,0)" stroke="none" d="M 3061,7173 L 4157,7173 4157,486 3061,486 3061,7173 Z"/>
 <path fill="rgb(230,81,0)" stroke="none" d="M 5253,7173 L 6349,7173 6349,2490 5253,2490 5253,7173 Z"/>
 <path fill="rgb(230,81,0)" stroke="none" d="M 7446,7173 L 8541,7173 8541,4283 7446,4283 7446,7173 Z"/>
 <path fill="rgb(230,81,0)" stroke="none" d="M 9637,7173 L 10733,7173 10733,4889 9637,4889 9637,7173 Z"/>
 <text class="SVGTextShape"><tspan class="TextParagraph" font-family="Liberation Sans, sans-serif" font-size="353px" font-weight="400"><tspan class="TextPosition" x="3514" y="7741"><tspan fill="rgb(0,0,0)" stroke="none" style="white-space: pre">3</tspan></tspan></tspan></text>
 <text class="SVGTextShape"><tspan class="TextParagraph" font-family="Liberation Sans, sans-serif" font-size="353px" font-weight="400"><tspan class="TextPosition" x="5705" y="7741"><tspan fill="rgb(0,0,0)" stroke="none" style="white-space: pre">4</tspan></tspan></tspan></text>
 <text class="SVGTextShape"><tspan class="TextParagraph" font-family="Liberation Sans, sans-serif" font-size="353px" font-weight="400"><tspan class="TextPosition" x="7898" y="7741"><tspan fill="rgb(0,0,0)" stroke="none" style="white-space: pre">5</tspan></tspan></tspan></text>
 <text class="SVGTextShape"><tspan class="TextParagraph" font-family="Liberation Sans, sans-serif" font-size="353px" font-weight="400"><tspan class="TextPosition" x="10090" y="7741"><tspan fill="rgb(0,0,0)" stroke="none" style="white-space: pre">6</tspan></tspan></tspan></text>
 <text class="SVGTextShape"><tspan class="TextParagraph" font-family="Liberation Sans, sans-serif" font-size="353px" font-weight="400"><tspan class="TextPosition" x="12282" y="7741"><tspan fill="rgb(0,0,0)" stroke="none" style="white-space: pre">7</tspan></tspan></tspan></text>
 <text class="SVGTextShape"><tspan class="TextParagraph" font-family="Liberation Sans, sans-serif" font-size="353px" font-weight="400"><tspan class="TextPosition" x="14474" y="7741"><tspan fill="rgb(0,0,0)" stroke="none" style="white-space: pre">8</tspan></tspan></tspan></text>
 <text class="SVGTextShape"><tspan class="TextParagraph" font-family="Liberation Sans, sans-serif" font-size="353px" font-weight="400"><tspan class="TextPosition" x="2072" y="7290"><tspan fill="rgb(0,0,0)" stroke="none" style="white-space: pre">1</tspan></tspan></tspan></text>
 <text class="SVGTextShape"><tspan class="TextParagraph" font-family="Liberation Sans, sans-serif" font-size="353px" font-weight="400"><tspan class="TextPosition" x="1882" y="5589"><tspan fill="rgb(0,0,0)" stroke="none" style="white-space: pre">10</tspan></tspan></tspan></text>
 <text class="SVGTextShape"><tspan class="TextParagraph" font-family="Liberation Sans, sans-serif" font-size="353px" font-weight="400"><tspan class="TextPosition" x="1691" y="3888"><tspan fill="rgb(0,0,0)" stroke="none" style="white-space: pre">100</tspan></tspan></tspan></text>
 <text class="SVGTextShape"><tspan class="TextParagraph" font-family="Liberation Sans, sans-serif" font-size="353px" font-weight="400"><tspan class="TextPosition" x="1501" y="2188"><tspan fill="rgb(0,0,0)" stroke="none" style="white-space: pre">1000</tspan></tspan></tspan></text>
 <text class="SVGTextShape"><tspan class="TextParagraph" font-family="Liberation Sans, sans-serif" font-size="353px" font-weight="400"><tspan class="TextPosition" x="1310" y="487"><tspan fill="rgb(0,0,0)" stroke="none" style="white-space: pre">10000</tspan></tspan></tspan></text>
 <text class="SVGTextShape"><tspan class="TextParagraph" font-family="Liberation Sans, sans-serif" font-size="318px" font-weight="400"><tspan class="TextPosition" x="7906" y="8397"><tspan fill="rgb(0,0,0)" stroke="none" style="white-space: pre">Nb. tags</tspan></tspan></tspan></text>
 <text class="SVGTextShape" transform="rotate(-90 832 4780)"><tspan class="TextParagraph" font-family="Liberation Sans, sans-serif" font-size="318px" font-weight="400"><tspan class="TextPosition" x="832" y="4780"><tspan fill="rgb(0,0,0)" stroke="none" style="white-space: pre">Nb. movies</tspan></tspan></tspan></text>
</svg>