<?xml version="1.0" encoding="UTF-8"?>
<!DOCTYPE svg PUBLIC "-//W3C//DTD SVG 1.1//EN" "http://www.w3.org/Graphics/SVG/1.1/DTD/svg11.dtd">
<svg width="197mm" height="90mm" viewBox="0 0 19700 9000" version="1.1" xmlns="http://www.w3.org/2000/svg" xmlns:xlink="http://www.w3.org/1999/xlink" stroke-width="28.222" stroke-linejoin="round" xml:space="preserve">
 <path fill="rgb(255,255,255)" stroke="none" d="M 9809,8977 L -11,8977 -11,-11 19628,-11 19628,8977 9809,8977 Z"/>
 <path fill="none" stroke="rgb(0,0,0)" stroke-linejoin="round" d="M 9809,8977 L -11,8977 -11,-11 19628,-11 19628,8977 9809,8977 Z"/>
 <path fill="none" stroke="rgb(179,179,179)" stroke-linejoin="round" d="M 10815,5971 L 2395,5971 2395,370 19236,370 19236,5971 10815,5971 Z"/>
 <path fill="none" stroke="rgb(179,179,179)" stroke-linejoin="round" d="M 19236,5970 L 2395,5970"/>
 <path fill="none" stroke="rgb(179,179,179)" stroke-linejoin="round" d="M 19236,5347 L 2395,5347"/>
 <path fill="none" stroke="rgb(179,179,179)" stroke-linejoin="round" d="M 19236,4725 L 2395,4725"/>
 <path fill="none" stroke="rgb(179,179,179)" stroke-linejoin="round" d="M 19236,4103 L 2395,4103"/>
 <path fill="none" stroke="rgb(179,179,179)" stroke-linejoin="round" d="M 19236,3481 L 2395,3481"/>
 <path fill="none" stroke="rgb(179,179,179)" stroke-linejoin="round" d="M 19236,2858 L 2395,2858"/>
 <path fill="none" stroke="rgb(179,179,179)" stroke-linejoin="round" d="M 19236,2236 L 2395,2236"/>
 <path fill="none" stroke="rgb(179,179,179)" stroke-linejoin="round" d="M 19236,1613 L 2395,1613"/>
 <path fill="none" stroke="rgb(179,179,179)" stroke-linejoin="round" d="M 19236,991 L 2395,991"/>
 <path fill="none" stroke="rgb(179,179,179)" stroke-linejoin="round" d="M 19236,369 L 2395,369"/>
 <path fill="none" stroke="rgb(179,179,179)" stroke-linejoin="round" d="M 2395,6120 L 2395,5970"/>
 <path fill="none" stroke="rgb(179,179,179)" stroke-linejoin="round" d="M 2395,6120 L 2395,5970"/>
 <path fill="none" stroke="rgb(179,179,179)" stroke-linejoin="round" d="M 3127,6120 L 3127,5970"/>
 <path fill="none" stroke="rgb(179,179,179)" stroke-linejoin="round" d="M 3127,6120 L 3127,5970"/>
 <path fill="none" stroke="rgb(179,179,179)" stroke-linejoin="round" d="M 3859,6120 L 3859,5970"/>
 <path fill="none" stroke="rgb(179,179,179)" stroke-linejoin="round" d="M 3859,6120 L 3859,5970"/>
 <path fill="none" stroke="rgb(179,179,179)" stroke-linejoin="round" d="M 4591,6120 L 4591,5970"/>
 <path fill="none" stroke="rgb(179,179,179)" stroke-linejoin="round" d="M 4591,6120 L 4591,5970"/>
 <path fill="none" stroke="rgb(179,179,179)" stroke-linejoin="round" d="M 5324,6120 L 5324,5970"/>
 <path fill="none" stroke="rgb(179,179,179)" stroke-linejoin="round" d="M 5324,6120 L 5324,5970"/>
 <path fill="none" stroke="rgb(179,179,179)" stroke-linejoin="round" d="M 6056,6120 L 6056,5970"/>
 <path fill="none" stroke="rgb(179,179,179)" stroke-linejoin="round" d="M 6056,6120 L 6056,5970"/>
 <path fill="none" stroke="rgb(179,179,179)" stroke-linejoin="round" d="M 6788,6120 L 6788,5970"/>
 <path fill="none" stroke="rgb(179,179,179)" stroke-linejoin="round" d="M 6788,6120 L 6788,5970"/>
 <path fill="none" stroke="rgb(179,179,179)" stroke-linejoin="round" d="M 7520,6120 L 7520,5970"/>
 <path fill="none" stroke="rgb(179,179,179)" stroke-linejoin="round" d="M 7520,6120 L 7520,5970"/>
 <path fill="none" stroke="rgb(179,179,179)" stroke-linejoin="round" d="M 8253,6120 L 8253,5970"/>
 <path fill="none" stroke="rgb(179,179,179)" stroke-linejoin="round" d="M 8253,6120 L 8253,5970"/>
 <path fill="none" stroke="rgb(179,179,179)" stroke-linejoin="round" d="M 8985,6120 L 8985,5970"/>
 <path fill="none" stroke="rgb(179,179,179)" stroke-linejoin="round" d="M 8985,6120 L 8985,5970"/>
 <path fill="none" stroke="rgb(179,179,179)" stroke-linejoin="round" d="M 9717,6120 L 9717,5970"/>
 <path fill="none" stroke="rgb(179,179,179)" stroke-linejoin="round" d="M 9717,6120 L 9717,5970"/>
 <path fill="none" stroke="rgb(179,179,179)" stroke-linejoin="round" d="M 10448,6120 L 10448,5970"/>
 <path fill="none" stroke="rgb(179,179,179)" stroke-linejoin="round" d="M 10448,6120 L 10448,5970"/>
 <path fill="none" stroke="rgb(179,179,179)" stroke-linejoin="round" d="M 11181,6120 L 11181,5970"/>
 <path fill="none" stroke="rgb(179,179,179)" stroke-linejoin="round" d="M 11181,6120 L 11181,5970"/>
 <path fill="none" stroke="rgb(179,179,179)" stroke-linejoin="round" d="M 11913,6120 L 11913,5970"/>
 <path fill="none" stroke="rgb(179,179,179)" stroke-linejoin="round" d="M 11913,6120 L 11913,5970"/>
 <path fill="none" stroke="rgb(179,179,179)" stroke-linejoin="round" d="M 12645,6120 L 12645,5970"/>
 <path fill="none" stroke="rgb(179,179,179)" stroke-linejoin="round" d="M 12645,6120 L 12645,5970"/>
 <path fill="none" stroke="rgb(179,179,179)" stroke-linejoin="round" d="M 13377,6120 L 13377,5970"/>
 <path fill="none" stroke="rgb(179,179,179)" stroke-linejoin="round" d="M 13377,6120 L 13377,5970"/>
 <path fill="none" stroke="rgb(179,179,179)" stroke-linejoin="round" d="M 14110,6120 L 14110,5970"/>
 <path fill="none" stroke="rgb(179,179,179)" stroke-linejoin="round" d="M 14110,6120 L 14110,5970"/>
 <path fill="none" stroke="rgb(179,179,179)" stroke-linejoin="round" d="M 14842,6120 L 14842,5970"/>
 <path fill="none" stroke="rgb(179,179,179)" stroke-linejoin="round" d="M 14842,6120 L 14842,5970"/>
 <path fill="none" stroke="rgb(179,179,179)" stroke-linejoin="round" d="M 15574,6120 L 15574,5970"/>
 <path fill="none" stroke="rgb(179,179,179)" stroke-linejoin="round" d="M 15574,6120 L 15574,5970"/>
 <path fill="none" stroke="rgb(179,179,179)" stroke-linejoin="round" d="M 16306,6120 L 16306,5970"/>
 <path fill="none" stroke="rgb(179,179,179)" stroke-linejoin="round" d="M 16306,6120 L 16306,5970"/>
 <path fill="none" stroke="rgb(179,179,179)" stroke-linejoin="round" d="M 17039,6120 L 17039,5970"/>
 <path fill="none" stroke="rgb(179,179,179)" stroke-linejoin="round" d="M 17039,6120 L 17039,5970"/>
 <path fill="none" stroke="rgb(179,179,179)" stroke-linejoin="round" d="M 17771,6120 L 17771,5970"/>
 <path fill="none" stroke="rgb(179,179,179)" stroke-linejoin="round" d="M 17771,6120 L 17771,5970"/>
 <path fill="none" stroke="rgb(179,179,179)" stroke-linejoin="round" d="M 18503,6120 L 18503,5970"/>
 <path fill="none" stroke="rgb(179,179,179)" stroke-linejoin="round" d="M 18503,6120 L 18503,5970"/>
 <path fill="none" stroke="rgb(179,179,179)" stroke-linejoin="round" d="M 19236,6120 L 19236,5970"/>
 <path fill="none" stroke="rgb(179,179,179)" stroke-linejoin="round" d="M 19236,6120 L 19236,5970"/>
 <path fill="none" stroke="rgb(179,179,179)" stroke-linejoin="round" d="M 2395,5970 L 19236,5970"/>
 <path fill="none" stroke="rgb(179,179,179)" stroke-linejoin="round" d="M 2245,5970 L 2395,5970"/>
 <path fill="none" stroke="rgb(179,179,179)" stroke-linejoin="round" d="M 2245,5970 L 2395,5970"/>
 <path fill="none" stroke="rgb(179,179,179)" stroke-linejoin="round" d="M 2245,5347 L 2395,5347"/>
 <path fill="none" stroke="rgb(179,179,179)" stroke-linejoin="round" d="M 2245,5347 L 2395,5347"/>
 <path fill="none" stroke="rgb(179,179,179)" stroke-linejoin="round" d="M 2245,4725 L 2395,4725"/>
 <path fill="none" stroke="rgb(179,179,179)" stroke-linejoin="round" d="M 2245,4725 L 2395,4725"/>
 <path fill="none" stroke="rgb(179,179,179)" stroke-linejoin="round" d="M 2245,4103 L 2395,4103"/>
 <path fill="none" stroke="rgb(179,179,179)" stroke-linejoin="round" d="M 2245,4103 L 2395,4103"/>
 <path fill="none" stroke="rgb(179,179,179)" stroke-linejoin="round" d="M 2245,3481 L 2395,3481"/>
 <path fill="none" stroke="rgb(179,179,179)" stroke-linejoin="round" d="M 2245,3481 L 2395,3481"/>
 <path fill="none" stroke="rgb(179,179,179)" stroke-linejoin="round" d="M 2245,2858 L 2395,2858"/>
 <path fill="none" stroke="rgb(179,179,179)" stroke-linejoin="round" d="M 2245,2858 L 2395,2858"/>
 <path fill="none" stroke="rgb(179,179,179)" stroke-linejoin="round" d="M 2245,2236 L 2395,2236"/>
 <path fill="none" stroke="rgb(179,179,179)" stroke-linejoin="round" d="M 2245,2236 L 2395,2236"/>
 <path fill="none" stroke="rgb(179,179,179)" stroke-linejoin="round" d="M 2245,1613 L 2395,1613"/>
 <path fill="none" stroke="rgb(179,179,179)" stroke-linejoin="round" d="M 2245,1613 L 2395,1613"/>
 <path fill="none" stroke="rgb(179,179,179)" stroke-linejoin="round" d="M 2245,991 L 2395,991"/>
 <path fill="none" stroke="rgb(179,179,179)" stroke-linejoin="round" d="M 2245,991 L 2395,991"/>
 <path fill="none" stroke="rgb(179,179,179)" stroke-linejoin="round" d="M 2245,369 L 2395,369"/>
 <path fill="none" stroke="rgb(179,179,179)" stroke-linejoin="round" d="M 2245,369 L 2395,369"/>
 <path fill="none" stroke="rgb(179,179,179)" stroke-linejoin="round" d="M 2395,5970 L 2395,369"/>
 <path fill="rgb(0,69,134)" stroke="none" d="M 2578,5970 L 2944,5970 2944,647 2578,647 2578,5970 Z"/>
 <path fill="rgb(0,69,134)" stroke="none" d="M 3310,5970 L 3676,5970 3676,947 3310,947 3310,5970 Z"/>
 <path fill="rgb(0,69,134)" stroke="none" d="M 4042,5970 L 4408,5970 4408,1432 4042,1432 4042,5970 Z"/>
 <path fill="rgb(0,69,134)" stroke="none" d="M 4774,5970 L 5140,5970 5140,1470 4774,1470 4774,5970 Z"/>
 <path fill="rgb(0,69,134)" stroke="none" d="M 5507,5970 L 5873,5970 5873,1603 5507,1603 5507,5970 Z"/>
 <path fill="rgb(0,69,134)" stroke="none" d="M 6239,5970 L 6605,5970 6605,3511 6239,3511 6239,5970 Z"/>
 <path fill="rgb(0,69,134)" stroke="none" d="M 6971,5970 L 7337,5970 7337,4168 6971,4168 6971,5970 Z"/>
 <path fill="rgb(0,69,134)" stroke="none" d="M 7703,5970 L 8070,5970 8070,4438 7703,4438 7703,5970 Z"/>
 <path fill="rgb(0,69,134)" stroke="none" d="M 8436,5970 L 8802,5970 8802,5378 8436,5378 8436,5970 Z"/>
 <path fill="rgb(0,69,134)" stroke="none" d="M 9168,5970 L 9534,5970 9534,5419 9168,5419 9168,5970 Z"/>
 <path fill="rgb(0,69,134)" stroke="none" d="M 9899,5970 L 10265,5970 10265,5477 9899,5477 9899,5970 Z"/>
 <path fill="rgb(0,69,134)" stroke="none" d="M 10631,5970 L 10998,5970 10998,5575 10631,5575 10631,5970 Z"/>
 <path fill="rgb(0,69,134)" stroke="none" d="M 11364,5970 L 11730,5970 11730,5717 11364,5717 11364,5970 Z"/>
 <path fill="rgb(0,69,134)" stroke="none" d="M 12096,5970 L 12462,5970 12462,5734 12096,5734 12096,5970 Z"/>
 <path fill="rgb(0,69,134)" stroke="none" d="M 12828,5970 L 13194,5970 13194,5768 12828,5768 12828,5970 Z"/>
 <path fill="rgb(0,69,134)" stroke="none" d="M 13560,5970 L 13927,5970 13927,5791 13560,5791 13560,5970 Z"/>
 <path fill="rgb(0,69,134)" stroke="none" d="M 14293,5970 L 14659,5970 14659,5796 14293,5796 14293,5970 Z"/>
 <path fill="rgb(0,69,134)" stroke="none" d="M 15025,5970 L 15391,5970 15391,5814 15025,5814 15025,5970 Z"/>
 <path fill="rgb(0,69,134)" stroke="none" d="M 15757,5970 L 16123,5970 16123,5820 15757,5820 15757,5970 Z"/>
 <path fill="rgb(0,69,134)" stroke="none" d="M 16490,5970 L 16856,5970 16856,5823 16490,5823 16490,5970 Z"/>
 <path fill="rgb(0,69,134)" stroke="none" d="M 17222,5970 L 17588,5970 17588,5825 17222,5825 17222,5970 Z"/>
 <path fill="rgb(0,69,134)" stroke="none" d="M 17954,5970 L 18320,5970 18320,5838 17954,5838 17954,5970 Z"/>
 <path fill="rgb(0,69,134)" stroke="none" d="M 18686,5970 L 19052,5970 19052,5840 18686,5840 18686,5970 Z"/>
 <text class="SVGTextShape" transform="rotate(-44.9 1945 7342)"><tspan class="TextParagraph" font-family="Liberation Sans, sans-serif" font-size="353px" font-weight="400"><tspan class="TextPosition" x="1945" y="7342"><tspan fill="rgb(0,0,0)" stroke="none" style="white-space: pre">journey </tspan></tspan></tspan></text>
 <text class="SVGTextShape" transform="rotate(-44.9 2826 7192)"><tspan class="TextParagraph" font-family="Liberation Sans, sans-serif" font-size="353px" font-weight="400"><tspan class="TextPosition" x="2826" y="7192"><tspan fill="rgb(0,0,0)" stroke="none" style="white-space: pre">action </tspan></tspan></tspan></text>
 <text class="SVGTextShape" transform="rotate(-44.9 3154 7596)"><tspan class="TextParagraph" font-family="Liberation Sans, sans-serif" font-size="353px" font-weight="400"><tspan class="TextPosition" x="3154" y="7596"><tspan fill="rgb(0,0,0)" stroke="none" style="white-space: pre">suspense </tspan></tspan></tspan></text>
 <text class="SVGTextShape" transform="rotate(-44.9 4050 7432)"><tspan class="TextParagraph" font-family="Liberation Sans, sans-serif" font-size="353px" font-weight="400"><tspan class="TextPosition" x="4050" y="7432"><tspan fill="rgb(0,0,0)" stroke="none" style="white-space: pre">mystery </tspan></tspan></tspan></text>
 <text class="SVGTextShape" transform="rotate(-44.9 4469 7746)"><tspan class="TextParagraph" font-family="Liberation Sans, sans-serif" font-size="353px" font-weight="400"><tspan class="TextPosition" x="4469" y="7746"><tspan fill="rgb(0,0,0)" stroke="none" style="white-space: pre">conspiracy </tspan></tspan></tspan></text>
 <text class="SVGTextShape" transform="rotate(-44.9 5321 7626)"><tspan class="TextParagraph" font-family="Liberation Sans, sans-serif" font-size="353px" font-weight="400"><tspan class="TextPosition" x="5321" y="7626"><tspan fill="rgb(0,0,0)" stroke="none" style="white-space: pre">adventure </tspan></tspan></tspan></text>
 <text class="SVGTextShape" transform="rotate(-44.9 6157 7522)"><tspan class="TextParagraph" font-family="Liberation Sans, sans-serif" font-size="353px" font-weight="400"><tspan class="TextPosition" x="6157" y="7522"><tspan fill="rgb(0,0,0)" stroke="none" style="white-space: pre">business </tspan></tspan></tspan></text>
 <text class="SVGTextShape" transform="rotate(-44.9 7249 7162)"><tspan class="TextParagraph" font-family="Liberation Sans, sans-serif" font-size="353px" font-weight="400"><tspan class="TextPosition" x="7249" y="7162"><tspan fill="rgb(0,0,0)" stroke="none" style="white-space: pre">future </tspan></tspan></tspan></text>
 <text class="SVGTextShape" transform="rotate(-44.9 7756 7388)"><tspan class="TextParagraph" font-family="Liberation Sans, sans-serif" font-size="353px" font-weight="400"><tspan class="TextPosition" x="7756" y="7388"><tspan fill="rgb(0,0,0)" stroke="none" style="white-space: pre">musical </tspan></tspan></tspan></text>
 <text class="SVGTextShape" transform="rotate(-44.9 8728 7148)"><tspan class="TextParagraph" font-family="Liberation Sans, sans-serif" font-size="353px" font-weight="400"><tspan class="TextPosition" x="8728" y="7148"><tspan fill="rgb(0,0,0)" stroke="none" style="white-space: pre">travel </tspan></tspan></tspan></text>
 <text class="SVGTextShape" transform="rotate(-44.9 9416 7192)"><tspan class="TextParagraph" font-family="Liberation Sans, sans-serif" font-size="353px" font-weight="400"><tspan class="TextPosition" x="9416" y="7192"><tspan fill="rgb(0,0,0)" stroke="none" style="white-space: pre">music </tspan></tspan></tspan></text>
 <text class="SVGTextShape" transform="rotate(-44.9 10359 6983)"><tspan class="TextParagraph" font-family="Liberation Sans, sans-serif" font-size="353px" font-weight="400"><tspan class="TextPosition" x="10359" y="6983"><tspan fill="rgb(0,0,0)" stroke="none" style="white-space: pre">epic </tspan></tspan></tspan></text>
 <text class="SVGTextShape" transform="rotate(-44.9 10881 7192)"><tspan class="TextParagraph" font-family="Liberation Sans, sans-serif" font-size="353px" font-weight="400"><tspan class="TextPosition" x="10881" y="7192"><tspan fill="rgb(0,0,0)" stroke="none" style="white-space: pre">family </tspan></tspan></tspan></text>
 <text class="SVGTextShape" transform="rotate(-44.9 10895 7910)"><tspan class="TextParagraph" font-family="Liberation Sans, sans-serif" font-size="353px" font-weight="400"><tspan class="TextPosition" x="10895" y="7910"><tspan fill="rgb(0,0,0)" stroke="none" style="white-space: pre">supernatural </tspan></tspan></tspan></text>
 <text class="SVGTextShape" transform="rotate(-44.9 12492 7044)"><tspan class="TextParagraph" font-family="Liberation Sans, sans-serif" font-size="353px" font-weight="400"><tspan class="TextPosition" x="12492" y="7044"><tspan fill="rgb(0,0,0)" stroke="none" style="white-space: pre">alien </tspan></tspan></tspan></text>
 <text class="SVGTextShape" transform="rotate(-44.9 11535 8735)"><tspan class="TextParagraph" font-family="Liberation Sans, sans-serif" font-size="353px" font-weight="400"><tspan class="TextPosition" x="11535" y="8735"><tspan fill="rgb(0,0,0)" stroke="none" style="white-space: pre">artificial intelligence </tspan></tspan></tspan></text>
 <text class="SVGTextShape" transform="rotate(-44.9 13479 7522)"><tspan class="TextParagraph" font-family="Liberation Sans, sans-serif" font-size="353px" font-weight="400"><tspan class="TextPosition" x="13479" y="7522"><tspan fill="rgb(0,0,0)" stroke="none" style="white-space: pre">assassin </tspan></tspan></tspan></text>
 <text class="SVGTextShape" transform="rotate(-44.9 13643 8090)"><tspan class="TextParagraph" font-family="Liberation Sans, sans-serif" font-size="353px" font-weight="400"><tspan class="TextPosition" x="13643" y="8090"><tspan fill="rgb(0,0,0)" stroke="none" style="white-space: pre">coming of age </tspan></tspan></tspan></text>
 <text class="SVGTextShape" transform="rotate(-44.9 15137 7328)"><tspan class="TextParagraph" font-family="Liberation Sans, sans-serif" font-size="353px" font-weight="400"><tspan class="TextPosition" x="15137" y="7328"><tspan fill="rgb(0,0,0)" stroke="none" style="white-space: pre">cinema </tspan></tspan></tspan></text>
 <text class="SVGTextShape" transform="rotate(-44.9 15706 7492)"><tspan class="TextParagraph" font-family="Liberation Sans, sans-serif" font-size="353px" font-weight="400"><tspan class="TextPosition" x="15706" y="7492"><tspan fill="rgb(0,0,0)" stroke="none" style="white-space: pre">anti hero </tspan></tspan></tspan></text>
 <text class="SVGTextShape" transform="rotate(-44.9 16707 7223)"><tspan class="TextParagraph" font-family="Liberation Sans, sans-serif" font-size="353px" font-weight="400"><tspan class="TextPosition" x="16707" y="7223"><tspan fill="rgb(0,0,0)" stroke="none" style="white-space: pre">drama </tspan></tspan></tspan></text>
 <text class="SVGTextShape" transform="rotate(-44.9 16886 7776)"><tspan class="TextParagraph" font-family="Liberation Sans, sans-serif" font-size="353px" font-weight="400"><tspan class="TextPosition" x="16886" y="7776"><tspan fill="rgb(0,0,0)" stroke="none" style="white-space: pre">paranormal </tspan></tspan></tspan></text>
 <text class="SVGTextShape" transform="rotate(-44.9 17992 7402)"><tspan class="TextParagraph" font-family="Liberation Sans, sans-serif" font-size="353px" font-weight="400"><tspan class="TextPosition" x="17992" y="7402"><tspan fill="rgb(0,0,0)" stroke="none" style="white-space: pre">western </tspan></tspan></tspan></text>
 <text class="SVGTextShape"><tspan class="TextParagraph" font-family="Liberation Sans, sans-serif" font-size="353px" font-weight="400"><tspan class="TextPosition" x="1954" y="6088"><tspan fill="rgb(0,0,0)" stroke="none" style="white-space: pre">0</tspan></tspan></tspan></text>
 <text class="SVGTextShape"><tspan class="TextParagraph" font-family="Liberation Sans, sans-serif" font-size="353px" font-weight="400"><tspan class="TextPosition" x="1573" y="5465"><tspan fill="rgb(0,0,0)" stroke="none" style="white-space: pre">500</tspan></tspan></tspan></text>
 <text class="SVGTextShape"><tspan class="TextParagraph" font-family="Liberation Sans, sans-serif" font-size="353px" font-weight="400"><tspan class="TextPosition" x="1383" y="4843"><tspan fill="rgb(0,0,0)" stroke="none" style="white-space: pre">1000</tspan></tspan></tspan></text>
 <text class="SVGTextShape"><tspan class="TextParagraph" font-family="Liberation Sans, sans-serif" font-size="353px" font-weight="400"><tspan class="TextPosition" x="1383" y="4220"><tspan fill="rgb(0,0,0)" stroke="none" style="white-space: pre">1500</tspan></tspan></tspan></text>
 <text class="SVGTextShape"><tspan class="TextParagraph" font-family="Liberation Sans, sans-serif" font-size="353px" font-weight="400"><tspan class="TextPosition" x="1383" y="3598"><tspan fill="rgb(0,0,0)" stroke="none" style="white-space: pre">2000</tspan></tspan></tspan></text>
 <text class="SVGTextShape"><tspan class="TextParagraph" font-family="Liberation Sans, sans-serif" font-size="353px" font-weight="400"><tspan class="TextPosition" x="1383" y="2975"><tspan fill="rgb(0,0,0)" stroke="none" style="white-space: pre">2500</tspan></tspan></tspan></text>
 <text class="SVGTextShape"><tspan class="TextParagraph" font-family="Liberation Sans, sans-serif" font-size="353px" font-weight="400"><tspan class="TextPosition" x="1383" y="2353"><tspan fill="rgb(0,0,0)" stroke="none" style="white-space: pre">3000</tspan></tspan></tspan></text>
 <text class="SVGTextShape"><tspan class="TextParagraph" font-family="Liberation Sans, sans-serif" font-size="353px" font-weight="400"><tspan class="TextPosition" x="1383" y="1731"><tspan fill="rgb(0,0,0)" stroke="none" style="white-space: pre">3500</tspan></tspan></tspan></text>
 <text class="SVGTextShape"><tspan class="TextParagraph" font-family="Liberation Sans, sans-serif" font-size="353px" font-weight="400"><tspan class="TextPosition" x="1383" y="1109"><tspan fill="rgb(0,0,0)" stroke="none" style="white-space: pre">4000</tspan></tspan></tspan></text>
 <text class="SVGTextShape"><tspan class="TextParagraph" font-family="Liberation Sans, sans-serif" font-size="353px" font-weight="400"><tspan class="TextPosition" x="1383" y="487"><tspan fill="rgb(0,0,0)" stroke="none" style="white-space: pre">4500</tspan></tspan></tspan></text>
 <text class="SVGTextShape" transform="rotate(-90 832 5265)"><tspan class="TextParagraph" font-family="Liberation Sans, sans-serif" font-size="318px" font-weight="400"><tspan class="TextPosition" x="832" y="5265"><tspan fill="rgb(0,0,0)" stroke="none" style="white-space: pre">Nb. movies</tspan></tspan></tspan></text>
</svg>